<svg width="42" height="46" viewBox="0 0 42 46" fill="none" xmlns="http://www.w3.org/2000/svg">
<g filter="url(#filter0_d_2057_30277)">
<mask id="path-1-outside-1_2057_30277" maskUnits="userSpaceOnUse" x="1.70325" y="1.61328" width="39" height="42" fill="black">
<rect fill="white" x="1.70325" y="1.61328" width="39" height="42"/>
<path fill-rule="evenodd" clip-rule="evenodd" d="M29.743 15.4404H28.7908V4.61328L21.3002 14.535L19.8127 13.3297C19.6877 13.2285 19.5042 13.337 19.5327 13.4953L20.0245 16.2248L19.9822 16.2807C15.6492 18.0172 12.589 22.2558 12.589 27.2093V28.9353V30.7416H2.70325C2.70325 37.198 7.93721 42.4319 14.3936 42.4319H25.6132C25.9149 42.4319 26.2113 42.4091 26.5007 42.365L27.0812 42.3681C33.6051 42.4024 38.9119 37.1233 38.9119 30.5994V15.4404L38.9119 4.61328L32.2807 13.3968L29.743 15.4404Z"/>
</mask>
<path fill-rule="evenodd" clip-rule="evenodd" d="M29.743 15.4404H28.7908V4.61328L21.3002 14.535L19.8127 13.3297C19.6877 13.2285 19.5042 13.337 19.5327 13.4953L20.0245 16.2248L19.9822 16.2807C15.6492 18.0172 12.589 22.2558 12.589 27.2093V28.9353V30.7416H2.70325C2.70325 37.198 7.93721 42.4319 14.3936 42.4319H25.6132C25.9149 42.4319 26.2113 42.4091 26.5007 42.365L27.0812 42.3681C33.6051 42.4024 38.9119 37.1233 38.9119 30.5994V15.4404L38.9119 4.61328L32.2807 13.3968L29.743 15.4404Z" fill="#FF630D"/>
<path d="M28.7908 15.4404H27.8059V16.4253H28.7908V15.4404ZM29.743 15.4404V16.4253H30.0902L30.3607 16.2075L29.743 15.4404ZM28.7908 4.61328H29.7756V1.67423L28.0047 4.01987L28.7908 4.61328ZM21.3002 14.535L20.6801 15.3002L21.4721 15.9419L22.0862 15.1284L21.3002 14.535ZM19.8127 13.3297L19.1926 14.0949L19.1926 14.0949L19.8127 13.3297ZM19.5327 13.4953L20.502 13.3206L20.502 13.3206L19.5327 13.4953ZM20.0245 16.2248L20.8105 16.8182L21.0701 16.4742L20.9937 16.0501L20.0245 16.2248ZM19.9822 16.2807L20.3486 17.1949L20.6031 17.0929L20.7682 16.8741L19.9822 16.2807ZM12.589 30.7416V31.7265H13.5739V30.7416H12.589ZM2.70325 30.7416V29.7567H1.71839V30.7416H2.70325ZM26.5007 42.365L26.5059 41.3802L26.4287 41.3798L26.3524 41.3914L26.5007 42.365ZM27.0812 42.3681L27.0864 41.3832L27.0812 42.3681ZM38.9119 15.4404H39.8968H38.9119ZM38.9119 4.61328L39.8968 4.61328V1.67423L38.1259 4.01987L38.9119 4.61328ZM32.2807 13.3968L32.8984 14.1638L32.9933 14.0874L33.0667 13.9902L32.2807 13.3968ZM28.7908 16.4253H29.743V14.4556H28.7908V16.4253ZM27.8059 4.61328V15.4404H29.7756V4.61328H27.8059ZM22.0862 15.1284L29.5768 5.2067L28.0047 4.01987L20.5142 13.9416L22.0862 15.1284ZM19.1926 14.0949L20.6801 15.3002L21.9202 13.7698L20.4327 12.5645L19.1926 14.0949ZM20.502 13.3206C20.6353 14.0608 19.777 14.5684 19.1926 14.0949L20.4327 12.5645C19.5984 11.8885 18.3731 12.6132 18.5635 13.6699L20.502 13.3206ZM20.9937 16.0501L20.502 13.3206L18.5635 13.6699L19.0552 16.3994L20.9937 16.0501ZM20.7682 16.8741L20.8105 16.8182L19.2385 15.6313L19.1962 15.6873L20.7682 16.8741ZM13.5739 27.2093C13.5739 22.6719 16.3764 18.7867 20.3486 17.1949L19.6159 15.3665C14.9221 17.2476 11.6041 21.8398 11.6041 27.2093H13.5739ZM13.5739 28.9353V27.2093H11.6041V28.9353H13.5739ZM13.5739 30.7416V28.9353H11.6041V30.7416H13.5739ZM2.70325 31.7265H12.589V29.7567H2.70325V31.7265ZM14.3936 41.4471C8.48113 41.4471 3.68812 36.6541 3.68812 30.7416H1.71839C1.71839 37.7419 7.39328 43.4168 14.3936 43.4168V41.4471ZM25.6132 41.4471H14.3936V43.4168H25.6132V41.4471ZM26.3524 41.3914C26.1119 41.428 25.8651 41.4471 25.6132 41.4471V43.4168C25.9647 43.4168 26.3107 43.3902 26.649 43.3386L26.3524 41.3914ZM27.0864 41.3832L26.5059 41.3802L26.4955 43.3499L27.0761 43.3529L27.0864 41.3832ZM37.9271 30.5994C37.9271 36.5774 33.0643 41.4146 27.0864 41.3832L27.0761 43.3529C34.1458 43.3901 39.8968 37.6693 39.8968 30.5994H37.9271ZM37.9271 15.4404V30.5994H39.8968V15.4404H37.9271ZM37.9271 4.61328L37.9271 15.4404L39.8968 15.4404L39.8968 4.61328L37.9271 4.61328ZM33.0667 13.9902L39.6979 5.2067L38.1259 4.01987L31.4947 12.8034L33.0667 13.9902ZM30.3607 16.2075L32.8984 14.1638L31.663 12.6297L29.1252 14.6734L30.3607 16.2075Z" fill="white" mask="url(#path-1-outside-1_2057_30277)"/>
</g>
<path fill-rule="evenodd" clip-rule="evenodd" d="M28.7907 15.4404H30.7378L38.9119 4.61328L38.9119 15.4404V30.5994C38.9119 37.1233 33.6051 42.4024 27.0812 42.3681L26.5007 42.365C26.2113 42.4091 25.9149 42.432 25.6132 42.432H14.3936C7.9372 42.432 2.70325 37.198 2.70325 30.7416H12.589V28.9353V27.2093C12.589 22.2558 15.6492 18.0172 19.9822 16.2807L28.7907 4.61328V15.4404Z" fill="#FF630D"/>
<path fill-rule="evenodd" clip-rule="evenodd" d="M28.7907 15.4404H30.7378L38.9119 4.61328L38.9119 15.4404V30.5994C38.9119 37.1233 33.6051 42.4024 27.0812 42.3681L26.5007 42.365C26.2113 42.4091 25.9149 42.432 25.6132 42.432H14.3936C7.9372 42.432 2.70325 37.198 2.70325 30.7416H12.589V28.9353V27.2093C12.589 22.2558 15.6492 18.0172 19.9822 16.2807L28.7907 4.61328V15.4404Z" fill="url(#paint0_linear_2057_30277)"/>
<path fill-rule="evenodd" clip-rule="evenodd" d="M28.7907 15.4404H30.7378L38.9119 4.61328L38.9119 15.4404V30.5994C38.9119 37.1233 33.6051 42.4024 27.0812 42.3681L26.5007 42.365C26.2113 42.4091 25.9149 42.432 25.6132 42.432H14.3936C7.9372 42.432 2.70325 37.198 2.70325 30.7416H12.589V28.9353V27.2093C12.589 22.2558 15.6492 18.0172 19.9822 16.2807L28.7907 4.61328V15.4404Z" fill="url(#paint1_radial_2057_30277)"/>
<path fill-rule="evenodd" clip-rule="evenodd" d="M28.8793 15.4404H30.8265L39.0007 4.61328V28.3078H39.0005V30.5994C39.0005 37.1233 33.6936 42.4024 27.1698 42.3681L26.5894 42.365C26.3 42.4091 26.0037 42.432 25.7019 42.432H14.4824C8.02594 42.432 2.79198 37.198 2.79198 30.7416H12.6775V28.9353V27.2093C12.6775 22.2558 15.7378 18.0172 20.0708 16.2807L28.8793 4.61328V15.4404Z" fill="url(#paint2_radial_2057_30277)"/>
<circle cx="26.2604" cy="28.1711" r="2.8049" fill="white"/>
<mask id="mask0_2057_30277" style="mask-type:alpha" maskUnits="userSpaceOnUse" x="23" y="25" width="7" height="6">
<circle cx="26.2604" cy="28.1711" r="2.8049" fill="white"/>
</mask>
<g mask="url(#mask0_2057_30277)">
<circle cx="26.9666" cy="28.1717" r="2.25569" fill="#191919"/>
</g>
<circle cx="19.1599" cy="28.1711" r="2.8049" fill="white"/>
<mask id="mask1_2057_30277" style="mask-type:alpha" maskUnits="userSpaceOnUse" x="16" y="25" width="6" height="6">
<circle cx="19.1599" cy="28.1711" r="2.8049" fill="white"/>
</mask>
<g mask="url(#mask1_2057_30277)">
<circle cx="19.866" cy="28.1717" r="2.25569" fill="#191919"/>
</g>
<path fill-rule="evenodd" clip-rule="evenodd" d="M7.9598 34.8983C7.9598 35.1366 7.7666 35.3298 7.52828 35.3298C7.28995 35.3298 7.09676 35.1366 7.09676 34.8983C7.09676 34.66 7.28995 34.4668 7.52828 34.4668C7.7666 34.4668 7.9598 34.66 7.9598 34.8983ZM10.1958 34.8984C10.1958 35.1367 10.0026 35.3299 9.76427 35.3299C9.52595 35.3299 9.33275 35.1367 9.33275 34.8984C9.33275 34.6601 9.52595 34.4669 9.76427 34.4669C10.0026 34.4669 10.1958 34.6601 10.1958 34.8984ZM8.62674 36.8998C8.86506 36.8998 9.05826 36.7066 9.05826 36.4683C9.05826 36.23 8.86506 36.0368 8.62674 36.0368C8.38841 36.0368 8.19521 36.23 8.19521 36.4683C8.19521 36.7066 8.38841 36.8998 8.62674 36.8998Z" fill="#191919"/>
<path fill-rule="evenodd" clip-rule="evenodd" d="M20.2779 34.4277L20.2779 38.3113H20.8664L20.8664 34.4277H23.1024V38.3113C23.0894 38.3114 23.0764 38.3114 23.0634 38.3114H18.0417L18.0417 34.4277H20.2779ZM17.4533 34.4277V38.3114H15.904C14.8315 38.3114 13.9622 37.442 13.9622 36.3696C13.9622 35.2971 14.8315 34.4277 15.904 34.4277H17.4533ZM23.6909 38.261C25.5374 37.961 26.9471 36.359 26.9471 34.4277H23.6909V38.261Z" fill="white"/>
<path fill-rule="evenodd" clip-rule="evenodd" d="M25.9403 13.3455C26.0044 13.2182 26.1861 13.2182 26.2502 13.3455L27.912 16.6464C27.9617 16.7451 28.0897 16.7728 28.1757 16.7035L32.367 13.3282C32.492 13.2275 32.675 13.3361 32.6465 13.4941L31.2782 21.0867C31.2766 21.0953 31.2759 21.1039 31.275 21.1126C31.2232 21.6313 28.9231 22.0488 26.0934 22.0488C23.3244 22.0488 21.0625 21.649 20.9182 21.1459C20.9177 21.144 20.916 21.1428 20.914 21.1428C20.912 21.1428 20.9102 21.1413 20.9098 21.1392L19.5328 13.4961C19.5043 13.3379 19.6878 13.2294 19.8127 13.3306L24.003 16.7259C24.089 16.7956 24.2174 16.768 24.2671 16.6691L25.9403 13.3455Z" fill="url(#paint3_linear_2057_30277)"/>
<defs>
<filter id="filter0_d_2057_30277" x="0.142608" y="0.885936" width="41.33" height="44.8947" filterUnits="userSpaceOnUse" color-interpolation-filters="sRGB">
<feFlood flood-opacity="0" result="BackgroundImageFix"/>
<feColorMatrix in="SourceAlpha" type="matrix" values="0 0 0 0 0 0 0 0 0 0 0 0 0 0 0 0 0 0 127 0" result="hardAlpha"/>
<feOffset dy="0.787892"/>
<feGaussianBlur stdDeviation="0.787892"/>
<feComposite in2="hardAlpha" operator="out"/>
<feColorMatrix type="matrix" values="0 0 0 0 0 0 0 0 0 0 0 0 0 0 0 0 0 0 0.25 0"/>
<feBlend mode="normal" in2="BackgroundImageFix" result="effect1_dropShadow_2057_30277"/>
<feBlend mode="normal" in="SourceGraphic" in2="effect1_dropShadow_2057_30277" result="shape"/>
</filter>
<linearGradient id="paint0_linear_2057_30277" x1="20.8076" y1="4.61328" x2="20.8076" y2="42.432" gradientUnits="userSpaceOnUse">
<stop offset="0.19272" stop-color="#191919"/>
<stop offset="0.29133" stop-color="#FF3464" stop-opacity="0"/>
</linearGradient>
<radialGradient id="paint1_radial_2057_30277" cx="0" cy="0" r="1" gradientUnits="userSpaceOnUse" gradientTransform="translate(2.70325 30.8088) rotate(-0.274153) scale(36.2562 34.7157)">
<stop offset="0.152306" stop-color="#191919"/>
<stop offset="0.283418" stop-color="#FF3464" stop-opacity="0"/>
</radialGradient>
<radialGradient id="paint2_radial_2057_30277" cx="0" cy="0" r="1" gradientUnits="userSpaceOnUse" gradientTransform="translate(2.79198 8.51658) rotate(43.0897) scale(49.6461 47.5347)">
<stop offset="0.786999" stop-color="white" stop-opacity="0"/>
<stop offset="1" stop-color="white"/>
</radialGradient>
<linearGradient id="paint3_linear_2057_30277" x1="19.6087" y1="13.3266" x2="32.5355" y2="22.2771" gradientUnits="userSpaceOnUse">
<stop offset="0.683683" stop-color="#FFE353"/>
<stop offset="1" stop-color="white"/>
</linearGradient>
</defs>
</svg>
