<svg width="350" height="190" viewBox="0 0 350 190" fill="none" xmlns="http://www.w3.org/2000/svg">
<rect width="350" height="190" fill="#E2FD52"/>
<path fill-rule="evenodd" clip-rule="evenodd" d="M279.731 54.2585H289.487L330.45 0L330.45 54.2585L330.45 118.739L330.45 130.224C330.45 162.916 303.856 189.371 271.164 189.199L268.2 189.183C266.767 189.399 265.3 189.511 263.807 189.511H207.583C204.508 189.511 201.489 189.274 198.542 188.817L198.54 188.817V188.817C170.479 184.469 149 160.207 149 130.928H198.54V121.885V113.235C198.54 88.4125 213.875 67.1719 235.588 58.4699L279.731 0V54.2585Z" fill="#C5F362"/>
<circle cx="267.051" cy="118.051" r="14.056" fill="#F3FFB3"/>
<mask id="mask0_2790_29352" style="mask-type:alpha" maskUnits="userSpaceOnUse" x="252" y="103" width="30" height="30">
<circle cx="267.051" cy="118.051" r="14.056" fill="#EEFCFE"/>
</mask>
<g mask="url(#mask0_2790_29352)">
<circle cx="270.589" cy="118.051" r="11.3038" fill="#C5F362"/>
</g>
<circle cx="231.468" cy="118.051" r="14.056" fill="#F3FFB3"/>
<mask id="mask1_2790_29352" style="mask-type:alpha" maskUnits="userSpaceOnUse" x="217" y="103" width="29" height="30">
<circle cx="231.468" cy="118.051" r="14.056" fill="#EEFCFE"/>
</mask>
<g mask="url(#mask1_2790_29352)">
<circle cx="235.007" cy="118.051" r="11.3038" fill="#C5F362"/>
</g>
<path fill-rule="evenodd" clip-rule="evenodd" d="M186.548 151.766C186.548 152.96 185.58 153.928 184.386 153.928C183.191 153.928 182.223 152.96 182.223 151.766C182.223 150.572 183.191 149.604 184.386 149.604C185.58 149.604 186.548 150.572 186.548 151.766ZM175.343 151.766C175.343 152.96 174.375 153.928 173.18 153.928C171.986 153.928 171.018 152.96 171.018 151.766C171.018 150.572 171.986 149.604 173.18 149.604C174.375 149.604 175.343 150.572 175.343 151.766ZM178.685 161.792C179.879 161.792 180.847 160.824 180.847 159.63C180.847 158.435 179.879 157.467 178.685 157.467C177.49 157.467 176.522 158.435 176.522 159.63C176.522 160.824 177.49 161.792 178.685 161.792Z" fill="#F3FFB3"/>
<path fill-rule="evenodd" clip-rule="evenodd" d="M222.917 149.407V168.868H225.866L225.866 149.407H237.071V168.868H240.02L240.02 149.407H251.225V168.868C251.16 168.869 251.094 168.869 251.029 168.869H215.152C209.777 168.869 205.421 164.512 205.421 159.138C205.421 153.763 209.777 149.407 215.152 149.407H222.917ZM254.174 168.616C263.427 167.112 270.491 159.085 270.491 149.407H254.174V168.616Z" fill="#F3FFB3"/>
<path d="M149 128.765H162.156C164.336 128.765 166.103 130.532 166.103 132.712C166.103 139.978 160.213 145.868 152.947 145.868H149V128.765Z" fill="#F3FFB3"/>
</svg>
