<svg width="122" height="48" viewBox="0 0 122 48" fill="none" xmlns="http://www.w3.org/2000/svg">
<rect width="122" height="48" rx="24" fill="#F9F9F9"/>
<rect x="12" y="8" width="32" height="32" rx="16" fill="white"/>
<path d="M26.0693 32.126C25.5068 32.126 25.085 31.9238 24.707 31.4756L20.1719 25.9824C19.8555 25.6221 19.7412 25.2969 19.7412 24.9277C19.7412 24.1016 20.3564 23.4951 21.209 23.4951C21.7012 23.4951 22.0527 23.6709 22.3779 24.0576L26.0254 28.584L33.2148 17.2461C33.5664 16.6924 33.9268 16.4814 34.5068 16.4814C35.3506 16.4814 35.9658 17.0791 35.9658 17.9053C35.9658 18.2129 35.8691 18.5381 35.6406 18.8896L27.4492 31.4141C27.1328 31.8975 26.667 32.126 26.0693 32.126Z" fill="#58E4F1"/>
<path d="M64.7248 30.264H62.9488V23.128H61.5728V29.608H59.8288V16.264H61.5728V21.624H62.9488V16.008H64.7248V30.264ZM59.2528 26.072C58.5008 26.296 56.2128 26.488 54.5168 26.488H53.2368V17.672H55.0768V24.936C56.4688 24.936 58.1328 24.824 59.0128 24.568C59.0768 25.08 59.1728 25.56 59.2528 26.072ZM72.5157 24.904H82.4517V30.28H80.5797V26.392H72.5157V24.904ZM78.5317 22.632L78.5797 21.064H80.5797V19.32H78.5797L78.5317 17.752H80.5797V16.008H82.4517V24.168H80.5797V22.632H78.5317ZM70.7877 20.232C70.7877 18.248 72.3717 16.744 74.4357 16.744C76.4837 16.744 78.0997 18.232 78.0997 20.232C78.0997 22.248 76.5157 23.592 74.4357 23.592C72.4037 23.592 70.7877 22.248 70.7877 20.232ZM72.5957 20.216C72.5957 21.336 73.3157 22.136 74.4357 22.136C75.5557 22.136 76.3077 21.304 76.3077 20.216C76.3077 19.16 75.6197 18.296 74.4357 18.296C73.3157 18.296 72.5957 19.192 72.5957 20.216ZM92.6634 19.512H84.3914V18.072H92.6634V19.512ZM86.5514 17.48V16.072H90.7754V17.48H86.5514ZM97.6554 21.272H95.6554V24.104H93.7834V16.008H95.6554V19.736H97.6554V21.272ZM96.0074 30.232H86.2634V26.856H93.7674V26.184H86.2474V24.792H95.6554V28.12H88.1354V28.824H96.0074V30.232ZM92.0394 22.088C92.0394 23.416 90.5994 24.312 88.6634 24.312C86.6954 24.312 85.2394 23.416 85.2394 22.088C85.2394 20.776 86.6794 19.864 88.6634 19.864C90.5994 19.864 92.0394 20.776 92.0394 22.088ZM87.0954 22.088C87.0954 22.632 87.8154 22.968 88.6634 22.968C89.4794 22.968 90.1994 22.632 90.1994 22.088C90.1994 21.576 89.4794 21.224 88.6634 21.224C87.7994 21.224 87.0954 21.576 87.0954 22.088Z" fill="#2F2F2F"/>
</svg>
