<svg width="175" height="175" viewBox="0 0 175 175" fill="none" xmlns="http://www.w3.org/2000/svg">
<rect width="175" height="175" fill="#F9F9F9"/>
<path fill-rule="evenodd" clip-rule="evenodd" d="M113.575 61.6875H119.812L146 27V61.6875H146V116.929C146 134.147 131.994 148.08 114.777 147.989L106.201 147.944C105.286 148.082 104.349 148.153 103.395 148.153H67.4518C65.4871 148.153 63.5578 148.002 61.6748 147.71L61.671 147.71V147.709C43.7317 144.93 30 129.419 30 110.701H61.671V104.92V92.7477C61.671 77.556 72.5774 64.9117 86.9874 62.2175L113.575 27V61.6875Z" fill="#D6D6D6" fill-opacity="0.4"/>
<circle cx="105.469" cy="102.469" r="8.98591" fill="#F9F9F9"/>
<mask id="mask0_2964_14947" style="mask-type:alpha" maskUnits="userSpaceOnUse" x="96" y="93" width="19" height="19">
<circle cx="105.469" cy="102.469" r="8.98591" fill="#EEFCFE"/>
</mask>
<g mask="url(#mask0_2964_14947)">
<circle cx="107.731" cy="102.469" r="7.22643" fill="#D6D6D6" fill-opacity="0.4"/>
</g>
<circle cx="82.7218" cy="102.469" r="8.98591" fill="#F9F9F9"/>
<mask id="mask1_2964_14947" style="mask-type:alpha" maskUnits="userSpaceOnUse" x="73" y="93" width="19" height="19">
<circle cx="82.7218" cy="102.469" r="8.98591" fill="#EEFCFE"/>
</mask>
<g mask="url(#mask1_2964_14947)">
<circle cx="84.9838" cy="102.469" r="7.22643" fill="#D6D6D6" fill-opacity="0.4"/>
</g>
<path fill-rule="evenodd" clip-rule="evenodd" d="M46.8406 124.023C46.8406 124.787 46.2216 125.406 45.4581 125.406C44.6946 125.406 44.0757 124.787 44.0757 124.023C44.0757 123.26 44.6946 122.641 45.4581 122.641C46.2216 122.641 46.8406 123.26 46.8406 124.023ZM54.0047 124.023C54.0047 124.787 53.3857 125.406 52.6222 125.406C51.8587 125.406 51.2398 124.787 51.2398 124.023C51.2398 123.26 51.8587 122.641 52.6222 122.641C53.3857 122.641 54.0047 123.26 54.0047 124.023ZM48.9773 130.433C49.7408 130.433 50.3598 129.814 50.3598 129.051C50.3598 128.287 49.7408 127.668 48.9773 127.668C48.2138 127.668 47.5949 128.287 47.5949 129.051C47.5949 129.814 48.2138 130.433 48.9773 130.433Z" fill="#F9F9F9"/>
<path fill-rule="evenodd" clip-rule="evenodd" d="M77.2547 122.516L77.2547 134.957H78.8077V122.516H86.303V134.957H87.856V122.516H95.3522V134.957H96.9052V122.516H107.668V124.604C107.668 130.322 103.033 134.958 97.3151 134.958H72.2904C68.8546 134.958 66.0693 132.172 66.0693 128.737C66.0693 125.301 68.8546 122.516 72.2904 122.516H77.2547Z" fill="#F9F9F9"/>
<mask id="path-10-inside-1_2964_14947" fill="white">
<path d="M30 109.318H38.4107C39.8042 109.318 40.9339 110.448 40.9339 111.841C40.9339 116.487 37.1683 120.252 32.5232 120.252H30V109.318Z"/>
</mask>
<path d="M30 109.318H38.4107C39.8042 109.318 40.9339 110.448 40.9339 111.841C40.9339 116.487 37.1683 120.252 32.5232 120.252H30V109.318Z" fill="#EBEBEB"/>
<path d="M30 109.318H40.9339H30ZM41.9558 112.584C41.9558 117.383 38.0652 121.274 33.266 121.274H30V119.23H32.5232C36.6039 119.23 39.912 115.922 39.912 111.841L41.9558 112.584ZM30 120.252V109.318V120.252ZM38.6899 109.318C40.4936 109.318 41.9558 110.78 41.9558 112.584C41.9558 117.383 38.0652 121.274 33.266 121.274L32.5232 119.23C36.6039 119.23 39.912 115.922 39.912 111.841V111.841C39.912 110.448 39.2398 109.318 38.4107 109.318H38.6899Z" fill="#F9F9F9" mask="url(#path-10-inside-1_2964_14947)"/>
</svg>
