<svg width="48" height="48" viewBox="0 0 48 48" fill="none" xmlns="http://www.w3.org/2000/svg">
<rect width="48" height="48" rx="24" fill="white"/>
<path d="M23.8564 33.04C23.6543 33.04 23.4697 33.0312 23.2764 33.0137L22.8018 33.9102C22.6699 34.1826 22.3887 34.332 22.0723 34.2881C21.7646 34.2266 21.5449 33.9893 21.501 33.6816L21.3604 32.6797C20.9912 32.583 20.6309 32.4336 20.2793 32.293L19.541 32.9609C19.3125 33.1719 18.9961 33.2158 18.7148 33.0576C18.4336 32.8994 18.3193 32.6006 18.3809 32.3018L18.6006 31.3086C18.293 31.0889 17.9854 30.8428 17.7041 30.5703L16.79 30.957C16.4824 31.0889 16.1924 31.0098 15.9727 30.7549C15.7793 30.5264 15.7529 30.21 15.9111 29.9463L16.4561 29.0762C16.2451 28.7686 16.0605 28.4346 15.8936 28.083L14.8828 28.1357C14.5664 28.1533 14.2852 27.9688 14.1885 27.6699C14.0918 27.3799 14.1885 27.0723 14.4346 26.8789L15.2256 26.2549C15.1289 25.8945 15.0498 25.5078 15.0234 25.1211L14.0654 24.8135C13.7578 24.708 13.5732 24.4707 13.5732 24.1543C13.5732 23.8379 13.7578 23.5918 14.0654 23.4951L15.0234 23.1787C15.0498 22.792 15.1289 22.4229 15.2256 22.0537L14.4258 21.4209C14.1885 21.2363 14.0918 20.9375 14.1885 20.6475C14.2939 20.3486 14.5664 20.1729 14.874 20.1816L15.8936 20.2168C16.0605 19.8652 16.2451 19.54 16.4561 19.2236L15.9199 18.3623C15.7529 18.1074 15.7793 17.791 15.9727 17.5625C16.1924 17.3076 16.4824 17.2285 16.7812 17.3516L17.7129 17.7295C17.9854 17.4746 18.293 17.2197 18.6006 17L18.3809 16.0156C18.3105 15.6992 18.4424 15.4092 18.7061 15.2598C18.9961 15.1016 19.3125 15.1367 19.541 15.3564L20.2793 16.0156C20.6309 15.8662 20.9912 15.7344 21.3604 15.6289L21.501 14.6357C21.5449 14.3281 21.7646 14.0908 22.0635 14.0381C22.3887 13.9854 22.6699 14.1348 22.8018 14.3984L23.2764 15.2949C23.4785 15.2773 23.6543 15.2773 23.8564 15.2773C24.0498 15.2773 24.2256 15.2773 24.4277 15.2949L24.9023 14.3896C25.0342 14.1348 25.3154 13.9854 25.6318 14.0293C25.9395 14.0908 26.1592 14.3281 26.2031 14.6357L26.3438 15.6289C26.7129 15.7344 27.0732 15.8662 27.4248 16.0156L28.1631 15.3564C28.3916 15.1367 28.708 15.1016 28.9893 15.2598C29.2617 15.4092 29.3936 15.6992 29.3232 16.0156L29.1123 17C29.4111 17.2197 29.7188 17.4746 29.9912 17.7295L30.9141 17.3516C31.2217 17.2285 31.5117 17.3076 31.7314 17.5625C31.9248 17.791 31.9512 18.1074 31.7842 18.3623L31.248 19.2236C31.459 19.54 31.6436 19.8652 31.8105 20.2168L32.8301 20.1816C33.1377 20.1729 33.4189 20.3486 33.5156 20.6475C33.6123 20.9375 33.5156 21.2363 33.2695 21.4209L32.4785 22.0449C32.5752 22.4229 32.6543 22.792 32.6895 23.1787L33.6387 23.4951C33.9463 23.5918 34.1309 23.8379 34.1309 24.1543C34.1309 24.4619 33.9463 24.708 33.6387 24.8135L32.6895 25.1211C32.6543 25.5078 32.5752 25.8945 32.4785 26.2549L33.2783 26.8789C33.5156 27.0635 33.6123 27.3887 33.5156 27.6699C33.4189 27.9688 33.1377 28.1533 32.8301 28.1357L31.8105 28.083C31.6436 28.4346 31.459 28.7686 31.248 29.0762L31.7842 29.9463C31.9512 30.21 31.9248 30.5264 31.7314 30.7549C31.5117 31.0098 31.2129 31.0889 30.9229 30.9658L30 30.5703C29.7188 30.8428 29.4111 31.0889 29.1123 31.3086L29.3232 32.3018C29.3848 32.6006 29.2705 32.8994 29.0068 33.0576C28.708 33.2158 28.4004 33.1719 28.1631 32.9609L27.4248 32.293C27.0732 32.4336 26.7129 32.583 26.3438 32.6797L26.2031 33.6816C26.1592 33.9893 25.9395 34.2266 25.6406 34.2793C25.3154 34.332 25.0254 34.1826 24.9023 33.9014L24.4277 33.0137C24.2256 33.0312 24.0498 33.04 23.8564 33.04ZM23.8477 21.4473C25.0254 21.4473 26.0273 22.2031 26.3965 23.249H30.5889C30.1494 19.8916 27.3457 17.3252 23.8564 17.3252C22.9072 17.3252 22.0107 17.5098 21.1934 17.8613L23.3115 21.5C23.4873 21.4648 23.6631 21.4473 23.8477 21.4473ZM17.0713 24.1543C17.0713 26.3252 18.0557 28.25 19.6025 29.498L21.7734 25.9209C21.3779 25.4463 21.1318 24.8311 21.1318 24.1631C21.1318 23.4863 21.3779 22.8623 21.791 22.3877L19.6816 18.749C18.082 19.9971 17.0713 21.9482 17.0713 24.1543ZM23.8477 25.2178C24.4365 25.2178 24.9023 24.7607 24.9023 24.1631C24.9023 23.5654 24.4365 23.1084 23.8477 23.1084C23.25 23.1084 22.793 23.5654 22.793 24.1631C22.793 24.7607 23.25 25.2178 23.8477 25.2178ZM23.8564 30.9922C27.3545 30.9922 30.1758 28.3994 30.5889 25.0244H26.4141C26.0537 26.1055 25.043 26.8701 23.8477 26.8701C23.6543 26.8701 23.4697 26.8525 23.2852 26.8174L21.0967 30.4121C21.9404 30.7812 22.8721 30.9922 23.8564 30.9922Z" fill="#58E4F1"/>
</svg>
