<svg width="40" height="40" viewBox="0 0 40 40" fill="none" xmlns="http://www.w3.org/2000/svg">
<rect width="40" height="40" rx="20" fill="#F3F3F3"/>
<path d="M19.8564 29.04C19.6543 29.04 19.4697 29.0312 19.2764 29.0137L18.8018 29.9102C18.6699 30.1826 18.3887 30.332 18.0723 30.2881C17.7646 30.2266 17.5449 29.9893 17.501 29.6816L17.3604 28.6797C16.9912 28.583 16.6309 28.4336 16.2793 28.293L15.541 28.9609C15.3125 29.1719 14.9961 29.2158 14.7148 29.0576C14.4336 28.8994 14.3193 28.6006 14.3809 28.3018L14.6006 27.3086C14.293 27.0889 13.9854 26.8428 13.7041 26.5703L12.79 26.957C12.4824 27.0889 12.1924 27.0098 11.9727 26.7549C11.7793 26.5264 11.7529 26.21 11.9111 25.9463L12.4561 25.0762C12.2451 24.7686 12.0605 24.4346 11.8936 24.083L10.8828 24.1357C10.5664 24.1533 10.2852 23.9688 10.1885 23.6699C10.0918 23.3799 10.1885 23.0723 10.4346 22.8789L11.2256 22.2549C11.1289 21.8945 11.0498 21.5078 11.0234 21.1211L10.0654 20.8135C9.75781 20.708 9.57324 20.4707 9.57324 20.1543C9.57324 19.8379 9.75781 19.5918 10.0654 19.4951L11.0234 19.1787C11.0498 18.792 11.1289 18.4229 11.2256 18.0537L10.4258 17.4209C10.1885 17.2363 10.0918 16.9375 10.1885 16.6475C10.2939 16.3486 10.5664 16.1729 10.874 16.1816L11.8936 16.2168C12.0605 15.8652 12.2451 15.54 12.4561 15.2236L11.9199 14.3623C11.7529 14.1074 11.7793 13.791 11.9727 13.5625C12.1924 13.3076 12.4824 13.2285 12.7812 13.3516L13.7129 13.7295C13.9854 13.4746 14.293 13.2197 14.6006 13L14.3809 12.0156C14.3105 11.6992 14.4424 11.4092 14.7061 11.2598C14.9961 11.1016 15.3125 11.1367 15.541 11.3564L16.2793 12.0156C16.6309 11.8662 16.9912 11.7344 17.3604 11.6289L17.501 10.6357C17.5449 10.3281 17.7646 10.0908 18.0635 10.0381C18.3887 9.98535 18.6699 10.1348 18.8018 10.3984L19.2764 11.2949C19.4785 11.2773 19.6543 11.2773 19.8564 11.2773C20.0498 11.2773 20.2256 11.2773 20.4277 11.2949L20.9023 10.3896C21.0342 10.1348 21.3154 9.98535 21.6318 10.0293C21.9395 10.0908 22.1592 10.3281 22.2031 10.6357L22.3438 11.6289C22.7129 11.7344 23.0732 11.8662 23.4248 12.0156L24.1631 11.3564C24.3916 11.1367 24.708 11.1016 24.9893 11.2598C25.2617 11.4092 25.3936 11.6992 25.3232 12.0156L25.1123 13C25.4111 13.2197 25.7188 13.4746 25.9912 13.7295L26.9141 13.3516C27.2217 13.2285 27.5117 13.3076 27.7314 13.5625C27.9248 13.791 27.9512 14.1074 27.7842 14.3623L27.248 15.2236C27.459 15.54 27.6436 15.8652 27.8105 16.2168L28.8301 16.1816C29.1377 16.1729 29.4189 16.3486 29.5156 16.6475C29.6123 16.9375 29.5156 17.2363 29.2695 17.4209L28.4785 18.0449C28.5752 18.4229 28.6543 18.792 28.6895 19.1787L29.6387 19.4951C29.9463 19.5918 30.1309 19.8379 30.1309 20.1543C30.1309 20.4619 29.9463 20.708 29.6387 20.8135L28.6895 21.1211C28.6543 21.5078 28.5752 21.8945 28.4785 22.2549L29.2783 22.8789C29.5156 23.0635 29.6123 23.3887 29.5156 23.6699C29.4189 23.9688 29.1377 24.1533 28.8301 24.1357L27.8105 24.083C27.6436 24.4346 27.459 24.7686 27.248 25.0762L27.7842 25.9463C27.9512 26.21 27.9248 26.5264 27.7314 26.7549C27.5117 27.0098 27.2129 27.0889 26.9229 26.9658L26 26.5703C25.7188 26.8428 25.4111 27.0889 25.1123 27.3086L25.3232 28.3018C25.3848 28.6006 25.2705 28.8994 25.0068 29.0576C24.708 29.2158 24.4004 29.1719 24.1631 28.9609L23.4248 28.293C23.0732 28.4336 22.7129 28.583 22.3438 28.6797L22.2031 29.6816C22.1592 29.9893 21.9395 30.2266 21.6406 30.2793C21.3154 30.332 21.0254 30.1826 20.9023 29.9014L20.4277 29.0137C20.2256 29.0312 20.0498 29.04 19.8564 29.04ZM19.8477 17.4473C21.0254 17.4473 22.0273 18.2031 22.3965 19.249H26.5889C26.1494 15.8916 23.3457 13.3252 19.8564 13.3252C18.9072 13.3252 18.0107 13.5098 17.1934 13.8613L19.3115 17.5C19.4873 17.4648 19.6631 17.4473 19.8477 17.4473ZM13.0713 20.1543C13.0713 22.3252 14.0557 24.25 15.6025 25.498L17.7734 21.9209C17.3779 21.4463 17.1318 20.8311 17.1318 20.1631C17.1318 19.4863 17.3779 18.8623 17.791 18.3877L15.6816 14.749C14.082 15.9971 13.0713 17.9482 13.0713 20.1543ZM19.8477 21.2178C20.4365 21.2178 20.9023 20.7607 20.9023 20.1631C20.9023 19.5654 20.4365 19.1084 19.8477 19.1084C19.25 19.1084 18.793 19.5654 18.793 20.1631C18.793 20.7607 19.25 21.2178 19.8477 21.2178ZM19.8564 26.9922C23.3545 26.9922 26.1758 24.3994 26.5889 21.0244H22.4141C22.0537 22.1055 21.043 22.8701 19.8477 22.8701C19.6543 22.8701 19.4697 22.8525 19.2852 22.8174L17.0967 26.4121C17.9404 26.7812 18.8721 26.9922 19.8564 26.9922Z" fill="#868D99"/>
</svg>
