<svg width="565" height="250" viewBox="0 0 565 250" fill="none" xmlns="http://www.w3.org/2000/svg">
<path fill-rule="evenodd" clip-rule="evenodd" d="M272.699 32.4366C272.699 14.5224 258.177 0 240.263 0C222.348 0 207.826 14.5224 207.826 32.4366V58.3228H188.933C175.776 58.3228 165.111 68.9882 165.111 82.1447C165.111 95.3012 175.776 105.967 188.933 105.967H207.826V122.395H188.933C175.776 122.395 165.111 133.061 165.111 146.217C165.111 159.374 175.776 170.039 188.933 170.039H207.826V175.441C207.826 203.267 230.351 225.832 258.162 225.898L258.268 225.898H266.521C284.008 225.898 298.185 211.721 298.185 194.233V187.29C298.185 182.753 294.507 179.075 289.97 179.075H280.914C276.377 179.075 272.699 175.398 272.699 170.861V32.4366ZM92.4126 152.789C116.23 152.789 135.539 133.481 135.539 109.663C135.539 85.8452 116.23 66.5371 92.4126 66.5371C68.5949 66.5371 49.2867 85.8452 49.2867 109.663C49.2867 133.481 68.5949 152.789 92.4126 152.789ZM170.479 114.181C159.414 120.568 151.967 132.523 151.967 146.217C151.967 155.76 155.584 164.459 161.521 171.017C144.593 190.071 119.905 202.076 92.4126 202.076C41.3745 202.076 0 160.701 0 109.663C0 58.6249 41.3745 17.2504 92.4126 17.2504C122.27 17.2504 148.82 31.4096 165.714 53.3795C157.329 60.156 151.967 70.524 151.967 82.1444C151.967 95.8384 159.414 107.793 170.479 114.181ZM441.528 135.539C465.345 135.539 484.654 116.23 484.654 92.4127C484.654 68.5949 465.345 49.2867 441.528 49.2867C417.71 49.2867 398.402 68.5949 398.402 92.4127C398.402 116.23 417.71 135.539 441.528 135.539ZM533.94 92.4127C533.94 115.499 525.475 136.608 511.479 152.805L564.331 152.786L564.334 160.926C564.342 183.609 545.96 202.005 523.276 202.013L469.873 202.031L469.879 221.229C469.885 237.113 457.012 249.995 441.128 250C425.243 250.006 412.362 237.133 412.356 221.249L412.35 202.052L342.515 202.077C328.925 202.081 317.905 191.069 317.9 177.479C317.895 163.89 328.908 152.869 342.497 152.865L371.619 152.854C357.598 136.651 349.115 115.522 349.115 92.4127C349.115 41.3746 390.49 0 441.528 0C492.566 0 533.94 41.3746 533.94 92.4127Z" fill="#58E4F1"/>
</svg>
