<svg width="244" height="120" viewBox="0 0 244 120" fill="none" xmlns="http://www.w3.org/2000/svg">
<path fill-rule="evenodd" clip-rule="evenodd" d="M118.394 11.5848C118.394 5.1867 113.208 3.76314e-05 106.81 3.76314e-05C100.412 3.76314e-05 95.2249 5.18669 95.2249 11.5848V20.8299H88.4772C83.7783 20.8299 79.9692 24.6391 79.9692 29.3379C79.9692 34.0368 83.7783 37.8459 88.4772 37.8459H95.2249V43.7135H88.4772C83.7783 43.7135 79.9692 47.5227 79.9692 52.2215C79.9692 56.9203 83.7784 60.7295 88.4772 60.7295H95.2249V62.6586C95.2249 72.6111 103.293 80.6793 113.246 80.6793L113.263 80.6793H116.188C122.433 80.6793 127.497 75.6161 127.497 69.3704V66.8904C127.497 65.2701 126.183 63.9566 124.563 63.9566H121.328C119.708 63.9566 118.394 62.6431 118.394 61.0229V11.5848ZM54.0051 54.5685C62.5117 54.5685 69.4075 47.6727 69.4075 39.1661C69.4075 30.6596 62.5117 23.7637 54.0051 23.7637C45.4986 23.7637 38.6027 30.6596 38.6027 39.1661C38.6027 47.6727 45.4986 54.5685 54.0051 54.5685ZM81.8864 40.7798C77.9346 43.061 75.2751 47.3307 75.2751 52.2216C75.2751 55.6299 76.5667 58.7366 78.6871 61.0788C72.6412 67.8838 63.8239 72.1713 54.0051 72.1713C35.7769 72.1713 21 57.3944 21 39.1661C21 20.9379 35.7769 6.16099 54.0051 6.16099C64.6686 6.16099 74.151 11.218 80.1848 19.0646C77.1902 21.4848 75.2751 25.1877 75.2751 29.338C75.2751 34.2289 77.9346 38.4985 81.8864 40.7798ZM178.691 48.4076C187.198 48.4076 194.094 41.5117 194.094 33.0052C194.094 24.4987 187.198 17.6028 178.691 17.6028C170.185 17.6028 163.289 24.4987 163.289 33.0052C163.289 41.5117 170.185 48.4076 178.691 48.4076ZM211.696 33.0052C211.696 41.2504 208.673 48.7894 203.674 54.5742L219.643 54.5685C221.249 54.568 222.551 55.869 222.551 57.4746C222.554 65.576 215.989 72.1459 207.888 72.1487L188.815 72.1555L188.817 79.0117C188.819 84.6848 184.222 89.2854 178.548 89.2874C172.875 89.2894 168.275 84.692 168.273 79.0188L168.27 72.1627L143.329 72.1716C138.475 72.1733 134.539 68.2401 134.538 63.3867C134.536 58.5332 138.469 54.5972 143.323 54.5955L153.723 54.5919C148.716 48.8048 145.686 41.2588 145.686 33.0052C145.686 14.7769 160.463 3.76314e-05 178.691 3.76314e-05C196.919 3.76314e-05 211.696 14.7769 211.696 33.0052Z" fill="#58E4F1"/>
<path d="M10.626 114.267H9.38V107.379H6.65V106.329H9.38V102.031H10.626V114.267ZM7.896 110.431L7.154 111.355C6.062 110.641 4.634 109.115 4.172 107.687C3.752 109.185 2.534 110.739 1.162 111.649L0.378 110.739C2.226 109.577 3.528 107.449 3.528 105.195V103.081H4.802V105.139C4.802 107.435 6.174 109.367 7.896 110.431ZM23.6913 112.713H12.6453V111.705H17.5173V109.773H13.9753V105.839H21.0873V104.047H13.9473V103.039H22.3193V106.847H15.2073V108.765H22.6553V109.773H18.7633V111.705H23.6913V112.713ZM30.1863 110.249H30.6903C32.3003 110.249 34.5543 110.123 35.7863 109.857L35.9263 110.865C34.6523 111.131 32.5523 111.271 30.3263 111.285H28.9543V103.319H34.7363V104.341H30.1863V110.249ZM37.8863 102.031V106.805H39.7903V107.841H37.8863V114.267H36.6543V102.031H37.8863ZM50.3916 107.897H42.0196V104.719H48.8796V103.515H41.9636V102.549H50.1116V105.657H43.2516V106.917H50.3916V107.897ZM51.5956 109.969H40.5496V108.961H51.5956V109.969ZM50.2796 113.917H41.9776V110.823H43.2096V112.923H50.2796V113.917ZM66.4626 114.267H65.2306V102.031H66.4626V114.267ZM63.7746 110.403L63.0326 111.327C61.9406 110.571 60.5266 109.115 60.0786 107.687C59.6446 109.185 58.4406 110.739 57.0546 111.649L56.2846 110.739C58.1186 109.577 59.4206 107.449 59.4206 105.195V103.109H60.7086V105.139C60.7086 107.435 62.0806 109.423 63.7746 110.403ZM79.7239 106.105H77.9039V109.283H76.6579V102.031H77.9039V105.069H79.7239V106.105ZM69.6999 109.885H77.9039V114.323H76.6719V110.907H69.6999V109.885ZM68.9439 102.843H74.5019C74.3759 106.133 72.1359 108.163 68.9719 109.017L68.3419 108.009C70.6099 107.561 72.8079 105.993 73.1439 103.893H68.9439V102.843ZM83.4792 102.997C85.1872 102.997 86.0692 104.607 86.1672 106.805H87.3572V102.269H88.5332V113.693H87.3572V107.827H86.1672C86.0552 109.997 85.1732 111.579 83.4792 111.579C81.6592 111.579 80.7912 109.717 80.7912 107.267C80.7912 104.831 81.6592 102.997 83.4792 102.997ZM84.9632 107.281C84.9632 105.377 84.4732 104.047 83.4792 104.047C82.5132 104.047 82.0092 105.377 82.0092 107.281C82.0092 109.199 82.5132 110.515 83.4792 110.515C84.4732 110.515 84.9632 109.199 84.9632 107.281ZM90.8992 114.267H89.7232V102.031H90.8992V114.267ZM102.774 114.267H101.528V107.379H98.7984V106.329H101.528V102.031H102.774V114.267ZM100.044 110.431L99.3024 111.355C98.2104 110.641 96.7824 109.115 96.3204 107.687C95.9004 109.185 94.6824 110.739 93.3104 111.649L92.5264 110.739C94.3744 109.577 95.6764 107.449 95.6764 105.195V103.081H96.9504V105.139C96.9504 107.435 98.3224 109.367 100.044 110.431ZM118.089 107.393H114.589V108.793H119.517V109.801H108.471V108.793H113.343V107.393H109.913V102.451H111.145V104.005H116.843V102.437H118.089V107.393ZM118.201 113.889H109.857V110.571H111.103V112.881H118.201V113.889ZM116.843 106.371V105.013H111.145V106.371H116.843ZM134.118 105.265C134.118 106.889 132.466 108.023 129.764 108.023C127.062 108.023 125.424 106.889 125.424 105.265C125.424 103.655 127.062 102.535 129.764 102.535C132.466 102.535 134.118 103.655 134.118 105.265ZM129.764 103.585C127.804 103.585 126.642 104.355 126.642 105.265C126.642 106.189 127.804 106.973 129.764 106.973C131.71 106.973 132.872 106.189 132.872 105.265C132.872 104.355 131.71 103.585 129.764 103.585ZM130.38 114.281H129.134V110.053H124.262V109.031H135.308V110.053H130.38V114.281ZM144.16 109.955L144.286 110.977C143.012 111.187 141.01 111.355 138.532 111.383H137.006V106.567H141.584V104.145H136.95V103.137H142.816V107.561H138.238V110.333H138.602C140.31 110.333 142.676 110.235 144.16 109.955ZM145.224 102.031H146.47V114.267H145.224V102.031ZM160.959 105.671H158.719L158.705 104.621H160.959V102.031H162.191V114.267H160.959V109.703H158.705L158.719 108.667H160.959V105.671ZM152.251 107.225C152.251 104.803 153.203 102.899 155.303 102.899C157.417 102.899 158.341 104.803 158.341 107.239C158.341 109.647 157.417 111.551 155.303 111.551C153.203 111.551 152.251 109.647 152.251 107.225ZM157.151 107.239C157.151 105.335 156.521 103.963 155.303 103.963C154.099 103.963 153.483 105.335 153.483 107.239C153.483 109.115 154.099 110.487 155.303 110.487C156.521 110.487 157.151 109.115 157.151 107.239ZM174.752 112.125C174.752 113.455 173.198 114.253 170.608 114.253C168.018 114.253 166.45 113.455 166.45 112.125C166.45 110.809 168.018 110.011 170.608 110.011C173.198 110.011 174.752 110.809 174.752 112.125ZM174.612 110.053H173.422V106.511H172.078V109.619H170.902V102.255H172.078V105.489H173.422V102.031H174.612V110.053ZM170.02 107.715C170.02 108.891 169.068 109.661 167.388 109.661C165.708 109.661 164.742 108.891 164.742 107.715C164.742 106.525 165.708 105.741 167.388 105.741C169.068 105.741 170.02 106.525 170.02 107.715ZM170.608 110.977C168.816 110.977 167.71 111.425 167.71 112.125C167.71 112.839 168.816 113.287 170.608 113.287C172.386 113.287 173.492 112.839 173.492 112.125C173.492 111.425 172.386 110.977 170.608 110.977ZM170.496 105.293H164.21V104.299H170.496V105.293ZM168.83 107.715C168.83 107.169 168.298 106.791 167.388 106.791C166.478 106.791 165.932 107.169 165.932 107.715C165.932 108.261 166.478 108.639 167.388 108.639C168.298 108.639 168.83 108.261 168.83 107.715ZM168.9 103.557H165.694V102.563H168.9V103.557ZM185.297 102.031H186.515V114.267H185.297V102.031ZM183.533 105.895C183.533 107.589 182.105 108.681 180.327 108.681C178.521 108.681 177.135 107.547 177.135 105.895C177.135 104.201 178.535 103.011 180.327 103.011C182.133 103.011 183.533 104.145 183.533 105.895ZM182.315 105.881C182.315 104.761 181.433 104.047 180.327 104.047C179.249 104.047 178.367 104.817 178.367 105.881C178.367 106.931 179.249 107.645 180.327 107.645C181.391 107.645 182.315 106.945 182.315 105.881ZM184.639 111.173C183.519 111.313 181.713 111.425 180.159 111.509C178.773 111.579 177.485 111.607 176.505 111.621L176.309 110.557C177.485 110.557 178.913 110.543 180.355 110.473C182.091 110.403 183.533 110.305 184.513 110.193L184.639 111.173ZM203.23 112.713H192.184V111.705H197.056V108.961H193.5V103.123H201.9V108.961H198.302V111.705H203.23V112.713ZM200.668 107.939V104.131H194.732V107.939H200.668ZM214.028 113.903H205.642V110.445H206.888V112.909H214.028V113.903ZM215.344 109.325H204.298V108.317H215.344V109.325ZM214.028 106.875H205.67V102.549H213.916V103.557H206.916V105.867H214.028V106.875ZM226.277 111.677H225.045V109.353H220.089V108.331H231.135V109.353H226.277V111.677ZM230.617 106.357L230.043 107.323C228.167 107.001 226.179 105.699 225.605 104.425C225.087 105.685 223.197 106.987 221.209 107.309L220.649 106.357C222.693 106.133 224.975 104.663 224.975 102.913V102.465H226.263V102.913C226.263 104.663 228.811 106.203 230.617 106.357ZM229.819 113.903H221.433V110.459H222.679V112.895H229.819V113.903ZM243.486 106.791H241.652V111.047H240.406V102.031H241.652V105.755H243.486V106.791ZM242.016 113.945H233.924V110.109H235.156V112.937H242.016V113.945ZM232.678 103.025H238.222C238.124 106.357 235.884 108.765 232.678 109.703L232.048 108.695C234.582 108.079 236.528 106.189 236.864 104.047H232.678V103.025Z" fill="#58E4F1"/>
</svg>
