<svg width="22" height="23" viewBox="0 0 22 23" fill="none" xmlns="http://www.w3.org/2000/svg">
<path d="M11.2305 11.75C8.44141 11.75 6.17969 9.27734 6.16797 6.26562C6.16797 3.28906 8.45312 0.886719 11.2305 0.886719C14.0312 0.886719 16.293 3.24219 16.293 6.24219C16.293 9.26562 14.0195 11.75 11.2305 11.75ZM11.2305 9.98047C12.9531 9.98047 14.4062 8.31641 14.4062 6.24219C14.4062 4.20312 12.9766 2.65625 11.2305 2.65625C9.49609 2.65625 8.05469 4.22656 8.05469 6.26562C8.05469 8.33984 9.51953 9.98047 11.2305 9.98047ZM3.85938 22.5898C1.91406 22.5898 0.988281 22.0039 0.988281 20.7148C0.988281 17.6445 4.86719 13.2031 11.2305 13.2031C17.582 13.2031 21.4609 17.6445 21.4609 20.7148C21.4609 22.0039 20.5352 22.5898 18.5898 22.5898H3.85938ZM3.30859 20.8203H19.1523C19.457 20.8203 19.5742 20.7383 19.5742 20.4922C19.5742 18.5703 16.5977 14.9727 11.2305 14.9727C5.85156 14.9727 2.875 18.5703 2.875 20.4922C2.875 20.7383 3.00391 20.8203 3.30859 20.8203Z" fill="#2F2F2F"/>
</svg>
