<svg width="32" height="32" viewBox="0 0 32 32" fill="none" xmlns="http://www.w3.org/2000/svg">
<g filter="url(#filter0_d_2057_34368)">
<rect x="4" y="2" width="24" height="24" rx="12" fill="#58E4F1"/>
<path d="M14.689 20.1743C14.2827 20.1743 13.978 20.0283 13.7051 19.7046L10.4297 15.7373C10.2012 15.4771 10.1187 15.2422 10.1187 14.9756C10.1187 14.3789 10.563 13.9409 11.1787 13.9409C11.5342 13.9409 11.7881 14.0679 12.0229 14.3472L14.6572 17.6162L19.8496 9.42773C20.1035 9.02783 20.3638 8.87549 20.7827 8.87549C21.3921 8.87549 21.8364 9.30713 21.8364 9.90381C21.8364 10.126 21.7666 10.3608 21.6016 10.6147L15.6855 19.6602C15.457 20.0093 15.1206 20.1743 14.689 20.1743Z" fill="white"/>
</g>
<defs>
<filter id="filter0_d_2057_34368" x="0" y="0" width="32" height="32" filterUnits="userSpaceOnUse" color-interpolation-filters="sRGB">
<feFlood flood-opacity="0" result="BackgroundImageFix"/>
<feColorMatrix in="SourceAlpha" type="matrix" values="0 0 0 0 0 0 0 0 0 0 0 0 0 0 0 0 0 0 127 0" result="hardAlpha"/>
<feOffset dy="2"/>
<feGaussianBlur stdDeviation="2"/>
<feComposite in2="hardAlpha" operator="out"/>
<feColorMatrix type="matrix" values="0 0 0 0 0 0 0 0 0 0 0 0 0 0 0 0 0 0 0.15 0"/>
<feBlend mode="normal" in2="BackgroundImageFix" result="effect1_dropShadow_2057_34368"/>
<feBlend mode="normal" in="SourceGraphic" in2="effect1_dropShadow_2057_34368" result="shape"/>
</filter>
</defs>
</svg>
