<svg width="390" height="48" viewBox="0 0 390 48" fill="none" xmlns="http://www.w3.org/2000/svg">
<rect width="390" height="48" fill="white"/>
<path fill-rule="evenodd" clip-rule="evenodd" d="M54.9055 12.1519C54.9055 9.85886 53.0466 8 50.7536 8C48.4606 8 46.6017 9.85886 46.6017 12.1519V15.4653H44.1833C42.4993 15.4653 41.1341 16.8305 41.1341 18.5145C41.1341 20.1986 42.4993 21.5637 44.1833 21.5637H46.6017V23.6665H44.1834C42.4993 23.6665 41.1341 25.0317 41.1341 26.7157C41.1341 28.3998 42.4993 29.765 44.1834 29.765H46.6017V30.4564C46.6017 34.0233 49.4933 36.9149 53.0602 36.9149L53.0682 36.9149H54.1146C56.353 36.9149 58.1676 35.1003 58.1676 32.8619V31.9731C58.1676 31.3924 57.6969 30.9216 57.1162 30.9216H55.9569C55.3762 30.9216 54.9055 30.4509 54.9055 29.8702V12.1519ZM31.8288 27.557C34.8775 27.557 37.3489 25.0855 37.3489 22.0369C37.3489 18.9882 34.8775 16.5167 31.8288 16.5167C28.7801 16.5167 26.3087 18.9882 26.3087 22.0369C26.3087 25.0855 28.7801 27.557 31.8288 27.557ZM41.8212 22.6151C40.405 23.4327 39.4518 24.9629 39.4518 26.7157C39.4518 27.9373 39.9147 29.0507 40.6747 29.8902C38.5079 32.329 35.3478 33.8657 31.8288 33.8657C25.2959 33.8657 20 28.5697 20 22.0369C20 15.504 25.2959 10.208 31.8288 10.208C35.6505 10.208 39.0489 12.0204 41.2114 14.8326C40.1382 15.7 39.4518 17.0271 39.4518 18.5145C39.4518 20.2673 40.405 21.7975 41.8212 22.6151ZM76.5155 25.3489C79.5641 25.3489 82.0356 22.8775 82.0356 19.8288C82.0356 16.7801 79.5641 14.3087 76.5155 14.3087C73.4668 14.3087 70.9954 16.7801 70.9954 19.8288C70.9954 22.8775 73.4668 25.3489 76.5155 25.3489ZM88.3443 19.8288C88.3443 22.7839 87.2607 25.4858 85.4692 27.559L92.2343 27.5566L92.2346 28.5985C92.2357 31.502 89.8828 33.8566 86.9793 33.8576L80.1436 33.86L80.1445 36.3173C80.1452 38.3505 78.4975 39.9993 76.4643 40C74.4311 40.0007 72.7822 38.353 72.7815 36.3198L72.7807 33.8627L63.8418 33.8658C62.1024 33.8664 60.6918 32.4568 60.6912 30.7174C60.6905 28.9779 62.1002 27.5673 63.8396 27.5667L67.5672 27.5654C65.7724 25.4913 64.6867 22.7869 64.6867 19.8288C64.6867 13.2959 69.9826 8 76.5155 8C83.0483 8 88.3443 13.2959 88.3443 19.8288Z" fill="#F3F3F3"/>
</svg>
