<svg width="54" height="58" viewBox="0 0 54 58" fill="none" xmlns="http://www.w3.org/2000/svg">
<g filter="url(#filter0_d_2057_26219)">
<mask id="path-1-outside-1_2057_26219" maskUnits="userSpaceOnUse" x="1.96558" y="1" width="50" height="54" fill="black">
<rect fill="white" x="1.96558" y="1" width="50" height="54"/>
<path fill-rule="evenodd" clip-rule="evenodd" d="M38.2828 18.7423H37.0761V5L27.5696 17.592L25.6811 16.0617C25.5225 15.9333 25.2896 16.071 25.3258 16.2718L25.9501 19.7371L25.8958 19.809C20.3966 22.013 16.5127 27.3926 16.5127 33.6794V35.8702V38.1607H3.96558C3.96558 46.3552 10.6086 52.9982 18.8031 52.9982H33.0431C33.4216 52.9982 33.7935 52.9699 34.1567 52.9152L34.9064 52.9191C43.1865 52.9627 49.922 46.2624 49.922 37.9822L49.922 35.0734V5L41.5078 16.1452L38.2828 18.7423Z"/>
</mask>
<path fill-rule="evenodd" clip-rule="evenodd" d="M38.2828 18.7423H37.0761V5L27.5696 17.592L25.6811 16.0617C25.5225 15.9333 25.2896 16.071 25.3258 16.2718L25.9501 19.7371L25.8958 19.809C20.3966 22.013 16.5127 27.3926 16.5127 33.6794V35.8702V38.1607H3.96558C3.96558 46.3552 10.6086 52.9982 18.8031 52.9982H33.0431C33.4216 52.9982 33.7935 52.9699 34.1567 52.9152L34.9064 52.9191C43.1865 52.9627 49.922 46.2624 49.922 37.9822L49.922 35.0734V5L41.5078 16.1452L38.2828 18.7423Z" fill="#FF630D"/>
<path d="M37.0761 18.7423H35.8261V19.9923H37.0761V18.7423ZM38.2828 18.7423V19.9923H38.7235L39.0668 19.7159L38.2828 18.7423ZM37.0761 5H38.3261V1.26973L36.0785 4.24683L37.0761 5ZM27.5696 17.592L26.7826 18.5632L27.7877 19.3776L28.5672 18.3451L27.5696 17.592ZM25.6811 16.0617L26.468 15.0905L26.468 15.0905L25.6811 16.0617ZM25.3258 16.2718L26.556 16.0502L26.556 16.0502L25.3258 16.2718ZM25.9501 19.7371L26.9477 20.4902L27.2773 20.0537L27.1803 19.5154L25.9501 19.7371ZM25.8958 19.809L26.3608 20.9693L26.6838 20.8398L26.8934 20.5622L25.8958 19.809ZM16.5127 38.1607V39.4107H17.7627V38.1607H16.5127ZM3.96558 38.1607V36.9107H2.71558V38.1607H3.96558ZM34.1567 52.9152L34.1633 51.6652L34.0664 51.6647L33.9707 51.6791L34.1567 52.9152ZM34.9064 52.9191L34.9129 51.6692L34.9064 52.9191ZM49.922 37.9822L48.672 37.9822V37.9822H49.922ZM49.922 35.0734L51.172 35.0734V35.0734H49.922ZM49.922 5H51.172V1.26973L48.9244 4.24683L49.922 5ZM41.5078 16.1452L42.2918 17.1187L42.4122 17.0217L42.5054 16.8983L41.5078 16.1452ZM37.0761 19.9923H38.2828V17.4923H37.0761V19.9923ZM35.8261 5V18.7423H38.3261V5H35.8261ZM28.5672 18.3451L38.0737 5.75317L36.0785 4.24683L26.572 16.8388L28.5672 18.3451ZM24.8941 17.0329L26.7826 18.5632L28.3565 16.6208L26.468 15.0905L24.8941 17.0329ZM26.556 16.0502C26.7252 16.9897 25.6358 17.6339 24.8941 17.0329L26.468 15.0905C25.4092 14.2326 23.8539 15.1523 24.0956 16.4935L26.556 16.0502ZM27.1803 19.5154L26.556 16.0502L24.0956 16.4935L24.7199 19.9587L27.1803 19.5154ZM26.8934 20.5622L26.9477 20.4902L24.9525 18.9839L24.8982 19.0558L26.8934 20.5622ZM17.7627 33.6794C17.7627 27.9207 21.3195 22.9897 26.3608 20.9693L25.4308 18.6487C19.4736 21.0362 15.2627 26.8646 15.2627 33.6794H17.7627ZM17.7627 35.8702V33.6794H15.2627V35.8702H17.7627ZM17.7627 38.1607V35.8702H15.2627V38.1607H17.7627ZM3.96558 39.4107H16.5127V36.9107H3.96558V39.4107ZM18.8031 51.7482C11.2989 51.7482 5.21558 45.6649 5.21558 38.1607H2.71558C2.71558 47.0456 9.9182 54.2482 18.8031 54.2482V51.7482ZM33.0431 51.7482H18.8031V54.2482H33.0431V51.7482ZM33.9707 51.6791C33.6688 51.7246 33.3591 51.7482 33.0431 51.7482V54.2482C33.4841 54.2482 33.9182 54.2152 34.3428 54.1513L33.9707 51.6791ZM34.9129 51.6692L34.1633 51.6652L34.1502 54.1652L34.8998 54.1691L34.9129 51.6692ZM48.672 37.9822C48.672 45.5695 42.5001 51.709 34.9129 51.6692L34.8998 54.1691C43.8728 54.2163 51.172 46.9554 51.172 37.9822H48.672ZM48.672 35.0734L48.672 37.9822L51.172 37.9822L51.172 35.0734L48.672 35.0734ZM48.672 5V35.0734H51.172V5H48.672ZM42.5054 16.8983L50.9196 5.75317L48.9244 4.24683L40.5101 15.392L42.5054 16.8983ZM39.0668 19.7159L42.2918 17.1187L40.7237 15.1716L37.4987 17.7688L39.0668 19.7159Z" fill="white" mask="url(#path-1-outside-1_2057_26219)"/>
</g>
<path fill-rule="evenodd" clip-rule="evenodd" d="M37.0761 18.7423H39.547L49.922 5V35.0734L49.922 37.9822C49.922 46.2624 43.1865 52.9627 34.9064 52.9191L34.1567 52.9152C33.7935 52.9699 33.4216 52.9982 33.0431 52.9982H18.8031C10.6086 52.9982 3.96558 46.3552 3.96558 38.1607H16.5127V35.8702V33.6794C16.5127 27.3926 20.3966 22.013 25.8958 19.809L37.0761 5V18.7423Z" fill="#FF630D"/>
<path fill-rule="evenodd" clip-rule="evenodd" d="M37.0761 18.7423H39.547L49.922 5V35.0734L49.922 37.9822C49.922 46.2624 43.1865 52.9627 34.9064 52.9191L34.1567 52.9152C33.7935 52.9699 33.4216 52.9982 33.0431 52.9982H18.8031C10.6086 52.9982 3.96558 46.3552 3.96558 38.1607H16.5127V35.8702V33.6794C16.5127 27.3926 20.3966 22.013 25.8958 19.809L37.0761 5V18.7423Z" fill="url(#paint0_linear_2057_26219)"/>
<path fill-rule="evenodd" clip-rule="evenodd" d="M37.0761 18.7423H39.547L49.922 5V35.0734L49.922 37.9822C49.922 46.2624 43.1865 52.9627 34.9064 52.9191L34.1567 52.9152C33.7935 52.9699 33.4216 52.9982 33.0431 52.9982H18.8031C10.6086 52.9982 3.96558 46.3552 3.96558 38.1607H16.5127V35.8702V33.6794C16.5127 27.3926 20.3966 22.013 25.8958 19.809L37.0761 5V18.7423Z" fill="url(#paint1_radial_2057_26219)"/>
<path fill-rule="evenodd" clip-rule="evenodd" d="M37.1884 18.7423H39.6595L50.0345 5V35.0734H50.0343V37.9822C50.0343 46.2624 43.2988 52.9627 35.0187 52.9191L34.2693 52.9152C33.906 52.9699 33.5342 52.9982 33.1557 52.9982H18.9156C10.7211 52.9982 4.07812 46.3552 4.07812 38.1607H16.625V35.8702V33.6794C16.625 27.3926 20.5089 22.013 26.0081 19.809L37.1884 5V18.7423Z" fill="url(#paint2_radial_2057_26219)"/>
<circle cx="33.8645" cy="34.8989" r="3.56001" fill="white"/>
<mask id="mask0_2057_26219" style="mask-type:alpha" maskUnits="userSpaceOnUse" x="30" y="31" width="8" height="8">
<circle cx="33.8645" cy="34.8989" r="3.56001" fill="white"/>
</mask>
<g mask="url(#mask0_2057_26219)">
<circle cx="34.7609" cy="34.8993" r="2.86294" fill="#191919"/>
</g>
<circle cx="24.8527" cy="34.8989" r="3.56001" fill="white"/>
<mask id="mask1_2057_26219" style="mask-type:alpha" maskUnits="userSpaceOnUse" x="21" y="31" width="8" height="8">
<circle cx="24.8527" cy="34.8989" r="3.56001" fill="white"/>
</mask>
<g mask="url(#mask1_2057_26219)">
<circle cx="25.7489" cy="34.8993" r="2.86294" fill="#191919"/>
</g>
<path fill-rule="evenodd" clip-rule="evenodd" d="M13.4753 43.4381C13.4753 43.7406 13.2301 43.9858 12.9276 43.9858C12.6252 43.9858 12.3799 43.7406 12.3799 43.4381C12.3799 43.1356 12.6252 42.8904 12.9276 42.8904C13.2301 42.8904 13.4753 43.1356 13.4753 43.4381ZM10.6374 43.4381C10.6374 43.7406 10.3922 43.9858 10.0897 43.9858C9.7872 43.9858 9.54199 43.7406 9.54199 43.4381C9.54199 43.1356 9.7872 42.8904 10.0897 42.8904C10.3922 42.8904 10.6374 43.1356 10.6374 43.4381ZM11.4839 45.9776C11.7864 45.9776 12.0316 45.7324 12.0316 45.4299C12.0316 45.1275 11.7864 44.8822 11.4839 44.8822C11.1814 44.8822 10.9362 45.1275 10.9362 45.4299C10.9362 45.7324 11.1814 45.9776 11.4839 45.9776Z" fill="#191919"/>
<path fill-rule="evenodd" clip-rule="evenodd" d="M20.7202 42.8408C19.3591 42.8408 18.2556 43.9443 18.2556 45.3054C18.2556 46.6666 19.3591 47.7701 20.7202 47.7701H22.6866V42.8408H23.4335V47.7701H26.2716V42.8409L27.0185 42.8409V47.7701H29.807C29.8235 47.7701 29.8401 47.77 29.8566 47.7698V42.8409L30.6034 42.8409L30.6034 47.7061C32.9471 47.3253 34.7362 45.292 34.7362 42.8408H20.7202Z" fill="white"/>
<path fill-rule="evenodd" clip-rule="evenodd" d="M33.4583 16.0804C33.5396 15.9188 33.7703 15.9188 33.8516 16.0804L35.9608 20.2701C36.0239 20.3954 36.1864 20.4306 36.2956 20.3426L41.6151 16.0587C41.7738 15.9309 42.006 16.0687 41.9699 16.2693L40.2332 25.9057C40.2312 25.9167 40.2303 25.9278 40.2292 25.939C40.164 26.5974 37.2445 27.1275 33.6526 27.1275C30.1371 27.1275 27.2657 26.6198 27.084 25.9809C27.0834 25.9786 27.0813 25.977 27.0788 25.977C27.0762 25.977 27.074 25.9752 27.0735 25.9726L25.3258 16.2718C25.2896 16.071 25.5225 15.9333 25.6811 16.0617L30.9993 20.371C31.1085 20.4595 31.2714 20.4244 31.3346 20.299L33.4583 16.0804Z" fill="url(#paint3_linear_2057_26219)"/>
<defs>
<filter id="filter0_d_2057_26219" x="0.715576" y="0.269775" width="52.4563" height="56.9785" filterUnits="userSpaceOnUse" color-interpolation-filters="sRGB">
<feFlood flood-opacity="0" result="BackgroundImageFix"/>
<feColorMatrix in="SourceAlpha" type="matrix" values="0 0 0 0 0 0 0 0 0 0 0 0 0 0 0 0 0 0 127 0" result="hardAlpha"/>
<feOffset dy="1"/>
<feGaussianBlur stdDeviation="1"/>
<feComposite in2="hardAlpha" operator="out"/>
<feColorMatrix type="matrix" values="0 0 0 0 0 0 0 0 0 0 0 0 0 0 0 0 0 0 0.25 0"/>
<feBlend mode="normal" in2="BackgroundImageFix" result="effect1_dropShadow_2057_26219"/>
<feBlend mode="normal" in="SourceGraphic" in2="effect1_dropShadow_2057_26219" result="shape"/>
</filter>
<linearGradient id="paint0_linear_2057_26219" x1="26.9438" y1="5" x2="26.9438" y2="52.9982" gradientUnits="userSpaceOnUse">
<stop offset="0.19272" stop-color="#191919"/>
<stop offset="0.29133" stop-color="#FF3464" stop-opacity="0"/>
</linearGradient>
<radialGradient id="paint1_radial_2057_26219" cx="0" cy="0" r="1" gradientUnits="userSpaceOnUse" gradientTransform="translate(3.96558 38.2465) rotate(-0.274143) scale(46.0168 44.06)">
<stop offset="0.152306" stop-color="#191919"/>
<stop offset="0.283418" stop-color="#FF3464" stop-opacity="0"/>
</radialGradient>
<radialGradient id="paint2_radial_2057_26219" cx="0" cy="0" r="1" gradientUnits="userSpaceOnUse" gradientTransform="translate(4.07813 9.95394) rotate(43.0887) scale(63.0104 60.3305)">
<stop offset="0.786999" stop-color="white" stop-opacity="0"/>
<stop offset="1" stop-color="white"/>
</radialGradient>
<linearGradient id="paint3_linear_2057_26219" x1="25.4221" y1="16.0564" x2="41.8293" y2="27.4163" gradientUnits="userSpaceOnUse">
<stop offset="0.683683" stop-color="#FFE353"/>
<stop offset="1" stop-color="white"/>
</linearGradient>
</defs>
</svg>
