<svg width="58" height="58" viewBox="0 0 58 58" fill="none" xmlns="http://www.w3.org/2000/svg">
<g filter="url(#filter0_d_2057_24734)">
<mask id="path-1-outside-1_2057_24734" maskUnits="userSpaceOnUse" x="2.2395" y="1" width="54" height="54" fill="black">
<rect fill="white" x="2.2395" y="1" width="54" height="54"/>
<path fill-rule="evenodd" clip-rule="evenodd" d="M39.8207 18.7423H37.35V5L26.1698 19.8088C20.6704 22.0128 16.7864 27.3925 16.7864 33.6794V35.8702V38.1607H4.2395C4.2395 46.3552 10.8825 52.9982 19.077 52.9982H33.3171C33.6955 52.9982 34.0674 52.9699 34.4306 52.9152L35.18 52.9191C43.4601 52.9627 50.1957 46.2624 50.1957 37.9822L50.1957 36.8343C51.7037 35.575 53.6437 34.8175 55.7604 34.8175C53.6438 34.8175 51.7037 34.0599 50.1957 32.8007V5L39.8207 18.7423Z"/>
</mask>
<path fill-rule="evenodd" clip-rule="evenodd" d="M39.8207 18.7423H37.35V5L26.1698 19.8088C20.6704 22.0128 16.7864 27.3925 16.7864 33.6794V35.8702V38.1607H4.2395C4.2395 46.3552 10.8825 52.9982 19.077 52.9982H33.3171C33.6955 52.9982 34.0674 52.9699 34.4306 52.9152L35.18 52.9191C43.4601 52.9627 50.1957 46.2624 50.1957 37.9822L50.1957 36.8343C51.7037 35.575 53.6437 34.8175 55.7604 34.8175C53.6438 34.8175 51.7037 34.0599 50.1957 32.8007V5L39.8207 18.7423Z" fill="#00D8ED"/>
<path d="M37.35 18.7423H36.1V19.9923H37.35V18.7423ZM39.8207 18.7423V19.9923H40.4432L40.8183 19.4955L39.8207 18.7423ZM37.35 5H38.6V1.26973L36.3524 4.24683L37.35 5ZM26.1698 19.8088L26.6348 20.9691L26.9578 20.8397L27.1674 20.562L26.1698 19.8088ZM16.7864 38.1607V39.4107H18.0364V38.1607H16.7864ZM4.2395 38.1607V36.9107H2.9895V38.1607H4.2395ZM34.4306 52.9152L34.4372 51.6652L34.3404 51.6647L34.2446 51.6791L34.4306 52.9152ZM35.18 52.9191L35.1735 54.1691H35.1735L35.18 52.9191ZM50.1957 37.9822L48.9457 37.9822V37.9822H50.1957ZM50.1957 36.8343L49.3945 35.8748L48.9457 36.2496L48.9457 36.8343L50.1957 36.8343ZM50.1957 32.8007H48.9457V33.3854L49.3945 33.7602L50.1957 32.8007ZM50.1957 5H51.4457V1.26973L49.1981 4.24683L50.1957 5ZM37.35 19.9923H39.8207V17.4923H37.35V19.9923ZM36.1 5V18.7423H38.6V5H36.1ZM27.1674 20.562L38.3476 5.75317L36.3524 4.24683L25.1722 19.0557L27.1674 20.562ZM18.0364 33.6794C18.0364 27.9206 21.5933 22.9895 26.6348 20.9691L25.7048 18.6485C19.7474 21.036 15.5364 26.8644 15.5364 33.6794H18.0364ZM18.0364 35.8702V33.6794H15.5364V35.8702H18.0364ZM18.0364 38.1607V35.8702H15.5364V38.1607H18.0364ZM4.2395 39.4107H16.7864V36.9107H4.2395V39.4107ZM19.077 51.7482C11.5728 51.7482 5.4895 45.6649 5.4895 38.1607H2.9895C2.9895 47.0456 10.1921 54.2482 19.077 54.2482V51.7482ZM33.3171 51.7482H19.077V54.2482H33.3171V51.7482ZM34.2446 51.6791C33.9427 51.7246 33.633 51.7482 33.3171 51.7482V54.2482C33.758 54.2482 34.1921 54.2152 34.6167 54.1513L34.2446 51.6791ZM35.1866 51.6692L34.4372 51.6652L34.4241 54.1652L35.1735 54.1691L35.1866 51.6692ZM48.9457 37.9822C48.9457 45.5695 42.7738 51.709 35.1866 51.6692L35.1735 54.1691C44.1465 54.2163 51.4457 46.9554 51.4457 37.9822H48.9457ZM48.9457 36.8343L48.9457 37.9822L51.4457 37.9822L51.4457 36.8343L48.9457 36.8343ZM55.7604 33.5675C53.3399 33.5675 51.1187 34.435 49.3945 35.8748L50.9969 37.7938C52.2887 36.7151 53.9475 36.0675 55.7604 36.0675V33.5675ZM49.3945 33.7602C51.1188 35.2 53.34 36.0675 55.7604 36.0675V33.5675C53.9476 33.5675 52.2887 32.9199 50.9969 31.8412L49.3945 33.7602ZM48.9457 5V32.8007H51.4457V5H48.9457ZM40.8183 19.4955L51.1933 5.75317L49.1981 4.24683L38.8231 17.9892L40.8183 19.4955Z" fill="white" mask="url(#path-1-outside-1_2057_24734)"/>
</g>
<path fill-rule="evenodd" clip-rule="evenodd" d="M37.35 18.7423H39.8207L50.1957 5V35.0734L50.1957 37.9822C50.1957 46.2624 43.4601 52.9627 35.18 52.9191L34.4306 52.9152C34.0674 52.9699 33.6955 52.9982 33.3171 52.9982H19.077C10.8825 52.9982 4.2395 46.3552 4.2395 38.1607H16.7864V35.8702V33.6794C16.7864 27.3925 20.6704 22.0128 26.1698 19.8088L37.35 5V18.7423Z" fill="#00D8ED"/>
<path fill-rule="evenodd" clip-rule="evenodd" d="M37.35 18.7423H39.8207L50.1957 5V35.0734L50.1957 37.9822C50.1957 46.2624 43.4601 52.9627 35.18 52.9191L34.4306 52.9152C34.0674 52.9699 33.6955 52.9982 33.3171 52.9982H19.077C10.8825 52.9982 4.2395 46.3552 4.2395 38.1607H16.7864V35.8702V33.6794C16.7864 27.3925 20.6704 22.0128 26.1698 19.8088L37.35 5V18.7423Z" fill="url(#paint0_linear_2057_24734)"/>
<path fill-rule="evenodd" clip-rule="evenodd" d="M37.35 18.7423H39.8207L50.1957 5V35.0734L50.1957 37.9822C50.1957 46.2624 43.4601 52.9627 35.18 52.9191L34.4306 52.9152C34.0674 52.9699 33.6955 52.9982 33.3171 52.9982H19.077C10.8825 52.9982 4.2395 46.3552 4.2395 38.1607H16.7864V35.8702V33.6794C16.7864 27.3925 20.6704 22.0128 26.1698 19.8088L37.35 5V18.7423Z" fill="url(#paint1_radial_2057_24734)"/>
<path fill-rule="evenodd" clip-rule="evenodd" d="M37.4626 18.7423H39.9335L50.3085 5V35.0734L50.3085 37.9822C50.3085 46.2624 43.5729 52.9627 35.2928 52.9191L34.543 52.9152C34.1797 52.9699 33.8079 52.9982 33.4294 52.9982H19.1893C10.9948 52.9982 4.35181 46.3552 4.35181 38.1607H16.8991V35.8702V33.6794C16.8991 27.3926 20.783 22.013 26.2823 19.809L37.4626 5V18.7423Z" fill="url(#paint2_radial_2057_24734)"/>
<circle cx="28.789" cy="44.9616" r="2.532" fill="url(#paint3_linear_2057_24734)" stroke="url(#paint4_linear_2057_24734)" stroke-width="0.440347"/>
<circle cx="34.1386" cy="34.8989" r="3.56001" fill="white"/>
<mask id="mask0_2057_24734" style="mask-type:alpha" maskUnits="userSpaceOnUse" x="30" y="31" width="8" height="8">
<circle cx="34.1386" cy="34.8989" r="3.56001" fill="white"/>
</mask>
<g mask="url(#mask0_2057_24734)">
<circle cx="35.0346" cy="34.8993" r="2.86294" fill="#191919"/>
</g>
<circle cx="25.1264" cy="34.8989" r="3.56001" fill="white"/>
<mask id="mask1_2057_24734" style="mask-type:alpha" maskUnits="userSpaceOnUse" x="21" y="31" width="8" height="8">
<circle cx="25.1264" cy="34.8989" r="3.56001" fill="white"/>
</mask>
<g mask="url(#mask1_2057_24734)">
<circle cx="26.0226" cy="34.8993" r="2.86294" fill="#191919"/>
</g>
<path fill-rule="evenodd" clip-rule="evenodd" d="M13.7495 43.4381C13.7495 43.7406 13.5043 43.9858 13.2018 43.9858C12.8993 43.9858 12.6541 43.7406 12.6541 43.4381C12.6541 43.1356 12.8993 42.8904 13.2018 42.8904C13.5043 42.8904 13.7495 43.1356 13.7495 43.4381ZM10.9113 43.4381C10.9113 43.7406 10.6661 43.9858 10.3636 43.9858C10.0611 43.9858 9.81592 43.7406 9.81592 43.4381C9.81592 43.1356 10.0611 42.8904 10.3636 42.8904C10.6661 42.8904 10.9113 43.1356 10.9113 43.4381ZM11.7578 45.9776C12.0602 45.9776 12.3054 45.7324 12.3054 45.4299C12.3054 45.1275 12.0602 44.8822 11.7578 44.8822C11.4553 44.8822 11.2101 45.1275 11.2101 45.4299C11.2101 45.7324 11.4553 45.9776 11.7578 45.9776Z" fill="#191919"/>
<mask id="path-15-inside-2_2057_24734" fill="white">
<path d="M4.2395 37.6128H7.57162C8.12371 37.6128 8.57126 38.0603 8.57126 38.6124C8.57126 40.4527 7.07942 41.9446 5.23914 41.9446H4.2395V37.6128Z"/>
</mask>
<path d="M4.2395 37.6128H7.57162C8.12371 37.6128 8.57126 38.0603 8.57126 38.6124C8.57126 40.4527 7.07942 41.9446 5.23914 41.9446H4.2395V37.6128Z" fill="#191919"/>
<path d="M4.2395 37.6128H8.57126H4.2395ZM8.90152 38.8547C8.90152 40.7436 7.37029 42.2748 5.48142 42.2748H4.2395V41.6143H5.23914C6.89702 41.6143 8.241 40.2703 8.241 38.6124L8.90152 38.8547ZM4.2395 41.9446V37.6128V41.9446ZM7.6596 37.6128C8.3455 37.6128 8.90152 38.1688 8.90152 38.8547C8.90152 40.7436 7.37029 42.2748 5.48142 42.2748L5.23914 41.6143C6.89702 41.6143 8.241 40.2703 8.241 38.6124C8.241 38.0603 7.94131 37.6128 7.57162 37.6128H7.6596Z" fill="white" mask="url(#path-15-inside-2_2057_24734)"/>
<path fill-rule="evenodd" clip-rule="evenodd" d="M47.0636 43.5304C47.0462 38.7332 43.1591 34.8497 38.3667 34.8497C43.1698 34.8497 47.0636 30.9487 47.0636 26.1367C47.0809 30.934 50.968 34.8175 55.7604 34.8175C50.9572 34.8175 47.0636 38.7184 47.0636 43.5304Z" fill="url(#paint5_linear_2057_24734)"/>
<defs>
<filter id="filter0_d_2057_24734" x="0.989502" y="0.269775" width="56.771" height="56.9785" filterUnits="userSpaceOnUse" color-interpolation-filters="sRGB">
<feFlood flood-opacity="0" result="BackgroundImageFix"/>
<feColorMatrix in="SourceAlpha" type="matrix" values="0 0 0 0 0 0 0 0 0 0 0 0 0 0 0 0 0 0 127 0" result="hardAlpha"/>
<feOffset dy="1"/>
<feGaussianBlur stdDeviation="1"/>
<feComposite in2="hardAlpha" operator="out"/>
<feColorMatrix type="matrix" values="0 0 0 0 0 0 0 0 0 0 0 0 0 0 0 0 0 0 0.25 0"/>
<feBlend mode="normal" in2="BackgroundImageFix" result="effect1_dropShadow_2057_24734"/>
<feBlend mode="normal" in="SourceGraphic" in2="effect1_dropShadow_2057_24734" result="shape"/>
</filter>
<linearGradient id="paint0_linear_2057_24734" x1="27.2176" y1="5" x2="27.2176" y2="52.9982" gradientUnits="userSpaceOnUse">
<stop offset="0.19272" stop-color="#191919"/>
<stop offset="0.29133" stop-color="#774DFF" stop-opacity="0"/>
</linearGradient>
<radialGradient id="paint1_radial_2057_24734" cx="0" cy="0" r="1" gradientUnits="userSpaceOnUse" gradientTransform="translate(4.2395 38.2465) rotate(-0.274145) scale(46.0165 44.06)">
<stop offset="0.152306" stop-color="#191919"/>
<stop offset="0.283418" stop-color="#774DFF" stop-opacity="0"/>
</radialGradient>
<radialGradient id="paint2_radial_2057_24734" cx="0" cy="0" r="1" gradientUnits="userSpaceOnUse" gradientTransform="translate(4.35181 9.95394) rotate(43.0886) scale(63.0105 60.3306)">
<stop offset="0.786999" stop-color="white" stop-opacity="0"/>
<stop offset="1" stop-color="white"/>
</radialGradient>
<linearGradient id="paint3_linear_2057_24734" x1="28.789" y1="42.2095" x2="28.6789" y2="54.2089" gradientUnits="userSpaceOnUse">
<stop offset="0.160696" stop-color="#191919"/>
<stop offset="0.829704" stop-color="#FF3464"/>
</linearGradient>
<linearGradient id="paint4_linear_2057_24734" x1="28.789" y1="42.2095" x2="28.6789" y2="49.6954" gradientUnits="userSpaceOnUse">
<stop stop-color="#1A1A1A"/>
<stop offset="1" stop-color="#1A1A1A" stop-opacity="0"/>
</linearGradient>
<linearGradient id="paint5_linear_2057_24734" x1="47.0636" y1="26.1367" x2="47.0636" y2="43.5304" gradientUnits="userSpaceOnUse">
<stop stop-color="white"/>
<stop offset="0.555437" stop-color="#FFE353"/>
</linearGradient>
</defs>
</svg>
