<svg width="43" height="46" viewBox="0 0 43 46" fill="none" xmlns="http://www.w3.org/2000/svg">
<g filter="url(#filter0_d_2057_30228)">
<mask id="path-1-outside-1_2057_30228" maskUnits="userSpaceOnUse" x="1.87675" y="1" width="40" height="42" fill="black">
<rect fill="white" x="1.87675" y="1" width="40" height="42"/>
<path fill-rule="evenodd" clip-rule="evenodd" d="M30.9115 14.8272H28.9643V4L20.1557 15.6675C18.7661 16.2245 17.5075 17.0387 16.4387 18.0513H13.4587C12.8838 18.0513 12.4178 18.5173 12.4178 19.0922V21.6943C12.4178 22.2532 12.8583 22.7092 13.411 22.734C12.991 23.9438 12.7627 25.2432 12.7627 26.596V28.3221V30.1273H2.8768C2.8768 36.5837 8.11076 41.8177 14.5672 41.8177H25.7868C26.0863 41.8177 26.3806 41.7952 26.668 41.7517L27.255 41.7548C33.7788 41.7891 39.0857 36.51 39.0857 29.9861L39.0857 27.6946V22.7275C39.6009 22.6651 40 22.2263 40 21.6943V19.0922C40 18.5602 39.6009 18.1214 39.0857 18.059V14.8272L39.0857 4L30.9115 14.8272Z"/>
</mask>
<path fill-rule="evenodd" clip-rule="evenodd" d="M30.9115 14.8272H28.9643V4L20.1557 15.6675C18.7661 16.2245 17.5075 17.0387 16.4387 18.0513H13.4587C12.8838 18.0513 12.4178 18.5173 12.4178 19.0922V21.6943C12.4178 22.2532 12.8583 22.7092 13.411 22.734C12.991 23.9438 12.7627 25.2432 12.7627 26.596V28.3221V30.1273H2.8768C2.8768 36.5837 8.11076 41.8177 14.5672 41.8177H25.7868C26.0863 41.8177 26.3806 41.7952 26.668 41.7517L27.255 41.7548C33.7788 41.7891 39.0857 36.51 39.0857 29.9861L39.0857 27.6946V22.7275C39.6009 22.6651 40 22.2263 40 21.6943V19.0922C40 18.5602 39.6009 18.1214 39.0857 18.059V14.8272L39.0857 4L30.9115 14.8272Z" fill="url(#paint0_linear_2057_30228)"/>
<path d="M28.9643 14.8272H27.9794V15.812H28.9643V14.8272ZM30.9115 14.8272V15.812H31.402L31.6975 15.4206L30.9115 14.8272ZM28.9643 4H29.9492V1.06095L28.1783 3.40659L28.9643 4ZM20.1557 15.6675L20.5221 16.5817L20.7765 16.4797L20.9417 16.261L20.1557 15.6675ZM16.4387 18.0513V19.0362H16.8311L17.116 18.7663L16.4387 18.0513ZM13.411 22.734L14.3414 23.0571L14.7746 21.8096L13.4553 21.7502L13.411 22.734ZM12.7627 30.1273V31.1122H13.7476V30.1273H12.7627ZM2.8768 30.1273V29.1425H1.89193V30.1273H2.8768ZM26.668 41.7517L26.6732 40.7668L26.5965 40.7664L26.5207 40.7779L26.668 41.7517ZM27.255 41.7548L27.2498 42.7396H27.2498L27.255 41.7548ZM39.0857 29.9861L38.1008 29.9861V29.9861H39.0857ZM39.0857 27.6946L40.0705 27.6946V27.6946H39.0857ZM39.0857 22.7275L38.9672 21.7498L38.1008 21.8547V22.7275H39.0857ZM39.0857 18.059H38.1008V18.9317L38.9672 19.0367L39.0857 18.059ZM39.0857 14.8272H38.1008H39.0857ZM39.0857 4L40.0705 4L40.0705 1.06095L38.2997 3.40659L39.0857 4ZM28.9643 15.812H30.9115V13.8423H28.9643V15.812ZM27.9794 4V14.8272H29.9492V4H27.9794ZM20.9417 16.261L29.7503 4.59341L28.1783 3.40659L19.3697 15.0741L20.9417 16.261ZM17.116 18.7663C18.0961 17.8377 19.2496 17.0917 20.5221 16.5817L19.7893 14.7534C18.2826 15.3572 16.9189 16.2397 15.7613 17.3364L17.116 18.7663ZM13.4587 19.0362H16.4387V17.0665H13.4587V19.0362ZM13.4027 19.0922C13.4027 19.0613 13.4277 19.0362 13.4587 19.0362V17.0665C12.3399 17.0665 11.433 17.9734 11.433 19.0922H13.4027ZM13.4027 21.6943V19.0922H11.433V21.6943H13.4027ZM13.4553 21.7502C13.4264 21.7489 13.4027 21.7241 13.4027 21.6943H11.433C11.433 22.7822 12.2902 23.6694 13.3667 23.7179L13.4553 21.7502ZM13.7476 26.596C13.7476 25.3547 13.9569 24.1644 14.3414 23.0571L12.4807 22.411C12.025 23.7232 11.7779 25.1318 11.7779 26.596H13.7476ZM13.7476 28.3221V26.596H11.7779V28.3221H13.7476ZM13.7476 30.1273V28.3221H11.7779V30.1273H13.7476ZM2.8768 31.1122H12.7627V29.1425H2.8768V31.1122ZM14.5672 40.8328C8.65468 40.8328 3.86166 36.0398 3.86166 30.1273H1.89193C1.89193 37.1277 7.56683 42.8026 14.5672 42.8026V40.8328ZM25.7868 40.8328H14.5672V42.8026H25.7868V40.8328ZM26.5207 40.7779C26.2819 40.814 26.0368 40.8328 25.7868 40.8328V42.8026C26.1358 42.8026 26.4792 42.7763 26.8152 42.7255L26.5207 40.7779ZM27.2602 40.7699L26.6732 40.7668L26.6628 42.7365L27.2498 42.7396L27.2602 40.7699ZM38.1008 29.9861C38.1008 35.9641 33.238 40.8014 27.2602 40.7699L27.2498 42.7396C34.3196 42.7768 40.0705 37.056 40.0705 29.9861H38.1008ZM38.1008 27.6946L38.1008 29.9861L40.0705 29.9861L40.0705 27.6946L38.1008 27.6946ZM38.1008 22.7275V27.6946H40.0705V22.7275H38.1008ZM39.0152 21.6943C39.0152 21.7092 39.0106 21.7207 39.0012 21.7313C38.9909 21.7428 38.9788 21.7484 38.9672 21.7498L39.2041 23.7052C40.2078 23.5836 40.9849 22.7304 40.9849 21.6943H39.0152ZM39.0152 19.0922V21.6943H40.9849V19.0922H39.0152ZM38.9672 19.0367C38.9788 19.0381 38.9909 19.0436 39.0012 19.0552C39.0106 19.0657 39.0152 19.0772 39.0152 19.0922H40.9849C40.9849 18.056 40.2078 17.2028 39.2041 17.0812L38.9672 19.0367ZM38.1008 14.8272V18.059H40.0705V14.8272H38.1008ZM38.1008 4L38.1008 14.8272H40.0705L40.0705 4L38.1008 4ZM31.6975 15.4206L39.8717 4.59341L38.2997 3.40659L30.1255 14.2337L31.6975 15.4206Z" fill="white" mask="url(#path-1-outside-1_2057_30228)"/>
</g>
<path fill-rule="evenodd" clip-rule="evenodd" d="M28.9643 14.8272H30.9115L39.0857 4L39.0857 14.8272L39.0857 27.6946L39.0857 29.9861C39.0857 36.51 33.7788 41.7891 27.255 41.7548L26.668 41.7517C26.3806 41.7952 26.0863 41.8177 25.7868 41.8177H14.5672C8.11076 41.8177 2.8768 36.5837 2.8768 30.1273H12.7627V28.3221V26.596C12.7627 21.6427 15.8228 17.4041 20.1557 15.6675L28.9643 4V14.8272Z" fill="#FF3464"/>
<path fill-rule="evenodd" clip-rule="evenodd" d="M28.9643 14.8272H30.9115L39.0857 4L39.0857 14.8272L39.0857 27.6946L39.0857 29.9861C39.0857 36.51 33.7788 41.7891 27.255 41.7548L26.668 41.7517C26.3806 41.7952 26.0863 41.8177 25.7868 41.8177H14.5672C8.11076 41.8177 2.8768 36.5837 2.8768 30.1273H12.7627V28.3221V26.596C12.7627 21.6427 15.8228 17.4041 20.1557 15.6675L28.9643 4V14.8272Z" fill="url(#paint1_linear_2057_30228)"/>
<path fill-rule="evenodd" clip-rule="evenodd" d="M28.9643 14.8272H30.9115L39.0857 4L39.0857 14.8272L39.0857 27.6946L39.0857 29.9861C39.0857 36.51 33.7788 41.7891 27.255 41.7548L26.668 41.7517C26.3806 41.7952 26.0863 41.8177 25.7868 41.8177H14.5672C8.11076 41.8177 2.8768 36.5837 2.8768 30.1273H12.7627V28.3221V26.596C12.7627 21.6427 15.8228 17.4041 20.1557 15.6675L28.9643 4V14.8272Z" fill="url(#paint2_radial_2057_30228)"/>
<path fill-rule="evenodd" clip-rule="evenodd" d="M29.0529 14.8272H31.0001L39.1742 4V14.8272V27.6946V29.9861C39.1742 36.51 33.8674 41.7891 27.3435 41.7548L26.7567 41.7517C26.4693 41.7952 26.175 41.8177 25.8755 41.8177H14.6559C8.19951 41.8177 2.96555 36.5837 2.96555 30.1273H12.8513V28.3221V26.596C12.8513 21.6427 15.9114 17.4041 20.2442 15.6676L29.0529 4V14.8272Z" fill="url(#paint3_radial_2057_30228)"/>
<path fill-rule="evenodd" clip-rule="evenodd" d="M8.13355 34.285C8.13355 34.5234 7.94035 34.7166 7.70203 34.7166C7.46371 34.7166 7.27051 34.5234 7.27051 34.285C7.27051 34.0467 7.46371 33.8535 7.70203 33.8535C7.94035 33.8535 8.13355 34.0467 8.13355 34.285ZM10.3694 34.285C10.3694 34.5234 10.1762 34.7166 9.93784 34.7166C9.69952 34.7166 9.50632 34.5234 9.50632 34.285C9.50632 34.0467 9.69952 33.8535 9.93784 33.8535C10.1762 33.8535 10.3694 34.0467 10.3694 34.285ZM8.80031 36.2855C9.03864 36.2855 9.23184 36.0923 9.23184 35.8539C9.23184 35.6156 9.03864 35.4224 8.80031 35.4224C8.56199 35.4224 8.36879 35.6156 8.36879 35.8539C8.36879 36.0923 8.56199 36.2855 8.80031 36.2855Z" fill="#191919"/>
<mask id="path-8-inside-2_2057_30228" fill="white">
<path d="M2.8768 29.6963H5.50215C5.93713 29.6963 6.28976 30.0489 6.28976 30.4839C6.28976 31.9338 5.11435 33.1092 3.66441 33.1092H2.8768V29.6963Z"/>
</mask>
<path d="M2.8768 29.6963H5.50215C5.93713 29.6963 6.28976 30.0489 6.28976 30.4839C6.28976 31.9338 5.11435 33.1092 3.66441 33.1092H2.8768V29.6963Z" fill="#191919"/>
<path d="M2.8768 29.6963H6.28976H2.8768ZM6.54997 30.6748C6.54997 32.163 5.34352 33.3695 3.8553 33.3695H2.8768V32.849H3.66441C4.97064 32.849 6.02955 31.7901 6.02955 30.4839L6.54997 30.6748ZM2.8768 33.1092V29.6963V33.1092ZM5.57147 29.6963C6.11188 29.6963 6.54997 30.1344 6.54997 30.6748V30.6748C6.54997 32.163 5.34352 33.3695 3.8553 33.3695L3.66441 32.849C4.97064 32.849 6.02955 31.7901 6.02955 30.4839V30.4839C6.02955 30.0489 5.79342 29.6963 5.50215 29.6963H5.57147Z" fill="white" mask="url(#path-8-inside-2_2057_30228)"/>
<path d="M19.3567 35.7585C19.8522 36.0838 20.5242 36.2666 21.2249 36.2666C21.9256 36.2666 22.5976 36.0838 23.0931 35.7585C23.5886 35.4332 23.867 34.992 23.867 34.5319" stroke="#191919" stroke-width="0.520419" stroke-linecap="round"/>
<circle cx="26.4341" cy="27.5578" r="2.8049" fill="white"/>
<mask id="mask0_2057_30228" style="mask-type:alpha" maskUnits="userSpaceOnUse" x="23" y="24" width="7" height="7">
<circle cx="26.4341" cy="27.5578" r="2.8049" fill="white"/>
</mask>
<g mask="url(#mask0_2057_30228)">
<circle cx="27.1402" cy="27.5584" r="2.25569" fill="#191919"/>
</g>
<circle cx="19.3333" cy="27.5578" r="2.8049" fill="white"/>
<mask id="mask1_2057_30228" style="mask-type:alpha" maskUnits="userSpaceOnUse" x="16" y="24" width="7" height="7">
<circle cx="19.3333" cy="27.5578" r="2.8049" fill="white"/>
</mask>
<g mask="url(#mask1_2057_30228)">
<circle cx="20.0393" cy="27.5584" r="2.25569" fill="#191919"/>
</g>
<rect x="12.4179" y="18.0518" width="27.5822" height="4.68377" rx="1.04084" fill="url(#paint4_linear_2057_30228)"/>
<path fill-rule="evenodd" clip-rule="evenodd" d="M34.4489 27.4994C34.4489 28.3114 33.8241 28.9817 33.0551 28.9817C32.2981 28.9817 31.6733 28.3114 31.6733 27.4994C31.6733 26.61 32.5264 25.4757 33.0551 24.8184C33.5837 25.5144 34.4489 26.5713 34.4489 27.4994Z" fill="url(#paint5_linear_2057_30228)"/>
<path fill-rule="evenodd" clip-rule="evenodd" d="M37.2243 31.6635C37.2243 32.4755 36.5995 33.1458 35.8305 33.1458C35.0735 33.1458 34.4487 32.4755 34.4487 31.6635C34.4487 30.7741 35.3018 29.6398 35.8305 28.9824C36.3592 29.6785 37.2243 30.7354 37.2243 31.6635Z" fill="url(#paint6_linear_2057_30228)"/>
<defs>
<filter id="filter0_d_2057_30228" x="0.316154" y="0.272655" width="42.2445" height="44.8938" filterUnits="userSpaceOnUse" color-interpolation-filters="sRGB">
<feFlood flood-opacity="0" result="BackgroundImageFix"/>
<feColorMatrix in="SourceAlpha" type="matrix" values="0 0 0 0 0 0 0 0 0 0 0 0 0 0 0 0 0 0 127 0" result="hardAlpha"/>
<feOffset dy="0.787892"/>
<feGaussianBlur stdDeviation="0.787892"/>
<feComposite in2="hardAlpha" operator="out"/>
<feColorMatrix type="matrix" values="0 0 0 0 0 0 0 0 0 0 0 0 0 0 0 0 0 0 0.25 0"/>
<feBlend mode="normal" in2="BackgroundImageFix" result="effect1_dropShadow_2057_30228"/>
<feBlend mode="normal" in="SourceGraphic" in2="effect1_dropShadow_2057_30228" result="shape"/>
</filter>
<linearGradient id="paint0_linear_2057_30228" x1="40" y1="20.3934" x2="12.4178" y2="20.3934" gradientUnits="userSpaceOnUse">
<stop stop-color="#00D8ED"/>
<stop offset="1" stop-color="#E2FD52"/>
</linearGradient>
<linearGradient id="paint1_linear_2057_30228" x1="20.9812" y1="4" x2="20.9812" y2="41.8177" gradientUnits="userSpaceOnUse">
<stop offset="0.19272" stop-color="#191919"/>
<stop offset="0.29133" stop-color="#774DFF" stop-opacity="0"/>
</linearGradient>
<radialGradient id="paint2_radial_2057_30228" cx="0" cy="0" r="1" gradientUnits="userSpaceOnUse" gradientTransform="translate(2.87675 30.1948) rotate(-0.274144) scale(36.2564 34.7148)">
<stop offset="0.152306" stop-color="#191919"/>
<stop offset="0.283418" stop-color="#774DFF" stop-opacity="0"/>
</radialGradient>
<radialGradient id="paint3_radial_2057_30228" cx="0" cy="0" r="1" gradientUnits="userSpaceOnUse" gradientTransform="translate(2.96549 7.9032) rotate(43.0889) scale(49.6455 47.5341)">
<stop offset="0.786999" stop-color="white" stop-opacity="0"/>
<stop offset="1" stop-color="white"/>
</radialGradient>
<linearGradient id="paint4_linear_2057_30228" x1="40.0001" y1="20.3936" x2="12.4179" y2="20.3936" gradientUnits="userSpaceOnUse">
<stop stop-color="#00D8ED"/>
<stop offset="1" stop-color="#E2FD52"/>
</linearGradient>
<linearGradient id="paint5_linear_2057_30228" x1="33.0611" y1="24.8184" x2="33.0611" y2="28.9817" gradientUnits="userSpaceOnUse">
<stop stop-color="#EEFCFE"/>
<stop offset="1" stop-color="#00D8ED"/>
</linearGradient>
<linearGradient id="paint6_linear_2057_30228" x1="35.8365" y1="28.9824" x2="35.8365" y2="33.1458" gradientUnits="userSpaceOnUse">
<stop stop-color="#EEFCFE"/>
<stop offset="1" stop-color="#00D8ED"/>
</linearGradient>
</defs>
</svg>
