<svg width="58" height="58" viewBox="0 0 58 58" fill="none" xmlns="http://www.w3.org/2000/svg">
<g filter="url(#filter0_d_2057_21665)">
<mask id="path-1-outside-1_2057_21665" maskUnits="userSpaceOnUse" x="2.10254" y="1" width="52" height="54" fill="black">
<rect fill="white" x="2.10254" y="1" width="52" height="54"/>
<path fill-rule="evenodd" clip-rule="evenodd" d="M37.2133 18.1986C37.5709 18.3156 37.912 18.4968 38.2186 18.7423H39.684L50.059 5V20.6079C50.8892 20.8057 51.6395 21.3314 52.0999 22.1289C52.9882 23.6675 52.461 25.6349 50.9224 26.5232C50.7977 26.5952 50.7549 26.7547 50.827 26.8794C51.6312 28.2724 51.2752 30.0168 50.059 30.9937V35.0734L50.059 37.9822C50.059 46.2624 43.3234 52.9627 35.0433 52.9191L34.2905 52.9152C33.9283 52.9695 33.5575 52.9977 33.1801 52.9977H18.9401C18.1621 52.9977 17.3981 52.9378 16.6524 52.8225L16.6496 52.8224V52.822C9.54262 51.7208 4.10254 45.5758 4.10254 38.1602H16.6496V35.8702V33.6794C16.6496 32.3525 16.8227 31.066 17.1474 29.8413C16.1758 28.8352 15.943 27.2705 16.6772 25.9989C16.7492 25.8741 16.7065 25.7146 16.5817 25.6426C15.0431 24.7543 14.516 22.7869 15.4043 21.2483C15.9985 20.219 17.0757 19.6424 18.1844 19.6393C18.733 19.6378 19.2894 19.7767 19.7988 20.0708C19.8402 20.0947 19.8854 20.106 19.93 20.1058C20.0197 20.1054 20.1068 20.0587 20.1549 19.9754C20.7491 18.9461 21.8263 18.3695 22.9349 18.3664C23.4836 18.3649 24.04 18.5038 24.5494 18.7979C25.0455 19.0844 25.4365 19.483 25.7088 19.9433C25.8162 19.8973 25.9244 19.8524 26.0331 19.8088L37.2133 5V18.1986Z"/>
</mask>
<path fill-rule="evenodd" clip-rule="evenodd" d="M37.2133 18.1986C37.5709 18.3156 37.912 18.4968 38.2186 18.7423H39.684L50.059 5V20.6079C50.8892 20.8057 51.6395 21.3314 52.0999 22.1289C52.9882 23.6675 52.461 25.6349 50.9224 26.5232C50.7977 26.5952 50.7549 26.7547 50.827 26.8794C51.6312 28.2724 51.2752 30.0168 50.059 30.9937V35.0734L50.059 37.9822C50.059 46.2624 43.3234 52.9627 35.0433 52.9191L34.2905 52.9152C33.9283 52.9695 33.5575 52.9977 33.1801 52.9977H18.9401C18.1621 52.9977 17.3981 52.9378 16.6524 52.8225L16.6496 52.8224V52.822C9.54262 51.7208 4.10254 45.5758 4.10254 38.1602H16.6496V35.8702V33.6794C16.6496 32.3525 16.8227 31.066 17.1474 29.8413C16.1758 28.8352 15.943 27.2705 16.6772 25.9989C16.7492 25.8741 16.7065 25.7146 16.5817 25.6426C15.0431 24.7543 14.516 22.7869 15.4043 21.2483C15.9985 20.219 17.0757 19.6424 18.1844 19.6393C18.733 19.6378 19.2894 19.7767 19.7988 20.0708C19.8402 20.0947 19.8854 20.106 19.93 20.1058C20.0197 20.1054 20.1068 20.0587 20.1549 19.9754C20.7491 18.9461 21.8263 18.3695 22.9349 18.3664C23.4836 18.3649 24.04 18.5038 24.5494 18.7979C25.0455 19.0844 25.4365 19.483 25.7088 19.9433C25.8162 19.8973 25.9244 19.8524 26.0331 19.8088L37.2133 5V18.1986Z" fill="#DFFA51"/>
<path d="M38.2186 18.7423L37.4373 19.718L37.7798 19.9923H38.2186V18.7423ZM37.2133 18.1986H35.9633V19.105L36.8248 19.3867L37.2133 18.1986ZM39.684 18.7423V19.9923H40.3065L40.6816 19.4955L39.684 18.7423ZM50.059 5H51.309V1.26973L49.0613 4.24683L50.059 5ZM50.059 20.6079H48.809V21.5951L49.7693 21.8239L50.059 20.6079ZM52.0999 22.1289L53.1824 21.5039V21.5039L52.0999 22.1289ZM50.9224 26.5232L51.5474 27.6057L51.5474 27.6057L50.9224 26.5232ZM50.827 26.8794L51.9095 26.2544L51.9095 26.2544L50.827 26.8794ZM50.059 30.9937L49.2762 30.0192L48.809 30.3944V30.9937H50.059ZM50.059 35.0734L51.309 35.0734V35.0734H50.059ZM50.059 37.9822L48.809 37.9822V37.9822H50.059ZM35.0433 52.9191L35.0499 51.6691H35.0499L35.0433 52.9191ZM34.2905 52.9152L34.2971 51.6652L34.2005 51.6647L34.105 51.679L34.2905 52.9152ZM16.6524 52.8225L16.8436 51.5872L16.752 51.573L16.6592 51.5725L16.6524 52.8225ZM16.6496 52.8224H15.3996V54.0657L16.6429 54.0724L16.6496 52.8224ZM16.6496 52.822H17.8996V51.7508L16.841 51.5868L16.6496 52.822ZM4.10254 38.1602V36.9102H2.85254V38.1602H4.10254ZM16.6496 38.1602V39.4102H17.8996V38.1602H16.6496ZM17.1474 29.8413L18.3556 30.1616L18.5363 29.4801L18.0465 28.973L17.1474 29.8413ZM16.6772 25.9989L17.7597 26.6239L17.7597 26.6239L16.6772 25.9989ZM16.5817 25.6426L15.9567 26.7251L15.9567 26.7251L16.5817 25.6426ZM15.4043 21.2483L16.4868 21.8733L15.4043 21.2483ZM18.1844 19.6393L18.1878 20.8893H18.1879L18.1844 19.6393ZM19.7988 20.0708L20.4238 18.9883V18.9883L19.7988 20.0708ZM19.93 20.1058L19.9347 21.3558L19.9358 21.3558L19.93 20.1058ZM20.1549 19.9754L21.2374 20.6004L21.2374 20.6004L20.1549 19.9754ZM22.9349 18.3664L22.9384 19.6164H22.9385L22.9349 18.3664ZM24.5494 18.7979L23.9244 19.8805L23.9244 19.8805L24.5494 18.7979ZM25.7088 19.9433L24.6329 20.5797L25.1918 21.5247L26.2011 21.0923L25.7088 19.9433ZM26.0331 19.8088L26.4981 20.9691L26.8211 20.8397L27.0307 20.562L26.0331 19.8088ZM37.2133 5H38.4633V1.26973L36.2157 4.24683L37.2133 5ZM38.9999 17.7666C38.5739 17.4254 38.0992 17.1732 37.6018 17.0105L36.8248 19.3867C37.0426 19.4579 37.2501 19.5681 37.4373 19.718L38.9999 17.7666ZM38.2186 19.9923H39.684V17.4923H38.2186V19.9923ZM40.6816 19.4955L51.0566 5.75317L49.0613 4.24683L38.6863 17.9891L40.6816 19.4955ZM48.809 5V20.6079H51.309V5H48.809ZM53.1824 21.5039C52.5431 20.3967 51.4992 19.666 50.3486 19.3919L49.7693 21.8239C50.2791 21.9453 50.7358 22.2662 51.0173 22.7539L53.1824 21.5039ZM51.5474 27.6057C53.6839 26.3722 54.4159 23.6403 53.1824 21.5039L51.0173 22.7539C51.5605 23.6946 51.2381 24.8975 50.2974 25.4407L51.5474 27.6057ZM51.9095 26.2544C52.1827 26.7276 52.0205 27.3326 51.5474 27.6057L50.2974 25.4407C49.5748 25.8579 49.3272 26.7818 49.7444 27.5044L51.9095 26.2544ZM50.8418 31.9683C52.5315 30.611 53.0268 28.1896 51.9095 26.2544L49.7444 27.5044C50.2356 28.3551 50.019 29.4225 49.2762 30.0192L50.8418 31.9683ZM48.809 30.9937V35.0734H51.309V30.9937H48.809ZM48.809 35.0734L48.809 37.9822L51.309 37.9822L51.309 35.0734L48.809 35.0734ZM48.809 37.9822C48.809 45.5695 42.6371 51.709 35.0499 51.6691L35.0368 54.1691C44.0098 54.2163 51.309 46.9554 51.309 37.9822H48.809ZM35.0499 51.6691L34.2971 51.6652L34.284 54.1652L35.0368 54.1691L35.0499 51.6691ZM34.105 51.679C33.804 51.7242 33.4952 51.7477 33.1801 51.7477V54.2477C33.6198 54.2477 34.0526 54.2149 34.4761 54.1513L34.105 51.679ZM33.1801 51.7477H18.9401V54.2477H33.1801V51.7477ZM18.9401 51.7477C18.2263 51.7477 17.5262 51.6928 16.8436 51.5872L16.4613 54.0577C17.27 54.1829 18.0979 54.2477 18.9401 54.2477V51.7477ZM16.6592 51.5725L16.6564 51.5725L16.6429 54.0724L16.6457 54.0724L16.6592 51.5725ZM17.8996 52.8224V52.822H15.3996V52.8224H17.8996ZM16.841 51.5868C10.3338 50.5785 5.35254 44.9499 5.35254 38.1602H2.85254C2.85254 46.2017 8.7514 52.8631 16.4582 54.0573L16.841 51.5868ZM4.10254 39.4102H16.6496V36.9102H4.10254V39.4102ZM17.8996 38.1602V35.8702H15.3996V38.1602H17.8996ZM17.8996 35.8702V33.6794H15.3996V35.8702H17.8996ZM17.8996 33.6794C17.8996 32.4616 18.0584 31.2828 18.3556 30.1616L15.9391 29.521C15.5869 30.8493 15.3996 32.2434 15.3996 33.6794H17.8996ZM15.5947 25.3739C14.5743 27.1413 14.8995 29.313 16.2482 30.7096L18.0465 28.973C17.452 28.3573 17.3117 27.3998 17.7597 26.6239L15.5947 25.3739ZM15.9567 26.7251C15.4836 26.452 15.3215 25.847 15.5947 25.3739L17.7597 26.6239C18.1769 25.9013 17.9294 24.9772 17.2067 24.56L15.9567 26.7251ZM14.3218 20.6233C13.0883 22.7598 13.8203 25.4916 15.9567 26.7251L17.2067 24.56C16.266 24.0169 15.9437 22.814 16.4868 21.8733L14.3218 20.6233ZM18.1809 18.3893C16.6453 18.3935 15.1477 19.1927 14.3218 20.6233L16.4868 21.8733C16.8494 21.2453 17.5062 20.8912 18.1878 20.8893L18.1809 18.3893ZM20.4238 18.9883C19.7183 18.5809 18.9442 18.3872 18.1808 18.3893L18.1879 20.8893C18.5219 20.8884 18.8606 20.9725 19.1738 21.1533L20.4238 18.9883ZM19.9253 18.8558C20.0958 18.8552 20.2687 18.8987 20.4238 18.9883L19.1738 21.1533C19.4117 21.2907 19.6751 21.3568 19.9347 21.3558L19.9253 18.8558ZM19.0723 19.3504C19.2556 19.033 19.5878 18.8574 19.9242 18.8558L19.9358 21.3558C20.4516 21.3534 20.958 21.0843 21.2374 20.6004L19.0723 19.3504ZM22.9315 17.1164C21.3958 17.1206 19.8983 17.9198 19.0723 19.3504L21.2374 20.6004C21.6 19.9724 22.2567 19.6183 22.9384 19.6164L22.9315 17.1164ZM25.1744 17.7154C24.4689 17.308 23.6947 17.1143 22.9314 17.1164L22.9385 19.6164C23.2725 19.6155 23.6112 19.6996 23.9244 19.8805L25.1744 17.7154ZM26.7847 19.3069C26.4058 18.6665 25.8615 18.1121 25.1744 17.7154L23.9244 19.8805C24.2296 20.0566 24.4672 20.2996 24.6329 20.5797L26.7847 19.3069ZM26.2011 21.0923C26.2995 21.0501 26.3985 21.009 26.4981 20.9691L25.5681 18.6485C25.4502 18.6958 25.333 18.7444 25.2164 18.7943L26.2011 21.0923ZM27.0307 20.562L38.2109 5.75317L36.2157 4.24683L25.0355 19.0557L27.0307 20.562ZM35.9633 5V18.1986H38.4633V5H35.9633Z" fill="white" mask="url(#path-1-outside-1_2057_21665)"/>
</g>
<path fill-rule="evenodd" clip-rule="evenodd" d="M37.2133 18.7423H39.684L50.059 5V35.0734L50.059 37.9822C50.059 46.2624 43.3234 52.9627 35.0433 52.9191L34.2905 52.9152C33.9283 52.9695 33.5575 52.9977 33.1801 52.9977H18.9401C18.1621 52.9977 17.3981 52.9378 16.6524 52.8225L16.6496 52.8224V52.822C9.54262 51.7208 4.10254 45.5758 4.10254 38.1602H16.6496V35.8702V33.6794C16.6496 27.3925 20.5337 22.0128 26.0331 19.8088L37.2133 5V18.7423Z" fill="#DFFA51"/>
<path fill-rule="evenodd" clip-rule="evenodd" d="M37.2133 18.7423H39.684L50.059 5V35.0734L50.059 37.9822C50.059 46.2624 43.3234 52.9627 35.0433 52.9191L34.2905 52.9152C33.9283 52.9695 33.5575 52.9977 33.1801 52.9977H18.9401C18.1621 52.9977 17.3981 52.9378 16.6524 52.8225L16.6496 52.8224V52.822C9.54262 51.7208 4.10254 45.5758 4.10254 38.1602H16.6496V35.8702V33.6794C16.6496 27.3925 20.5337 22.0128 26.0331 19.8088L37.2133 5V18.7423Z" fill="url(#paint0_linear_2057_21665)"/>
<path fill-rule="evenodd" clip-rule="evenodd" d="M37.2133 18.7423H39.684L50.059 5V35.0734L50.059 37.9822C50.059 46.2624 43.3234 52.9627 35.0433 52.9191L34.2905 52.9152C33.9283 52.9695 33.5575 52.9977 33.1801 52.9977H18.9401C18.1621 52.9977 17.3981 52.9378 16.6524 52.8225L16.6496 52.8224V52.822C9.54262 51.7208 4.10254 45.5758 4.10254 38.1602H16.6496V35.8702V33.6794C16.6496 27.3925 20.5337 22.0128 26.0331 19.8088L37.2133 5V18.7423Z" fill="url(#paint1_radial_2057_21665)"/>
<path fill-rule="evenodd" clip-rule="evenodd" d="M36.8634 5L25.6697 20.0367V20.178C20.621 22.5745 17.1302 27.7193 17.1302 33.6795V35.8703V38.1604H4.21484C4.21484 46.3549 10.8578 52.9979 19.0524 52.9979H32.783C33.168 52.9979 33.5462 52.9686 33.9154 52.912L35.0565 52.9181C43.337 52.9623 50.0732 46.2619 50.0732 37.9812V18.7424H49.5303V5L39.3001 18.7424H36.8634V5Z" fill="url(#paint2_radial_2057_21665)"/>
<circle cx="34.0017" cy="34.8994" r="3.56001" fill="white"/>
<mask id="mask0_2057_21665" style="mask-type:alpha" maskUnits="userSpaceOnUse" x="30" y="31" width="8" height="8">
<circle cx="34.0017" cy="34.8994" r="3.56001" fill="white"/>
</mask>
<g mask="url(#mask0_2057_21665)">
<circle cx="34.8983" cy="34.8991" r="2.86294" fill="#191919"/>
</g>
<circle cx="24.9899" cy="34.8994" r="3.56001" fill="white"/>
<mask id="mask1_2057_21665" style="mask-type:alpha" maskUnits="userSpaceOnUse" x="21" y="31" width="8" height="8">
<circle cx="24.9899" cy="34.8994" r="3.56001" fill="white"/>
</mask>
<g mask="url(#mask1_2057_21665)">
<circle cx="25.8859" cy="34.8991" r="2.86294" fill="#191919"/>
</g>
<path fill-rule="evenodd" clip-rule="evenodd" d="M10.7746 43.4381C10.7746 43.7406 10.5294 43.9858 10.2269 43.9858C9.92441 43.9858 9.6792 43.7406 9.6792 43.4381C9.6792 43.1356 9.92441 42.8904 10.2269 42.8904C10.5294 42.8904 10.7746 43.1356 10.7746 43.4381ZM13.6123 43.4381C13.6123 43.7406 13.3671 43.9858 13.0646 43.9858C12.7621 43.9858 12.5169 43.7406 12.5169 43.4381C12.5169 43.1356 12.7621 42.8904 13.0646 42.8904C13.3671 42.8904 13.6123 43.1356 13.6123 43.4381ZM11.6208 45.9777C11.9233 45.9777 12.1685 45.7325 12.1685 45.43C12.1685 45.1275 11.9233 44.8823 11.6208 44.8823C11.3184 44.8823 11.0731 45.1275 11.0731 45.43C11.0731 45.7325 11.3184 45.9777 11.6208 45.9777Z" fill="#191919"/>
<mask id="path-14-inside-2_2057_21665" fill="white">
<path d="M4.10254 37.6133H7.43466C7.98674 37.6133 8.4343 38.0608 8.4343 38.6129C8.4343 40.4532 6.94246 41.945 5.10218 41.945H4.10254V37.6133Z"/>
</mask>
<path d="M4.10254 37.6133H7.43466C7.98674 37.6133 8.4343 38.0608 8.4343 38.6129C8.4343 40.4532 6.94246 41.945 5.10218 41.945H4.10254V37.6133Z" fill="#191919"/>
<path d="M4.10254 37.6133H8.4343H4.10254ZM8.76456 38.8552C8.76456 40.7441 7.23333 42.2753 5.34446 42.2753H4.10254V41.6148H5.10218C6.76006 41.6148 8.10404 40.2708 8.10404 38.6129L8.76456 38.8552ZM4.10254 41.945V37.6133V41.945ZM7.52264 37.6133C8.20853 37.6133 8.76456 38.1693 8.76456 38.8552C8.76456 40.7441 7.23333 42.2753 5.34446 42.2753L5.10218 41.6148C6.76006 41.6148 8.10404 40.2708 8.10404 38.6129C8.10404 38.0608 7.80435 37.6133 7.43466 37.6133H7.52264Z" fill="white" mask="url(#path-14-inside-2_2057_21665)"/>
<path d="M31.4042 43.3106C31.4042 44.0697 31.1026 44.7977 30.5659 45.3345C30.0291 45.8713 29.3011 46.1729 28.5419 46.1729C27.7828 46.1729 27.0548 45.8713 26.518 45.3345C25.9812 44.7977 25.6797 44.0697 25.6797 43.3106" stroke="#191919" stroke-width="0.660521" stroke-linecap="round"/>
<path d="M42.9551 19.6784C41.4165 20.5667 40.8893 22.5341 41.7776 24.0727C41.8497 24.1974 41.8069 24.3569 41.6822 24.429C40.1436 25.3173 39.6164 27.2846 40.5047 28.8233C41.393 30.3619 43.3604 30.889 44.899 30.0007C45.0238 29.9287 45.1833 29.9714 45.2553 30.0961C46.1436 31.6347 48.111 32.1619 49.6496 31.2736C51.1882 30.3853 51.7154 28.4179 50.8271 26.8793C50.755 26.7546 50.7978 26.5951 50.9225 26.5231C52.4611 25.6347 52.9883 23.6673 52.1 22.1287C51.2116 20.5901 49.2443 20.063 47.7057 20.9513C47.5809 21.0233 47.4214 20.9806 47.3494 20.8558C46.4611 19.3172 44.4937 18.7901 42.9551 19.6784Z" fill="white"/>
<path opacity="0.9" d="M42.9551 19.6784C41.4165 20.5667 40.8893 22.5341 41.7776 24.0727C41.8497 24.1974 41.8069 24.3569 41.6822 24.429C40.1436 25.3173 39.6164 27.2846 40.5047 28.8233C41.393 30.3619 43.3604 30.889 44.899 30.0007C45.0238 29.9287 45.1833 29.9714 45.2553 30.0961C46.1436 31.6347 48.111 32.1619 49.6496 31.2736C51.1882 30.3853 51.7154 28.4179 50.8271 26.8793C50.755 26.7546 50.7978 26.5951 50.9225 26.5231C52.4611 25.6347 52.9883 23.6673 52.1 22.1287C51.2116 20.5901 49.2443 20.063 47.7057 20.9513C47.5809 21.0233 47.4214 20.9806 47.3494 20.8558C46.4611 19.3172 44.4937 18.7901 42.9551 19.6784Z" fill="url(#paint3_linear_2057_21665)"/>
<ellipse opacity="0.9" cx="46.3331" cy="25.5305" rx="2.32513" ry="2.21944" transform="rotate(15 46.3331 25.5305)" fill="url(#paint4_linear_2057_21665)"/>
<path d="M29.0182 18.9814C27.7619 20.2376 27.7619 22.2744 29.0182 23.5307C29.12 23.6325 29.12 23.7977 29.0182 23.8995C27.7619 25.1558 27.7619 27.1926 29.0182 28.4488C30.2744 29.7051 32.3112 29.7051 33.5675 28.4488C33.6693 28.347 33.8345 28.347 33.9363 28.4488C35.1926 29.7051 37.2294 29.7051 38.4856 28.4488C39.7419 27.1926 39.7419 25.1558 38.4856 23.8995C38.3838 23.7976 38.3838 23.6325 38.4856 23.5307C39.7419 22.2744 39.7419 20.2376 38.4856 18.9814C37.2294 17.7251 35.1926 17.7251 33.9363 18.9814C33.8345 19.0832 33.6693 19.0832 33.5675 18.9813C32.3112 17.7251 30.2744 17.7251 29.0182 18.9814Z" fill="white"/>
<path opacity="0.9" d="M29.0182 18.9814C27.7619 20.2376 27.7619 22.2744 29.0182 23.5307C29.12 23.6325 29.12 23.7977 29.0182 23.8995C27.7619 25.1558 27.7619 27.1926 29.0182 28.4488C30.2744 29.7051 32.3112 29.7051 33.5675 28.4488C33.6693 28.347 33.8345 28.347 33.9363 28.4488C35.1926 29.7051 37.2294 29.7051 38.4856 28.4488C39.7419 27.1926 39.7419 25.1558 38.4856 23.8995C38.3838 23.7976 38.3838 23.6325 38.4856 23.5307C39.7419 22.2744 39.7419 20.2376 38.4856 18.9814C37.2294 17.7251 35.1926 17.7251 33.9363 18.9814C33.8345 19.0832 33.6693 19.0832 33.5675 18.9813C32.3112 17.7251 30.2744 17.7251 29.0182 18.9814Z" fill="url(#paint5_linear_2057_21665)"/>
<ellipse opacity="0.9" cx="33.7963" cy="23.7595" rx="2.32513" ry="2.21944" fill="url(#paint6_linear_2057_21665)"/>
<path d="M15.4046 21.2483C14.5163 22.7869 15.0435 24.7543 16.5821 25.6426C16.7068 25.7146 16.7496 25.8741 16.6775 25.9989C15.7892 27.5375 16.3164 29.5048 17.855 30.3932C19.3936 31.2815 21.361 30.7543 22.2493 29.2157C22.3213 29.091 22.4808 29.0482 22.6056 29.1202C24.1442 30.0085 26.1115 29.4814 26.9999 27.9428C27.8882 26.4042 27.361 24.4368 25.8224 23.5485C25.6977 23.4765 25.6549 23.317 25.727 23.1922C26.6153 21.6536 26.0881 19.6862 24.5495 18.7979C23.0109 17.9096 21.0435 18.4368 20.1552 19.9754C20.0832 20.1001 19.9237 20.1428 19.7989 20.0708C18.2603 19.1825 16.2929 19.7097 15.4046 21.2483Z" fill="white"/>
<path opacity="0.9" d="M15.4044 21.2483C14.5161 22.7869 15.0432 24.7543 16.5818 25.6426C16.7066 25.7146 16.7493 25.8741 16.6773 25.9989C15.789 27.5375 16.3161 29.5048 17.8547 30.3932C19.3933 31.2815 21.3607 30.7543 22.2491 29.2157C22.3211 29.091 22.4806 29.0482 22.6053 29.1202C24.1439 30.0085 26.1113 29.4814 26.9996 27.9428C27.8879 26.4042 27.3608 24.4368 25.8222 23.5485C25.6974 23.4765 25.6547 23.317 25.7267 23.1922C26.615 21.6536 26.0879 19.6862 24.5493 18.7979C23.0107 17.9096 21.0433 18.4368 20.155 19.9754C20.0829 20.1001 19.9234 20.1428 19.7987 20.0708C18.2601 19.1825 16.2927 19.7097 15.4044 21.2483Z" fill="url(#paint7_linear_2057_21665)"/>
<ellipse opacity="0.9" cx="21.2564" cy="24.6265" rx="2.32513" ry="2.21944" transform="rotate(-15 21.2564 24.6265)" fill="url(#paint8_linear_2057_21665)"/>
<defs>
<filter id="filter0_d_2057_21665" x="0.852539" y="0.269775" width="54.929" height="56.978" filterUnits="userSpaceOnUse" color-interpolation-filters="sRGB">
<feFlood flood-opacity="0" result="BackgroundImageFix"/>
<feColorMatrix in="SourceAlpha" type="matrix" values="0 0 0 0 0 0 0 0 0 0 0 0 0 0 0 0 0 0 127 0" result="hardAlpha"/>
<feOffset dy="1"/>
<feGaussianBlur stdDeviation="1"/>
<feComposite in2="hardAlpha" operator="out"/>
<feColorMatrix type="matrix" values="0 0 0 0 0 0 0 0 0 0 0 0 0 0 0 0 0 0 0.25 0"/>
<feBlend mode="normal" in2="BackgroundImageFix" result="effect1_dropShadow_2057_21665"/>
<feBlend mode="normal" in="SourceGraphic" in2="effect1_dropShadow_2057_21665" result="shape"/>
</filter>
<linearGradient id="paint0_linear_2057_21665" x1="27.0808" y1="5" x2="27.0808" y2="52.9979" gradientUnits="userSpaceOnUse">
<stop offset="0.19272" stop-color="#191919"/>
<stop offset="0.29133" stop-color="#00D8ED" stop-opacity="0"/>
</linearGradient>
<radialGradient id="paint1_radial_2057_21665" cx="0" cy="0" r="1" gradientUnits="userSpaceOnUse" gradientTransform="translate(4.10254 38.2462) rotate(-0.274141) scale(46.0168 44.0597)">
<stop offset="0.152306" stop-color="#191919"/>
<stop offset="0.283418" stop-color="#00D8ED" stop-opacity="0"/>
</radialGradient>
<radialGradient id="paint2_radial_2057_21665" cx="0" cy="0" r="1" gradientUnits="userSpaceOnUse" gradientTransform="translate(4.21484 9.95391) rotate(43.1496) scale(62.9385 60.2701)">
<stop offset="0.786999" stop-color="white" stop-opacity="0"/>
<stop offset="1" stop-color="white"/>
</radialGradient>
<linearGradient id="paint3_linear_2057_21665" x1="42.9551" y1="19.6784" x2="49.6496" y2="31.2736" gradientUnits="userSpaceOnUse">
<stop stop-color="#FF3464"/>
<stop offset="1" stop-color="#774DFF"/>
</linearGradient>
<linearGradient id="paint4_linear_2057_21665" x1="46.3331" y1="23.3111" x2="46.2887" y2="46.843" gradientUnits="userSpaceOnUse">
<stop offset="0.100372" stop-color="white"/>
<stop offset="0.36659" stop-color="#00D8ED"/>
</linearGradient>
<linearGradient id="paint5_linear_2057_21665" x1="29.0182" y1="18.9814" x2="38.4856" y2="28.4488" gradientUnits="userSpaceOnUse">
<stop stop-color="#FF630D"/>
<stop offset="1" stop-color="#FF3464"/>
</linearGradient>
<linearGradient id="paint6_linear_2057_21665" x1="33.7963" y1="21.54" x2="33.7519" y2="45.072" gradientUnits="userSpaceOnUse">
<stop offset="0.100372" stop-color="#FFE353"/>
<stop offset="0.36659" stop-color="#FF3464"/>
</linearGradient>
<linearGradient id="paint7_linear_2057_21665" x1="15.4044" y1="21.2483" x2="26.9996" y2="27.9428" gradientUnits="userSpaceOnUse">
<stop stop-color="#FFE353"/>
<stop offset="0.994792" stop-color="#FF630D"/>
</linearGradient>
<linearGradient id="paint8_linear_2057_21665" x1="21.2564" y1="22.4071" x2="21.2119" y2="45.939" gradientUnits="userSpaceOnUse">
<stop offset="0.100372" stop-color="#FF630D"/>
<stop offset="0.36659" stop-color="#FF3464"/>
</linearGradient>
</defs>
</svg>
