<svg width="54" height="60" viewBox="0 0 54 60" fill="none" xmlns="http://www.w3.org/2000/svg">
<g filter="url(#filter0_d_1611_9263)">
<mask id="path-1-outside-1_1611_9263" maskUnits="userSpaceOnUse" x="2.02075" y="2" width="50" height="54" fill="black">
<rect fill="white" x="2.02075" y="2" width="50" height="54"/>
<path fill-rule="evenodd" clip-rule="evenodd" d="M37.1327 19.7427H39.6039L49.9792 6L49.9792 19.7427V38.9835C49.9792 47.264 43.2434 53.9646 34.9629 53.921L34.213 53.9171C33.8498 53.9717 33.478 54.0001 33.0996 54.0001H18.8589C10.664 54.0001 4.02075 47.3568 4.02075 39.1619H16.5684V36.8713V34.6805C16.5684 28.3934 20.4525 23.0134 25.9521 20.8094L37.1327 6V19.7427Z"/>
</mask>
<path fill-rule="evenodd" clip-rule="evenodd" d="M37.1327 19.7427H39.6039L49.9792 6L49.9792 19.7427V38.9835C49.9792 47.264 43.2434 53.9646 34.9629 53.921L34.213 53.9171C33.8498 53.9717 33.478 54.0001 33.0996 54.0001H18.8589C10.664 54.0001 4.02075 47.3568 4.02075 39.1619H16.5684V36.8713V34.6805C16.5684 28.3934 20.4525 23.0134 25.9521 20.8094L37.1327 6V19.7427Z" fill="#191919"/>
<path d="M37.1327 19.7427H35.8695V21.0059H37.1327V19.7427ZM39.6039 19.7427V21.0059H40.233L40.612 20.5038L39.6039 19.7427ZM49.9792 6L51.2423 6L51.2423 2.23046L48.9711 5.23891L49.9792 6ZM49.9792 19.7427H51.2424V19.7427L49.9792 19.7427ZM34.9629 53.921L34.9696 52.6579H34.9696L34.9629 53.921ZM34.213 53.9171L34.2196 52.6539L34.1218 52.6534L34.025 52.668L34.213 53.9171ZM4.02075 39.1619V37.8987H2.75759V39.1619H4.02075ZM16.5684 39.1619V40.4251H17.8316V39.1619H16.5684ZM25.9521 20.8094L26.422 21.9819L26.7484 21.8511L26.9602 21.5705L25.9521 20.8094ZM37.1327 6H38.3958V2.23046L36.1246 5.23891L37.1327 6ZM37.1327 21.0059H39.6039V18.4795H37.1327V21.0059ZM40.612 20.5038L50.9873 6.76109L48.9711 5.23891L38.5958 18.9816L40.612 20.5038ZM48.716 6L48.716 19.7427L51.2424 19.7427L51.2423 6L48.716 6ZM48.716 19.7427V38.9835H51.2424V19.7427H48.716ZM48.716 38.9835C48.716 46.5638 42.5498 52.6977 34.9696 52.6579L34.9563 55.1842C43.937 55.2314 51.2424 47.9643 51.2424 38.9835H48.716ZM34.9696 52.6579L34.2196 52.6539L34.2064 55.1802L34.9563 55.1842L34.9696 52.6579ZM33.0996 55.2632C33.5411 55.2632 33.9758 55.2302 34.401 55.1662L34.025 52.668C33.7238 52.7133 33.4149 52.7369 33.0996 52.7369V55.2632ZM18.8589 55.2632H33.0996V52.7369H18.8589V55.2632ZM2.75759 39.1619C2.75759 48.0544 9.96641 55.2632 18.8589 55.2632V52.7369C11.3617 52.7369 5.28391 46.6592 5.28391 39.1619H2.75759ZM16.5684 37.8987H4.02075V40.4251H16.5684V37.8987ZM17.8316 39.1619V36.8713H15.3053V39.1619H17.8316ZM17.8316 36.8713V34.6805H15.3053V36.8713H17.8316ZM17.8316 34.6805C17.8316 28.927 21.3852 24.0005 26.422 21.9819L25.4822 19.6369C19.5199 22.0264 15.3053 27.8597 15.3053 34.6805H17.8316ZM26.9602 21.5705L38.1408 6.76109L36.1246 5.23891L24.944 20.0483L26.9602 21.5705ZM35.8695 6V19.7427H38.3958V6H35.8695Z" fill="white" mask="url(#path-1-outside-1_1611_9263)"/>
</g>
<ellipse cx="33.9212" cy="35.9005" rx="3.56016" ry="3.56017" fill="white"/>
<ellipse cx="34.8172" cy="35.9002" rx="2.86307" ry="2.86307" fill="#191919"/>
<ellipse cx="24.9086" cy="35.9005" rx="3.56016" ry="3.56017" fill="white"/>
<ellipse cx="25.805" cy="35.9002" rx="2.86307" ry="2.86307" fill="#191919"/>
<path fill-rule="evenodd" clip-rule="evenodd" d="M10.6931 44.4398C10.6931 44.7423 10.4479 44.9875 10.1454 44.9875C9.84288 44.9875 9.59766 44.7423 9.59766 44.4398C9.59766 44.1373 9.84288 43.8921 10.1454 43.8921C10.4479 43.8921 10.6931 44.1373 10.6931 44.4398ZM13.5311 44.4398C13.5311 44.7423 13.2859 44.9875 12.9834 44.9875C12.6809 44.9875 12.4357 44.7423 12.4357 44.4398C12.4357 44.1373 12.6809 43.8921 12.9834 43.8921C13.2859 43.8921 13.5311 44.1373 13.5311 44.4398ZM11.5395 46.9794C11.842 46.9794 12.0872 46.7342 12.0872 46.4317C12.0872 46.1292 11.842 45.884 11.5395 45.884C11.237 45.884 10.9918 46.1292 10.9918 46.4317C10.9918 46.7342 11.237 46.9794 11.5395 46.9794Z" fill="white"/>
<path fill-rule="evenodd" clip-rule="evenodd" d="M26.3276 43.8423V48.7717H27.0745V43.8423H29.9126V48.7715C29.896 48.7717 29.8795 48.7717 29.8629 48.7717L23.4894 48.7717L23.4894 43.8423H26.3276ZM22.7425 43.8423V48.7717L20.7758 48.7717C19.4145 48.7717 18.311 47.6682 18.311 46.307C18.311 44.9458 19.4145 43.8423 20.7758 43.8423H22.7425ZM30.6595 48.7077C33.0032 48.3269 34.7923 46.2936 34.7923 43.8423H30.6595L30.6595 48.7077Z" fill="white"/>
<path d="M4.02075 38.6138H7.35302C7.90513 38.6138 8.3527 39.0613 8.3527 39.6135C8.3527 41.4538 6.86079 42.9457 5.02043 42.9457H4.02075V38.6138Z" fill="white"/>
<defs>
<filter id="filter0_d_1611_9263" x="0.231254" y="0.967311" width="53.5375" height="58.0853" filterUnits="userSpaceOnUse" color-interpolation-filters="sRGB">
<feFlood flood-opacity="0" result="BackgroundImageFix"/>
<feColorMatrix in="SourceAlpha" type="matrix" values="0 0 0 0 0 0 0 0 0 0 0 0 0 0 0 0 0 0 127 0" result="hardAlpha"/>
<feOffset dy="1.26316"/>
<feGaussianBlur stdDeviation="1.26316"/>
<feComposite in2="hardAlpha" operator="out"/>
<feColorMatrix type="matrix" values="0 0 0 0 0 0 0 0 0 0 0 0 0 0 0 0 0 0 0.25 0"/>
<feBlend mode="normal" in2="BackgroundImageFix" result="effect1_dropShadow_1611_9263"/>
<feBlend mode="normal" in="SourceGraphic" in2="effect1_dropShadow_1611_9263" result="shape"/>
</filter>
</defs>
</svg>
