<svg width="248" height="290" viewBox="0 0 248 290" fill="none" xmlns="http://www.w3.org/2000/svg">
<g filter="url(#filter0_d_2486_21565)">
<path d="M1 130L116.06 87.185L153.92 162.232L38.8599 205.047L1 130Z" fill="url(#paint0_linear_2486_21565)"/>
<path d="M39.1048 204.422L1.69811 130.274L115.815 87.8096L153.222 161.958L39.1048 204.422Z" stroke="url(#paint1_linear_2486_21565)"/>
</g>
<path d="M9.52881 132.742L110.517 94.9688L143.262 159.878L42.2743 197.651L9.52881 132.742Z" fill="url(#paint2_linear_2486_21565)"/>
<mask id="mask0_2486_21565" style="mask-type:alpha" maskUnits="userSpaceOnUse" x="9" y="94" width="135" height="104">
<path d="M9.52881 132.742L110.517 94.9686L143.262 159.877L42.2743 197.651L9.52881 132.742Z" fill="url(#paint3_linear_2486_21565)"/>
</mask>
<g mask="url(#mask0_2486_21565)">
<rect x="-7" y="145.528" width="121.491" height="54.9252" transform="rotate(-44.3813 -7 145.528)" fill="url(#paint4_linear_2486_21565)"/>
<rect width="121.491" height="11.5173" transform="matrix(0.714701 -0.69943 -0.69943 -0.714701 32.0556 189.206)" fill="#FFE353"/>
<rect width="62.9424" height="7" transform="matrix(0.939807 0.341706 0.341706 -0.939807 14 124.579)" fill="#FFE353"/>
</g>
<g filter="url(#filter1_i_2486_21565)">
<path fill-rule="evenodd" clip-rule="evenodd" d="M108.527 189.903C108.619 189.705 108.449 189.484 108.234 189.521C92.6203 192.234 75.615 188.552 57.5796 176.019C50.798 171.307 49.1206 161.989 53.833 155.208C58.5455 148.426 67.8633 146.748 74.6449 151.461C87.3458 160.287 96.508 161.205 103.115 160.057C110.35 158.8 117.03 154.643 123.816 148.977C126.377 146.838 129.443 145.702 132.538 145.525C135.028 145.384 137.551 145.502 140.045 145.502H157.284C177.126 145.502 193.211 161.587 193.211 181.429V208.585C193.211 216.678 191.55 224.702 189.888 232.725C188.227 240.748 186.565 248.772 186.565 256.865V274.194C186.565 281.572 180.584 287.553 173.206 287.553C165.935 287.553 159.999 281.737 159.851 274.467L159.623 263.318C159.506 257.59 154.032 253.494 148.302 253.494C147.412 253.494 146.691 254.215 146.691 255.105V275.871C146.691 283.241 140.717 289.214 133.348 289.214C126.073 289.214 120.138 283.386 120.007 276.112C119.82 265.699 115.983 254.9 112.156 244.127C108.681 234.345 105.214 224.586 104.494 215.158C104.382 213.704 104.325 212.22 104.325 210.712C104.325 202.813 105.901 195.566 108.527 189.903Z" fill="url(#paint5_radial_2486_21565)"/>
</g>
<g filter="url(#filter2_i_2486_21565)">
<path fill-rule="evenodd" clip-rule="evenodd" d="M175.491 43.7163H183.352L216.357 -9.49929e-05V95.6693L216.357 104.922C216.357 131.263 194.93 152.578 168.589 152.44L166.202 152.427C165.047 152.601 163.865 152.691 162.662 152.691H117.361C114.883 152.691 112.45 152.5 110.075 152.132C87.4661 148.629 70.16 129.08 70.16 105.49H110.075V98.2035V91.2342C110.075 71.2345 122.431 54.1205 139.925 47.1093L175.491 -9.49929e-05V43.7163Z" fill="url(#paint6_radial_2486_21565)"/>
<mask id="path-10-inside-1_2486_21565" fill="white">
<path d="M70.16 103.747H80.7602C82.5164 103.747 83.9402 105.171 83.9402 106.927C83.9402 112.781 79.1944 117.527 73.3401 117.527H70.16V103.747Z"/>
</mask>
<path d="M70.16 103.747H80.7602C82.5164 103.747 83.9402 105.171 83.9402 106.927C83.9402 112.781 79.1944 117.527 73.3401 117.527H70.16V103.747Z" fill="url(#paint7_linear_2486_21565)"/>
<path d="M70.16 103.747H83.9402H70.16ZM84.9908 107.698C84.9908 113.707 80.1197 118.578 74.1108 118.578H70.16V116.477H73.34C78.6141 116.477 82.8896 112.201 82.8896 106.927L84.9908 107.698ZM70.16 117.527V103.747V117.527ZM81.04 103.747C83.222 103.747 84.9908 105.516 84.9908 107.698C84.9908 113.707 80.1197 118.578 74.1108 118.578L73.34 116.477C78.6141 116.477 82.8896 112.201 82.8896 106.927V106.927C82.8896 105.171 81.9362 103.747 80.7602 103.747H81.04Z" fill="white" mask="url(#path-10-inside-1_2486_21565)"/>
<path fill-rule="evenodd" clip-rule="evenodd" d="M91.3847 122.279C91.3847 123.241 90.6046 124.022 89.6424 124.022C88.6801 124.022 87.9001 123.241 87.9001 122.279C87.9001 121.317 88.6801 120.537 89.6424 120.537C90.6046 120.537 91.3847 121.317 91.3847 122.279ZM100.413 122.279C100.413 123.242 99.633 124.022 98.6707 124.022C97.7085 124.022 96.9284 123.242 96.9284 122.279C96.9284 121.317 97.7085 120.537 98.6707 120.537C99.633 120.537 100.413 121.317 100.413 122.279ZM94.0774 130.358C95.0396 130.358 95.8197 129.577 95.8197 128.615C95.8197 127.653 95.0396 126.873 94.0774 126.873C93.1151 126.873 92.335 127.653 92.335 128.615C92.335 129.577 93.1151 130.358 94.0774 130.358Z" fill="white"/>
</g>
<path opacity="0.05" fill-rule="evenodd" clip-rule="evenodd" d="M183.352 43.7164H175.491V0L139.925 47.1094C122.431 54.1206 110.075 71.2346 110.075 91.2343V98.2036V105.49H83.5976C83.0727 104.456 81.9992 103.747 80.7601 103.747H70.16V117.527H71.7088C76.4287 135.476 91.4531 149.247 110.075 152.132C112.45 152.5 114.883 152.691 117.361 152.691H119.058C113.872 156.431 108.656 159.094 103.115 160.057C96.508 161.205 87.3458 160.287 74.6449 151.461C67.8633 146.748 58.5455 148.426 53.833 155.208C49.1206 161.989 50.798 171.307 57.5796 176.019C75.615 188.552 92.6203 192.234 108.234 189.521C108.449 189.484 108.619 189.705 108.527 189.903C105.901 195.566 104.325 202.813 104.325 210.712C104.325 212.22 104.382 213.704 104.494 215.158C105.214 224.586 108.681 234.345 112.156 244.127C115.983 254.9 119.82 265.699 120.007 276.112C120.138 283.386 126.073 289.214 133.348 289.214C140.717 289.214 146.691 283.241 146.691 275.871V255.105C146.691 254.215 147.412 253.494 148.302 253.494C154.032 253.494 159.506 257.59 159.623 263.318L159.851 274.467C159.999 281.737 165.935 287.553 173.206 287.553C180.584 287.553 186.565 281.572 186.565 274.194V256.865C186.565 248.772 188.227 240.748 189.888 232.725C191.55 224.702 193.211 216.678 193.211 208.585V181.429C193.211 169.048 186.948 158.129 177.417 151.669C199.555 147.632 216.357 128.248 216.357 104.922L216.357 95.6694V0L183.352 43.7164Z" fill="white"/>
<path d="M118.637 153.151C127.713 148.845 136.79 148.067 140.193 148.217L130.55 163.469C126.919 154.138 121.095 152.703 118.637 153.151Z" fill="#42ACC3"/>
<path d="M129.864 233.041C118.149 216.026 109.261 196.507 108.333 189.516L135.703 210.587C129.864 223.61 128.101 228.185 129.864 233.041Z" fill="#42ACC3"/>
<rect x="129.415" y="140.116" width="113.171" height="125.745" rx="17.9636" fill="url(#paint8_linear_2486_21565)"/>
<rect x="154.564" y="140.116" width="89.8182" height="123.051" rx="17.9636" fill="url(#paint9_linear_2486_21565)"/>
<path d="M168.037 141.014H159.953C150.032 141.014 141.99 149.057 141.99 158.978V191.313" stroke="#58E4F1" stroke-width="0.628727" stroke-dasharray="2.69 2.69"/>
<path d="M139.295 194.007C139.295 192.519 140.502 191.313 141.99 191.313C143.478 191.313 144.684 192.519 144.684 194.007V201.193C144.684 201.689 144.282 202.091 143.786 202.091H140.193C139.697 202.091 139.295 201.689 139.295 201.193V194.007Z" fill="#58E4F1"/>
<circle cx="141.99" cy="194.456" r="1.34727" fill="#52C1D9"/>
<rect x="118.637" y="210.175" width="30.5382" height="48.5018" rx="13.4727" fill="url(#paint10_linear_2486_21565)"/>
<path d="M130.313 220.953C130.313 215 135.139 210.175 141.092 210.175H146.481C149.457 210.175 151.87 212.587 151.87 215.564V250.593C151.87 253.569 149.457 255.982 146.481 255.982H141.092C135.139 255.982 130.313 251.156 130.313 245.204V220.953Z" fill="#58E4F1"/>
<path d="M122.23 225.444C122.23 224.451 123.034 223.647 124.026 223.647C125.018 223.647 125.823 224.451 125.823 225.444V230.179C125.823 230.54 125.53 230.833 125.169 230.833H122.883C122.522 230.833 122.23 230.54 122.23 230.179V225.444Z" fill="#58E4F1"/>
<rect x="161.75" y="149.996" width="83.5309" height="39.52" rx="10.7782" fill="url(#paint11_linear_2486_21565)"/>
<rect x="176.121" y="149.996" width="71.8545" height="36.9723" rx="10.7782" fill="url(#paint12_linear_2486_21565)"/>
<rect x="161.75" y="195.803" width="83.8303" height="65.5673" rx="13.4727" fill="url(#paint13_linear_2486_21565)"/>
<rect x="176.121" y="195.803" width="71.8545" height="63.093" rx="13.4727" fill="url(#paint14_linear_2486_21565)"/>
<line x1="176.121" y1="213.318" x2="247.975" y2="213.318" stroke="#52C1D9" stroke-width="0.898182" stroke-dasharray="2.69 2.69"/>
<line x1="176.121" y1="213.318" x2="161.75" y2="213.318" stroke="#42ACC4" stroke-width="0.898182" stroke-dasharray="2.69 2.69"/>
<g filter="url(#filter3_d_2486_21565)">
<path d="M235.518 212.707C236.027 211.308 237.573 210.587 238.971 211.096C240.37 211.605 241.091 213.151 240.582 214.55L236.281 226.366C236.111 226.832 235.596 227.072 235.13 226.903L231.754 225.674C231.288 225.504 231.047 224.989 231.217 224.523L235.518 212.707Z" fill="white"/>
</g>
<g filter="url(#filter4_i_2486_21565)">
<circle cx="237.896" cy="214.05" r="1.34727" transform="rotate(20 237.896 214.05)" fill="#58E4F1"/>
</g>
<g filter="url(#filter5_i_2486_21565)">
<rect x="235.248" y="217.387" width="2.69455" height="7.18545" rx="0.898182" transform="rotate(20 235.248 217.387)" fill="#52C1D9"/>
</g>
<g filter="url(#filter6_d_2486_21565)">
<rect x="183.999" y="225.444" width="19.5088" height="19.5088" rx="9.75442" transform="rotate(10 183.999 225.444)" fill="url(#paint15_linear_2486_21565)"/>
<mask id="mask1_2486_21565" style="mask-type:alpha" maskUnits="userSpaceOnUse" x="182" y="226" width="20" height="21">
<rect x="183.999" y="225.444" width="19.5088" height="19.5088" rx="9.75442" transform="rotate(10 183.999 225.444)" fill="#E2FD52"/>
</mask>
<g mask="url(#mask1_2486_21565)">
<path fill-rule="evenodd" clip-rule="evenodd" d="M197.697 232.916L198.73 233.098L204.08 228.118L203.067 233.863L201.864 240.69L201.649 241.906C201.039 245.368 197.729 247.672 194.271 247.044L193.958 246.987C193.802 246.983 193.644 246.967 193.486 246.939L187.533 245.89C184.107 245.286 181.82 242.019 182.424 238.593L187.669 239.518L187.838 238.56L187.999 237.645C188.463 235.016 190.483 233.054 192.944 232.538L198.71 227.171L197.697 232.916Z" fill="#52C1D9"/>
<circle cx="195.164" cy="239.434" r="1.51125" transform="rotate(10 195.164 239.434)" fill="#EEFCFE"/>
<circle cx="195.538" cy="239.499" r="1.21534" transform="rotate(10 195.538 239.499)" fill="#52C1D9"/>
<circle cx="191.396" cy="238.77" r="1.51125" transform="rotate(10 191.396 238.77)" fill="#EEFCFE"/>
<circle cx="191.771" cy="238.836" r="1.21534" transform="rotate(10 191.771 238.836)" fill="#52C1D9"/>
<path fill-rule="evenodd" clip-rule="evenodd" d="M184.824 241.291C184.801 241.418 184.681 241.502 184.554 241.48C184.428 241.457 184.344 241.337 184.366 241.21C184.388 241.084 184.509 241 184.635 241.022C184.762 241.044 184.846 241.165 184.824 241.291ZM186.01 241.5C185.988 241.627 185.867 241.711 185.741 241.689C185.614 241.667 185.53 241.546 185.552 241.42C185.575 241.293 185.695 241.209 185.822 241.231C185.948 241.253 186.033 241.374 186.01 241.5ZM184.99 242.415C185.117 242.438 185.237 242.353 185.26 242.227C185.282 242.1 185.198 241.98 185.071 241.957C184.945 241.935 184.824 242.019 184.802 242.146C184.78 242.272 184.864 242.393 184.99 242.415Z" fill="#EEFCFE"/>
<path fill-rule="evenodd" clip-rule="evenodd" d="M189.905 241.93L189.542 243.99L189.854 244.045L190.217 241.985L191.404 242.194L191.04 244.255L191.353 244.31L191.716 242.249L194.942 242.818C194.762 243.843 193.864 244.561 192.856 244.547L193.215 242.513L192.902 242.458L192.539 244.519C192.532 244.518 192.525 244.516 192.518 244.515L188.72 243.845C188.15 243.745 187.771 243.202 187.871 242.633C187.971 242.064 188.514 241.684 189.083 241.785L189.905 241.93Z" fill="#EEFCFE"/>
<path d="M182.464 238.364L183.857 238.61C184.088 238.651 184.242 238.871 184.201 239.101C184.066 239.871 183.332 240.385 182.563 240.249L182.145 240.175L182.464 238.364Z" fill="#EEFCFE"/>
</g>
<rect x="183.999" y="225.444" width="19.5088" height="19.5088" rx="9.75442" transform="rotate(10 183.999 225.444)" fill="url(#paint16_linear_2486_21565)"/>
</g>
<g filter="url(#filter7_d_2486_21565)">
<rect x="200.372" y="243.98" width="14.1082" height="14.1082" rx="7.05411" transform="rotate(-25 200.372 243.98)" fill="url(#paint17_linear_2486_21565)"/>
<mask id="mask2_2486_21565" style="mask-type:alpha" maskUnits="userSpaceOnUse" x="202" y="240" width="15" height="15">
<rect x="200.372" y="243.98" width="14.1082" height="14.1082" rx="7.05411" transform="rotate(-25 200.372 243.98)" fill="#E2FD52"/>
</mask>
<g mask="url(#mask2_2486_21565)">
<path fill-rule="evenodd" clip-rule="evenodd" d="M208.655 246.059C208.493 245.711 208.08 245.56 207.732 245.723C207.384 245.885 207.233 246.298 207.395 246.646L207.609 247.105L207.225 247.284C206.979 247.399 206.873 247.691 206.988 247.936C207.102 248.182 207.394 248.288 207.64 248.174L208.024 247.994L208.167 248.301L207.783 248.481C207.537 248.595 207.431 248.887 207.545 249.133C207.66 249.378 207.952 249.485 208.197 249.37L208.582 249.191L208.611 249.254C208.856 249.778 209.468 250.014 209.998 249.799C210.009 249.795 210.02 249.79 210.03 249.785L210.034 249.783L210.048 249.777L210.055 249.773L210.208 249.702C210.548 249.544 210.695 249.14 210.536 248.8L210.489 248.699C210.448 248.612 210.345 248.574 210.258 248.615L210.078 248.699C209.991 248.739 209.888 248.702 209.847 248.615L208.655 246.059ZM206.179 249.889C206.684 249.654 206.85 249.109 206.665 248.713C206.48 248.316 205.956 248.093 205.451 248.328C204.947 248.564 204.781 249.109 204.966 249.505C205.15 249.901 205.675 250.125 206.179 249.889ZM207.357 248.493C207.206 248.708 207.171 248.996 207.29 249.252C207.374 249.432 207.519 249.564 207.69 249.634C207.526 250.141 207.152 250.586 206.62 250.834C205.629 251.296 204.465 250.898 204.021 249.946C203.577 248.993 204.02 247.846 205.011 247.384C205.588 247.114 206.224 247.137 206.743 247.391C206.641 247.592 206.63 247.836 206.732 248.056C206.852 248.312 207.095 248.47 207.357 248.493ZM212.809 246.406C213.313 246.171 213.479 245.626 213.294 245.229C213.109 244.833 212.585 244.61 212.081 244.845C211.576 245.08 211.41 245.625 211.595 246.022C211.78 246.418 212.304 246.641 212.809 246.406ZM214.239 244.789C214.44 245.22 214.459 245.69 214.329 246.12L215.355 245.641L215.416 245.772C215.619 246.207 215.431 246.724 214.996 246.927L213.949 247.415L214.106 247.752C214.25 248.061 214.117 248.427 213.809 248.571C213.5 248.715 213.134 248.582 212.99 248.273L212.832 247.937L211.458 248.578C211.204 248.696 210.903 248.587 210.784 248.333C210.666 248.079 210.776 247.778 211.029 247.659L211.613 247.387C211.2 247.211 210.851 246.894 210.65 246.462C210.206 245.509 210.649 244.362 211.64 243.9C212.631 243.438 213.795 243.836 214.239 244.789Z" fill="#52C1D9"/>
</g>
<rect x="200.372" y="243.98" width="14.1082" height="14.1082" rx="7.05411" transform="rotate(-25 200.372 243.98)" fill="url(#paint18_linear_2486_21565)"/>
</g>
<mask id="mask3_2486_21565" style="mask-type:alpha" maskUnits="userSpaceOnUse" x="108" y="140" width="140" height="126">
<path d="M118.637 153.151C127.713 148.845 136.79 148.067 140.193 148.217L130.55 163.469C126.919 154.138 121.095 152.703 118.637 153.151Z" fill="#42ACC3"/>
<path d="M129.864 233.041C118.149 216.026 109.261 196.507 108.333 189.516L135.703 210.587C129.864 223.61 128.101 228.185 129.864 233.041Z" fill="#42ACC3"/>
<rect x="129.415" y="140.116" width="113.171" height="125.745" rx="17.9636" fill="url(#paint19_linear_2486_21565)"/>
<rect x="154.564" y="140.116" width="89.8182" height="123.051" rx="17.9636" fill="url(#paint20_linear_2486_21565)"/>
<path d="M168.037 141.014H159.953C150.032 141.014 141.99 149.057 141.99 158.978V191.313" stroke="#58E4F1" stroke-width="0.628727" stroke-dasharray="2.69 2.69"/>
<path d="M139.295 194.007C139.295 192.519 140.502 191.313 141.99 191.313C143.478 191.313 144.684 192.519 144.684 194.007V201.193C144.684 201.689 144.282 202.091 143.786 202.091H140.193C139.697 202.091 139.295 201.689 139.295 201.193V194.007Z" fill="#58E4F1"/>
<circle cx="141.99" cy="194.456" r="1.34727" fill="#52C1D9"/>
<rect x="118.637" y="210.175" width="30.5382" height="48.5018" rx="13.4727" fill="url(#paint21_linear_2486_21565)"/>
<path d="M130.313 220.953C130.313 215 135.139 210.175 141.092 210.175H146.481C149.457 210.175 151.87 212.587 151.87 215.564V250.593C151.87 253.569 149.457 255.982 146.481 255.982H141.092C135.139 255.982 130.313 251.156 130.313 245.204V220.953Z" fill="#58E4F1"/>
<path d="M122.23 225.444C122.23 224.451 123.034 223.647 124.026 223.647C125.018 223.647 125.823 224.451 125.823 225.444V230.179C125.823 230.54 125.53 230.833 125.169 230.833H122.883C122.522 230.833 122.23 230.54 122.23 230.179V225.444Z" fill="#58E4F1"/>
<rect x="161.75" y="149.996" width="83.5309" height="39.52" rx="10.7782" fill="url(#paint22_linear_2486_21565)"/>
<rect x="176.121" y="149.996" width="71.8545" height="36.9723" rx="10.7782" fill="url(#paint23_linear_2486_21565)"/>
<rect x="161.75" y="195.803" width="83.8303" height="65.5673" rx="13.4727" fill="url(#paint24_linear_2486_21565)"/>
<rect x="176.121" y="195.803" width="71.8545" height="63.093" rx="13.4727" fill="url(#paint25_linear_2486_21565)"/>
<line x1="176.121" y1="213.318" x2="247.975" y2="213.318" stroke="#52C1D9" stroke-width="0.898182" stroke-dasharray="2.69 2.69"/>
<line x1="176.121" y1="213.318" x2="161.75" y2="213.318" stroke="#42ACC4" stroke-width="0.898182" stroke-dasharray="2.69 2.69"/>
<path d="M235.518 212.707C236.027 211.308 237.573 210.587 238.971 211.096C240.37 211.605 241.091 213.151 240.582 214.55L236.281 226.366C236.111 226.832 235.596 227.072 235.13 226.903L231.754 225.674C231.288 225.504 231.047 224.989 231.217 224.523L235.518 212.707Z" fill="white"/>
<circle cx="237.896" cy="214.05" r="1.34727" transform="rotate(20 237.896 214.05)" fill="#58E4F1"/>
<rect x="235.248" y="217.387" width="2.69455" height="7.18545" rx="0.898182" transform="rotate(20 235.248 217.387)" fill="#52C1D9"/>
<rect x="183.999" y="225.444" width="19.5088" height="19.5088" rx="9.75442" transform="rotate(10 183.999 225.444)" fill="url(#paint26_linear_2486_21565)"/>
<mask id="mask4_2486_21565" style="mask-type:alpha" maskUnits="userSpaceOnUse" x="182" y="226" width="20" height="21">
<rect x="183.999" y="225.444" width="19.5088" height="19.5088" rx="9.75442" transform="rotate(10 183.999 225.444)" fill="#E2FD52"/>
</mask>
<g mask="url(#mask4_2486_21565)">
<path fill-rule="evenodd" clip-rule="evenodd" d="M197.697 232.916L198.73 233.098L204.08 228.118L203.067 233.863L201.864 240.69L201.649 241.906C201.039 245.368 197.729 247.672 194.271 247.044L193.958 246.987C193.802 246.983 193.644 246.967 193.486 246.939L187.533 245.89C184.107 245.286 181.82 242.019 182.424 238.593L187.669 239.518L187.838 238.56L187.999 237.645C188.463 235.016 190.483 233.054 192.944 232.538L198.71 227.171L197.697 232.916Z" fill="#52C1D9"/>
<circle cx="195.164" cy="239.434" r="1.51125" transform="rotate(10 195.164 239.434)" fill="#EEFCFE"/>
<circle cx="195.538" cy="239.499" r="1.21534" transform="rotate(10 195.538 239.499)" fill="#52C1D9"/>
<circle cx="191.396" cy="238.77" r="1.51125" transform="rotate(10 191.396 238.77)" fill="#EEFCFE"/>
<circle cx="191.771" cy="238.836" r="1.21534" transform="rotate(10 191.771 238.836)" fill="#52C1D9"/>
<path fill-rule="evenodd" clip-rule="evenodd" d="M184.824 241.291C184.801 241.418 184.681 241.502 184.554 241.48C184.428 241.457 184.344 241.337 184.366 241.21C184.388 241.084 184.509 241 184.635 241.022C184.762 241.044 184.846 241.165 184.824 241.291ZM186.01 241.5C185.988 241.627 185.867 241.711 185.741 241.689C185.614 241.667 185.53 241.546 185.552 241.42C185.575 241.293 185.695 241.209 185.822 241.231C185.948 241.253 186.033 241.374 186.01 241.5ZM184.99 242.415C185.117 242.438 185.237 242.353 185.26 242.227C185.282 242.1 185.198 241.98 185.071 241.957C184.945 241.935 184.824 242.019 184.802 242.146C184.78 242.272 184.864 242.393 184.99 242.415Z" fill="#EEFCFE"/>
<path fill-rule="evenodd" clip-rule="evenodd" d="M189.905 241.93L189.542 243.99L189.854 244.045L190.217 241.985L191.404 242.194L191.04 244.255L191.353 244.31L191.716 242.249L194.942 242.818C194.762 243.843 193.864 244.561 192.856 244.547L193.215 242.513L192.902 242.458L192.539 244.519C192.532 244.518 192.525 244.516 192.518 244.515L188.72 243.845C188.15 243.745 187.771 243.202 187.871 242.633C187.971 242.064 188.514 241.684 189.083 241.785L189.905 241.93Z" fill="#EEFCFE"/>
<path d="M182.464 238.364L183.857 238.61C184.088 238.651 184.242 238.871 184.201 239.101C184.066 239.871 183.332 240.385 182.563 240.249L182.145 240.175L182.464 238.364Z" fill="#EEFCFE"/>
</g>
<rect x="183.999" y="225.444" width="19.5088" height="19.5088" rx="9.75442" transform="rotate(10 183.999 225.444)" fill="url(#paint27_linear_2486_21565)"/>
<rect x="200.372" y="243.98" width="14.1082" height="14.1082" rx="7.05411" transform="rotate(-25 200.372 243.98)" fill="url(#paint28_linear_2486_21565)"/>
<mask id="mask5_2486_21565" style="mask-type:alpha" maskUnits="userSpaceOnUse" x="202" y="240" width="15" height="15">
<rect x="200.372" y="243.98" width="14.1082" height="14.1082" rx="7.05411" transform="rotate(-25 200.372 243.98)" fill="#E2FD52"/>
</mask>
<g mask="url(#mask5_2486_21565)">
<path fill-rule="evenodd" clip-rule="evenodd" d="M208.655 246.059C208.493 245.711 208.08 245.56 207.732 245.723C207.384 245.885 207.233 246.298 207.395 246.646L207.609 247.105L207.225 247.284C206.979 247.399 206.873 247.691 206.988 247.936C207.102 248.182 207.394 248.288 207.64 248.174L208.024 247.994L208.167 248.301L207.783 248.481C207.537 248.595 207.431 248.887 207.545 249.133C207.66 249.378 207.952 249.485 208.197 249.37L208.582 249.191L208.611 249.254C208.856 249.778 209.468 250.014 209.998 249.799C210.009 249.795 210.02 249.79 210.03 249.785L210.034 249.783L210.048 249.777L210.055 249.773L210.208 249.702C210.548 249.544 210.695 249.14 210.536 248.8L210.489 248.699C210.448 248.612 210.345 248.574 210.258 248.615L210.078 248.699C209.991 248.739 209.888 248.702 209.847 248.615L208.655 246.059ZM206.179 249.889C206.684 249.654 206.85 249.109 206.665 248.713C206.48 248.316 205.956 248.093 205.451 248.328C204.947 248.564 204.781 249.109 204.966 249.505C205.15 249.901 205.675 250.125 206.179 249.889ZM207.357 248.493C207.206 248.708 207.171 248.996 207.29 249.252C207.374 249.432 207.519 249.564 207.69 249.634C207.526 250.141 207.152 250.586 206.62 250.834C205.629 251.296 204.465 250.898 204.021 249.946C203.577 248.993 204.02 247.846 205.011 247.384C205.588 247.114 206.224 247.137 206.743 247.391C206.641 247.592 206.63 247.836 206.732 248.056C206.852 248.312 207.095 248.47 207.357 248.493ZM212.809 246.406C213.313 246.171 213.479 245.626 213.294 245.229C213.109 244.833 212.585 244.61 212.081 244.845C211.576 245.08 211.41 245.625 211.595 246.022C211.78 246.418 212.304 246.641 212.809 246.406ZM214.239 244.789C214.44 245.22 214.459 245.69 214.329 246.12L215.355 245.641L215.416 245.772C215.619 246.207 215.431 246.724 214.996 246.927L213.949 247.415L214.106 247.752C214.25 248.061 214.117 248.427 213.809 248.571C213.5 248.715 213.134 248.582 212.99 248.273L212.832 247.937L211.458 248.578C211.204 248.696 210.903 248.587 210.784 248.333C210.666 248.079 210.776 247.778 211.029 247.659L211.613 247.387C211.2 247.211 210.851 246.894 210.65 246.462C210.206 245.509 210.649 244.362 211.64 243.9C212.631 243.438 213.795 243.836 214.239 244.789Z" fill="#52C1D9"/>
</g>
<rect x="200.372" y="243.98" width="14.1082" height="14.1082" rx="7.05411" transform="rotate(-25 200.372 243.98)" fill="url(#paint29_linear_2486_21565)"/>
</mask>
<g mask="url(#mask3_2486_21565)">
<g style="mix-blend-mode:hue">
<rect x="107.884" y="140.116" width="140.116" height="125.745" fill="#FF3566"/>
</g>
</g>
<defs>
<filter id="filter0_d_2486_21565" x="0" y="87.1851" width="153.92" height="118.862" filterUnits="userSpaceOnUse" color-interpolation-filters="sRGB">
<feFlood flood-opacity="0" result="BackgroundImageFix"/>
<feColorMatrix in="SourceAlpha" type="matrix" values="0 0 0 0 0 0 0 0 0 0 0 0 0 0 0 0 0 0 127 0" result="hardAlpha"/>
<feOffset dx="-1" dy="1"/>
<feComposite in2="hardAlpha" operator="out"/>
<feColorMatrix type="matrix" values="0 0 0 0 0.839216 0 0 0 0 0.839216 0 0 0 0 0.839216 0 0 0 1 0"/>
<feBlend mode="normal" in2="BackgroundImageFix" result="effect1_dropShadow_2486_21565"/>
<feBlend mode="normal" in="SourceGraphic" in2="effect1_dropShadow_2486_21565" result="shape"/>
</filter>
<filter id="filter1_i_2486_21565" x="51.1582" y="145.456" width="144.747" height="146.453" filterUnits="userSpaceOnUse" color-interpolation-filters="sRGB">
<feFlood flood-opacity="0" result="BackgroundImageFix"/>
<feBlend mode="normal" in="SourceGraphic" in2="BackgroundImageFix" result="shape"/>
<feColorMatrix in="SourceAlpha" type="matrix" values="0 0 0 0 0 0 0 0 0 0 0 0 0 0 0 0 0 0 127 0" result="hardAlpha"/>
<feOffset dx="2.69455" dy="2.69455"/>
<feGaussianBlur stdDeviation="4.04182"/>
<feComposite in2="hardAlpha" operator="arithmetic" k2="-1" k3="1"/>
<feColorMatrix type="matrix" values="0 0 0 0 1 0 0 0 0 1 0 0 0 0 1 0 0 0 0.3 0"/>
<feBlend mode="normal" in2="shape" result="effect1_innerShadow_2486_21565"/>
</filter>
<filter id="filter2_i_2486_21565" x="70.16" y="0" width="148.891" height="155.385" filterUnits="userSpaceOnUse" color-interpolation-filters="sRGB">
<feFlood flood-opacity="0" result="BackgroundImageFix"/>
<feBlend mode="normal" in="SourceGraphic" in2="BackgroundImageFix" result="shape"/>
<feColorMatrix in="SourceAlpha" type="matrix" values="0 0 0 0 0 0 0 0 0 0 0 0 0 0 0 0 0 0 127 0" result="hardAlpha"/>
<feOffset dx="2.69455" dy="2.69455"/>
<feGaussianBlur stdDeviation="4.04182"/>
<feComposite in2="hardAlpha" operator="arithmetic" k2="-1" k3="1"/>
<feColorMatrix type="matrix" values="0 0 0 0 1 0 0 0 0 1 0 0 0 0 1 0 0 0 0.3 0"/>
<feBlend mode="normal" in2="shape" result="effect1_innerShadow_2486_21565"/>
</filter>
<filter id="filter3_d_2486_21565" x="229.366" y="210.933" width="11.3789" height="16.9226" filterUnits="userSpaceOnUse" color-interpolation-filters="sRGB">
<feFlood flood-opacity="0" result="BackgroundImageFix"/>
<feColorMatrix in="SourceAlpha" type="matrix" values="0 0 0 0 0 0 0 0 0 0 0 0 0 0 0 0 0 0 127 0" result="hardAlpha"/>
<feOffset dx="-1.79636" dy="0.898182"/>
<feComposite in2="hardAlpha" operator="out"/>
<feColorMatrix type="matrix" values="0 0 0 0 0.309804 0 0 0 0 0.811765 0 0 0 0 0.921569 0 0 0 1 0"/>
<feBlend mode="normal" in2="BackgroundImageFix" result="effect1_dropShadow_2486_21565"/>
<feBlend mode="normal" in="SourceGraphic" in2="effect1_dropShadow_2486_21565" result="shape"/>
</filter>
<filter id="filter4_i_2486_21565" x="236.549" y="212.702" width="2.69527" height="2.69531" filterUnits="userSpaceOnUse" color-interpolation-filters="sRGB">
<feFlood flood-opacity="0" result="BackgroundImageFix"/>
<feBlend mode="normal" in="SourceGraphic" in2="BackgroundImageFix" result="shape"/>
<feColorMatrix in="SourceAlpha" type="matrix" values="0 0 0 0 0 0 0 0 0 0 0 0 0 0 0 0 0 0 127 0" result="hardAlpha"/>
<feOffset dx="-0.898182" dy="0.898182"/>
<feComposite in2="hardAlpha" operator="arithmetic" k2="-1" k3="1"/>
<feColorMatrix type="matrix" values="0 0 0 0 0.309804 0 0 0 0 0.811765 0 0 0 0 0.921569 0 0 0 1 0"/>
<feBlend mode="normal" in2="shape" result="effect1_innerShadow_2486_21565"/>
</filter>
<filter id="filter5_i_2486_21565" x="233.043" y="217.64" width="4.48405" height="7.16821" filterUnits="userSpaceOnUse" color-interpolation-filters="sRGB">
<feFlood flood-opacity="0" result="BackgroundImageFix"/>
<feBlend mode="normal" in="SourceGraphic" in2="BackgroundImageFix" result="shape"/>
<feColorMatrix in="SourceAlpha" type="matrix" values="0 0 0 0 0 0 0 0 0 0 0 0 0 0 0 0 0 0 127 0" result="hardAlpha"/>
<feOffset dx="-0.898182" dy="0.898182"/>
<feComposite in2="hardAlpha" operator="arithmetic" k2="-1" k3="1"/>
<feColorMatrix type="matrix" values="0 0 0 0 0.309804 0 0 0 0 0.811765 0 0 0 0 0.921569 0 0 0 1 0"/>
<feBlend mode="normal" in2="shape" result="effect1_innerShadow_2486_21565"/>
</filter>
<filter id="filter6_d_2486_21565" x="181.258" y="226.988" width="20.4104" height="20.4104" filterUnits="userSpaceOnUse" color-interpolation-filters="sRGB">
<feFlood flood-opacity="0" result="BackgroundImageFix"/>
<feColorMatrix in="SourceAlpha" type="matrix" values="0 0 0 0 0 0 0 0 0 0 0 0 0 0 0 0 0 0 127 0" result="hardAlpha"/>
<feOffset dx="-0.898182" dy="0.898182"/>
<feComposite in2="hardAlpha" operator="out"/>
<feColorMatrix type="matrix" values="0 0 0 0 0.309804 0 0 0 0 0.811765 0 0 0 0 0.921569 0 0 0 1 0"/>
<feBlend mode="normal" in2="BackgroundImageFix" result="effect1_dropShadow_2486_21565"/>
<feBlend mode="normal" in="SourceGraphic" in2="effect1_dropShadow_2486_21565" result="shape"/>
</filter>
<filter id="filter7_d_2486_21565" x="202.041" y="240.337" width="14.7611" height="14.7611" filterUnits="userSpaceOnUse" color-interpolation-filters="sRGB">
<feFlood flood-opacity="0" result="BackgroundImageFix"/>
<feColorMatrix in="SourceAlpha" type="matrix" values="0 0 0 0 0 0 0 0 0 0 0 0 0 0 0 0 0 0 127 0" result="hardAlpha"/>
<feOffset dx="-0.649539" dy="0.649539"/>
<feComposite in2="hardAlpha" operator="out"/>
<feColorMatrix type="matrix" values="0 0 0 0 0.309804 0 0 0 0 0.811765 0 0 0 0 0.921569 0 0 0 1 0"/>
<feBlend mode="normal" in2="BackgroundImageFix" result="effect1_dropShadow_2486_21565"/>
<feBlend mode="normal" in="SourceGraphic" in2="effect1_dropShadow_2486_21565" result="shape"/>
</filter>
<linearGradient id="paint0_linear_2486_21565" x1="39.6218" y1="204.382" x2="110.129" y2="97.4986" gradientUnits="userSpaceOnUse">
<stop offset="0.256218" stop-color="#F9F9F9"/>
<stop offset="1" stop-color="#F9F9F9"/>
</linearGradient>
<linearGradient id="paint1_linear_2486_21565" x1="91.5" y1="253.5" x2="81.5" y2="94.5" gradientUnits="userSpaceOnUse">
<stop stop-color="#D6D6D6"/>
<stop offset="1" stop-color="#D6D6D6" stop-opacity="0"/>
</linearGradient>
<linearGradient id="paint2_linear_2486_21565" x1="42.945" y1="197.07" x2="118.495" y2="84.4899" gradientUnits="userSpaceOnUse">
<stop offset="0.463881" stop-color="#58E4F1"/>
<stop offset="1" stop-color="#F9F9F9" stop-opacity="0"/>
<stop offset="1" stop-color="#EEFCFE"/>
</linearGradient>
<linearGradient id="paint3_linear_2486_21565" x1="42.945" y1="197.07" x2="118.495" y2="84.4897" gradientUnits="userSpaceOnUse">
<stop offset="0.463881" stop-color="#58E4F1"/>
<stop offset="1" stop-color="#F9F9F9" stop-opacity="0"/>
<stop offset="1" stop-color="#EEFCFE"/>
</linearGradient>
<linearGradient id="paint4_linear_2486_21565" x1="71.9313" y1="184.256" x2="-49.1953" y2="230.822" gradientUnits="userSpaceOnUse">
<stop stop-color="#DFFA51"/>
<stop offset="1" stop-color="#DFFA51" stop-opacity="0"/>
</linearGradient>
<radialGradient id="paint5_radial_2486_21565" cx="0" cy="0" r="1" gradientUnits="userSpaceOnUse" gradientTransform="translate(193.969 328.399) rotate(-127.984) scale(232.047 215.556)">
<stop offset="0.752397" stop-color="#191919"/>
<stop offset="1" stop-color="#727272"/>
</radialGradient>
<radialGradient id="paint6_radial_2486_21565" cx="0" cy="0" r="1" gradientUnits="userSpaceOnUse" gradientTransform="translate(221.564 152.691) rotate(-134.758) scale(215.03 205.884)">
<stop offset="0.5625" stop-color="#191919"/>
<stop offset="1" stop-color="white"/>
</radialGradient>
<linearGradient id="paint7_linear_2486_21565" x1="56.435" y1="90.0702" x2="77.0501" y2="117.527" gradientUnits="userSpaceOnUse">
<stop stop-color="white"/>
<stop offset="1" stop-color="#595959"/>
</linearGradient>
<linearGradient id="paint8_linear_2486_21565" x1="129.415" y1="140.116" x2="152.499" y2="154.643" gradientUnits="userSpaceOnUse">
<stop stop-color="#58E4F1"/>
<stop offset="1" stop-color="#52C1D9"/>
</linearGradient>
<linearGradient id="paint9_linear_2486_21565" x1="244.383" y1="140.116" x2="145.899" y2="255.79" gradientUnits="userSpaceOnUse">
<stop stop-color="#ABF1F8"/>
<stop offset="0.510599" stop-color="#58E4F1"/>
</linearGradient>
<linearGradient id="paint10_linear_2486_21565" x1="118.637" y1="210.175" x2="125.921" y2="213.381" gradientUnits="userSpaceOnUse">
<stop stop-color="#58E4F1"/>
<stop offset="1" stop-color="#52C1D9"/>
</linearGradient>
<linearGradient id="paint11_linear_2486_21565" x1="161.75" y1="149.996" x2="169.22" y2="161.036" gradientUnits="userSpaceOnUse">
<stop stop-color="#58E4F1"/>
<stop offset="1" stop-color="#52C1D9"/>
</linearGradient>
<linearGradient id="paint12_linear_2486_21565" x1="247.975" y1="149.996" x2="230.584" y2="204.384" gradientUnits="userSpaceOnUse">
<stop stop-color="#ABF1F8"/>
<stop offset="0.821606" stop-color="#58E4F1"/>
</linearGradient>
<linearGradient id="paint13_linear_2486_21565" x1="161.75" y1="195.803" x2="175.017" y2="207.664" gradientUnits="userSpaceOnUse">
<stop stop-color="#58E4F1"/>
<stop offset="1" stop-color="#52C1D9"/>
</linearGradient>
<linearGradient id="paint14_linear_2486_21565" x1="247.975" y1="195.803" x2="204.96" y2="274.633" gradientUnits="userSpaceOnUse">
<stop stop-color="#ABF1F8"/>
<stop offset="0.510599" stop-color="#58E4F1"/>
</linearGradient>
<linearGradient id="paint15_linear_2486_21565" x1="200.671" y1="210.191" x2="190.418" y2="234.8" gradientUnits="userSpaceOnUse">
<stop stop-color="white"/>
<stop offset="1" stop-color="#A2F0F8"/>
</linearGradient>
<linearGradient id="paint16_linear_2486_21565" x1="200.904" y1="219.271" x2="192.421" y2="235.815" gradientUnits="userSpaceOnUse">
<stop stop-color="white"/>
<stop offset="1" stop-color="white" stop-opacity="0"/>
</linearGradient>
<linearGradient id="paint17_linear_2486_21565" x1="212.428" y1="232.951" x2="205.013" y2="250.747" gradientUnits="userSpaceOnUse">
<stop stop-color="white"/>
<stop offset="1" stop-color="#A2F0F8"/>
</linearGradient>
<linearGradient id="paint18_linear_2486_21565" x1="212.597" y1="239.516" x2="206.462" y2="251.481" gradientUnits="userSpaceOnUse">
<stop stop-color="white"/>
<stop offset="1" stop-color="white" stop-opacity="0"/>
</linearGradient>
<linearGradient id="paint19_linear_2486_21565" x1="129.415" y1="140.116" x2="152.499" y2="154.643" gradientUnits="userSpaceOnUse">
<stop stop-color="#58E4F1"/>
<stop offset="1" stop-color="#52C1D9"/>
</linearGradient>
<linearGradient id="paint20_linear_2486_21565" x1="244.383" y1="140.116" x2="145.899" y2="255.79" gradientUnits="userSpaceOnUse">
<stop stop-color="#ABF1F8"/>
<stop offset="0.510599" stop-color="#58E4F1"/>
</linearGradient>
<linearGradient id="paint21_linear_2486_21565" x1="118.637" y1="210.175" x2="125.921" y2="213.381" gradientUnits="userSpaceOnUse">
<stop stop-color="#58E4F1"/>
<stop offset="1" stop-color="#52C1D9"/>
</linearGradient>
<linearGradient id="paint22_linear_2486_21565" x1="161.75" y1="149.996" x2="169.22" y2="161.036" gradientUnits="userSpaceOnUse">
<stop stop-color="#58E4F1"/>
<stop offset="1" stop-color="#52C1D9"/>
</linearGradient>
<linearGradient id="paint23_linear_2486_21565" x1="247.975" y1="149.996" x2="230.584" y2="204.384" gradientUnits="userSpaceOnUse">
<stop stop-color="#ABF1F8"/>
<stop offset="0.821606" stop-color="#58E4F1"/>
</linearGradient>
<linearGradient id="paint24_linear_2486_21565" x1="161.75" y1="195.803" x2="175.017" y2="207.664" gradientUnits="userSpaceOnUse">
<stop stop-color="#58E4F1"/>
<stop offset="1" stop-color="#52C1D9"/>
</linearGradient>
<linearGradient id="paint25_linear_2486_21565" x1="247.975" y1="195.803" x2="204.96" y2="274.633" gradientUnits="userSpaceOnUse">
<stop stop-color="#ABF1F8"/>
<stop offset="0.510599" stop-color="#58E4F1"/>
</linearGradient>
<linearGradient id="paint26_linear_2486_21565" x1="200.671" y1="210.191" x2="190.418" y2="234.8" gradientUnits="userSpaceOnUse">
<stop stop-color="white"/>
<stop offset="1" stop-color="#A2F0F8"/>
</linearGradient>
<linearGradient id="paint27_linear_2486_21565" x1="200.904" y1="219.271" x2="192.421" y2="235.815" gradientUnits="userSpaceOnUse">
<stop stop-color="white"/>
<stop offset="1" stop-color="white" stop-opacity="0"/>
</linearGradient>
<linearGradient id="paint28_linear_2486_21565" x1="212.428" y1="232.951" x2="205.013" y2="250.747" gradientUnits="userSpaceOnUse">
<stop stop-color="white"/>
<stop offset="1" stop-color="#A2F0F8"/>
</linearGradient>
<linearGradient id="paint29_linear_2486_21565" x1="212.597" y1="239.516" x2="206.462" y2="251.481" gradientUnits="userSpaceOnUse">
<stop stop-color="white"/>
<stop offset="1" stop-color="white" stop-opacity="0"/>
</linearGradient>
</defs>
</svg>
