<svg width="40" height="40" viewBox="0 0 40 40" fill="none" xmlns="http://www.w3.org/2000/svg">
<rect width="40" height="40" rx="20" fill="#F3F3F3"/>
<path d="M13.1904 26.3848C12.3555 26.3848 11.8633 25.9629 11.8633 25.3213C11.8633 24.4424 12.751 23.6514 13.5156 22.8691C14.0957 22.2627 14.2539 21.0146 14.3242 20.0039C14.3857 16.6289 15.2822 14.3086 17.6201 13.4648C17.9453 12.3135 18.8594 11.4082 20.1514 11.4082C21.4521 11.4082 22.3574 12.3135 22.6914 13.4648C25.0293 14.3086 25.9258 16.6289 25.9873 20.0039C26.0576 21.0146 26.2158 22.2627 26.7959 22.8691C27.5518 23.6514 28.4482 24.4424 28.4482 25.3213C28.4482 25.9629 27.9473 26.3848 27.1211 26.3848H13.1904ZM20.1514 29.9092C18.666 29.9092 17.5762 28.8193 17.4619 27.5889H22.8496C22.7354 28.8193 21.6455 29.9092 20.1514 29.9092Z" fill="#868D99"/>
<circle cx="24.5" cy="14.5" r="2.5" fill="#FF3464" stroke="#F3F3F3"/>
</svg>
