<svg width="118" height="48" viewBox="0 0 118 48" fill="none" xmlns="http://www.w3.org/2000/svg">
<rect width="118" height="48" rx="24" fill="#F9F9F9"/>
<rect x="12" y="8" width="32" height="32" rx="16" fill="white"/>
<path d="M22.9658 33.5762C21.1465 33.5762 20.2412 32.6621 20.2412 30.8252V17.4922C20.2412 15.6641 21.1553 14.7324 22.9658 14.7324H27V21.1836C27 22.3086 27.5361 22.8447 28.6611 22.8447H35.0244V30.8252C35.0244 32.6533 34.1191 33.5762 32.2998 33.5762H22.9658ZM28.6875 21.6406C28.3623 21.6406 28.2041 21.4824 28.2041 21.166V14.8291C28.5732 14.8906 28.9336 15.1455 29.3467 15.5674L34.1895 20.498C34.6113 20.9287 34.8662 21.2803 34.9189 21.6406H28.6875ZM24.1875 26.668H31.1045C31.4385 26.668 31.6934 26.4219 31.6934 26.0967C31.6934 25.7715 31.4385 25.5166 31.1045 25.5166H24.1875C23.8447 25.5166 23.5898 25.7715 23.5898 26.0967C23.5898 26.4219 23.8447 26.668 24.1875 26.668ZM24.1875 29.999H31.1045C31.4385 29.999 31.6934 29.7529 31.6934 29.4277C31.6934 29.1025 31.4385 28.8477 31.1045 28.8477H24.1875C23.8447 28.8477 23.5898 29.1025 23.5898 29.4277C23.5898 29.7529 23.8447 29.999 24.1875 29.999Z" fill="#58E4F1"/>
<path d="M64.5064 30.072H54.2824V26.248H62.1384V25.192H54.1704V23.72H63.9944V27.544H56.1384V28.568H64.5064V30.072ZM63.9464 16.504C63.9464 18.312 63.8184 19.768 63.5304 21.032H65.5944V22.52H52.7144V21.032H61.7544C61.9624 20.232 62.0904 18.904 62.0744 17.976H54.3624V16.504H63.9464ZM79.4381 28.392H66.5581V26.92H79.4381V28.392ZM79.5661 22.616L78.4781 24.008C77.6781 23.672 76.5101 22.616 76.0781 21.752C75.7101 22.744 74.6541 23.848 73.8221 24.296L72.6381 23.032C74.1581 22.232 75.1341 20.552 75.1341 18.632V17H76.9581V18.632C76.9581 20.68 78.0941 21.912 79.5661 22.616ZM72.8781 22.152L71.6941 23.464C71.1021 23.16 70.3341 22.36 70.0301 21.736C69.5661 22.776 68.4781 23.784 67.5021 24.248L66.3821 22.872C68.0941 22.056 69.1181 20.456 69.1181 18.6V17.064H70.9581V18.6C70.9581 20.456 71.7101 21.608 72.8781 22.152ZM92.1939 30.264H90.3219V16.008H92.1939V30.264ZM87.8099 17.496C87.6979 21.8 85.7939 25.32 81.4419 27.688L80.2899 26.28C83.4099 24.856 85.5379 21.88 85.7939 19.048H81.1539V17.496H87.8099Z" fill="#2F2F2F"/>
</svg>
