<svg width="45" height="46" viewBox="0 0 45 46" fill="none" xmlns="http://www.w3.org/2000/svg">
<g filter="url(#filter0_d_2057_30342)">
<mask id="path-1-outside-1_2057_30342" maskUnits="userSpaceOnUse" x="1.7431" y="1.61328" width="42" height="42" fill="black">
<rect fill="white" x="1.7431" y="1.61328" width="42" height="42"/>
<path fill-rule="evenodd" clip-rule="evenodd" d="M30.7774 15.4404H28.8306V4.61328L20.0222 16.2806C15.689 18.017 12.6287 22.2557 12.6287 27.2093V28.9353V30.7416H2.7431C2.7431 37.198 7.97706 42.4319 14.4335 42.4319H25.6531C25.9548 42.4319 26.2511 42.4091 26.5405 42.365L27.1209 42.3681C33.6447 42.4024 38.9516 37.1233 38.9516 30.5994V29.6945C40.1398 28.7023 41.6683 28.1055 43.336 28.1055C41.6683 28.1055 40.1398 27.5086 38.9516 26.5165V15.4404L38.9516 4.61328L30.7774 15.4404Z"/>
</mask>
<path fill-rule="evenodd" clip-rule="evenodd" d="M30.7774 15.4404H28.8306V4.61328L20.0222 16.2806C15.689 18.017 12.6287 22.2557 12.6287 27.2093V28.9353V30.7416H2.7431C2.7431 37.198 7.97706 42.4319 14.4335 42.4319H25.6531C25.9548 42.4319 26.2511 42.4091 26.5405 42.365L27.1209 42.3681C33.6447 42.4024 38.9516 37.1233 38.9516 30.5994V29.6945C40.1398 28.7023 41.6683 28.1055 43.336 28.1055C41.6683 28.1055 40.1398 27.5086 38.9516 26.5165V15.4404L38.9516 4.61328L30.7774 15.4404Z" fill="#00D8ED"/>
<path d="M28.8306 15.4404H27.8457V16.4253H28.8306V15.4404ZM30.7774 15.4404V16.4253H31.2679L31.5635 16.0338L30.7774 15.4404ZM28.8306 4.61328H29.8155V1.67423L28.0446 4.01987L28.8306 4.61328ZM20.0222 16.2806L20.3885 17.1948L20.643 17.0928L20.8082 16.874L20.0222 16.2806ZM12.6287 30.7416V31.7265H13.6135V30.7416H12.6287ZM2.7431 30.7416V29.7567H1.75824V30.7416H2.7431ZM26.5405 42.365L26.5457 41.3802L26.4685 41.3798L26.3922 41.3914L26.5405 42.365ZM27.1209 42.3681L27.1157 43.3529H27.1157L27.1209 42.3681ZM38.9516 29.6945L38.3204 28.9385L37.9667 29.2338V29.6945H38.9516ZM38.9516 26.5165H37.9667V26.9772L38.3204 27.2725L38.9516 26.5165ZM38.9516 15.4404H39.9365V15.4404L38.9516 15.4404ZM38.9516 4.61328L39.9364 4.61328L39.9364 1.67424L38.1656 4.01987L38.9516 4.61328ZM28.8306 16.4253H30.7774V14.4556H28.8306V16.4253ZM27.8457 4.61328V15.4404H29.8155V4.61328H27.8457ZM20.8082 16.874L29.6166 5.2067L28.0446 4.01987L19.2361 15.6872L20.8082 16.874ZM13.6135 27.2093C13.6135 22.6718 16.4162 18.7866 20.3885 17.1948L19.6558 15.3664C14.9619 17.2474 11.6438 21.8396 11.6438 27.2093H13.6135ZM13.6135 28.9353V27.2093H11.6438V28.9353H13.6135ZM13.6135 30.7416V28.9353H11.6438V30.7416H13.6135ZM2.7431 31.7265H12.6287V29.7567H2.7431V31.7265ZM14.4335 41.4471C8.52098 41.4471 3.72797 36.6541 3.72797 30.7416H1.75824C1.75824 37.7419 7.43313 43.4168 14.4335 43.4168V41.4471ZM25.6531 41.4471H14.4335V43.4168H25.6531V41.4471ZM26.3922 41.3914C26.1518 41.428 25.905 41.4471 25.6531 41.4471V43.4168C26.0046 43.4168 26.3505 43.3902 26.6888 43.3386L26.3922 41.3914ZM27.1261 41.3832L26.5457 41.3802L26.5354 43.3499L27.1157 43.3529L27.1261 41.3832ZM37.9667 30.5994C37.9667 36.5774 33.104 41.4146 27.1261 41.3832L27.1157 43.3529C34.1855 43.3901 39.9365 37.6693 39.9365 30.5994H37.9667ZM37.9667 29.6945V30.5994H39.9365V29.6945H37.9667ZM43.336 27.1206C41.4289 27.1206 39.6789 27.8041 38.3204 28.9385L39.5828 30.4505C40.6006 29.6006 41.9077 29.0903 43.336 29.0903V27.1206ZM38.3204 27.2725C39.6789 28.4068 41.429 29.0903 43.336 29.0903V27.1206C41.9077 27.1206 40.6006 26.6104 39.5828 25.7605L38.3204 27.2725ZM37.9667 15.4404V26.5165H39.9365V15.4404H37.9667ZM37.9667 4.61328L37.9667 15.4404L39.9365 15.4404L39.9364 4.61328L37.9667 4.61328ZM31.5635 16.0338L39.7376 5.2067L38.1656 4.01987L29.9914 14.847L31.5635 16.0338Z" fill="white" mask="url(#path-1-outside-1_2057_30342)"/>
</g>
<path fill-rule="evenodd" clip-rule="evenodd" d="M28.8306 15.4404H30.7774L38.9516 4.61328L38.9516 15.4404V30.5994C38.9516 37.1233 33.6447 42.4024 27.1209 42.3681L26.5405 42.365C26.2511 42.4091 25.9548 42.432 25.6531 42.432H14.4335C7.97706 42.432 2.7431 37.198 2.7431 30.7416H12.6287V28.9353V27.2093C12.6287 22.2557 15.689 18.017 20.0222 16.2806L28.8306 4.61328V15.4404Z" fill="#00D8ED"/>
<path fill-rule="evenodd" clip-rule="evenodd" d="M28.8306 15.4404H30.7774L38.9516 4.61328L38.9516 15.4404V30.5994C38.9516 37.1233 33.6447 42.4024 27.1209 42.3681L26.5405 42.365C26.2511 42.4091 25.9548 42.432 25.6531 42.432H14.4335C7.97706 42.432 2.7431 37.198 2.7431 30.7416H12.6287V28.9353V27.2093C12.6287 22.2557 15.689 18.017 20.0222 16.2806L28.8306 4.61328V15.4404Z" fill="url(#paint0_linear_2057_30342)"/>
<path fill-rule="evenodd" clip-rule="evenodd" d="M28.8306 15.4404H30.7774L38.9516 4.61328L38.9516 15.4404V30.5994C38.9516 37.1233 33.6447 42.4024 27.1209 42.3681L26.5405 42.365C26.2511 42.4091 25.9548 42.432 25.6531 42.432H14.4335C7.97706 42.432 2.7431 37.198 2.7431 30.7416H12.6287V28.9353V27.2093C12.6287 22.2557 15.689 18.017 20.0222 16.2806L28.8306 4.61328V15.4404Z" fill="url(#paint1_radial_2057_30342)"/>
<path fill-rule="evenodd" clip-rule="evenodd" d="M28.9193 15.4404H30.8664L39.0405 4.61328L39.0405 15.4404V30.5994C39.0405 37.1233 33.7337 42.4024 27.2098 42.3681L26.6291 42.365C26.3397 42.4091 26.0433 42.432 25.7416 42.432H14.522C8.06559 42.432 2.83163 37.198 2.83163 30.7416H12.7176V28.9353V27.2093C12.7176 22.2558 15.7778 18.0172 20.1108 16.2807L28.9193 4.61328V15.4404Z" fill="url(#paint2_radial_2057_30342)"/>
<circle cx="22.0854" cy="36.0991" r="1.99494" fill="url(#paint3_linear_2057_30342)" stroke="url(#paint4_linear_2057_30342)" stroke-width="0.346946"/>
<circle cx="26.3004" cy="28.1711" r="2.8049" fill="white"/>
<mask id="mask0_2057_30342" style="mask-type:alpha" maskUnits="userSpaceOnUse" x="23" y="25" width="7" height="6">
<circle cx="26.3004" cy="28.1711" r="2.8049" fill="white"/>
</mask>
<g mask="url(#mask0_2057_30342)">
<circle cx="27.0064" cy="28.1717" r="2.25569" fill="#191919"/>
</g>
<circle cx="19.1998" cy="28.1711" r="2.8049" fill="white"/>
<mask id="mask1_2057_30342" style="mask-type:alpha" maskUnits="userSpaceOnUse" x="16" y="25" width="7" height="6">
<circle cx="19.1998" cy="28.1711" r="2.8049" fill="white"/>
</mask>
<g mask="url(#mask1_2057_30342)">
<circle cx="19.9058" cy="28.1717" r="2.25569" fill="#191919"/>
</g>
<path fill-rule="evenodd" clip-rule="evenodd" d="M7.99966 34.8983C7.99966 35.1366 7.80646 35.3298 7.56814 35.3298C7.32981 35.3298 7.13661 35.1366 7.13661 34.8983C7.13661 34.66 7.32981 34.4668 7.56814 34.4668C7.80646 34.4668 7.99966 34.66 7.99966 34.8983ZM10.2358 34.8984C10.2358 35.1367 10.0426 35.3299 9.80432 35.3299C9.56599 35.3299 9.37279 35.1367 9.37279 34.8984C9.37279 34.6601 9.56599 34.4669 9.80432 34.4669C10.0426 34.4669 10.2358 34.6601 10.2358 34.8984ZM8.66658 36.8998C8.9049 36.8998 9.0981 36.7066 9.0981 36.4683C9.0981 36.23 8.9049 36.0368 8.66658 36.0368C8.42825 36.0368 8.23505 36.23 8.23505 36.4683C8.23505 36.7066 8.42825 36.8998 8.66658 36.8998Z" fill="#191919"/>
<mask id="path-15-inside-2_2057_30342" fill="white">
<path d="M2.7431 30.3096H5.36845C5.80344 30.3096 6.15606 30.6622 6.15606 31.0972C6.15606 32.5471 4.98065 33.7225 3.53071 33.7225H2.7431V30.3096Z"/>
</mask>
<path d="M2.7431 30.3096H5.36845C5.80344 30.3096 6.15606 30.6622 6.15606 31.0972C6.15606 32.5471 4.98065 33.7225 3.53071 33.7225H2.7431V30.3096Z" fill="#191919"/>
<path d="M2.7431 30.3096H6.15606H2.7431ZM6.41627 31.2881C6.41627 32.7763 5.20982 33.9827 3.7216 33.9827H2.7431V33.4623H3.53071C4.83694 33.4623 5.89585 32.4034 5.89585 31.0972L6.41627 31.2881ZM2.7431 33.7225V30.3096V33.7225ZM5.43777 30.3096C5.97818 30.3096 6.41627 30.7477 6.41627 31.2881V31.2881C6.41627 32.7763 5.20982 33.9827 3.7216 33.9827L3.53071 33.4623C4.83694 33.4623 5.89585 32.4034 5.89585 31.0972V31.0972C5.89585 30.6622 5.65973 30.3096 5.36845 30.3096H5.43777Z" fill="white" mask="url(#path-15-inside-2_2057_30342)"/>
<path fill-rule="evenodd" clip-rule="evenodd" d="M36.4837 34.971C36.47 31.1913 33.4075 28.1315 29.6315 28.1315C33.4159 28.1315 36.4837 25.0579 36.4837 21.2666C36.4974 25.0463 39.56 28.1061 43.3359 28.1061C39.5515 28.1061 36.4837 31.1796 36.4837 34.971Z" fill="url(#paint5_linear_2057_30342)"/>
<defs>
<filter id="filter0_d_2057_30342" x="0.182456" y="0.885936" width="44.7293" height="44.8947" filterUnits="userSpaceOnUse" color-interpolation-filters="sRGB">
<feFlood flood-opacity="0" result="BackgroundImageFix"/>
<feColorMatrix in="SourceAlpha" type="matrix" values="0 0 0 0 0 0 0 0 0 0 0 0 0 0 0 0 0 0 127 0" result="hardAlpha"/>
<feOffset dy="0.787892"/>
<feGaussianBlur stdDeviation="0.787892"/>
<feComposite in2="hardAlpha" operator="out"/>
<feColorMatrix type="matrix" values="0 0 0 0 0 0 0 0 0 0 0 0 0 0 0 0 0 0 0.25 0"/>
<feBlend mode="normal" in2="BackgroundImageFix" result="effect1_dropShadow_2057_30342"/>
<feBlend mode="normal" in="SourceGraphic" in2="effect1_dropShadow_2057_30342" result="shape"/>
</filter>
<linearGradient id="paint0_linear_2057_30342" x1="20.8474" y1="4.61328" x2="20.8474" y2="42.432" gradientUnits="userSpaceOnUse">
<stop offset="0.19272" stop-color="#191919"/>
<stop offset="0.29133" stop-color="#774DFF" stop-opacity="0"/>
</linearGradient>
<radialGradient id="paint1_radial_2057_30342" cx="0" cy="0" r="1" gradientUnits="userSpaceOnUse" gradientTransform="translate(2.7431 30.8088) rotate(-0.274154) scale(36.2561 34.7157)">
<stop offset="0.152306" stop-color="#191919"/>
<stop offset="0.283418" stop-color="#774DFF" stop-opacity="0"/>
</radialGradient>
<radialGradient id="paint2_radial_2057_30342" cx="0" cy="0" r="1" gradientUnits="userSpaceOnUse" gradientTransform="translate(2.83163 8.51658) rotate(43.0895) scale(49.6463 47.5349)">
<stop offset="0.786999" stop-color="white" stop-opacity="0"/>
<stop offset="1" stop-color="white"/>
</radialGradient>
<linearGradient id="paint3_linear_2057_30342" x1="22.0854" y1="33.9307" x2="21.9986" y2="43.3849" gradientUnits="userSpaceOnUse">
<stop offset="0.160696" stop-color="#191919"/>
<stop offset="0.829704" stop-color="#FF3464"/>
</linearGradient>
<linearGradient id="paint4_linear_2057_30342" x1="22.0854" y1="33.9307" x2="21.9986" y2="39.8287" gradientUnits="userSpaceOnUse">
<stop stop-color="#1A1A1A"/>
<stop offset="1" stop-color="#1A1A1A" stop-opacity="0"/>
</linearGradient>
<linearGradient id="paint5_linear_2057_30342" x1="36.4837" y1="21.2666" x2="36.4837" y2="34.971" gradientUnits="userSpaceOnUse">
<stop stop-color="white"/>
<stop offset="0.555437" stop-color="#FFE353"/>
</linearGradient>
</defs>
</svg>
