<svg width="48" height="49" viewBox="0 0 48 49" fill="none" xmlns="http://www.w3.org/2000/svg">
<rect width="48" height="49" rx="24" fill="white"/>
<path d="M16.4541 30.4199C15.4346 30.4199 14.7842 29.8135 14.7842 28.9258C14.7842 27.915 15.5576 27.1064 16.3926 26.3857C17.0693 25.7969 17.1924 24.5225 17.377 23.1338C17.6143 20.1367 18.6426 17.9307 20.8223 17.1484C21.2266 15.9707 22.2637 15.1182 23.5645 15.1182C24.8652 15.1182 25.8936 15.9707 26.3066 17.1484C28.4863 17.9307 29.5146 20.1367 29.752 23.1338C29.9277 24.5225 30.0596 25.7969 30.7363 26.3857C31.5625 27.1064 32.3447 27.915 32.3447 28.9258C32.3447 29.8135 31.6943 30.4199 30.6748 30.4199H16.4541ZM23.5645 34.208C21.9033 34.208 20.6904 33.0566 20.585 31.6943H26.5439C26.4385 33.0566 25.2256 34.208 23.5645 34.208Z" fill="#58E4F1"/>
<circle cx="30" cy="18" r="3.5" fill="#FF3464" stroke="white"/>
</svg>
