<svg width="32" height="32" viewBox="0 0 32 32" fill="none" xmlns="http://www.w3.org/2000/svg">
<rect width="32" height="32" rx="16" fill="#EEFCFE"/>
<path d="M20.5249 15.7119C20.5249 16.0122 20.4224 16.2612 20.1807 16.4956L14.541 22.0107C14.3506 22.2012 14.1235 22.2964 13.8525 22.2964C13.3032 22.2964 12.8564 21.8569 12.8564 21.3076C12.8564 21.0293 12.9736 20.7876 13.1714 20.5898L18.1812 15.7046L13.1714 10.834C12.9736 10.6362 12.8564 10.3872 12.8564 10.1162C12.8564 9.56689 13.3032 9.13477 13.8525 9.13477C14.1235 9.13477 14.3506 9.22266 14.541 9.41309L20.1807 14.9282C20.415 15.1626 20.5249 15.4116 20.5249 15.7119Z" fill="#58E4F1"/>
</svg>
