<svg width="24" height="24" viewBox="0 0 24 24" fill="none" xmlns="http://www.w3.org/2000/svg">
<rect width="24" height="24" rx="12" fill="#58E4F1"/>
<path d="M10.5664 17.0312C10.2383 17.0312 9.99219 16.9082 9.76953 16.6328L6.73438 12.8945C6.56445 12.6895 6.49414 12.4961 6.49414 12.291C6.49414 11.8223 6.83984 11.4824 7.32031 11.4824C7.60742 11.4824 7.80664 11.5879 8 11.8281L10.543 15.0508L15.5059 7.1875C15.7051 6.87109 15.9043 6.75391 16.2324 6.75391C16.707 6.75391 17.0469 7.08789 17.0469 7.55078C17.0469 7.73242 16.9941 7.91992 16.8535 8.13086L11.3691 16.6152C11.1816 16.8965 10.9121 17.0312 10.5664 17.0312Z" fill="white"/>
</svg>
