<svg width="48" height="48" viewBox="0 0 48 48" fill="none" xmlns="http://www.w3.org/2000/svg">
<rect width="48" height="48" rx="24" fill="white"/>
<path d="M16.4541 29.9199C15.4346 29.9199 14.7842 29.3135 14.7842 28.4258C14.7842 27.415 15.5576 26.6064 16.3926 25.8857C17.0693 25.2969 17.1924 24.0225 17.377 22.6338C17.6143 19.6367 18.6426 17.4307 20.8223 16.6484C21.2266 15.4707 22.2637 14.6182 23.5645 14.6182C24.8652 14.6182 25.8936 15.4707 26.3066 16.6484C28.4863 17.4307 29.5146 19.6367 29.752 22.6338C29.9277 24.0225 30.0596 25.2969 30.7363 25.8857C31.5625 26.6064 32.3447 27.415 32.3447 28.4258C32.3447 29.3135 31.6943 29.9199 30.6748 29.9199H16.4541ZM23.5645 33.708C21.9033 33.708 20.6904 32.5566 20.585 31.1943H26.5439C26.4385 32.5566 25.2256 33.708 23.5645 33.708Z" fill="#58E4F1"/>
</svg>
