<svg width="43" height="46" viewBox="0 0 43 46" fill="none" xmlns="http://www.w3.org/2000/svg">
<g filter="url(#filter0_d_2057_30196)">
<mask id="path-1-outside-1_2057_30196" maskUnits="userSpaceOnUse" x="2.42599" y="1.69336" width="39" height="42" fill="black">
<rect fill="white" x="2.42599" y="1.69336" width="39" height="42"/>
<path fill-rule="evenodd" clip-rule="evenodd" d="M29.5133 15.5203H31.4603L39.6345 4.69314V15.5203H39.6347V30.6793C39.6347 37.2032 34.3278 42.4822 27.804 42.4479L27.2109 42.4448C26.9255 42.4876 26.6333 42.5098 26.3359 42.5098H15.1164C14.5034 42.5098 13.9014 42.4627 13.3139 42.3717L13.3118 42.3717V42.3714C7.71219 41.5037 3.426 36.6622 3.426 30.8195H13.3118V29.0152V27.2891C13.3118 22.3358 16.3719 18.0972 20.7047 16.3607L29.5133 4.69314V15.5203Z"/>
</mask>
<path fill-rule="evenodd" clip-rule="evenodd" d="M29.5133 15.5203H31.4603L39.6345 4.69314V15.5203H39.6347V30.6793C39.6347 37.2032 34.3278 42.4822 27.804 42.4479L27.2109 42.4448C26.9255 42.4876 26.6333 42.5098 26.3359 42.5098H15.1164C14.5034 42.5098 13.9014 42.4627 13.3139 42.3717L13.3118 42.3717V42.3714C7.71219 41.5037 3.426 36.6622 3.426 30.8195H13.3118V29.0152V27.2891C13.3118 22.3358 16.3719 18.0972 20.7047 16.3607L29.5133 4.69314V15.5203Z" fill="url(#paint0_radial_2057_30196)"/>
<path d="M29.5133 15.5203H28.5285V16.5052H29.5133V15.5203ZM31.4603 15.5203V16.5052H31.9508L32.2464 16.1137L31.4603 15.5203ZM39.6345 4.69314H40.6194V1.75409L38.8485 4.09973L39.6345 4.69314ZM39.6345 15.5203H38.6496V16.5052H39.6345V15.5203ZM39.6347 15.5203H40.6195V14.5354H39.6347V15.5203ZM27.804 42.4479L27.8092 41.4631L27.804 42.4479ZM27.2109 42.4448L27.2161 41.4599L27.14 41.4595L27.0647 41.4708L27.2109 42.4448ZM13.3139 42.3717L13.4645 41.3985L13.3923 41.3873L13.3192 41.3869L13.3139 42.3717ZM13.3118 42.3717H12.3269V43.3513L13.3064 43.3566L13.3118 42.3717ZM13.3118 42.3714H14.2966V41.5274L13.4626 41.3982L13.3118 42.3714ZM3.426 30.8195V29.8346H2.44113V30.8195H3.426ZM13.3118 30.8195V31.8044H14.2966V30.8195H13.3118ZM20.7047 16.3607L21.0711 17.2749L21.3256 17.1729L21.4907 16.9541L20.7047 16.3607ZM29.5133 4.69314H30.4982V1.75409L28.7273 4.09973L29.5133 4.69314ZM29.5133 16.5052H31.4603V14.5354H29.5133V16.5052ZM32.2464 16.1137L40.4205 5.28656L38.8485 4.09973L30.6743 14.9269L32.2464 16.1137ZM38.6496 4.69314V15.5203H40.6194V4.69314H38.6496ZM39.6345 16.5052H39.6347V14.5354H39.6345V16.5052ZM38.6498 15.5203V30.6793H40.6195V15.5203H38.6498ZM38.6498 30.6793C38.6498 36.6572 33.787 41.4945 27.8092 41.4631L27.7988 43.4328C34.8686 43.4699 40.6195 37.7491 40.6195 30.6793H38.6498ZM27.8092 41.4631L27.2161 41.4599L27.2058 43.4296L27.7988 43.4328L27.8092 41.4631ZM26.3359 43.4947C26.6824 43.4947 27.0235 43.4688 27.3571 43.4187L27.0647 41.4708C26.8276 41.5064 26.5842 41.525 26.3359 41.525V43.4947ZM15.1164 43.4947H26.3359V41.525H15.1164V43.4947ZM13.1632 43.345C13.8004 43.4436 14.4528 43.4947 15.1164 43.4947V41.525C14.554 41.525 14.0024 41.4817 13.4645 41.3985L13.1632 43.345ZM13.3192 41.3869L13.3171 41.3869L13.3064 43.3566L13.3085 43.3566L13.3192 41.3869ZM14.2966 42.3717V42.3714H12.3269V42.3717H14.2966ZM2.44113 30.8195C2.44113 37.1553 7.0888 42.4038 13.1609 43.3447L13.4626 41.3982C8.33558 40.6037 4.41086 36.169 4.41086 30.8195H2.44113ZM13.3118 29.8346H3.426V31.8044H13.3118V29.8346ZM14.2966 30.8195V29.0152H12.3269V30.8195H14.2966ZM14.2966 29.0152V27.2891H12.3269V29.0152H14.2966ZM14.2966 27.2891C14.2966 22.7519 17.0991 18.8668 21.0711 17.2749L20.3383 15.4465C15.6447 17.3276 12.3269 21.9197 12.3269 27.2891H14.2966ZM21.4907 16.9541L30.2993 5.28656L28.7273 4.09973L19.9187 15.7673L21.4907 16.9541ZM28.5285 4.69314V15.5203H30.4982V4.69314H28.5285Z" fill="white" mask="url(#path-1-outside-1_2057_30196)"/>
</g>
<path fill-rule="evenodd" clip-rule="evenodd" d="M29.5133 15.5203H31.4603L39.6345 4.69314V15.5203H39.6347V30.6793C39.6347 37.2032 34.3278 42.4822 27.804 42.4479L27.2109 42.4448C26.9255 42.4876 26.6333 42.5098 26.3359 42.5098H15.1164C14.5034 42.5098 13.9014 42.4627 13.3139 42.3717L13.3118 42.3717V42.3714C7.71219 41.5037 3.426 36.6622 3.426 30.8195H13.3118V29.0152V27.2891C13.3118 22.3358 16.3719 18.0972 20.7047 16.3607L29.5133 4.69314V15.5203Z" fill="url(#paint1_radial_2057_30196)"/>
<circle cx="26.9831" cy="28.2502" r="2.8049" fill="white"/>
<mask id="mask0_2057_30196" style="mask-type:alpha" maskUnits="userSpaceOnUse" x="24" y="25" width="6" height="7">
<circle cx="26.9831" cy="28.2502" r="2.8049" fill="white"/>
</mask>
<g mask="url(#mask0_2057_30196)">
<circle cx="27.6891" cy="28.2508" r="2.25569" fill="#191919"/>
</g>
<circle cx="19.8823" cy="28.2502" r="2.8049" fill="white"/>
<mask id="mask1_2057_30196" style="mask-type:alpha" maskUnits="userSpaceOnUse" x="17" y="25" width="6" height="7">
<circle cx="19.8823" cy="28.2502" r="2.8049" fill="white"/>
</mask>
<g mask="url(#mask1_2057_30196)">
<circle cx="20.5884" cy="28.2508" r="2.25569" fill="#191919"/>
</g>
<path fill-rule="evenodd" clip-rule="evenodd" d="M8.68258 34.9784C8.68258 35.2167 8.48938 35.4099 8.25106 35.4099C8.01273 35.4099 7.81953 35.2167 7.81953 34.9784C7.81953 34.7401 8.01273 34.5469 8.25106 34.5469C8.48938 34.5469 8.68258 34.7401 8.68258 34.9784ZM10.9187 34.9784C10.9187 35.2167 10.7255 35.4099 10.4871 35.4099C10.2488 35.4099 10.0556 35.2167 10.0556 34.9784C10.0556 34.7401 10.2488 34.5469 10.4871 34.5469C10.7255 34.5469 10.9187 34.7401 10.9187 34.9784ZM9.3496 36.9788C9.58792 36.9788 9.78112 36.7856 9.78112 36.5473C9.78112 36.309 9.58792 36.1158 9.3496 36.1158C9.11128 36.1158 8.91808 36.309 8.91808 36.5473C8.91808 36.7856 9.11128 36.9788 9.3496 36.9788Z" fill="white"/>
<path fill-rule="evenodd" clip-rule="evenodd" d="M16.6266 34.5078C15.5541 34.5078 14.6847 35.3772 14.6847 36.4497C14.6847 37.5221 15.5541 38.3915 16.6266 38.3915H18.1762L18.1762 34.5081L18.7646 34.5081V38.3915H21.0005V34.5081L21.5889 34.5081V38.3915H23.786C23.799 38.3915 23.812 38.3915 23.825 38.3913V34.5081L24.4135 34.5081V38.3411C26.26 38.0411 27.6697 36.4391 27.6697 34.5078H16.6266Z" fill="white"/>
<mask id="path-12-inside-2_2057_30196" fill="white">
<path d="M3.42599 30.3877H6.05135C6.48633 30.3877 6.83895 30.7403 6.83895 31.1753C6.83895 32.6252 5.66354 33.8007 4.2136 33.8007H3.42599V30.3877Z"/>
</mask>
<path d="M3.42599 30.3877H6.05135C6.48633 30.3877 6.83895 30.7403 6.83895 31.1753C6.83895 32.6252 5.66354 33.8007 4.2136 33.8007H3.42599V30.3877Z" fill="#191919"/>
<path d="M3.42599 30.3877H6.83895H3.42599ZM7.09916 31.3662C7.09916 32.8544 5.89272 34.0609 4.40449 34.0609H3.42599V33.5404H4.2136C5.51983 33.5404 6.57874 32.4815 6.57874 31.1753L7.09916 31.3662ZM3.42599 33.8007V30.3877V33.8007ZM6.12066 30.3877C6.66107 30.3877 7.09916 30.8258 7.09916 31.3662V31.3662C7.09916 32.8544 5.89272 34.0609 4.40449 34.0609L4.2136 33.5404C5.51983 33.5404 6.57874 32.4815 6.57874 31.1753V31.1753C6.57874 30.7403 6.34262 30.3877 6.05135 30.3877H6.12066Z" fill="white" mask="url(#path-12-inside-2_2057_30196)"/>
<defs>
<filter id="filter0_d_2057_30196" x="0.865348" y="0.966015" width="41.33" height="44.8928" filterUnits="userSpaceOnUse" color-interpolation-filters="sRGB">
<feFlood flood-opacity="0" result="BackgroundImageFix"/>
<feColorMatrix in="SourceAlpha" type="matrix" values="0 0 0 0 0 0 0 0 0 0 0 0 0 0 0 0 0 0 127 0" result="hardAlpha"/>
<feOffset dy="0.787892"/>
<feGaussianBlur stdDeviation="0.787892"/>
<feComposite in2="hardAlpha" operator="out"/>
<feColorMatrix type="matrix" values="0 0 0 0 0 0 0 0 0 0 0 0 0 0 0 0 0 0 0.25 0"/>
<feBlend mode="normal" in2="BackgroundImageFix" result="effect1_dropShadow_2057_30196"/>
<feBlend mode="normal" in="SourceGraphic" in2="effect1_dropShadow_2057_30196" result="shape"/>
</filter>
<radialGradient id="paint0_radial_2057_30196" cx="0" cy="0" r="1" gradientUnits="userSpaceOnUse" gradientTransform="translate(3.426 8.59646) rotate(43.0882) scale(49.6449 47.5334)">
<stop offset="0.786999" stop-color="#191919"/>
<stop offset="1" stop-color="white"/>
</radialGradient>
<radialGradient id="paint1_radial_2057_30196" cx="0" cy="0" r="1" gradientUnits="userSpaceOnUse" gradientTransform="translate(3.426 8.59646) rotate(43.0882) scale(49.6449 47.5334)">
<stop offset="0.786999" stop-color="#191919"/>
<stop offset="1" stop-color="white"/>
</radialGradient>
</defs>
</svg>
