<svg width="105" height="140" viewBox="0 0 105 140" fill="none" xmlns="http://www.w3.org/2000/svg">
<mask id="mask0_2901_11241" style="mask-type:alpha" maskUnits="userSpaceOnUse" x="0" y="0" width="105" height="140">
<path d="M0 5C0 2.23857 2.23858 0 5 0H100C102.761 0 105 2.23858 105 5V135C105 137.761 102.761 140 100 140H5C2.23858 140 0 137.761 0 135V5Z" fill="#D9D9D9"/>
</mask>
<g mask="url(#mask0_2901_11241)">
<rect width="105" height="140" fill="#F9F9F9"/>
<path fill-rule="evenodd" clip-rule="evenodd" d="M90.7831 59.6325H96.8863L122.513 25.689V99.9702H122.513V113.69C122.513 130.539 108.807 144.172 91.9586 144.084L83.5686 144.04C82.6725 144.174 81.7552 144.244 80.8216 144.244H45.6487C43.7255 144.244 41.837 144.096 39.9938 143.81L39.9915 143.81V143.81C22.4371 141.09 9 125.912 9 107.595H39.9915V101.938V90.0266C39.9915 75.1606 50.6642 62.7874 64.7653 60.1511L90.7831 25.689V59.6325Z" fill="#D6D6D6" fill-opacity="0.4"/>
<circle cx="82.8508" cy="99.5398" r="8.79323" fill="#F9F9F9"/>
<mask id="mask1_2901_11241" style="mask-type:alpha" maskUnits="userSpaceOnUse" x="74" y="90" width="18" height="19">
<circle cx="82.8508" cy="99.5398" r="8.79323" fill="#EEFCFE"/>
</mask>
<g mask="url(#mask1_2901_11241)">
<circle cx="85.0644" cy="99.5402" r="7.07148" fill="#D6D6D6" fill-opacity="0.4"/>
</g>
<circle cx="60.591" cy="99.5398" r="8.79323" fill="#F9F9F9"/>
<mask id="mask2_2901_11241" style="mask-type:alpha" maskUnits="userSpaceOnUse" x="51" y="90" width="19" height="19">
<circle cx="60.591" cy="99.5398" r="8.79323" fill="#EEFCFE"/>
</mask>
<g mask="url(#mask2_2901_11241)">
<circle cx="62.8046" cy="99.5402" r="7.07148" fill="#D6D6D6" fill-opacity="0.4"/>
</g>
<path fill-rule="evenodd" clip-rule="evenodd" d="M25.4794 120.632C25.4794 121.379 24.8737 121.984 24.1266 121.984C23.3795 121.984 22.7738 121.379 22.7738 120.632C22.7738 119.884 23.3795 119.279 24.1266 119.279C24.8737 119.279 25.4794 119.884 25.4794 120.632ZM32.4896 120.632C32.4896 121.379 31.8839 121.984 31.1368 121.984C30.3897 121.984 29.784 121.379 29.784 120.632C29.784 119.884 30.3897 119.279 31.1368 119.279C31.8839 119.279 32.4896 119.884 32.4896 120.632ZM27.5703 126.904C28.3175 126.904 28.9231 126.298 28.9231 125.551C28.9231 124.804 28.3175 124.198 27.5703 124.198C26.8232 124.198 26.2175 124.804 26.2175 125.551C26.2175 126.298 26.8232 126.904 27.5703 126.904Z" fill="#F9F9F9"/>
<path fill-rule="evenodd" clip-rule="evenodd" d="M55.2412 119.156L55.2412 131.331H56.7609V119.156H64.0958V131.331H65.6155L65.6155 119.156H72.9506V131.331H74.4703V119.156H85.003V121.2C85.003 126.795 80.467 131.331 74.8716 131.331H50.3835C47.0214 131.331 44.2959 128.606 44.2959 125.244C44.2959 121.882 47.0214 119.156 50.3835 119.156H55.2412Z" fill="#F9F9F9"/>
<mask id="path-12-inside-1_2901_11241" fill="white">
<path d="M9 106.242H17.2303C18.594 106.242 19.6994 107.348 19.6994 108.711C19.6994 113.257 16.0146 116.942 11.4691 116.942H9V106.242Z"/>
</mask>
<path d="M9 106.242H17.2303C18.594 106.242 19.6994 107.348 19.6994 108.711C19.6994 113.257 16.0146 116.942 11.4691 116.942H9V106.242Z" fill="#EBEBEB"/>
<path d="M9 106.242H19.6994H9ZM20.6994 109.438C20.6994 114.134 16.8923 117.942 12.1959 117.942H9V115.942H11.4691C15.4623 115.942 18.6994 112.705 18.6994 108.711L20.6994 109.438ZM9 116.942V106.242V116.942ZM17.5035 106.242C19.2686 106.242 20.6994 107.673 20.6994 109.438V109.438C20.6994 114.134 16.8923 117.942 12.1959 117.942L11.4691 115.942C15.4623 115.942 18.6994 112.705 18.6994 108.711V108.711C18.6994 107.348 18.0417 106.242 17.2303 106.242H17.5035Z" fill="#F9F9F9" mask="url(#path-12-inside-1_2901_11241)"/>
</g>
</svg>
