<svg width="150" height="48" viewBox="0 0 150 48" fill="none" xmlns="http://www.w3.org/2000/svg">
<rect width="150" height="48" rx="24" fill="#F9F9F9"/>
<rect x="12" y="8" width="32" height="32" rx="16" fill="white"/>
<path d="M17.7412 21.0605V18.7051C17.7412 16.9385 18.6289 16.0596 20.167 16.0596H22.6719C23.542 16.0596 23.9902 16.2178 24.5703 16.71L25.1064 17.1494C25.5459 17.5273 25.9062 17.668 26.5039 17.668H34.9414C36.7695 17.668 37.7012 18.582 37.7012 20.3926V21.0605H17.7412ZM17.7412 29.4189V22.2119H37.7012V29.4189C37.7012 31.2295 36.7783 32.1436 35.2051 32.1436H20.501C18.6641 32.1436 17.7412 31.2383 17.7412 29.4189Z" fill="#58E4F1"/>
<path d="M64.5611 23.656H62.6891V20.744H60.8011V19.24H62.6891V16.008H64.5611V23.656ZM64.5771 30.088H55.1691V24.392H57.0571V25.8H62.6891V24.36H64.5771V30.088ZM62.6891 28.6V27.24H57.0571V28.6H62.6891ZM52.8651 20.056C52.8651 18.088 54.4171 16.648 56.5611 16.648C58.6731 16.648 60.2411 18.056 60.2411 20.056C60.2411 22.072 58.6731 23.32 56.5611 23.32C54.4171 23.32 52.8651 22.072 52.8651 20.056ZM54.7371 20.024C54.7371 21.144 55.5371 21.768 56.5611 21.768C57.5531 21.768 58.3851 21.144 58.3851 20.024C58.3851 18.84 57.5851 18.184 56.5611 18.184C55.5051 18.184 54.7371 18.904 54.7371 20.024ZM78.2768 24.776H73.9568V27H79.4928V28.488H66.6128V27H72.0848V24.776H68.2608V20.056H76.0048V18.408H68.1808V16.92H77.8608V21.544H70.1168V23.272H78.2768V24.776ZM93.3366 26.904V28.392H80.4566V26.904H93.3366ZM91.8486 23.896H82.1046V17.208H91.7206V18.712H83.9606V22.408H91.8486V23.896ZM106.823 19.72C106.823 21.432 105.271 22.68 103.095 22.68C100.871 22.68 99.3994 21.432 99.3994 19.72C99.3994 17.96 100.871 16.68 103.095 16.68C105.335 16.68 106.823 17.96 106.823 19.72ZM110.375 16.008V30.264H108.519V16.008H110.375ZM104.087 29.848H102.183V25.128C100.823 25.192 99.7194 25.224 98.6634 25.224L98.3914 23.688C102.023 23.688 105.751 23.464 107.767 23.256L107.927 24.696C106.871 24.84 105.447 24.952 104.087 25.032V29.848ZM104.951 19.704C104.951 18.84 104.183 18.2 103.095 18.2C102.039 18.2 101.271 18.84 101.271 19.704C101.271 20.552 102.023 21.144 103.095 21.144C104.215 21.144 104.951 20.552 104.951 19.704ZM121.323 26.152L120.347 27.608C118.987 26.952 117.323 25.336 116.891 23.96C116.539 25.4 115.083 27.096 113.419 27.912L112.299 26.536C114.587 25.448 115.771 23.608 115.883 20.872H113.035V19.4H120.635V20.872H117.835C117.979 23.624 119.451 25.336 121.323 26.152ZM124.139 30.264H122.267V16.008H124.139V30.264ZM114.683 18.36V16.872H118.971V18.36H114.683Z" fill="#2F2F2F"/>
</svg>
