<svg width="315" height="278" viewBox="0 0 315 278" fill="none" xmlns="http://www.w3.org/2000/svg">
<g filter="url(#filter0_d_2790_29270)">
<path fill-rule="evenodd" clip-rule="evenodd" d="M213.329 51.0778C202.95 47.3 191.473 52.6517 187.695 63.0313L161.681 134.503C161.824 134.542 161.966 134.587 162.108 134.639C164.765 135.606 166.181 138.418 165.27 140.92C164.359 143.422 161.467 144.666 158.81 143.699C158.668 143.648 158.53 143.591 158.396 143.529L132.46 214.789C128.682 225.168 134.034 236.645 144.413 240.423L227.106 270.521C237.486 274.298 248.963 268.947 252.74 258.567L278.677 187.308C276.289 186.212 275.066 183.565 275.928 181.196C276.79 178.828 279.429 177.587 281.962 178.282L307.976 106.81C311.753 96.4303 306.402 84.9534 296.022 81.1756L213.329 51.0778Z" fill="#F3F3F3" fill-opacity="0.8" shape-rendering="crispEdges"/>
</g>
<g filter="url(#filter1_d_2790_29270)">
<path fill-rule="evenodd" clip-rule="evenodd" d="M198.751 31.4869C188.082 28.6281 177.115 34.9597 174.256 45.629L153.057 124.744C153.203 124.77 153.349 124.803 153.494 124.842C156.225 125.573 157.847 128.379 157.116 131.107C156.385 133.835 153.578 135.454 150.847 134.722C150.701 134.683 150.559 134.638 150.42 134.587L129.283 213.471C126.424 224.141 132.756 235.107 143.425 237.966L228.427 260.742C239.096 263.601 250.063 257.269 252.921 246.6L274.058 167.716C271.588 166.82 270.171 164.168 270.863 161.585C271.555 159.002 274.108 157.414 276.696 157.873L297.895 78.7579C300.753 68.0886 294.422 57.1218 283.752 54.263L198.751 31.4869Z" fill="#FCFCFC"/>
</g>
<mask id="mask0_2790_29270" style="mask-type:alpha" maskUnits="userSpaceOnUse" x="128" y="30" width="171" height="232">
<path fill-rule="evenodd" clip-rule="evenodd" d="M198.812 31.2579C188.143 28.3991 177.176 34.7307 174.317 45.4L153.118 124.515C153.264 124.541 153.41 124.574 153.555 124.613C156.287 125.344 157.908 128.15 157.177 130.878C156.446 133.606 153.639 135.225 150.908 134.493C150.762 134.454 150.62 134.409 150.481 134.358L129.344 213.242C126.485 223.912 132.817 234.878 143.486 237.737L228.488 260.513C239.157 263.372 250.124 257.04 252.983 246.371L274.12 167.487C271.649 166.591 270.233 163.939 270.925 161.356C271.617 158.773 274.169 157.185 276.757 157.644L297.956 78.5289C300.815 67.8596 294.483 56.8928 283.814 54.034L198.812 31.2579Z" fill="#FCFCFC"/>
<line x1="158.044" y1="130.468" x2="270.379" y2="160.568" stroke="#D6D6D6" stroke-opacity="0.7" stroke-dasharray="1.94 1.94"/>
</mask>
<g mask="url(#mask0_2790_29270)">
</g>
<mask id="mask1_2790_29270" style="mask-type:alpha" maskUnits="userSpaceOnUse" x="128" y="30" width="171" height="232">
<path fill-rule="evenodd" clip-rule="evenodd" d="M198.812 31.2579C188.143 28.3991 177.176 34.7307 174.317 45.4L153.118 124.515C153.264 124.541 153.41 124.574 153.555 124.613C156.287 125.344 157.908 128.15 157.177 130.878C156.446 133.606 153.639 135.225 150.908 134.493C150.762 134.454 150.62 134.409 150.481 134.358L129.344 213.242C126.485 223.912 132.817 234.878 143.486 237.737L228.488 260.513C239.157 263.372 250.124 257.04 252.983 246.371L274.12 167.487C271.649 166.591 270.233 163.939 270.925 161.356C271.617 158.773 274.169 157.185 276.757 157.644L297.956 78.5289C300.815 67.8596 294.483 56.8928 283.814 54.034L198.812 31.2579Z" fill="#FCFCFC"/>
<line x1="158.044" y1="130.468" x2="270.379" y2="160.568" stroke="#D6D6D6" stroke-opacity="0.7" stroke-dasharray="1.94 1.94"/>
</mask>
<g mask="url(#mask1_2790_29270)">
<rect x="291.541" y="56.1045" width="12" height="213.763" transform="rotate(15 291.541 56.1045)" fill="#FF3464" fill-opacity="0.25"/>
<rect x="179.494" y="26.0815" width="12" height="213.763" transform="rotate(15 179.494 26.0815)" fill="#FF3464" fill-opacity="0.25"/>
<g style="mix-blend-mode:multiply">
<line x1="158.044" y1="130.468" x2="270.378" y2="160.568" stroke="#D6D6D6" stroke-opacity="0.7" stroke-dasharray="1.94 1.94"/>
</g>
<path d="M205.574 33.0697L207.624 33.6189L202.453 52.9161L200.403 52.3668L205.574 33.0697ZM203.707 53.2522L204.861 53.5614L210.032 34.2643L208.878 33.9551L203.707 53.2522ZM205.693 53.7843L206.845 54.0929L212.016 34.7958L210.864 34.4872L205.693 53.7843ZM208.36 54.4989L210.883 55.1749L216.054 35.8778L213.531 35.2018L208.36 54.4989ZM212.903 55.7162L214.164 56.0541L219.335 36.757L218.074 36.419L212.903 55.7162ZM216.12 56.5783L221.349 57.9793L226.52 38.6821L221.291 37.2812L216.12 56.5783ZM229.745 60.2289L231.463 60.6893L236.634 41.3922L234.915 40.9318L229.745 60.2289ZM238.133 41.7939L232.962 61.091L235.305 61.7186L240.475 42.4215L238.133 41.7939ZM223.447 58.5414L224.571 58.8426L229.742 39.5455L228.617 39.2442L223.447 58.5414ZM226.182 59.2743L227.306 59.5755L232.477 40.2784L231.353 39.9772L226.182 59.2743Z" fill="#2F2F2F" fill-opacity="0.3"/>
<path d="M242.151 42.8705L244.201 43.4197L239.03 62.7168L236.98 62.1676L242.151 42.8705ZM240.285 63.053L241.439 63.3622L246.609 44.0651L245.455 43.7559L240.285 63.053ZM242.27 63.5851L243.422 63.8937L248.593 44.5966L247.441 44.288L242.27 63.5851ZM244.937 64.2997L247.46 64.9757L252.631 45.6785L250.108 45.0025L244.937 64.2997ZM249.48 65.5169L250.742 65.8549L255.912 46.5578L254.651 46.2198L249.48 65.5169ZM252.698 66.3791L257.926 67.78L263.097 48.4829L257.868 47.082L252.698 66.3791ZM266.322 70.0297L268.04 70.4901L273.211 51.193L271.492 50.7325L266.322 70.0297ZM274.71 51.5947L269.539 70.8918L271.882 71.5194L277.052 52.2223L274.71 51.5947ZM260.024 68.3421L261.148 68.6434L266.319 49.3463L265.195 49.045L260.024 68.3421ZM262.759 69.0751L263.884 69.3763L269.054 50.0792L267.93 49.778L262.759 69.0751Z" fill="#2F2F2F" fill-opacity="0.3"/>
<g opacity="0.25">
<path d="M207.105 245.27C218.521 248.329 230.252 241.564 233.308 230.16C236.364 218.757 229.586 207.033 218.17 203.974C206.754 200.915 195.022 207.679 191.966 219.083C188.911 230.486 195.688 242.211 207.105 245.27Z" stroke="#FF3464" stroke-width="4" stroke-miterlimit="10"/>
<path d="M218.16 204.009L207.105 245.27" stroke="#FF3464" stroke-width="4" stroke-miterlimit="10"/>
<path d="M207.104 245.27C212.813 246.799 219.917 238.795 222.972 227.391C226.028 215.987 223.878 205.503 218.17 203.974C212.462 202.444 205.357 210.449 202.302 221.852C199.246 233.256 201.396 243.74 207.104 245.27Z" stroke="#FF3464" stroke-width="4" stroke-miterlimit="10"/>
<path d="M192.001 219.092L233.308 230.16" stroke="#FF3464" stroke-width="4" stroke-miterlimit="10"/>
</g>
<path d="M201.085 89.7263L200.538 91.7664L186.397 87.9773L186.944 85.9372L192.855 87.5212L193.594 84.7625L188.844 71.2404L191.603 71.9795L195.39 82.8832L204.168 75.3463L206.903 76.0792L195.841 85.464L195.127 88.1299L201.085 89.7263ZM220.903 95.0365L220.356 97.0765L204.87 92.9271L209.218 76.6996L223.939 80.644L223.393 82.684L210.944 79.3484L209.77 83.7298L219.877 86.4381L219.33 88.4781L209.223 85.7698L207.689 91.4958L220.903 95.0365ZM224.204 89.2373C224.644 87.7815 225.238 86.5825 225.987 85.6404C226.752 84.7024 227.635 84.0031 228.637 83.5426C229.658 83.0707 230.776 82.8237 231.991 82.8014C233.226 82.7679 234.538 82.9374 235.929 83.3101C237.32 83.6828 238.532 84.198 239.565 84.8558C240.618 85.5023 241.46 86.283 242.093 87.1979C242.741 88.117 243.154 89.1718 243.332 90.3625C243.53 91.5418 243.459 92.8563 243.12 94.306L243.009 94.7233C242.577 96.1481 241.979 97.3296 241.214 98.2676C240.469 99.1943 239.588 99.8858 238.571 100.342C237.57 100.803 236.454 101.042 235.223 101.06C234.004 101.098 232.699 100.93 231.308 100.558C229.917 100.185 228.695 99.6754 227.643 99.029C226.601 98.4021 225.755 97.6369 225.102 96.7332C224.47 95.8183 224.054 94.7712 223.857 93.5919C223.675 92.4167 223.753 91.1043 224.092 89.6546L224.204 89.2373ZM235.383 85.3502C234.316 85.0644 233.305 84.9426 232.35 84.9848C231.41 85.031 230.556 85.2496 229.789 85.6403C229.041 86.0197 228.386 86.5811 227.822 87.3246C227.278 88.0567 226.857 88.9792 226.559 90.0919C226.273 91.1583 226.183 92.1445 226.288 93.0506C226.412 93.9454 226.702 94.7517 227.155 95.4695C227.629 96.1761 228.259 96.7922 229.045 97.3177C229.852 97.8319 230.788 98.2319 231.855 98.5177C232.921 98.8034 233.924 98.9231 234.864 98.8768C235.82 98.8347 236.671 98.6239 237.419 98.2445C238.186 97.8538 238.84 97.3001 239.38 96.5834C239.939 95.8554 240.364 94.9504 240.654 93.8686C240.939 92.8022 241.022 91.8139 240.901 90.9037C240.796 89.9977 240.509 89.1836 240.04 88.4616C239.591 87.7283 238.965 87.0968 238.162 86.5671C237.376 86.0415 236.449 85.6359 235.383 85.3502ZM259.41 98.3479L258.945 100.087L249.927 97.6702L250.393 95.9315L259.41 98.3479ZM194.244 99.1239L187.395 113.091L183.292 111.992L182.98 94.5158L185.345 95.1493L185.632 111.327L192.601 97.0936L196.658 98.1806L195.591 113.846L203.844 100.106L206.209 100.74L197.201 115.719L193.168 114.638L194.244 99.1239ZM205.812 109.156C206.252 107.7 206.847 106.501 207.596 105.559C208.361 104.621 209.244 103.922 210.245 103.461C211.266 102.989 212.384 102.742 213.599 102.72C214.834 102.687 216.147 102.856 217.538 103.229C218.929 103.601 220.141 104.117 221.174 104.774C222.226 105.421 223.069 106.202 223.702 107.117C224.35 108.036 224.763 109.091 224.941 110.281C225.138 111.46 225.068 112.775 224.729 114.225L224.617 114.642C224.186 116.067 223.588 117.248 222.823 118.186C222.078 119.113 221.197 119.804 220.18 120.261C219.178 120.721 218.062 120.961 216.832 120.979C215.613 121.017 214.307 120.849 212.917 120.476C211.526 120.104 210.304 119.594 209.251 118.948C208.21 118.321 207.363 117.556 206.711 116.652C206.078 115.737 205.663 114.69 205.466 113.511C205.283 112.335 205.362 111.023 205.701 109.573L205.812 109.156ZM216.991 105.269C215.925 104.983 214.914 104.861 213.959 104.903C213.019 104.95 212.165 105.168 211.398 105.559C210.65 105.938 209.994 106.5 209.431 107.243C208.887 107.975 208.466 108.898 208.167 110.011C207.882 111.077 207.791 112.063 207.896 112.969C208.021 113.864 208.31 114.67 208.764 115.388C209.237 116.095 209.867 116.711 210.654 117.236C211.46 117.751 212.397 118.151 213.463 118.436C214.53 118.722 215.533 118.842 216.473 118.796C217.428 118.753 218.28 118.543 219.027 118.163C219.795 117.772 220.448 117.219 220.988 116.502C221.548 115.774 221.972 114.869 222.262 113.787C222.548 112.721 222.631 111.733 222.51 110.822C222.405 109.916 222.118 109.102 221.649 108.38C221.199 107.647 220.573 107.015 219.771 106.486C218.984 105.96 218.058 105.555 216.991 105.269ZM226.119 114.597C226.559 113.141 227.154 111.942 227.903 111C228.668 110.062 229.551 109.363 230.552 108.903C231.573 108.431 232.691 108.184 233.907 108.161C235.141 108.128 236.454 108.297 237.845 108.67C239.236 109.043 240.448 109.558 241.481 110.216C242.533 110.862 243.376 111.643 244.009 112.558C244.657 113.477 245.07 114.532 245.248 115.722C245.446 116.902 245.375 118.216 245.036 119.666L244.924 120.083C244.493 121.508 243.895 122.69 243.13 123.628C242.385 124.554 241.504 125.246 240.487 125.702C239.486 126.163 238.37 126.402 237.139 126.42C235.92 126.458 234.615 126.29 233.224 125.918C231.833 125.545 230.611 125.035 229.558 124.389C228.517 123.762 227.67 122.997 227.018 122.093C226.385 121.178 225.97 120.131 225.773 118.952C225.591 117.777 225.669 116.464 226.008 115.014L226.119 114.597ZM237.298 110.71C236.232 110.424 235.221 110.303 234.266 110.345C233.326 110.391 232.472 110.609 231.705 111C230.957 111.38 230.301 111.941 229.738 112.685C229.194 113.417 228.773 114.339 228.475 115.452C228.189 116.518 228.098 117.504 228.204 118.411C228.328 119.305 228.617 120.112 229.071 120.829C229.544 121.536 230.174 122.152 230.961 122.678C231.767 123.192 232.704 123.592 233.77 123.878C234.837 124.163 235.84 124.283 236.78 124.237C237.735 124.195 238.587 123.984 239.335 123.604C240.102 123.214 240.755 122.66 241.295 121.943C241.855 121.215 242.279 120.31 242.569 119.229C242.855 118.162 242.938 117.174 242.817 116.264C242.712 115.358 242.425 114.544 241.956 113.822C241.506 113.088 240.88 112.457 240.078 111.927C239.291 111.401 238.365 110.996 237.298 110.71Z" fill="#FDCAD6"/>
<path d="M201.085 89.7263L201.761 89.9075L201.942 89.2314L201.266 89.0502L201.085 89.7263ZM200.538 91.7664L200.357 92.4425L201.033 92.6237L201.214 91.9476L200.538 91.7664ZM186.397 87.9773L185.721 87.7961L185.54 88.4722L186.216 88.6534L186.397 87.9773ZM186.944 85.9372L187.125 85.2611L186.449 85.0799L186.268 85.7561L186.944 85.9372ZM192.855 87.5212L192.674 88.1974L193.35 88.3785L193.531 87.7024L192.855 87.5212ZM193.594 84.7625L194.271 84.9437L194.327 84.7347L194.255 84.5305L193.594 84.7625ZM188.844 71.2404L189.026 70.5642L187.744 70.2209L188.184 71.4724L188.844 71.2404ZM191.603 71.9795L192.264 71.7499L192.143 71.3994L191.784 71.3034L191.603 71.9795ZM195.39 82.8832L194.729 83.1129L195.066 84.084L195.846 83.4143L195.39 82.8832ZM204.168 75.3463L204.349 74.6701L203.992 74.5745L203.712 74.8152L204.168 75.3463ZM206.903 76.0792L207.356 76.613L208.375 75.7488L207.084 75.4031L206.903 76.0792ZM195.841 85.464L195.389 84.9302L195.222 85.0716L195.165 85.2828L195.841 85.464ZM195.127 88.1299L194.451 87.9488L194.27 88.6249L194.946 88.8061L195.127 88.1299ZM200.409 89.5452L199.862 91.5852L201.214 91.9476L201.761 89.9075L200.409 89.5452ZM200.719 91.0902L186.578 87.3011L186.216 88.6534L200.357 92.4425L200.719 91.0902ZM187.073 88.1584L187.62 86.1184L186.268 85.7561L185.721 87.7961L187.073 88.1584ZM186.763 86.6134L192.674 88.1974L193.036 86.8451L187.125 85.2611L186.763 86.6134ZM193.531 87.7024L194.271 84.9437L192.918 84.5813L192.179 87.34L193.531 87.7024ZM194.255 84.5305L189.505 71.0084L188.184 71.4724L192.934 84.9945L194.255 84.5305ZM188.663 71.9165L191.422 72.6557L191.784 71.3034L189.026 70.5642L188.663 71.9165ZM190.942 72.2092L194.729 83.1129L196.051 82.6536L192.264 71.7499L190.942 72.2092ZM195.846 83.4143L204.624 75.8773L203.712 74.8152L194.934 82.3521L195.846 83.4143ZM203.987 76.0224L206.722 76.7554L207.084 75.4031L204.349 74.6701L203.987 76.0224ZM206.45 75.5455L195.389 84.9302L196.294 85.9978L207.356 76.613L206.45 75.5455ZM195.165 85.2828L194.451 87.9488L195.803 88.3111L196.518 85.6452L195.165 85.2828ZM194.946 88.8061L200.904 90.4025L201.266 89.0502L195.308 87.4538L194.946 88.8061ZM220.903 95.0365L221.579 95.2177L221.76 94.5415L221.084 94.3603L220.903 95.0365ZM220.356 97.0765L220.175 97.7527L220.851 97.9338L221.032 97.2577L220.356 97.0765ZM204.87 92.9271L204.194 92.746L204.013 93.4221L204.689 93.6033L204.87 92.9271ZM209.218 76.6996L209.4 76.0234L208.723 75.8423L208.542 76.5184L209.218 76.6996ZM223.939 80.644L224.615 80.8252L224.796 80.149L224.12 79.9678L223.939 80.644ZM223.393 82.684L223.211 83.3602L223.888 83.5413L224.069 82.8652L223.393 82.684ZM210.944 79.3484L211.125 78.6722L210.449 78.491L210.268 79.1672L210.944 79.3484ZM209.77 83.7298L209.094 83.5486L208.912 84.2248L209.589 84.4059L209.77 83.7298ZM219.877 86.4381L220.553 86.6193L220.734 85.9431L220.058 85.7619L219.877 86.4381ZM219.331 88.4781L219.149 89.1543L219.825 89.3354L220.007 88.6593L219.331 88.4781ZM209.223 85.7698L209.404 85.0937L208.728 84.9125L208.547 85.5887L209.223 85.7698ZM207.689 91.4958L207.013 91.3147L206.831 91.9908L207.508 92.172L207.689 91.4958ZM220.226 94.8553L219.68 96.8953L221.032 97.2577L221.579 95.2177L220.226 94.8553ZM220.537 96.4004L205.051 92.251L204.689 93.6033L220.175 97.7527L220.537 96.4004ZM205.546 93.1083L209.895 76.8808L208.542 76.5184L204.194 92.746L205.546 93.1083ZM209.037 77.3757L223.758 81.3201L224.12 79.9678L209.4 76.0234L209.037 77.3757ZM223.263 80.4628L222.716 82.5028L224.069 82.8652L224.615 80.8252L223.263 80.4628ZM223.574 82.0079L211.125 78.6722L210.763 80.0245L223.211 83.3602L223.574 82.0079ZM210.268 79.1672L209.094 83.5486L210.446 83.911L211.62 79.5295L210.268 79.1672ZM209.589 84.4059L219.696 87.1142L220.058 85.7619L209.951 83.0536L209.589 84.4059ZM219.201 86.2569L218.654 88.2969L220.007 88.6593L220.553 86.6193L219.201 86.2569ZM219.512 87.802L209.404 85.0937L209.042 86.446L219.149 89.1543L219.512 87.802ZM208.547 85.5887L207.013 91.3147L208.365 91.677L209.899 85.951L208.547 85.5887ZM207.508 92.172L220.721 95.7126L221.084 94.3603L207.87 90.8197L207.508 92.172ZM224.204 89.2373L223.534 89.0348L223.53 89.0454L223.528 89.0561L224.204 89.2373ZM225.987 85.6404L225.445 85.198L225.44 85.2046L225.987 85.6404ZM228.637 83.5426L228.929 84.1785L228.93 84.178L228.637 83.5426ZM231.991 82.8014L232.004 83.5013L232.01 83.5012L231.991 82.8014ZM239.565 84.8558L239.189 85.4463L239.199 85.4523L239.565 84.8558ZM242.093 87.1979L241.517 87.5961L241.521 87.6013L242.093 87.1979ZM243.332 90.3625L242.64 90.4659L242.642 90.4781L243.332 90.3625ZM243.12 94.306L243.797 94.4872L243.8 94.4763L243.802 94.4653L243.12 94.306ZM243.009 94.7233L243.679 94.9261L243.682 94.9153L243.685 94.9044L243.009 94.7233ZM241.214 98.2676L240.672 97.8252L240.669 97.8289L241.214 98.2676ZM238.571 100.342L238.284 99.7036L238.279 99.7063L238.571 100.342ZM235.223 101.06L235.213 100.36L235.202 100.361L235.223 101.06ZM227.643 99.029L228.009 98.4325L228.004 98.4293L227.643 99.029ZM225.102 96.7332L224.527 97.1314L224.531 97.1372L224.535 97.143L225.102 96.7332ZM223.857 93.5919L223.165 93.699L223.166 93.7075L223.857 93.5919ZM224.092 89.6546L223.416 89.4734L223.413 89.4843L223.41 89.4953L224.092 89.6546ZM232.35 84.9848L232.319 84.2854L232.316 84.2856L232.35 84.9848ZM229.789 85.6403L230.106 86.2645L230.107 86.2641L229.789 85.6403ZM227.822 87.3246L227.264 86.9017L227.26 86.9071L227.822 87.3246ZM226.288 93.0506L225.592 93.1312L225.593 93.1392L225.594 93.1472L226.288 93.0506ZM227.155 95.4695L226.564 95.8435L226.569 95.8514L226.574 95.8591L227.155 95.4695ZM229.045 97.3177L228.657 97.8998L228.663 97.9039L228.669 97.9079L229.045 97.3177ZM234.864 98.8768L234.833 98.1775L234.83 98.1777L234.864 98.8768ZM237.419 98.2445L237.736 98.8687L237.736 98.8683L237.419 98.2445ZM239.38 96.5834L238.824 96.1568L238.82 96.1622L239.38 96.5834ZM240.901 90.9037L240.206 90.9844L240.207 90.9956L240.901 90.9037ZM240.04 88.4616L239.443 88.8274L239.448 88.8353L239.453 88.843L240.04 88.4616ZM238.162 86.5671L237.774 87.1492L237.777 87.1512L238.162 86.5671ZM224.874 89.4397C225.294 88.0473 225.853 86.9333 226.535 86.0761L225.44 85.2046C224.623 86.2317 223.993 87.5157 223.534 89.0348L224.874 89.4397ZM226.53 86.0827C227.234 85.2192 228.034 84.5902 228.929 84.1785L228.344 82.9066C227.237 83.416 226.271 84.1855 225.445 85.198L226.53 86.0827ZM228.93 84.178C229.856 83.7501 230.878 83.5219 232.004 83.5013L231.978 82.1015C230.674 82.1254 229.459 82.3914 228.343 82.9071L228.93 84.178ZM232.01 83.5012C233.167 83.4697 234.412 83.6282 235.748 83.9863L236.111 82.634C234.665 82.2466 233.284 82.066 231.972 82.1017L232.01 83.5012ZM235.748 83.9863C237.082 84.3437 238.226 84.8329 239.189 85.4463L239.941 84.2654C238.839 83.5632 237.559 83.022 236.111 82.634L235.748 83.9863ZM239.199 85.4523C240.178 86.0535 240.946 86.7695 241.517 87.5961L242.669 86.7997C241.975 85.7965 241.058 84.951 239.932 84.2593L239.199 85.4523ZM241.521 87.6013C242.102 88.425 242.477 89.3755 242.64 90.4659L244.025 90.259C243.832 88.9682 243.381 87.809 242.665 86.7945L241.521 87.6013ZM242.642 90.4781C242.821 91.5467 242.761 92.7658 242.439 94.1467L243.802 94.4653C244.157 92.9468 244.239 91.5369 244.023 90.2468L242.642 90.4781ZM242.444 94.1248L242.332 94.5421L243.685 94.9044L243.797 94.4872L242.444 94.1248ZM242.339 94.5204C241.928 95.8774 241.367 96.9722 240.672 97.8252L241.757 98.7099C242.591 97.6869 243.227 96.4189 243.679 94.9261L242.339 94.5204ZM240.669 97.8289C239.988 98.6754 239.194 99.2955 238.284 99.7036L238.858 100.981C239.982 100.476 240.95 99.7132 241.76 98.7063L240.669 97.8289ZM238.279 99.7063C237.376 100.122 236.357 100.343 235.213 100.36L235.234 101.76C236.55 101.741 237.764 101.484 238.864 100.978L238.279 99.7063ZM235.202 100.361C234.062 100.396 232.825 100.24 231.489 99.8815L231.127 101.234C232.572 101.621 233.946 101.8 235.245 101.76L235.202 100.361ZM231.489 99.8815C230.153 99.5235 228.995 99.0383 228.009 98.4325L227.276 99.6255C228.395 100.313 229.681 100.846 231.127 101.234L231.489 99.8815ZM228.004 98.4293C227.036 97.8467 226.262 97.1438 225.67 96.3235L224.535 97.143C225.247 98.1299 226.167 98.9575 227.282 99.6287L228.004 98.4293ZM225.678 96.3351C225.108 95.511 224.729 94.5618 224.547 93.4763L223.166 93.7075C223.38 94.9805 223.831 96.1256 224.527 97.1314L225.678 96.3351ZM224.549 93.4847C224.383 92.4174 224.45 91.1974 224.774 89.8138L223.41 89.4953C223.056 91.0111 222.966 92.416 223.165 93.699L224.549 93.4847ZM224.768 89.8357L224.88 89.4184L223.528 89.0561L223.416 89.4734L224.768 89.8357ZM235.564 84.674C234.439 84.3726 233.356 84.2397 232.319 84.2854L232.381 85.6841C233.255 85.6455 234.194 85.7563 235.202 86.0263L235.564 84.674ZM232.316 84.2856C231.286 84.3363 230.335 84.5769 229.471 85.0165L230.107 86.2641C230.778 85.9222 231.534 85.7258 232.384 85.6839L232.316 84.2856ZM229.472 85.0161C228.62 85.4486 227.885 86.0834 227.264 86.9017L228.38 87.7475C228.887 87.0789 229.463 86.5908 230.106 86.2645L229.472 85.0161ZM227.26 86.9071C226.652 87.726 226.198 88.7343 225.883 89.9108L227.235 90.2731C227.516 89.2241 227.904 88.3874 228.384 87.7421L227.26 86.9071ZM225.883 89.9108C225.579 91.0449 225.475 92.1211 225.592 93.1312L226.983 92.97C226.89 92.1679 226.967 91.2717 227.235 90.2731L225.883 89.9108ZM225.594 93.1472C225.732 94.1342 226.053 95.0361 226.564 95.8435L227.747 95.0956C227.35 94.4672 227.093 93.7565 226.981 92.954L225.594 93.1472ZM226.574 95.8591C227.103 96.65 227.802 97.3291 228.657 97.8998L229.434 96.7356C228.715 96.2553 228.154 95.7022 227.737 95.08L226.574 95.8591ZM228.669 97.9079C229.544 98.466 230.548 98.8924 231.673 99.1938L232.036 97.8415C231.028 97.5715 230.159 97.1979 229.422 96.7275L228.669 97.9079ZM231.673 99.1938C232.798 99.4952 233.875 99.6264 234.899 99.576L234.83 98.1777C233.974 98.2198 233.044 98.1116 232.036 97.8415L231.673 99.1938ZM234.895 99.5762C235.936 99.5302 236.887 99.2992 237.736 98.8687L237.102 97.6203C236.455 97.9487 235.703 98.1391 234.833 98.1775L234.895 99.5762ZM237.736 98.8683C238.603 98.4272 239.338 97.8026 239.939 97.0046L238.82 96.1622C238.342 96.7975 237.77 97.2803 237.101 97.6207L237.736 98.8683ZM239.935 97.0099C240.561 96.1947 241.021 95.2015 241.33 94.0498L239.977 93.6874C239.706 94.6994 239.317 95.516 238.825 96.1568L239.935 97.0099ZM241.33 94.0498C241.635 92.912 241.73 91.8298 241.595 90.8118L240.207 90.9956C240.314 91.798 240.244 92.6924 239.977 93.6874L241.33 94.0498ZM241.597 90.8231C241.48 89.8163 241.159 88.8981 240.627 88.0802L239.453 88.843C239.86 89.4691 240.113 90.179 240.206 90.9844L241.597 90.8231ZM240.637 88.0958C240.128 87.2653 239.426 86.5624 238.548 85.9829L237.777 87.1512C238.504 87.6311 239.053 88.1912 239.443 88.8274L240.637 88.0958ZM238.551 85.985C237.691 85.4105 236.692 84.9763 235.564 84.674L235.202 86.0263C236.206 86.2955 237.06 86.6725 237.774 87.1492L238.551 85.985ZM259.41 98.3479L260.087 98.529L260.268 97.8529L259.592 97.6717L259.41 98.3479ZM258.945 100.087L258.763 100.763L259.44 100.944L259.621 100.268L258.945 100.087ZM249.927 97.6702L249.251 97.489L249.069 98.1652L249.746 98.3464L249.927 97.6702ZM250.393 95.9315L250.574 95.2554L249.898 95.0742L249.716 95.7504L250.393 95.9315ZM258.734 98.1667L258.268 99.9054L259.621 100.268L260.087 98.529L258.734 98.1667ZM259.126 99.4104L250.108 96.9941L249.746 98.3464L258.763 100.763L259.126 99.4104ZM250.603 97.8514L251.069 96.1127L249.716 95.7504L249.251 97.489L250.603 97.8514ZM250.211 96.6077L259.229 99.024L259.592 97.6717L250.574 95.2554L250.211 96.6077ZM194.244 99.1239L194.942 99.1723L193.615 98.8157L194.244 99.1239ZM187.395 113.091L187.214 113.767L187.77 113.916L188.024 113.399L187.395 113.091ZM183.292 111.992L182.592 112.004L182.601 112.532L183.111 112.668L183.292 111.992ZM182.98 94.5158L183.162 93.8396L182.264 93.5991L182.281 94.5282L182.98 94.5158ZM185.345 95.1493L186.045 95.1369L186.036 94.6097L185.526 94.4732L185.345 95.1493ZM185.632 111.327L184.932 111.339L186.26 111.635L185.632 111.327ZM192.601 97.0936L192.782 96.4174L192.226 96.2683L191.972 96.7858L192.601 97.0936ZM196.658 98.1806L197.356 98.2282L197.395 97.6536L196.839 97.5045L196.658 98.1806ZM195.591 113.846L194.893 113.799L196.191 114.207L195.591 113.846ZM203.844 100.106L204.026 99.4301L203.516 99.2936L203.244 99.7458L203.844 100.106ZM206.209 100.74L206.809 101.101L207.288 100.304L206.39 100.064L206.209 100.74ZM197.201 115.719L197.02 116.395L197.529 116.531L197.801 116.08L197.201 115.719ZM193.168 114.638L192.469 114.59L192.429 115.165L192.986 115.314L193.168 114.638ZM193.615 98.8157L186.767 112.783L188.024 113.399L194.872 99.432L193.615 98.8157ZM187.576 112.415L183.473 111.316L183.111 112.668L187.214 113.767L187.576 112.415ZM183.992 111.979L183.68 94.5033L182.281 94.5282L182.592 112.004L183.992 111.979ZM182.799 95.1919L185.164 95.8255L185.526 94.4732L183.162 93.8396L182.799 95.1919ZM184.645 95.1617L184.932 111.339L186.332 111.314L186.045 95.1369L184.645 95.1617ZM186.26 111.635L193.23 97.4014L191.972 96.7858L185.003 111.019L186.26 111.635ZM192.42 97.7697L196.477 98.8568L196.839 97.5045L192.782 96.4174L192.42 97.7697ZM195.96 98.1331L194.893 113.799L196.289 113.894L197.356 98.2282L195.96 98.1331ZM196.191 114.207L204.444 100.467L203.244 99.7458L194.991 113.486L196.191 114.207ZM203.663 100.782L206.028 101.416L206.39 100.064L204.026 99.4301L203.663 100.782ZM205.609 100.379L196.601 115.358L197.801 116.08L206.809 101.101L205.609 100.379ZM197.382 115.043L193.349 113.962L192.986 115.314L197.02 116.395L197.382 115.043ZM193.866 114.686L194.942 99.1723L193.545 99.0754L192.469 114.59L193.866 114.686ZM205.812 109.156L205.142 108.954L205.139 108.964L205.136 108.975L205.812 109.156ZM207.596 105.559L207.054 105.117L207.048 105.123L207.596 105.559ZM210.245 103.461L210.538 104.097L210.539 104.097L210.245 103.461ZM213.599 102.72L213.612 103.42L213.618 103.42L213.599 102.72ZM221.174 104.774L220.798 105.365L220.807 105.371L221.174 104.774ZM223.702 107.117L223.126 107.515L223.13 107.52L223.702 107.117ZM224.941 110.281L224.249 110.385L224.251 110.397L224.941 110.281ZM224.729 114.225L225.405 114.406L225.408 114.395L225.411 114.384L224.729 114.225ZM224.617 114.642L225.287 114.845L225.29 114.834L225.293 114.823L224.617 114.642ZM222.823 118.186L222.28 117.744L222.277 117.748L222.823 118.186ZM220.18 120.261L219.893 119.622L219.887 119.625L220.18 120.261ZM216.832 120.979L216.822 120.279L216.81 120.279L216.832 120.979ZM209.251 118.948L209.618 118.351L209.612 118.348L209.251 118.948ZM206.711 116.652L206.135 117.05L206.139 117.056L206.143 117.062L206.711 116.652ZM205.466 113.511L204.774 113.618L204.775 113.626L205.466 113.511ZM205.701 109.573L205.024 109.392L205.021 109.403L205.019 109.414L205.701 109.573ZM213.959 104.903L213.928 104.204L213.924 104.204L213.959 104.903ZM211.398 105.559L211.714 106.183L211.715 106.183L211.398 105.559ZM209.431 107.243L208.873 106.82L208.869 106.826L209.431 107.243ZM207.896 112.969L207.201 113.05L207.202 113.058L207.203 113.066L207.896 112.969ZM208.764 115.388L208.172 115.762L208.177 115.77L208.182 115.778L208.764 115.388ZM210.654 117.236L210.265 117.818L210.271 117.823L210.278 117.827L210.654 117.236ZM216.473 118.796L216.442 118.096L216.438 118.096L216.473 118.796ZM219.027 118.163L219.344 118.787L219.345 118.787L219.027 118.163ZM220.988 116.502L220.433 116.075L220.429 116.081L220.988 116.502ZM222.51 110.822L221.815 110.903L221.816 110.914L222.51 110.822ZM221.649 108.38L221.052 108.746L221.057 108.754L221.062 108.762L221.649 108.38ZM219.771 106.486L219.382 107.068L219.385 107.07L219.771 106.486ZM206.482 109.358C206.903 107.966 207.462 106.852 208.144 105.995L207.048 105.123C206.231 106.15 205.601 107.434 205.142 108.954L206.482 109.358ZM208.139 106.001C208.843 105.138 209.643 104.509 210.538 104.097L209.953 102.825C208.845 103.335 207.879 104.104 207.054 105.117L208.139 106.001ZM210.539 104.097C211.465 103.669 212.486 103.441 213.612 103.42L213.587 102.02C212.282 102.044 211.068 102.31 209.952 102.826L210.539 104.097ZM213.618 103.42C214.776 103.388 216.021 103.547 217.357 103.905L217.719 102.553C216.274 102.165 214.893 101.985 213.58 102.02L213.618 103.42ZM217.357 103.905C218.691 104.262 219.835 104.752 220.798 105.365L221.55 104.184C220.447 103.482 219.167 102.941 217.719 102.553L217.357 103.905ZM220.807 105.371C221.786 105.972 222.554 106.688 223.126 107.515L224.278 106.718C223.584 105.715 222.666 104.87 221.54 104.178L220.807 105.371ZM223.13 107.52C223.711 108.344 224.086 109.294 224.249 110.385L225.633 110.178C225.44 108.887 224.989 107.728 224.274 106.713L223.13 107.52ZM224.251 110.397C224.43 111.465 224.37 112.684 224.047 114.065L225.411 114.384C225.766 112.865 225.847 111.456 225.631 110.166L224.251 110.397ZM224.053 114.043L223.941 114.461L225.293 114.823L225.405 114.406L224.053 114.043ZM223.947 114.439C223.536 115.796 222.976 116.891 222.28 117.744L223.365 118.629C224.199 117.606 224.835 116.338 225.287 114.845L223.947 114.439ZM222.277 117.748C221.597 118.594 220.802 119.214 219.893 119.622L220.466 120.9C221.591 120.395 222.559 119.632 223.368 118.625L222.277 117.748ZM219.887 119.625C218.984 120.04 217.966 120.262 216.822 120.279L216.842 121.679C218.159 121.659 219.373 121.403 220.472 120.897L219.887 119.625ZM216.81 120.279C215.67 120.314 214.434 120.158 213.098 119.8L212.735 121.153C214.181 121.54 215.555 121.719 216.853 121.679L216.81 120.279ZM213.098 119.8C211.761 119.442 210.604 118.957 209.618 118.351L208.885 119.544C210.004 120.231 211.29 120.765 212.735 121.153L213.098 119.8ZM209.612 118.348C208.645 117.765 207.871 117.063 207.278 116.242L206.143 117.062C206.856 118.049 207.775 118.876 208.89 119.547L209.612 118.348ZM207.287 116.254C206.717 115.43 206.338 114.48 206.156 113.395L204.775 113.626C204.988 114.899 205.44 116.044 206.135 117.05L207.287 116.254ZM206.157 113.403C205.992 112.336 206.059 111.116 206.382 109.733L205.019 109.414C204.665 110.93 204.575 112.335 204.774 113.618L206.157 113.403ZM206.377 109.754L206.489 109.337L205.136 108.975L205.024 109.392L206.377 109.754ZM217.173 104.593C216.048 104.291 214.965 104.158 213.928 104.204L213.989 105.603C214.863 105.564 215.802 105.675 216.81 105.945L217.173 104.593ZM213.924 104.204C212.895 104.255 211.943 104.496 211.08 104.935L211.715 106.183C212.387 105.841 213.142 105.644 213.993 105.603L213.924 104.204ZM211.081 104.935C210.228 105.367 209.493 106.002 208.873 106.82L209.989 107.666C210.495 106.998 211.072 106.509 211.714 106.183L211.081 104.935ZM208.869 106.826C208.26 107.645 207.807 108.653 207.491 109.829L208.844 110.192C209.125 109.143 209.513 108.306 209.993 107.661L208.869 106.826ZM207.491 109.829C207.187 110.964 207.084 112.04 207.201 113.05L208.592 112.889C208.499 112.087 208.576 111.19 208.844 110.192L207.491 109.829ZM207.203 113.066C207.341 114.053 207.662 114.955 208.172 115.762L209.356 115.014C208.959 114.386 208.702 113.675 208.59 112.873L207.203 113.066ZM208.182 115.778C208.712 116.569 209.411 117.248 210.265 117.818L211.043 116.654C210.324 116.174 209.762 115.621 209.346 114.999L208.182 115.778ZM210.278 117.827C211.153 118.385 212.157 118.811 213.282 119.112L213.644 117.76C212.637 117.49 211.768 117.117 211.03 116.646L210.278 117.827ZM213.282 119.112C214.407 119.414 215.483 119.545 216.507 119.495L216.438 118.096C215.582 118.139 214.652 118.03 213.644 117.76L213.282 119.112ZM216.504 119.495C217.545 119.449 218.496 119.218 219.344 118.787L218.711 117.539C218.064 117.867 217.312 118.058 216.442 118.096L216.504 119.495ZM219.345 118.787C220.211 118.346 220.946 117.721 221.547 116.923L220.429 116.081C219.95 116.716 219.378 117.199 218.71 117.539L219.345 118.787ZM221.543 116.929C222.17 116.113 222.63 115.12 222.938 113.968L221.586 113.606C221.315 114.618 220.926 115.435 220.433 116.075L221.543 116.929ZM222.938 113.968C223.243 112.831 223.339 111.749 223.204 110.731L221.816 110.914C221.922 111.717 221.853 112.611 221.586 113.606L222.938 113.968ZM223.205 110.742C223.089 109.735 222.767 108.817 222.236 107.999L221.062 108.762C221.469 109.388 221.721 110.098 221.815 110.903L223.205 110.742ZM222.246 108.014C221.736 107.184 221.034 106.481 220.157 105.902L219.385 107.07C220.112 107.55 220.662 108.11 221.052 108.746L222.246 108.014ZM220.16 105.904C219.3 105.329 218.301 104.895 217.173 104.593L216.81 105.945C217.815 106.214 218.669 106.591 219.382 107.068L220.16 105.904ZM226.119 114.597L225.449 114.395L225.446 114.405L225.443 114.416L226.119 114.597ZM227.903 111L227.361 110.558L227.355 110.565L227.903 111ZM230.552 108.903L230.845 109.538L230.846 109.538L230.552 108.903ZM233.907 108.161L233.919 108.861L233.926 108.861L233.907 108.161ZM241.481 110.216L241.105 110.806L241.115 110.812L241.481 110.216ZM244.009 112.558L243.433 112.956L243.437 112.961L244.009 112.558ZM245.248 115.722L244.556 115.826L244.558 115.838L245.248 115.722ZM245.036 119.666L245.712 119.847L245.715 119.836L245.718 119.825L245.036 119.666ZM244.924 120.083L245.594 120.286L245.598 120.275L245.6 120.264L244.924 120.083ZM243.13 123.628L242.587 123.185L242.584 123.189L243.13 123.628ZM240.487 125.702L240.2 125.064L240.194 125.066L240.487 125.702ZM237.139 126.42L237.129 125.72L237.117 125.72L237.139 126.42ZM229.558 124.389L229.925 123.792L229.919 123.789L229.558 124.389ZM227.018 122.093L226.442 122.491L226.446 122.497L226.45 122.503L227.018 122.093ZM225.773 118.952L225.081 119.059L225.082 119.067L225.773 118.952ZM226.008 115.014L225.331 114.833L225.329 114.844L225.326 114.855L226.008 115.014ZM234.266 110.345L234.235 109.645L234.231 109.646L234.266 110.345ZM231.705 111L232.022 111.624L232.022 111.624L231.705 111ZM229.738 112.685L229.18 112.262L229.176 112.267L229.738 112.685ZM228.204 118.411L227.508 118.491L227.509 118.499L227.51 118.507L228.204 118.411ZM229.071 120.829L228.479 121.203L228.484 121.211L228.489 121.219L229.071 120.829ZM230.961 122.678L230.572 123.26L230.578 123.264L230.585 123.268L230.961 122.678ZM236.78 124.237L236.749 123.537L236.745 123.538L236.78 124.237ZM239.335 123.604L239.651 124.229L239.652 124.228L239.335 123.604ZM241.295 121.943L240.74 121.517L240.736 121.522L241.295 121.943ZM242.817 116.264L242.122 116.344L242.123 116.356L242.817 116.264ZM241.956 113.822L241.359 114.187L241.364 114.195L241.369 114.203L241.956 113.822ZM240.078 111.927L239.689 112.509L239.692 112.511L240.078 111.927ZM226.79 114.8C227.21 113.407 227.769 112.293 228.451 111.436L227.355 110.565C226.538 111.592 225.908 112.876 225.449 114.395L226.79 114.8ZM228.446 111.443C229.15 110.579 229.95 109.95 230.845 109.538L230.26 108.267C229.152 108.776 228.186 109.545 227.361 110.558L228.446 111.443ZM230.846 109.538C231.772 109.11 232.793 108.882 233.919 108.861L233.894 107.461C232.589 107.485 231.375 107.751 230.259 108.267L230.846 109.538ZM233.926 108.861C235.083 108.83 236.328 108.988 237.664 109.346L238.026 107.994C236.581 107.607 235.2 107.426 233.887 107.462L233.926 108.861ZM237.664 109.346C238.998 109.704 240.142 110.193 241.105 110.806L241.857 109.625C240.754 108.923 239.474 108.382 238.026 107.994L237.664 109.346ZM241.115 110.812C242.093 111.413 242.861 112.129 243.433 112.956L244.585 112.16C243.891 111.156 242.973 110.311 241.847 109.619L241.115 110.812ZM243.437 112.961C244.018 113.785 244.393 114.735 244.556 115.826L245.94 115.619C245.747 114.328 245.296 113.169 244.581 112.154L243.437 112.961ZM244.558 115.838C244.737 116.907 244.677 118.126 244.355 119.507L245.718 119.825C246.073 118.307 246.154 116.897 245.938 115.607L244.558 115.838ZM244.36 119.485L244.248 119.902L245.6 120.264L245.712 119.847L244.36 119.485ZM244.254 119.88C243.843 121.237 243.283 122.332 242.587 123.185L243.672 124.07C244.507 123.047 245.142 121.779 245.594 120.286L244.254 119.88ZM242.584 123.189C241.904 124.035 241.109 124.655 240.2 125.064L240.773 126.341C241.898 125.836 242.866 125.073 243.675 124.066L242.584 123.189ZM240.194 125.066C239.291 125.481 238.273 125.703 237.129 125.72L237.149 127.12C238.466 127.101 239.68 126.844 240.779 126.338L240.194 125.066ZM237.117 125.72C235.977 125.756 234.741 125.6 233.405 125.241L233.042 126.594C234.488 126.981 235.862 127.16 237.161 127.12L237.117 125.72ZM233.405 125.241C232.069 124.883 230.911 124.398 229.925 123.792L229.192 124.985C230.311 125.672 231.597 126.206 233.042 126.594L233.405 125.241ZM229.919 123.789C228.952 123.207 228.178 122.504 227.586 121.683L226.45 122.503C227.163 123.49 228.083 124.317 229.197 124.989L229.919 123.789ZM227.594 121.695C227.024 120.871 226.645 119.922 226.463 118.836L225.082 119.067C225.295 120.34 225.747 121.486 226.442 122.491L227.594 121.695ZM226.464 118.845C226.299 117.777 226.366 116.557 226.689 115.174L225.326 114.855C224.972 116.371 224.882 117.776 225.081 119.059L226.464 118.845ZM226.684 115.196L226.796 114.778L225.443 114.416L225.331 114.833L226.684 115.196ZM237.48 110.034C236.355 109.732 235.272 109.6 234.235 109.645L234.297 111.044C235.17 111.005 236.11 111.116 237.117 111.386L237.48 110.034ZM234.231 109.646C233.202 109.696 232.25 109.937 231.387 110.376L232.022 111.624C232.694 111.282 233.449 111.086 234.3 111.044L234.231 109.646ZM231.388 110.376C230.536 110.809 229.8 111.443 229.18 112.262L230.296 113.107C230.802 112.439 231.379 111.951 232.022 111.624L231.388 110.376ZM229.176 112.267C228.567 113.086 228.114 114.094 227.798 115.271L229.151 115.633C229.432 114.584 229.82 113.747 230.3 113.102L229.176 112.267ZM227.798 115.271C227.494 116.405 227.391 117.481 227.508 118.491L228.899 118.33C228.806 117.528 228.883 116.632 229.151 115.633L227.798 115.271ZM227.51 118.507C227.648 119.494 227.969 120.396 228.479 121.203L229.663 120.456C229.266 119.827 229.009 119.116 228.897 118.314L227.51 118.507ZM228.489 121.219C229.019 122.01 229.718 122.689 230.572 123.26L231.35 122.096C230.631 121.615 230.069 121.062 229.653 120.44L228.489 121.219ZM230.585 123.268C231.46 123.826 232.464 124.252 233.589 124.554L233.951 123.201C232.944 122.931 232.075 122.558 231.337 122.087L230.585 123.268ZM233.589 124.554C234.714 124.855 235.79 124.986 236.814 124.936L236.745 123.538C235.889 123.58 234.959 123.472 233.951 123.201L233.589 124.554ZM236.811 124.936C237.852 124.89 238.803 124.659 239.651 124.229L239.018 122.98C238.371 123.309 237.619 123.499 236.749 123.537L236.811 124.936ZM239.652 124.228C240.518 123.787 241.253 123.163 241.854 122.364L240.736 121.522C240.258 122.157 239.685 122.64 239.017 122.981L239.652 124.228ZM241.85 122.37C242.477 121.555 242.937 120.561 243.245 119.41L241.893 119.047C241.622 120.059 241.233 120.876 240.74 121.517L241.85 122.37ZM243.245 119.41C243.55 118.272 243.646 117.19 243.511 116.172L242.123 116.356C242.229 117.158 242.16 118.052 241.893 119.047L243.245 119.41ZM243.512 116.183C243.396 115.176 243.074 114.258 242.543 113.44L241.369 114.203C241.776 114.829 242.028 115.539 242.122 116.344L243.512 116.183ZM242.553 113.456C242.044 112.625 241.342 111.922 240.464 111.343L239.692 112.511C240.419 112.991 240.969 113.551 241.359 114.187L242.553 113.456ZM240.467 111.345C239.607 110.77 238.608 110.336 237.48 110.034L237.117 111.386C238.122 111.655 238.976 112.032 239.689 112.509L240.467 111.345Z" fill="#FDCAD6"/>
<rect x="169.307" y="141.373" width="32" height="8" rx="1" transform="rotate(15 169.307 141.373)" fill="#BEBEBE"/>
<rect x="166.46" y="151.999" width="56" height="12" rx="1" transform="rotate(15 166.46 151.999)" fill="#BEBEBE" fill-opacity="0.3"/>
<rect x="161.542" y="170.351" width="32" height="8" rx="1" transform="rotate(15 161.542 170.351)" fill="#BEBEBE"/>
<rect x="158.695" y="180.976" width="20" height="12" rx="1" transform="rotate(15 158.695 180.976)" fill="#BEBEBE" fill-opacity="0.3"/>
<rect x="148.601" y="218.648" width="32" height="12" rx="1" transform="rotate(15 148.601 218.648)" fill="#BEBEBE" fill-opacity="0.3"/>
</g>
<g filter="url(#filter2_d_2790_29270)">
<path d="M2.80173 34.5387C2.32039 29.0369 6.39029 24.1866 11.8921 23.7052L151.359 11.5034C156.861 11.0221 161.712 15.092 162.193 20.5938L181.367 239.757C181.848 245.258 177.779 250.109 172.277 250.59L32.8095 262.792C27.3077 263.273 22.4573 259.203 21.976 253.702L2.80173 34.5387Z" fill="#F9F9F9"/>
</g>
<mask id="mask2_2790_29270" style="mask-type:alpha" maskUnits="userSpaceOnUse" x="9" y="17" width="164" height="210">
<rect x="8.43628" y="30.1002" width="148" height="197.931" rx="8" transform="rotate(-5 8.43628 30.1002)" fill="#58E4F1"/>
</mask>
<g mask="url(#mask2_2790_29270)">
<rect x="8.4425" y="30.1715" width="148" height="197.931" rx="5" transform="rotate(-5 8.4425 30.1715)" fill="url(#paint0_linear_2790_29270)"/>
<path fill-rule="evenodd" clip-rule="evenodd" d="M54.1376 45.0126C51.2123 40.5815 46.0243 37.8537 40.3776 38.3477C32.1641 39.0663 26.0903 46.3292 26.8113 54.5699L26.8144 54.6052C21.1814 57.1431 17.4966 63.0522 18.0672 69.5736C18.7867 77.7978 26.0019 83.8877 34.195 83.1978L34.195 83.198L78.9583 79.2817L78.9583 79.2816C87.1466 78.5383 93.1947 71.2879 92.4752 63.0638C91.7542 54.8231 84.5115 48.7252 76.298 49.4438C74.4723 49.6035 72.7523 50.0866 71.1891 50.8319C68.2467 46.4884 63.1117 43.8267 57.5281 44.3152C56.3493 44.4183 55.2145 44.6563 54.1376 45.0126Z" fill="url(#paint1_linear_2790_29270)"/>
<path fill-rule="evenodd" clip-rule="evenodd" d="M91.509 61.5418C89.4333 58.3976 85.752 56.462 81.7452 56.8125C75.9171 57.3224 71.6073 62.476 72.1189 68.3235L72.1211 68.3485C68.124 70.1493 65.5094 74.3423 65.9142 78.9698C66.4248 84.8055 71.5445 89.1268 77.3582 88.6372L77.3582 88.6374L109.121 85.8584L109.121 85.8583C114.932 85.3309 119.223 80.1862 118.713 74.3505C118.201 68.5031 113.062 64.1762 107.234 64.6861C105.938 64.7994 104.718 65.1422 103.608 65.6711C101.521 62.589 97.8769 60.7003 93.9149 61.0469C93.0784 61.1201 92.2732 61.289 91.509 61.5418Z" fill="url(#paint2_linear_2790_29270)"/>
<path fill-rule="evenodd" clip-rule="evenodd" d="M161.547 33.9861C159.227 30.4727 155.114 28.3097 150.636 28.7014C144.124 29.2712 139.308 35.0301 139.879 41.5643L139.882 41.5923C135.415 43.6046 132.494 48.2901 132.946 53.461C133.517 59.9821 139.238 64.8109 145.734 64.2639L145.734 64.264L181.228 61.1587L181.228 61.1586C187.72 60.5693 192.516 54.8203 191.946 48.2992C191.374 41.765 185.631 36.9299 179.118 37.4997C177.671 37.6263 176.307 38.0094 175.067 38.6004C172.734 35.1563 168.663 33.0458 164.235 33.4331C163.301 33.5149 162.401 33.7036 161.547 33.9861Z" fill="url(#paint3_linear_2790_29270)" fill-opacity="0.3"/>
<rect x="19.7633" y="159.569" width="148" height="68.0386" transform="rotate(-5 19.7633 159.569)" fill="url(#paint4_linear_2790_29270)"/>
<g filter="url(#filter3_d_2790_29270)">
<path d="M175.511 112.394L89.8794 104.085L78.2056 163.467L163.838 171.776L175.511 112.394Z" fill="url(#paint5_linear_2790_29270)"/>
<path d="M163.57 171.413L175.114 112.693L90.1469 104.448L78.6033 163.168L163.57 171.413Z" stroke="url(#paint6_linear_2790_29270)" stroke-width="0.668083"/>
</g>
<path d="M170.259 115.901L95.0642 108.472L84.9674 159.832L160.162 167.261L170.259 115.901Z" fill="url(#paint7_linear_2790_29270)"/>
<mask id="mask3_2790_29270" style="mask-type:alpha" maskUnits="userSpaceOnUse" x="84" y="108" width="87" height="60">
<path d="M170.259 115.901L95.0643 108.472L84.9675 159.832L160.163 167.261L170.259 115.901Z" fill="url(#paint8_linear_2790_29270)"/>
</mask>
<g mask="url(#mask3_2790_29270)">
<rect width="86.3519" height="39.0632" transform="matrix(-0.861269 -0.497628 -0.478103 0.8843 183.789 121.718)" fill="url(#paint9_linear_2790_29270)"/>
<rect width="86.3519" height="8.19122" transform="matrix(-0.861269 -0.497628 0.478103 -0.8843 165.5 159.464)" fill="#FFE353"/>
<rect width="44.2597" height="5.03101" transform="matrix(-0.812634 0.588704 -0.563185 -0.822298 165.728 111.048)" fill="#FFE353"/>
</g>
<g filter="url(#filter4_i_2790_29270)">
<path fill-rule="evenodd" clip-rule="evenodd" d="M92.2189 148.378C91.2729 148.34 90.3222 148.372 89.3752 148.391C88.0163 148.418 86.6371 148.614 85.2636 148.994L71.7047 152.751C58.9297 156.29 51.3328 169.545 54.7367 182.357L60.8639 205.42C62.2853 210.769 64.8157 215.76 67.3461 220.75C69.8766 225.741 72.407 230.731 73.8283 236.081L76.9586 247.863C78.2858 252.859 83.3997 255.79 88.3809 254.41C93.2924 253.049 96.2538 247.997 95.0428 243.046L92.7392 233.627C91.9557 230.423 94.3042 227.287 97.4818 226.406C98.864 226.023 100.283 226.837 100.651 228.223L104.198 241.571C105.523 246.561 110.631 249.488 115.607 248.11C120.521 246.749 123.479 241.689 122.256 236.738C120.492 229.597 121.129 221.52 121.761 213.497C122.263 207.129 122.763 200.795 122.057 194.993C121.79 192.803 121.357 190.538 120.748 188.244C119.179 182.339 116.697 177.203 113.829 173.424C113.752 173.323 113.818 173.176 113.944 173.164C124.939 172.138 135.679 166.417 145.471 154.392C148.972 150.092 148.369 143.785 144.125 140.304C139.88 136.824 133.601 137.487 130.099 141.787C123.089 150.396 117.008 152.777 112.282 153.218C107.095 153.702 101.742 152.029 96.0632 149.328C94.8206 148.737 93.5152 148.428 92.2189 148.378Z" fill="url(#paint10_radial_2790_29270)"/>
</g>
<g filter="url(#filter5_i_2790_29270)">
<path fill-rule="evenodd" clip-rule="evenodd" d="M14.0967 92.5576L26.0773 137.652C30.5964 154.661 48.0513 164.602 64.9876 159.811L68.4739 158.825C69.3131 158.724 70.1559 158.558 70.9967 158.326L100.207 150.233C101.918 149.759 103.565 149.162 105.138 148.454L105.946 148.225L105.941 148.207L105.931 148.169L105.911 148.094C120.504 141.084 128.562 124.42 124.267 108.253L97.3103 115.721L95.9613 110.644L94.0247 103.354C90.4467 89.8868 78.7552 80.843 65.6246 80.048L33.601 54.4466L41.6949 84.9118L36.3862 86.3825L6.00281 62.0924L14.0967 92.5576Z" fill="url(#paint11_radial_2790_29270)"/>
<mask id="path-39-inside-1_2790_29270" fill="white">
<path d="M123.944 107.039L116.847 109.005C115.627 109.343 114.901 110.609 115.226 111.833C116.31 115.913 120.487 118.306 124.555 117.179L126.495 116.642L123.944 107.039Z"/>
</mask>
<path d="M123.944 107.039L116.847 109.005C115.627 109.343 114.901 110.609 115.226 111.833C116.31 115.913 120.487 118.306 124.555 117.179L126.495 116.642L123.944 107.039Z" fill="url(#paint12_linear_2790_29270)"/>
<path d="M123.944 107.039L114.638 109.617L123.944 107.039ZM114.683 112.52C115.793 116.698 120.071 119.15 124.237 117.996L126.676 117.32L126.315 115.963L124.375 116.501C120.68 117.525 116.887 115.351 115.903 111.646L114.683 112.52ZM126.495 116.642L123.944 107.039L126.495 116.642ZM116.669 109.054C115.173 109.469 114.284 111.02 114.683 112.52L114.683 112.52C115.793 116.698 120.071 119.15 124.237 117.996L124.375 116.501C120.68 117.525 116.887 115.351 115.903 111.646L115.903 111.646C115.578 110.422 116.001 109.239 116.847 109.005L116.669 109.054Z" fill="white" mask="url(#path-39-inside-1_2790_29270)"/>
<path fill-rule="evenodd" clip-rule="evenodd" d="M113.041 123.924C113.219 124.595 113.891 124.993 114.541 124.812C115.19 124.632 115.573 123.943 115.395 123.272C115.216 122.602 114.545 122.204 113.895 122.384C113.246 122.564 112.863 123.254 113.041 123.924ZM106.944 125.614C107.122 126.284 107.794 126.682 108.443 126.502C109.093 126.322 109.476 125.632 109.297 124.962C109.119 124.291 108.448 123.893 107.798 124.073C107.148 124.254 106.766 124.943 106.944 125.614ZM112.719 130.058C112.069 130.238 111.397 129.84 111.219 129.169C111.041 128.499 111.424 127.809 112.073 127.629C112.723 127.449 113.394 127.847 113.573 128.518C113.751 129.188 113.368 129.878 112.719 130.058Z" fill="white"/>
</g>
<path opacity="0.05" fill-rule="evenodd" clip-rule="evenodd" d="M36.3859 86.3827L41.6949 84.9119L33.601 54.447L65.6244 80.0482C78.7551 80.8431 90.4467 89.8869 94.0247 103.354L95.9613 110.644L97.3104 115.721L115.198 110.766C115.372 109.944 115.986 109.243 116.847 109.005L123.944 107.039L124.267 108.253L124.267 108.253L124.29 108.342L126.495 116.642L125.419 116.94C125.462 130.086 117.887 142.342 105.911 148.094L105.931 148.17L105.941 148.207L105.946 148.225L105.139 148.453C103.565 149.162 101.919 149.759 100.207 150.234L98.8974 150.596C103.535 152.53 107.966 153.62 112.282 153.217C117.008 152.776 123.089 150.396 130.099 141.787C133.601 137.487 139.88 136.823 144.125 140.304C148.369 143.785 148.972 150.092 145.471 154.392C135.679 166.417 124.939 172.138 113.943 173.164C113.912 173.167 113.895 173.204 113.913 173.23C116.732 177.13 119.18 182.345 120.765 188.309C121.541 191.23 122.049 194.103 122.307 196.841C122.813 202.21 122.328 208.023 121.839 213.876C121.181 221.753 120.518 229.702 122.256 236.738C123.479 241.689 120.521 246.749 115.607 248.11C110.631 249.488 105.523 246.561 104.198 241.571L100.651 228.223C100.283 226.837 98.8639 226.023 97.4817 226.406C94.3041 227.287 91.9556 230.423 92.7391 233.626L95.0427 243.046C96.2537 247.997 93.2923 253.049 88.3808 254.41C83.3997 255.79 78.2857 252.859 76.9585 247.863L73.8282 236.081C72.4069 230.731 69.8765 225.741 67.346 220.75C64.8156 215.76 62.2852 210.769 60.8639 205.42L54.7366 182.357C52.678 174.609 54.643 166.698 59.3435 160.873C44.3335 162.307 30.0945 152.772 26.0773 137.652L23.7156 128.763L6.00281 62.0928L36.3859 86.3827Z" fill="white"/>
<ellipse cx="8.98075" cy="8.98077" rx="8.98075" ry="8.98077" transform="matrix(-0.953019 0.302909 0.302909 0.953019 85.2312 98.668)" fill="white"/>
<mask id="mask4_2790_29270" style="mask-type:alpha" maskUnits="userSpaceOnUse" x="70" y="100" width="19" height="19">
<ellipse cx="8.98075" cy="8.98077" rx="8.98075" ry="8.98077" transform="matrix(-0.953019 0.302909 0.302909 0.953019 85.2312 98.668)" fill="white"/>
</mask>
<g mask="url(#mask4_2790_29270)">
<ellipse cx="7.22229" cy="7.2223" rx="7.22229" ry="7.2223" transform="matrix(-0.953019 0.302909 0.302909 0.953019 81.9333 101.562)" fill="url(#paint13_radial_2790_29270)"/>
</g>
<path d="M99.755 133.033C98.4304 134.278 97.5296 134.733 95.5176 134.909C93.5056 135.085 91.521 134.625 90.0002 133.628C88.4794 132.632 87.5472 131.181 87.4085 129.596" stroke="#BABABA" stroke-width="1.2" stroke-linecap="round"/>
<path d="M100.352 150.537C93.4253 149.235 87.1517 150.391 84.8808 151.132L94.2174 159.956C94.9417 152.775 98.6091 150.685 100.352 150.537Z" fill="#42ACC3"/>
<path d="M107.561 208.312C112.323 194.262 114.712 178.997 114.044 173.951L99.4611 193.756C105.815 201.739 107.853 204.597 107.561 208.312Z" fill="#42ACC3"/>
<rect width="79.3078" height="90.6692" rx="12.0012" transform="matrix(-0.963701 0.266985 0.256771 0.966472 90.66 143.47)" fill="url(#paint14_linear_2790_29270)"/>
<rect width="62.9427" height="88.7263" rx="12.0012" transform="matrix(-0.963701 0.266985 0.256771 0.966472 73.6759 148.176)" fill="url(#paint15_linear_2790_29270)"/>
<path d="M64.7434 151.322L70.7687 149.653C77.1561 147.883 83.7139 151.642 85.4158 158.048L91.6467 181.501" stroke="#58E4F1" stroke-width="0.420042" stroke-dasharray="1.8 1.8"/>
<path d="M93.9514 182.822C93.6836 181.814 92.6518 181.222 91.6468 181.501C90.6418 181.779 90.0442 182.822 90.3119 183.83L91.6685 188.936C91.7536 189.256 92.0815 189.444 92.4009 189.356L94.8838 188.668C95.2032 188.579 95.3931 188.248 95.308 187.928L93.9514 182.822Z" fill="#58E4F1"/>
<ellipse cx="0.944141" cy="0.971456" rx="0.944141" ry="0.971456" transform="matrix(-0.963701 0.266985 0.256771 0.966472 92.8892 182.5)" fill="#52C1D9"/>
<rect width="21.4005" height="34.9724" rx="9.0009" transform="matrix(-0.963701 0.266985 0.256771 0.966472 110.91 190.276)" fill="url(#paint16_linear_2790_29270)"/>
<path d="M104.873 199.42C103.852 195.576 99.9174 193.321 96.085 194.383L91.936 195.532C90.0198 196.063 88.8803 198.051 89.3908 199.973L96.0229 224.936C96.5335 226.858 98.5008 227.985 100.417 227.454L104.566 226.305C108.398 225.243 110.678 221.267 109.656 217.423L104.873 199.42Z" fill="#58E4F1"/>
<path d="M111.301 201.553C111.123 200.881 110.435 200.487 109.765 200.673C109.095 200.858 108.696 201.554 108.875 202.226L109.761 205.561C109.828 205.812 110.085 205.96 110.336 205.89L111.854 205.47C112.105 205.4 112.254 205.14 112.187 204.889L111.301 201.553Z" fill="#58E4F1"/>
<rect width="58.5367" height="28.496" rx="7.20072" transform="matrix(-0.963701 0.266985 0.256771 0.966472 70.6523 156.405)" fill="url(#paint17_linear_2790_29270)"/>
<rect width="50.3542" height="26.659" rx="7.20072" transform="matrix(-0.963701 0.266985 0.256771 0.966472 60.9471 159.094)" fill="url(#paint18_linear_2790_29270)"/>
<rect width="58.7466" height="47.2775" rx="9.0009" transform="matrix(-0.963701 0.266985 0.256771 0.966472 79.1333 188.327)" fill="url(#paint19_linear_2790_29270)"/>
<rect width="50.3542" height="45.4935" rx="9.0009" transform="matrix(-0.963701 0.266985 0.256771 0.966472 69.4281 191.016)" fill="url(#paint20_linear_2790_29270)"/>
<line y1="-0.30003" x2="50.3542" y2="-0.30003" transform="matrix(-0.963701 0.266985 0.256771 0.966472 72.7538 203.534)" stroke="#52C1D9" stroke-width="0.60006" stroke-dasharray="1.8 1.8"/>
<line y1="-0.30003" x2="10.0708" y2="-0.30003" transform="matrix(0.963701 -0.266985 -0.256771 -0.966472 72.5876 202.908)" stroke="#42ACC4" stroke-width="0.60006" stroke-dasharray="1.8 1.8"/>
<g filter="url(#filter6_d_2790_29270)">
<path d="M32.4205 213.874C31.8309 213.013 30.6637 212.816 29.8135 213.432C28.9634 214.048 28.7522 215.245 29.3418 216.106L34.4832 223.607C34.6699 223.88 35.0395 223.942 35.3088 223.747L37.4125 222.222C37.6817 222.027 37.7486 221.648 37.5619 221.375L32.4205 213.874Z" fill="white"/>
</g>
<g filter="url(#filter7_i_2790_29270)">
<ellipse cx="0.947377" cy="0.9683" rx="0.947377" ry="0.9683" transform="matrix(-0.812436 0.588981 0.563454 0.822111 31.3105 213.935)" fill="#58E4F1"/>
</g>
<g filter="url(#filter8_i_2790_29270)">
<rect width="1.89475" height="5.16427" rx="0.60006" transform="matrix(-0.812436 0.588981 0.563454 0.822111 33.4929 217.119)" fill="#52C1D9"/>
</g>
<g filter="url(#filter9_d_2790_29270)">
<rect width="13.6835" height="14.0551" rx="6.84174" transform="matrix(0.994058 -0.0901673 0.0903064 0.997681 48.1642 219.083)" fill="url(#paint21_linear_2790_29270)"/>
<mask id="mask5_2790_29270" style="mask-type:alpha" maskUnits="userSpaceOnUse" x="48" y="218" width="15" height="15">
<rect width="13.6835" height="14.0551" rx="6.84174" transform="matrix(0.994058 -0.0901673 0.0903064 0.997681 48.1641 219.083)" fill="#E2FD52"/>
</mask>
<g mask="url(#mask5_2790_29270)">
<path fill-rule="evenodd" clip-rule="evenodd" d="M58.798 221.727L59.5295 221.661L62.2206 217.189L62.6002 221.382L62.6003 221.382L63.1617 227.585C63.3738 229.928 61.6462 231.996 59.3105 232.196L58.8292 232.237C58.7196 232.264 58.6067 232.283 58.4909 232.293L54.4551 232.659C54.2194 232.681 53.9863 232.683 53.7572 232.669L53.653 232.678L53.6528 232.675L53.6523 232.67L53.6515 232.661C51.5063 232.475 49.736 230.768 49.5344 228.541L53.2481 228.204L53.1848 227.505L53.0943 226.506C52.9263 224.649 53.9759 222.964 55.5824 222.246L58.4185 217.534L58.798 221.727Z" fill="#52C1D9"/>
<ellipse cx="1.05999" cy="1.08878" rx="1.05999" ry="1.08878" transform="matrix(0.994058 -0.0901673 0.0903064 0.997681 57.1418 225.752)" fill="#EEFCFE"/>
<ellipse cx="0.852438" cy="0.875591" rx="0.852438" ry="0.875591" transform="matrix(0.994058 -0.0901673 0.0903064 0.997681 57.6326 225.922)" fill="#52C1D9"/>
<ellipse cx="1.05999" cy="1.08878" rx="1.05999" ry="1.08878" transform="matrix(0.994058 -0.0901673 0.0903064 0.997681 54.4746 225.995)" fill="#EEFCFE"/>
<ellipse cx="0.852438" cy="0.875591" rx="0.852438" ry="0.875591" transform="matrix(0.994058 -0.0901673 0.0903064 0.997681 54.9653 226.164)" fill="#52C1D9"/>
</g>
<rect width="13.6835" height="14.0551" rx="6.84174" transform="matrix(0.994058 -0.0901673 0.0903064 0.997681 48.1642 219.083)" fill="url(#paint22_linear_2790_29270)"/>
</g>
<g filter="url(#filter10_d_2790_29270)">
<rect width="9.93844" height="10.1223" rx="4.96922" transform="matrix(0.757792 -0.658791 0.631675 0.770084 62.6532 228.937)" fill="url(#paint23_linear_2790_29270)"/>
<mask id="mask6_2790_29270" style="mask-type:alpha" maskUnits="userSpaceOnUse" x="64" y="224" width="11" height="11">
<rect width="9.93844" height="10.1223" rx="4.96922" transform="matrix(0.757792 -0.658791 0.631675 0.770084 62.6531 228.937)" fill="#E2FD52"/>
</mask>
<g mask="url(#mask6_2790_29270)">
<path fill-rule="evenodd" clip-rule="evenodd" d="M68.6263 228.829C68.4555 228.621 68.151 228.596 67.9461 228.774C67.7412 228.952 67.7135 229.266 67.8843 229.474L68.1194 229.76L67.8979 229.953C67.7505 230.081 67.7306 230.306 67.8535 230.456C67.9763 230.606 68.1953 230.623 68.3426 230.495L68.5642 230.303L68.7176 230.49L68.4959 230.682C68.3486 230.81 68.3287 231.036 68.4515 231.185C68.5744 231.335 68.7934 231.353 68.9407 231.225L69.1623 231.032L69.2029 231.081C69.4686 231.405 69.9423 231.443 70.2611 231.166L70.2663 231.162L70.3553 231.084C70.5553 230.91 70.5823 230.605 70.4155 230.401L70.3536 230.326C70.3131 230.276 70.2409 230.271 70.1924 230.313L70.0767 230.413C70.0282 230.456 69.956 230.45 69.9155 230.4L68.6263 228.829ZM67.7018 232.008C68.0046 231.745 68.0331 231.306 67.8082 231.032C67.5834 230.758 67.159 230.714 66.8562 230.977C66.5533 231.24 66.5249 231.678 66.7497 231.953C66.9746 232.227 67.399 232.271 67.7018 232.008ZM68.2096 230.772C68.1453 230.952 68.1736 231.161 68.3014 231.316C68.391 231.426 68.5136 231.49 68.6421 231.506C68.6258 231.89 68.4555 232.271 68.1417 232.544C67.558 233.052 66.6985 232.992 66.222 232.411C65.7455 231.83 65.8325 230.948 66.4163 230.441C66.757 230.144 67.1918 230.041 67.5894 230.122C67.5576 230.282 67.5941 230.454 67.7033 230.587C67.8312 230.743 68.0261 230.807 68.2096 230.772ZM71.5337 228.34C71.8365 228.077 71.865 227.639 71.6401 227.365C71.4153 227.091 70.9909 227.046 70.6881 227.309C70.3852 227.573 70.3568 228.011 70.5816 228.285C70.8065 228.559 71.2309 228.604 71.5337 228.34ZM72.1679 226.906C72.3834 227.169 72.4837 227.493 72.4748 227.817L73.0793 227.291L73.1721 227.404C73.3747 227.651 73.342 228.022 73.0992 228.233L72.4586 228.791L72.6322 229.002C72.7837 229.187 72.7593 229.464 72.5777 229.622C72.396 229.78 72.126 229.759 71.9745 229.574L71.8009 229.363L70.9965 230.062C70.8444 230.195 70.6181 230.177 70.4912 230.022C70.3643 229.868 70.3848 229.635 70.5369 229.503L70.8757 229.208C70.564 229.163 70.2697 229.007 70.0539 228.744C69.5774 228.163 69.6644 227.281 70.2482 226.773C70.8319 226.266 71.6914 226.325 72.1679 226.906Z" fill="#52C1D9"/>
</g>
<rect width="9.93844" height="10.1223" rx="4.96922" transform="matrix(0.757792 -0.658791 0.631675 0.770084 62.6532 228.937)" fill="url(#paint24_linear_2790_29270)"/>
</g>
<mask id="mask7_2790_29270" style="mask-type:alpha" maskUnits="userSpaceOnUse" x="14" y="146" width="104" height="104">
<path d="M100.352 150.537C93.4253 149.234 87.1517 150.391 84.8808 151.132L94.2174 159.956C94.9417 152.775 98.6091 150.685 100.352 150.537Z" fill="#42ACC3"/>
<path d="M107.561 208.311C112.323 194.262 114.712 178.997 114.044 173.951L99.4611 193.756C105.815 201.739 107.853 204.597 107.561 208.311Z" fill="#42ACC3"/>
<rect width="79.3078" height="90.6692" rx="12.0012" transform="matrix(-0.963701 0.266985 0.256771 0.966472 90.66 143.47)" fill="url(#paint25_linear_2790_29270)"/>
<rect width="62.9427" height="88.7263" rx="12.0012" transform="matrix(-0.963701 0.266985 0.256771 0.966472 73.6759 148.176)" fill="url(#paint26_linear_2790_29270)"/>
<path d="M64.7434 151.322L70.7687 149.653C77.1561 147.883 83.7139 151.642 85.4158 158.048L91.6467 181.5" stroke="#58E4F1" stroke-width="0.420042" stroke-dasharray="1.8 1.8"/>
<path d="M93.9514 182.821C93.6836 181.814 92.6518 181.222 91.6468 181.501C90.6418 181.779 90.0442 182.822 90.3119 183.83L91.6685 188.936C91.7536 189.256 92.0815 189.444 92.4009 189.356L94.8838 188.668C95.2032 188.579 95.3931 188.248 95.308 187.928L93.9514 182.821Z" fill="#58E4F1"/>
<ellipse cx="0.944141" cy="0.971456" rx="0.944141" ry="0.971456" transform="matrix(-0.963701 0.266985 0.256771 0.966472 92.8892 182.5)" fill="#52C1D9"/>
<rect width="21.4005" height="34.9724" rx="9.0009" transform="matrix(-0.963701 0.266985 0.256771 0.966472 110.91 190.276)" fill="url(#paint27_linear_2790_29270)"/>
<path d="M104.873 199.419C103.852 195.576 99.9174 193.321 96.085 194.383L91.936 195.532C90.0198 196.063 88.8803 198.051 89.3908 199.973L96.0229 224.936C96.5335 226.857 98.5008 227.985 100.417 227.454L104.566 226.305C108.398 225.243 110.678 221.266 109.656 217.423L104.873 199.419Z" fill="#58E4F1"/>
<path d="M111.301 201.553C111.123 200.881 110.435 200.487 109.765 200.673C109.095 200.858 108.696 201.553 108.875 202.225L109.761 205.561C109.828 205.812 110.085 205.96 110.336 205.89L111.854 205.47C112.105 205.4 112.254 205.14 112.187 204.889L111.301 201.553Z" fill="#58E4F1"/>
<rect width="58.5367" height="28.496" rx="7.20072" transform="matrix(-0.963701 0.266985 0.256771 0.966472 70.6523 156.405)" fill="url(#paint28_linear_2790_29270)"/>
<rect width="50.3542" height="26.659" rx="7.20072" transform="matrix(-0.963701 0.266985 0.256771 0.966472 60.9471 159.094)" fill="url(#paint29_linear_2790_29270)"/>
<rect width="58.7466" height="47.2775" rx="9.0009" transform="matrix(-0.963701 0.266985 0.256771 0.966472 79.1333 188.327)" fill="url(#paint30_linear_2790_29270)"/>
<rect width="50.3542" height="45.4935" rx="9.0009" transform="matrix(-0.963701 0.266985 0.256771 0.966472 69.4281 191.016)" fill="url(#paint31_linear_2790_29270)"/>
<line y1="-0.30003" x2="50.3542" y2="-0.30003" transform="matrix(-0.963701 0.266985 0.256771 0.966472 72.7538 203.534)" stroke="#52C1D9" stroke-width="0.60006" stroke-dasharray="1.8 1.8"/>
<line y1="-0.30003" x2="10.0708" y2="-0.30003" transform="matrix(0.963701 -0.266985 -0.256771 -0.966472 72.5876 202.908)" stroke="#42ACC4" stroke-width="0.60006" stroke-dasharray="1.8 1.8"/>
<path d="M32.4205 213.873C31.8309 213.013 30.6637 212.815 29.8135 213.432C28.9634 214.048 28.7522 215.245 29.3418 216.105L34.4832 223.607C34.6699 223.879 35.0395 223.942 35.3088 223.747L37.4125 222.222C37.6817 222.027 37.7486 221.648 37.5619 221.375L32.4205 213.873Z" fill="white"/>
<ellipse cx="0.947377" cy="0.9683" rx="0.947377" ry="0.9683" transform="matrix(-0.812436 0.588981 0.563454 0.822111 31.3105 213.935)" fill="#58E4F1"/>
<rect width="1.89475" height="5.16427" rx="0.60006" transform="matrix(-0.812436 0.588981 0.563454 0.822111 33.4929 217.119)" fill="#52C1D9"/>
<rect width="13.6835" height="14.0551" rx="6.84174" transform="matrix(-0.902384 0.435225 0.415858 0.90749 69.595 213.145)" fill="url(#paint32_linear_2790_29270)"/>
<mask id="mask8_2790_29270" style="mask-type:alpha" maskUnits="userSpaceOnUse" x="59" y="215" width="15" height="15">
<rect width="13.6835" height="14.0551" rx="6.84174" transform="matrix(-0.902384 0.435225 0.415858 0.90749 69.5951 213.145)" fill="#E2FD52"/>
</mask>
<g mask="url(#mask8_2790_29270)">
<path fill-rule="evenodd" clip-rule="evenodd" d="M61.7278 220.915L61.0639 221.235L56.5285 218.766L58.2763 222.58L58.2763 222.58L60.8619 228.222C61.8385 230.354 64.3529 231.246 66.4669 230.213L66.9022 230C67.0101 229.967 67.1172 229.925 67.2224 229.874L70.886 228.107C71.1001 228.004 71.3028 227.886 71.4934 227.755L71.5873 227.709L71.5862 227.707L71.5841 227.702L71.5803 227.694C73.3392 226.426 74.0222 224.04 73.0938 222.014L69.7226 223.64L69.4312 223.004L69.0145 222.095C68.2408 220.406 66.5011 219.494 64.7593 219.704L59.98 217.101L61.7278 220.915Z" fill="#52C1D9"/>
<ellipse cx="1.05999" cy="1.08878" rx="1.05999" ry="1.08878" transform="matrix(-0.902384 0.435225 0.415858 0.90749 65.1492 223.534)" fill="#EEFCFE"/>
<ellipse cx="0.852438" cy="0.875591" rx="0.852438" ry="0.875591" transform="matrix(-0.902384 0.435225 0.415858 0.90749 64.8097 223.934)" fill="#52C1D9"/>
<ellipse cx="1.05999" cy="1.08878" rx="1.05999" ry="1.08878" transform="matrix(-0.902384 0.435225 0.415858 0.90749 67.5706 222.366)" fill="#EEFCFE"/>
<ellipse cx="0.852438" cy="0.875591" rx="0.852438" ry="0.875591" transform="matrix(-0.902384 0.435225 0.415858 0.90749 67.2312 222.766)" fill="#52C1D9"/>
<path fill-rule="evenodd" clip-rule="evenodd" d="M71.9722 224.343C72.0107 224.427 72.1078 224.464 72.1891 224.424C72.2703 224.385 72.305 224.285 72.2666 224.201C72.2281 224.117 72.131 224.081 72.0497 224.12C71.9685 224.159 71.9338 224.259 71.9722 224.343ZM71.2097 224.711C71.2481 224.795 71.3452 224.831 71.4265 224.792C71.5077 224.753 71.5424 224.653 71.504 224.569C71.4655 224.485 71.3684 224.449 71.2872 224.488C71.2059 224.527 71.1712 224.627 71.2097 224.711ZM72.0678 225.158C71.9866 225.197 71.8895 225.161 71.851 225.077C71.8126 224.993 71.8473 224.893 71.9285 224.854C72.0098 224.815 72.1069 224.851 72.1453 224.935C72.1838 225.019 72.1491 225.119 72.0678 225.158Z" fill="#EEFCFE"/>
<path fill-rule="evenodd" clip-rule="evenodd" d="M68.6587 225.739L69.2856 227.107L69.0945 227.199L68.4676 225.831L65.4213 227.3L65.461 227.387C65.7612 228.042 66.4977 228.347 67.1638 228.119L66.5412 226.76L66.7323 226.668L67.3592 228.036L68.1314 227.664L67.5045 226.296L67.6956 226.203L68.3225 227.571L69.7961 226.861C70.1718 226.68 70.3359 226.226 70.1628 225.849C69.9897 225.471 69.5448 225.311 69.1692 225.493L68.6587 225.739Z" fill="#EEFCFE"/>
<path d="M73.024 221.862L72.1361 222.29C71.9837 222.364 71.9171 222.547 71.9873 222.701C72.2214 223.211 72.8228 223.427 73.3307 223.182L73.575 223.064L73.024 221.862Z" fill="#EEFCFE"/>
</g>
<rect width="13.6835" height="14.0551" rx="6.84174" transform="matrix(-0.902384 0.435225 0.415858 0.90749 69.595 213.145)" fill="url(#paint33_linear_2790_29270)"/>
</mask>
<g mask="url(#mask7_2790_29270)">
<g style="mix-blend-mode:hue">
<rect width="98.1907" height="90.6692" transform="matrix(-0.963701 0.266985 0.256771 0.966472 105.201 139.441)" fill="#FF3566"/>
</g>
</g>
</g>
<g filter="url(#filter11_bd_2790_29270)">
<path d="M59.4863 16.2293L99.555 5.49297L99.0406 9.12368L102.009 10.8717L100.302 14.0324L102.499 16.4815L101.577 18.8318L103.761 21.1909L63.6926 31.9272L64.3582 28.5237L61.8223 27.3865L62.9601 24.2715L59.9457 22.1208L61.488 18.7772L59.4863 16.2293Z" fill="url(#paint34_linear_2790_29270)" fill-opacity="0.3" shape-rendering="crispEdges"/>
<path d="M59.7447 16.3154L99.3746 5.69658L98.8921 9.10264L98.878 9.202L98.9645 9.25293L101.808 10.9276L100.17 13.9612L100.12 14.054L100.19 14.1326L102.326 16.5128L101.437 18.777L101.403 18.8646L101.467 18.9337L103.482 21.1103L63.8859 31.7201L64.5054 28.5525L64.5283 28.4356L64.4196 28.3869L62.0111 27.3068L63.101 24.323L63.1402 24.2157L63.0473 24.1494L60.1339 22.0709L61.6242 18.8401L61.6626 18.7567L61.6059 18.6846L59.7447 16.3154Z" stroke="url(#paint35_linear_2790_29270)" stroke-opacity="0.6" stroke-width="0.3" shape-rendering="crispEdges"/>
</g>
<defs>
<filter id="filter0_d_2790_29270" x="129.248" y="49.8662" width="181.939" height="225.866" filterUnits="userSpaceOnUse" color-interpolation-filters="sRGB">
<feFlood flood-opacity="0" result="BackgroundImageFix"/>
<feColorMatrix in="SourceAlpha" type="matrix" values="0 0 0 0 0 0 0 0 0 0 0 0 0 0 0 0 0 0 127 0" result="hardAlpha"/>
<feOffset dy="2"/>
<feGaussianBlur stdDeviation="1"/>
<feComposite in2="hardAlpha" operator="out"/>
<feColorMatrix type="matrix" values="0 0 0 0 0.839216 0 0 0 0 0.839216 0 0 0 0 0.839216 0 0 0 0.3 0"/>
<feBlend mode="normal" in2="BackgroundImageFix" result="effect1_dropShadow_2790_29270"/>
<feBlend mode="normal" in="SourceGraphic" in2="effect1_dropShadow_2790_29270" result="shape"/>
</filter>
<filter id="filter1_d_2790_29270" x="126.597" y="30.8005" width="173.984" height="234.628" filterUnits="userSpaceOnUse" color-interpolation-filters="sRGB">
<feFlood flood-opacity="0" result="BackgroundImageFix"/>
<feColorMatrix in="SourceAlpha" type="matrix" values="0 0 0 0 0 0 0 0 0 0 0 0 0 0 0 0 0 0 127 0" result="hardAlpha"/>
<feOffset dy="2"/>
<feGaussianBlur stdDeviation="1"/>
<feComposite in2="hardAlpha" operator="out"/>
<feColorMatrix type="matrix" values="0 0 0 0 0.839216 0 0 0 0 0.839216 0 0 0 0 0.839216 0 0 0 0.3 0"/>
<feBlend mode="normal" in2="BackgroundImageFix" result="effect1_dropShadow_2790_29270"/>
<feBlend mode="normal" in="SourceGraphic" in2="effect1_dropShadow_2790_29270" result="shape"/>
</filter>
<filter id="filter2_d_2790_29270" x="0.763062" y="11.4647" width="182.643" height="255.366" filterUnits="userSpaceOnUse" color-interpolation-filters="sRGB">
<feFlood flood-opacity="0" result="BackgroundImageFix"/>
<feColorMatrix in="SourceAlpha" type="matrix" values="0 0 0 0 0 0 0 0 0 0 0 0 0 0 0 0 0 0 127 0" result="hardAlpha"/>
<feOffset dy="2"/>
<feGaussianBlur stdDeviation="1"/>
<feComposite in2="hardAlpha" operator="out"/>
<feColorMatrix type="matrix" values="0 0 0 0 0.839216 0 0 0 0 0.839216 0 0 0 0 0.839216 0 0 0 0.6 0"/>
<feBlend mode="normal" in2="BackgroundImageFix" result="effect1_dropShadow_2790_29270"/>
<feBlend mode="normal" in="SourceGraphic" in2="effect1_dropShadow_2790_29270" result="shape"/>
</filter>
<filter id="filter3_d_2790_29270" x="77.5376" y="104.085" width="97.9737" height="68.3596" filterUnits="userSpaceOnUse" color-interpolation-filters="sRGB">
<feFlood flood-opacity="0" result="BackgroundImageFix"/>
<feColorMatrix in="SourceAlpha" type="matrix" values="0 0 0 0 0 0 0 0 0 0 0 0 0 0 0 0 0 0 127 0" result="hardAlpha"/>
<feOffset dx="-0.668083" dy="0.668083"/>
<feComposite in2="hardAlpha" operator="out"/>
<feColorMatrix type="matrix" values="0 0 0 0 0.839216 0 0 0 0 0.839216 0 0 0 0 0.839216 0 0 0 1 0"/>
<feBlend mode="normal" in2="BackgroundImageFix" result="effect1_dropShadow_2790_29270"/>
<feBlend mode="normal" in="SourceGraphic" in2="effect1_dropShadow_2790_29270" result="shape"/>
</filter>
<filter id="filter4_i_2790_29270" x="53.9237" y="138.073" width="95.625" height="118.479" filterUnits="userSpaceOnUse" color-interpolation-filters="sRGB">
<feFlood flood-opacity="0" result="BackgroundImageFix"/>
<feBlend mode="normal" in="SourceGraphic" in2="BackgroundImageFix" result="shape"/>
<feColorMatrix in="SourceAlpha" type="matrix" values="0 0 0 0 0 0 0 0 0 0 0 0 0 0 0 0 0 0 127 0" result="hardAlpha"/>
<feOffset dx="1.80018" dy="1.80018"/>
<feGaussianBlur stdDeviation="2.70027"/>
<feComposite in2="hardAlpha" operator="arithmetic" k2="-1" k3="1"/>
<feColorMatrix type="matrix" values="0 0 0 0 1 0 0 0 0 1 0 0 0 0 1 0 0 0 0.3 0"/>
<feBlend mode="normal" in2="shape" result="effect1_innerShadow_2790_29270"/>
</filter>
<filter id="filter5_i_2790_29270" x="6.00281" y="54.4467" width="122.293" height="108.368" filterUnits="userSpaceOnUse" color-interpolation-filters="sRGB">
<feFlood flood-opacity="0" result="BackgroundImageFix"/>
<feBlend mode="normal" in="SourceGraphic" in2="BackgroundImageFix" result="shape"/>
<feColorMatrix in="SourceAlpha" type="matrix" values="0 0 0 0 0 0 0 0 0 0 0 0 0 0 0 0 0 0 127 0" result="hardAlpha"/>
<feOffset dx="1.80018" dy="1.80018"/>
<feGaussianBlur stdDeviation="2.70027"/>
<feComposite in2="hardAlpha" operator="arithmetic" k2="-1" k3="1"/>
<feColorMatrix type="matrix" values="0 0 0 0 1 0 0 0 0 1 0 0 0 0 1 0 0 0 0.3 0"/>
<feBlend mode="normal" in2="shape" result="effect1_innerShadow_2790_29270"/>
</filter>
<filter id="filter6_d_2790_29270" x="27.8074" y="213.073" width="9.86028" height="11.3874" filterUnits="userSpaceOnUse" color-interpolation-filters="sRGB">
<feFlood flood-opacity="0" result="BackgroundImageFix"/>
<feColorMatrix in="SourceAlpha" type="matrix" values="0 0 0 0 0 0 0 0 0 0 0 0 0 0 0 0 0 0 127 0" result="hardAlpha"/>
<feOffset dx="-1.20012" dy="0.60006"/>
<feComposite in2="hardAlpha" operator="out"/>
<feColorMatrix type="matrix" values="0 0 0 0 0.309804 0 0 0 0 0.811765 0 0 0 0 0.921569 0 0 0 1 0"/>
<feBlend mode="normal" in2="BackgroundImageFix" result="effect1_dropShadow_2790_29270"/>
<feBlend mode="normal" in="SourceGraphic" in2="effect1_dropShadow_2790_29270" result="shape"/>
</filter>
<filter id="filter7_i_2790_29270" x="30.1429" y="214.317" width="1.88708" height="1.94446" filterUnits="userSpaceOnUse" color-interpolation-filters="sRGB">
<feFlood flood-opacity="0" result="BackgroundImageFix"/>
<feBlend mode="normal" in="SourceGraphic" in2="BackgroundImageFix" result="shape"/>
<feColorMatrix in="SourceAlpha" type="matrix" values="0 0 0 0 0 0 0 0 0 0 0 0 0 0 0 0 0 0 127 0" result="hardAlpha"/>
<feOffset dx="-0.60006" dy="0.60006"/>
<feComposite in2="hardAlpha" operator="arithmetic" k2="-1" k3="1"/>
<feColorMatrix type="matrix" values="0 0 0 0 0.309804 0 0 0 0 0.811765 0 0 0 0 0.921569 0 0 0 1 0"/>
<feBlend mode="normal" in2="shape" result="effect1_innerShadow_2790_29270"/>
</filter>
<filter id="filter8_i_2790_29270" x="32.1858" y="217.359" width="3.98462" height="4.88184" filterUnits="userSpaceOnUse" color-interpolation-filters="sRGB">
<feFlood flood-opacity="0" result="BackgroundImageFix"/>
<feBlend mode="normal" in="SourceGraphic" in2="BackgroundImageFix" result="shape"/>
<feColorMatrix in="SourceAlpha" type="matrix" values="0 0 0 0 0 0 0 0 0 0 0 0 0 0 0 0 0 0 127 0" result="hardAlpha"/>
<feOffset dx="-0.60006" dy="0.60006"/>
<feComposite in2="hardAlpha" operator="arithmetic" k2="-1" k3="1"/>
<feColorMatrix type="matrix" values="0 0 0 0 0.309804 0 0 0 0 0.811765 0 0 0 0 0.921569 0 0 0 1 0"/>
<feBlend mode="normal" in2="shape" result="effect1_innerShadow_2790_29270"/>
</filter>
<filter id="filter9_d_2790_29270" x="48.1535" y="218.438" width="14.2927" height="14.6792" filterUnits="userSpaceOnUse" color-interpolation-filters="sRGB">
<feFlood flood-opacity="0" result="BackgroundImageFix"/>
<feColorMatrix in="SourceAlpha" type="matrix" values="0 0 0 0 0 0 0 0 0 0 0 0 0 0 0 0 0 0 127 0" result="hardAlpha"/>
<feOffset dx="-0.60006" dy="0.60006"/>
<feComposite in2="hardAlpha" operator="out"/>
<feColorMatrix type="matrix" values="0 0 0 0 0.309804 0 0 0 0 0.811765 0 0 0 0 0.921569 0 0 0 1 0"/>
<feBlend mode="normal" in2="BackgroundImageFix" result="effect1_dropShadow_2790_29270"/>
<feBlend mode="normal" in="SourceGraphic" in2="effect1_dropShadow_2790_29270" result="shape"/>
</filter>
<filter id="filter10_d_2790_29270" x="64.2213" y="224.454" width="10.355" height="10.6476" filterUnits="userSpaceOnUse" color-interpolation-filters="sRGB">
<feFlood flood-opacity="0" result="BackgroundImageFix"/>
<feColorMatrix in="SourceAlpha" type="matrix" values="0 0 0 0 0 0 0 0 0 0 0 0 0 0 0 0 0 0 127 0" result="hardAlpha"/>
<feOffset dx="-0.433946" dy="0.433946"/>
<feComposite in2="hardAlpha" operator="out"/>
<feColorMatrix type="matrix" values="0 0 0 0 0.309804 0 0 0 0 0.811765 0 0 0 0 0.921569 0 0 0 1 0"/>
<feBlend mode="normal" in2="BackgroundImageFix" result="effect1_dropShadow_2790_29270"/>
<feBlend mode="normal" in="SourceGraphic" in2="effect1_dropShadow_2790_29270" result="shape"/>
</filter>
<filter id="filter11_bd_2790_29270" x="51.4863" y="-2.50708" width="60.2749" height="42.4343" filterUnits="userSpaceOnUse" color-interpolation-filters="sRGB">
<feFlood flood-opacity="0" result="BackgroundImageFix"/>
<feGaussianBlur in="BackgroundImageFix" stdDeviation="4"/>
<feComposite in2="SourceAlpha" operator="in" result="effect1_backgroundBlur_2790_29270"/>
<feColorMatrix in="SourceAlpha" type="matrix" values="0 0 0 0 0 0 0 0 0 0 0 0 0 0 0 0 0 0 127 0" result="hardAlpha"/>
<feOffset dy="1"/>
<feGaussianBlur stdDeviation="0.5"/>
<feComposite in2="hardAlpha" operator="out"/>
<feColorMatrix type="matrix" values="0 0 0 0 0.360784 0 0 0 0 0.360784 0 0 0 0 0.368627 0 0 0 0.15 0"/>
<feBlend mode="normal" in2="effect1_backgroundBlur_2790_29270" result="effect2_dropShadow_2790_29270"/>
<feBlend mode="normal" in="SourceGraphic" in2="effect2_dropShadow_2790_29270" result="shape"/>
</filter>
<linearGradient id="paint0_linear_2790_29270" x1="165.443" y1="34.0998" x2="82.4425" y2="228.102" gradientUnits="userSpaceOnUse">
<stop stop-color="#58E4F1"/>
<stop offset="1" stop-color="#EEFCFE"/>
</linearGradient>
<linearGradient id="paint1_linear_2790_29270" x1="52.7295" y1="37.267" x2="56.5766" y2="81.2399" gradientUnits="userSpaceOnUse">
<stop stop-color="white"/>
<stop offset="1" stop-color="white" stop-opacity="0"/>
</linearGradient>
<linearGradient id="paint2_linear_2790_29270" x1="90.5099" y1="56.0457" x2="93.2397" y2="87.2479" gradientUnits="userSpaceOnUse">
<stop offset="0.353419" stop-color="white"/>
<stop offset="1" stop-color="white" stop-opacity="0"/>
</linearGradient>
<linearGradient id="paint3_linear_2790_29270" x1="160.43" y1="27.8445" x2="163.481" y2="62.7114" gradientUnits="userSpaceOnUse">
<stop offset="0.353419" stop-color="white"/>
<stop offset="1" stop-color="white" stop-opacity="0"/>
</linearGradient>
<linearGradient id="paint4_linear_2790_29270" x1="93.7633" y1="159.569" x2="93.7633" y2="243.606" gradientUnits="userSpaceOnUse">
<stop stop-color="#E2FD52" stop-opacity="0.3"/>
<stop offset="0.436834" stop-color="#E2FD52"/>
<stop offset="1" stop-color="#C5F362"/>
</linearGradient>
<linearGradient id="paint5_linear_2790_29270" x1="163.2" y1="171.455" x2="93.9957" y2="112.265" gradientUnits="userSpaceOnUse">
<stop offset="0.256218" stop-color="#F9F9F9"/>
<stop offset="1" stop-color="#F9F9F9"/>
</linearGradient>
<linearGradient id="paint6_linear_2790_29270" x1="137.258" y1="215.391" x2="113.794" y2="102.879" gradientUnits="userSpaceOnUse">
<stop stop-color="#D6D6D6"/>
<stop offset="1" stop-color="#D6D6D6" stop-opacity="0"/>
</linearGradient>
<linearGradient id="paint7_linear_2790_29270" x1="159.602" y1="166.982" x2="85.8485" y2="104.905" gradientUnits="userSpaceOnUse">
<stop offset="0.463881" stop-color="#58E4F1"/>
<stop offset="1" stop-color="#F9F9F9" stop-opacity="0"/>
<stop offset="1" stop-color="#EEFCFE"/>
</linearGradient>
<linearGradient id="paint8_linear_2790_29270" x1="159.602" y1="166.982" x2="85.8486" y2="104.905" gradientUnits="userSpaceOnUse">
<stop offset="0.463881" stop-color="#58E4F1"/>
<stop offset="1" stop-color="#F9F9F9" stop-opacity="0"/>
<stop offset="1" stop-color="#EEFCFE"/>
</linearGradient>
<linearGradient id="paint9_linear_2790_29270" x1="56.102" y1="27.5438" x2="-30.0048" y2="60.626" gradientUnits="userSpaceOnUse">
<stop stop-color="#DFFA51"/>
<stop offset="1" stop-color="#DFFA51" stop-opacity="0"/>
</linearGradient>
<radialGradient id="paint10_radial_2790_29270" cx="0" cy="0" r="1" gradientUnits="userSpaceOnUse" gradientTransform="translate(81.9243 286.749) rotate(-68.0322) scale(166.061 151.397)">
<stop offset="0.752397" stop-color="#191919"/>
<stop offset="1" stop-color="#727272"/>
</radialGradient>
<radialGradient id="paint11_radial_2790_29270" cx="0" cy="0" r="1" gradientUnits="userSpaceOnUse" gradientTransform="translate(30.7561 169.474) rotate(-61.2298) scale(153.708 145.529)">
<stop offset="0.5625" stop-color="#191919"/>
<stop offset="1" stop-color="white"/>
</radialGradient>
<linearGradient id="paint12_linear_2790_29270" x1="130.681" y1="94.9397" x2="121.286" y2="117.701" gradientUnits="userSpaceOnUse">
<stop stop-color="white"/>
<stop offset="1" stop-color="#595959"/>
</linearGradient>
<radialGradient id="paint13_radial_2790_29270" cx="0" cy="0" r="1" gradientUnits="userSpaceOnUse" gradientTransform="translate(9.96193 7.91807) rotate(-166.067) scale(8.94427 8.94426)">
<stop offset="0.453759" stop-color="#252525"/>
<stop offset="0.840254" stop-color="#191919"/>
</radialGradient>
<linearGradient id="paint14_linear_2790_29270" x1="0" y1="0" x2="16.4353" y2="10.0519" gradientUnits="userSpaceOnUse">
<stop stop-color="#58E4F1"/>
<stop offset="1" stop-color="#52C1D9"/>
</linearGradient>
<linearGradient id="paint15_linear_2790_29270" x1="62.9427" y1="3.28654e-06" x2="-8.36429" y2="81.399" gradientUnits="userSpaceOnUse">
<stop stop-color="#ABF1F8"/>
<stop offset="0.510599" stop-color="#58E4F1"/>
</linearGradient>
<linearGradient id="paint16_linear_2790_29270" x1="0" y1="0" x2="5.15087" y2="2.20392" gradientUnits="userSpaceOnUse">
<stop stop-color="#58E4F1"/>
<stop offset="1" stop-color="#52C1D9"/>
</linearGradient>
<linearGradient id="paint17_linear_2790_29270" x1="0" y1="0" x2="5.44172" y2="7.81621" gradientUnits="userSpaceOnUse">
<stop stop-color="#58E4F1"/>
<stop offset="1" stop-color="#52C1D9"/>
</linearGradient>
<linearGradient id="paint18_linear_2790_29270" x1="50.3542" y1="9.87486e-07" x2="37.5213" y2="39.0041" gradientUnits="userSpaceOnUse">
<stop stop-color="#ABF1F8"/>
<stop offset="0.821606" stop-color="#58E4F1"/>
</linearGradient>
<linearGradient id="paint19_linear_2790_29270" x1="0" y1="0" x2="9.53234" y2="8.28215" gradientUnits="userSpaceOnUse">
<stop stop-color="#58E4F1"/>
<stop offset="1" stop-color="#52C1D9"/>
</linearGradient>
<linearGradient id="paint20_linear_2790_29270" x1="50.3542" y1="1.68514e-06" x2="18.8645" y2="56.0852" gradientUnits="userSpaceOnUse">
<stop stop-color="#ABF1F8"/>
<stop offset="0.510599" stop-color="#58E4F1"/>
</linearGradient>
<linearGradient id="paint21_linear_2790_29270" x1="11.6934" y1="-10.9884" x2="4.167" y2="6.59784" gradientUnits="userSpaceOnUse">
<stop stop-color="white"/>
<stop offset="1" stop-color="#A2F0F8"/>
</linearGradient>
<linearGradient id="paint22_linear_2790_29270" x1="11.8567" y1="-4.44722" x2="5.65013" y2="7.33715" gradientUnits="userSpaceOnUse">
<stop stop-color="white"/>
<stop offset="1" stop-color="white" stop-opacity="0"/>
</linearGradient>
<linearGradient id="paint23_linear_2790_29270" x1="8.49303" y1="-7.91368" x2="3.10434" y2="4.78467" gradientUnits="userSpaceOnUse">
<stop stop-color="white"/>
<stop offset="1" stop-color="#A2F0F8"/>
</linearGradient>
<linearGradient id="paint24_linear_2790_29270" x1="8.61166" y1="-3.20282" x2="4.16323" y2="5.31516" gradientUnits="userSpaceOnUse">
<stop stop-color="white"/>
<stop offset="1" stop-color="white" stop-opacity="0"/>
</linearGradient>
<linearGradient id="paint25_linear_2790_29270" x1="0" y1="0" x2="16.4353" y2="10.0519" gradientUnits="userSpaceOnUse">
<stop stop-color="#58E4F1"/>
<stop offset="1" stop-color="#52C1D9"/>
</linearGradient>
<linearGradient id="paint26_linear_2790_29270" x1="62.9427" y1="3.28654e-06" x2="-8.36429" y2="81.399" gradientUnits="userSpaceOnUse">
<stop stop-color="#ABF1F8"/>
<stop offset="0.510599" stop-color="#58E4F1"/>
</linearGradient>
<linearGradient id="paint27_linear_2790_29270" x1="0" y1="0" x2="5.15087" y2="2.20392" gradientUnits="userSpaceOnUse">
<stop stop-color="#58E4F1"/>
<stop offset="1" stop-color="#52C1D9"/>
</linearGradient>
<linearGradient id="paint28_linear_2790_29270" x1="0" y1="0" x2="5.44172" y2="7.81621" gradientUnits="userSpaceOnUse">
<stop stop-color="#58E4F1"/>
<stop offset="1" stop-color="#52C1D9"/>
</linearGradient>
<linearGradient id="paint29_linear_2790_29270" x1="50.3542" y1="9.87486e-07" x2="37.5213" y2="39.0041" gradientUnits="userSpaceOnUse">
<stop stop-color="#ABF1F8"/>
<stop offset="0.821606" stop-color="#58E4F1"/>
</linearGradient>
<linearGradient id="paint30_linear_2790_29270" x1="0" y1="0" x2="9.53234" y2="8.28215" gradientUnits="userSpaceOnUse">
<stop stop-color="#58E4F1"/>
<stop offset="1" stop-color="#52C1D9"/>
</linearGradient>
<linearGradient id="paint31_linear_2790_29270" x1="50.3542" y1="1.68514e-06" x2="18.8645" y2="56.0852" gradientUnits="userSpaceOnUse">
<stop stop-color="#ABF1F8"/>
<stop offset="0.510599" stop-color="#58E4F1"/>
</linearGradient>
<linearGradient id="paint32_linear_2790_29270" x1="11.6934" y1="-10.9884" x2="4.167" y2="6.59784" gradientUnits="userSpaceOnUse">
<stop stop-color="white"/>
<stop offset="1" stop-color="#A2F0F8"/>
</linearGradient>
<linearGradient id="paint33_linear_2790_29270" x1="11.8567" y1="-4.44722" x2="5.65013" y2="7.33715" gradientUnits="userSpaceOnUse">
<stop stop-color="white"/>
<stop offset="1" stop-color="white" stop-opacity="0"/>
</linearGradient>
<linearGradient id="paint34_linear_2790_29270" x1="99.555" y1="5.49296" x2="59.7184" y2="22.7568" gradientUnits="userSpaceOnUse">
<stop stop-color="#D6D6D6"/>
<stop offset="0.447795" stop-color="#D6D6D6"/>
<stop offset="0.595551" stop-color="#D6D6D6" stop-opacity="0.25"/>
<stop offset="0.734375" stop-color="#D6D6D6" stop-opacity="0.25"/>
<stop offset="0.770285" stop-color="#D6D6D6"/>
<stop offset="1" stop-color="#D6D6D6"/>
</linearGradient>
<linearGradient id="paint35_linear_2790_29270" x1="59.4564" y1="15.5837" x2="102.698" y2="10.9264" gradientUnits="userSpaceOnUse">
<stop stop-color="white" stop-opacity="0.4"/>
<stop offset="1" stop-color="#D6D6D6" stop-opacity="0.4"/>
</linearGradient>
</defs>
</svg>
