<svg width="28" height="29" viewBox="0 0 28 29" fill="none" xmlns="http://www.w3.org/2000/svg">
<path d="M2.48438 20.9844C2.48438 19.8125 3.66797 18.7578 4.6875 17.7148C5.46094 16.9062 5.67188 15.2422 5.76562 13.8945C5.84766 9.27734 7.04297 6.30078 10.1602 5.17578C10.5469 3.64062 11.8125 2.43359 13.5352 2.43359C15.2695 2.43359 16.5234 3.64062 16.9219 5.17578C20.0391 6.30078 21.2344 9.27734 21.3164 13.8945C21.4102 15.2422 21.6211 16.9062 22.3945 17.7148C23.4023 18.7578 24.5977 19.8125 24.5977 20.9844C24.5977 21.8398 23.9297 22.4023 22.8281 22.4023H17.8828C17.7891 24.6758 16.0195 26.6445 13.5352 26.6445C11.0625 26.6445 9.29297 24.6641 9.19922 22.4023H4.25391C3.14062 22.4023 2.48438 21.8398 2.48438 20.9844ZM4.75781 20.6328H22.3125V20.4922C22.1016 20.1523 21.4102 19.4609 20.7891 18.7812C19.957 17.8438 19.5586 16.332 19.4531 14.0469C19.3594 8.92578 17.8359 7.29688 15.8203 6.74609C15.5273 6.67578 15.375 6.53516 15.3633 6.23047C15.3164 5.01172 14.625 4.15625 13.5352 4.15625C12.457 4.15625 11.7539 5.01172 11.7188 6.23047C11.707 6.53516 11.543 6.67578 11.25 6.74609C9.24609 7.29688 7.72266 8.92578 7.62891 14.0469C7.52344 16.332 7.125 17.8438 6.28125 18.7812C5.67188 19.4609 4.96875 20.1523 4.75781 20.4922V20.6328ZM11.0273 22.4023C11.1094 23.9961 12.1289 24.9922 13.5352 24.9922C14.9531 24.9922 15.9609 23.9961 16.0547 22.4023H11.0273Z" fill="#2F2F2F"/>
</svg>
