<svg width="40" height="40" viewBox="0 0 40 40" fill="none" xmlns="http://www.w3.org/2000/svg">
<rect width="40" height="40" rx="20" fill="#F3F3F3"/>
<path d="M12.6904 25.8848C11.8555 25.8848 11.3633 25.4629 11.3633 24.8213C11.3633 23.9424 12.251 23.1514 13.0156 22.3691C13.5957 21.7627 13.7539 20.5146 13.8242 19.5039C13.8857 16.1289 14.7822 13.8086 17.1201 12.9648C17.4453 11.8135 18.3594 10.9082 19.6514 10.9082C20.9521 10.9082 21.8574 11.8135 22.1914 12.9648C24.5293 13.8086 25.4258 16.1289 25.4873 19.5039C25.5576 20.5146 25.7158 21.7627 26.2959 22.3691C27.0518 23.1514 27.9482 23.9424 27.9482 24.8213C27.9482 25.4629 27.4473 25.8848 26.6211 25.8848H12.6904ZM19.6514 29.4092C18.166 29.4092 17.0762 28.3193 16.9619 27.0889H22.3496C22.2354 28.3193 21.1455 29.4092 19.6514 29.4092Z" fill="#868D99"/>
</svg>
