<svg width="54" height="58" viewBox="0 0 54 58" fill="none" xmlns="http://www.w3.org/2000/svg">
<g filter="url(#filter0_d_2057_12197)">
<mask id="path-1-outside-1_2057_12197" maskUnits="userSpaceOnUse" x="2.02173" y="1" width="50" height="54" fill="black">
<rect fill="white" x="2.02173" y="1" width="50" height="54"/>
<path fill-rule="evenodd" clip-rule="evenodd" d="M37.132 18.7421H39.6031L49.9779 5V18.7421H49.9781V37.982C49.9781 46.2622 43.2426 52.9624 34.9625 52.9189L34.2129 52.9149C33.8497 52.9696 33.4778 52.998 33.0993 52.998H18.8592C10.6647 52.998 4.02173 46.355 4.02173 38.1604H16.5688V35.8699V33.6792C16.5688 27.3924 20.4527 22.0128 25.9519 19.8088L37.132 5V18.7421Z"/>
</mask>
<path fill-rule="evenodd" clip-rule="evenodd" d="M37.132 18.7421H39.6031L49.9779 5V18.7421H49.9781V37.982C49.9781 46.2622 43.2426 52.9624 34.9625 52.9189L34.2129 52.9149C33.8497 52.9696 33.4778 52.998 33.0993 52.998H18.8592C10.6647 52.998 4.02173 46.355 4.02173 38.1604H16.5688V35.8699V33.6792C16.5688 27.3924 20.4527 22.0128 25.9519 19.8088L37.132 5V18.7421Z" fill="url(#paint0_radial_2057_12197)"/>
<path d="M37.132 18.7421H35.882V19.9921H37.132V18.7421ZM39.6031 18.7421V19.9921H40.2256L40.6007 19.4952L39.6031 18.7421ZM49.9779 5H51.2279V1.26973L48.9803 4.24683L49.9779 5ZM49.9779 18.7421H48.7279V19.9921H49.9779V18.7421ZM49.9781 18.7421H51.2281V17.4921H49.9781V18.7421ZM34.9625 52.9189L34.9559 54.1689L34.9625 52.9189ZM34.2129 52.9149L34.2195 51.665L34.1226 51.6644L34.0268 51.6789L34.2129 52.9149ZM4.02173 38.1604V36.9104H2.77173V38.1604H4.02173ZM16.5688 38.1604V39.4104H17.8188V38.1604H16.5688ZM25.9519 19.8088L26.4169 20.969L26.7398 20.8396L26.9495 20.5619L25.9519 19.8088ZM37.132 5H38.382V1.26973L36.1344 4.24683L37.132 5ZM37.132 19.9921H39.6031V17.4921H37.132V19.9921ZM40.6007 19.4952L50.9755 5.75317L48.9803 4.24683L38.6055 17.9889L40.6007 19.4952ZM48.7279 5V18.7421H51.2279V5H48.7279ZM49.9779 19.9921H49.9781V17.4921H49.9779V19.9921ZM48.7281 18.7421V37.982H51.2281V18.7421H48.7281ZM48.7281 37.982C48.7281 45.5693 42.5563 51.7088 34.9691 51.6689L34.9559 54.1689C43.929 54.216 51.2281 46.9551 51.2281 37.982H48.7281ZM34.9691 51.6689L34.2195 51.665L34.2063 54.1649L34.9559 54.1689L34.9691 51.6689ZM33.0993 54.248C33.5403 54.248 33.9744 54.2149 34.399 54.151L34.0268 51.6789C33.725 51.7243 33.4153 51.748 33.0993 51.748V54.248ZM18.8592 54.248H33.0993V51.748H18.8592V54.248ZM2.77173 38.1604C2.77173 47.0453 9.97436 54.248 18.8592 54.248V51.748C11.3551 51.748 5.27173 45.6646 5.27173 38.1604H2.77173ZM16.5688 36.9104H4.02173V39.4104H16.5688V36.9104ZM17.8188 38.1604V35.8699H15.3188V38.1604H17.8188ZM17.8188 35.8699V33.6792H15.3188V35.8699H17.8188ZM17.8188 33.6792C17.8188 27.9205 21.3756 22.9895 26.4169 20.969L25.4868 18.6485C19.5297 21.0361 15.3188 26.8644 15.3188 33.6792H17.8188ZM26.9495 20.5619L38.1296 5.75317L36.1344 4.24683L24.9542 19.0556L26.9495 20.5619ZM35.882 5V18.7421H38.382V5H35.882Z" fill="white" mask="url(#path-1-outside-1_2057_12197)"/>
</g>
<path fill-rule="evenodd" clip-rule="evenodd" d="M37.132 18.7421H39.6031L49.9779 5V18.7421H49.9781V37.982C49.9781 46.2622 43.2426 52.9624 34.9625 52.9189L34.2129 52.9149C33.8497 52.9696 33.4778 52.998 33.0993 52.998H18.8592C10.6647 52.998 4.02173 46.355 4.02173 38.1604H16.5688V35.8699V33.6792C16.5688 27.3924 20.4527 22.0128 25.9519 19.8088L37.132 5V18.7421Z" fill="url(#paint1_radial_2057_12197)"/>
<circle cx="33.9206" cy="34.8989" r="3.56001" fill="white"/>
<mask id="mask0_2057_12197" style="mask-type:alpha" maskUnits="userSpaceOnUse" x="30" y="31" width="8" height="8">
<circle cx="33.9206" cy="34.8989" r="3.56001" fill="white"/>
</mask>
<g mask="url(#mask0_2057_12197)">
<circle cx="34.8166" cy="34.8993" r="2.86294" fill="#191919"/>
</g>
<circle cx="24.9082" cy="34.8989" r="3.56001" fill="white"/>
<mask id="mask1_2057_12197" style="mask-type:alpha" maskUnits="userSpaceOnUse" x="21" y="31" width="8" height="8">
<circle cx="24.9082" cy="34.8989" r="3.56001" fill="white"/>
</mask>
<g mask="url(#mask1_2057_12197)">
<circle cx="25.8043" cy="34.8993" r="2.86294" fill="#191919"/>
</g>
<path fill-rule="evenodd" clip-rule="evenodd" d="M13.5313 43.4381C13.5313 43.7406 13.2861 43.9858 12.9836 43.9858C12.6812 43.9858 12.436 43.7406 12.436 43.4381C12.436 43.1356 12.6812 42.8904 12.9836 42.8904C13.2861 42.8904 13.5313 43.1356 13.5313 43.4381ZM10.6933 43.4381C10.6933 43.7406 10.4481 43.9858 10.1456 43.9858C9.84311 43.9858 9.5979 43.7406 9.5979 43.4381C9.5979 43.1356 9.84311 42.8904 10.1456 42.8904C10.4481 42.8904 10.6933 43.1356 10.6933 43.4381ZM11.5399 45.9774C11.8424 45.9774 12.0876 45.7322 12.0876 45.4297C12.0876 45.1272 11.8424 44.882 11.5399 44.882C11.2374 44.882 10.9922 45.1272 10.9922 45.4297C10.9922 45.7322 11.2374 45.9774 11.5399 45.9774Z" fill="white"/>
<path fill-rule="evenodd" clip-rule="evenodd" d="M20.7759 42.8408C19.4147 42.8408 18.3113 43.9443 18.3113 45.3054C18.3113 46.6666 19.4147 47.7701 20.7759 47.7701H22.7426V42.8409H23.4895L23.4895 47.7701H26.3273L26.3273 42.8411L27.0741 42.8411V47.7701H29.8626C29.8792 47.7701 29.8957 47.77 29.9122 47.7698V42.8411L30.659 42.8411V47.7061C33.0027 47.3253 34.7919 45.292 34.7919 42.8408H20.7759Z" fill="white"/>
<mask id="path-12-inside-2_2057_12197" fill="white">
<path d="M4.02173 37.6125H7.35385C7.90593 37.6125 8.35349 38.0601 8.35349 38.6122C8.35349 40.4525 6.86164 41.9443 5.02136 41.9443H4.02173V37.6125Z"/>
</mask>
<path d="M4.02173 37.6125H7.35385C7.90593 37.6125 8.35349 38.0601 8.35349 38.6122C8.35349 40.4525 6.86164 41.9443 5.02136 41.9443H4.02173V37.6125Z" fill="#191919"/>
<path d="M4.02173 37.6125H8.35349H4.02173ZM8.68375 38.8545C8.68375 40.7433 7.15252 42.2746 5.26365 42.2746H4.02173V41.614H5.02136C6.67925 41.614 8.02323 40.2701 8.02323 38.6122L8.68375 38.8545ZM4.02173 41.9443V37.6125V41.9443ZM7.44183 37.6125C8.12772 37.6125 8.68375 38.1686 8.68375 38.8545V38.8545C8.68375 40.7433 7.15252 42.2746 5.26365 42.2746L5.02136 41.614C6.67925 41.614 8.02323 40.2701 8.02323 38.6122V38.6122C8.02323 38.0601 7.72354 37.6125 7.35385 37.6125H7.44183Z" fill="white" mask="url(#path-12-inside-2_2057_12197)"/>
<defs>
<filter id="filter0_d_2057_12197" x="0.771729" y="0.269775" width="52.4563" height="56.9783" filterUnits="userSpaceOnUse" color-interpolation-filters="sRGB">
<feFlood flood-opacity="0" result="BackgroundImageFix"/>
<feColorMatrix in="SourceAlpha" type="matrix" values="0 0 0 0 0 0 0 0 0 0 0 0 0 0 0 0 0 0 127 0" result="hardAlpha"/>
<feOffset dy="1"/>
<feGaussianBlur stdDeviation="1"/>
<feComposite in2="hardAlpha" operator="out"/>
<feColorMatrix type="matrix" values="0 0 0 0 0 0 0 0 0 0 0 0 0 0 0 0 0 0 0.25 0"/>
<feBlend mode="normal" in2="BackgroundImageFix" result="effect1_dropShadow_2057_12197"/>
<feBlend mode="normal" in="SourceGraphic" in2="effect1_dropShadow_2057_12197" result="shape"/>
</filter>
<radialGradient id="paint0_radial_2057_12197" cx="0" cy="0" r="1" gradientUnits="userSpaceOnUse" gradientTransform="translate(4.02173 9.95391) rotate(43.0885) scale(63.0102 60.3303)">
<stop offset="0.786999" stop-color="#191919"/>
<stop offset="1" stop-color="white"/>
</radialGradient>
<radialGradient id="paint1_radial_2057_12197" cx="0" cy="0" r="1" gradientUnits="userSpaceOnUse" gradientTransform="translate(4.02173 9.95391) rotate(43.0885) scale(63.0102 60.3303)">
<stop offset="0.786999" stop-color="#191919"/>
<stop offset="1" stop-color="white"/>
</radialGradient>
</defs>
</svg>
