<svg width="55" height="69" viewBox="0 0 55 69" fill="none" xmlns="http://www.w3.org/2000/svg">
<g filter="url(#filter0_d_2057_13357)">
<mask id="path-1-outside-1_2057_13357" maskUnits="userSpaceOnUse" x="1.54297" y="1" width="50" height="63" fill="black">
<rect fill="white" x="1.54297" y="1" width="50" height="63"/>
<path fill-rule="evenodd" clip-rule="evenodd" d="M39.1248 18.7418H36.6532V5L25.4734 19.8084C19.974 22.0124 16.0901 27.3921 16.0901 33.6789V35.8697V38.1602H3.54297C3.54297 45.8793 9.43743 52.2216 16.9708 52.9316L41.0693 61.7178L47.1447 46.0351C48.6349 43.7117 49.4994 40.9481 49.4994 37.9817L49.4994 35.0734V5L39.1248 18.7418Z"/>
</mask>
<path fill-rule="evenodd" clip-rule="evenodd" d="M39.1248 18.7418H36.6532V5L25.4734 19.8084C19.974 22.0124 16.0901 27.3921 16.0901 33.6789V35.8697V38.1602H3.54297C3.54297 45.8793 9.43743 52.2216 16.9708 52.9316L41.0693 61.7178L47.1447 46.0351C48.6349 43.7117 49.4994 40.9481 49.4994 37.9817L49.4994 35.0734V5L39.1248 18.7418Z" fill="#FFE353"/>
<path d="M36.6532 18.7418H35.4032V19.9918H36.6532V18.7418ZM39.1248 18.7418V19.9918H39.7473L40.1224 19.495L39.1248 18.7418ZM36.6532 5H37.9032V1.26973L35.6556 4.24683L36.6532 5ZM25.4734 19.8084L25.9384 20.9687L26.2613 20.8393L26.471 20.5616L25.4734 19.8084ZM16.0901 38.1602V39.4102H17.3401V38.1602H16.0901ZM3.54297 38.1602V36.9102H2.29297V38.1602H3.54297ZM16.9708 52.9316L17.3989 51.7572L17.248 51.7022L17.0881 51.6871L16.9708 52.9316ZM41.0693 61.7178L40.6411 62.8922L41.7922 63.3119L42.2348 62.1694L41.0693 61.7178ZM47.1447 46.0351L46.0926 45.3602L46.0246 45.4661L45.9791 45.5835L47.1447 46.0351ZM49.4994 37.9817L48.2494 37.9817V37.9817H49.4994ZM49.4994 35.0734L50.7494 35.0734V35.0734H49.4994ZM49.4994 5H50.7494V1.26973L48.5018 4.24683L49.4994 5ZM36.6532 19.9918H39.1248V17.4918H36.6532V19.9918ZM35.4032 5V18.7418H37.9032V5H35.4032ZM26.471 20.5616L37.6509 5.75317L35.6556 4.24683L24.4758 19.0553L26.471 20.5616ZM17.3401 33.6789C17.3401 27.9202 20.897 22.9891 25.9384 20.9687L25.0084 18.6481C19.0511 21.0356 14.8401 26.864 14.8401 33.6789H17.3401ZM17.3401 35.8697V33.6789H14.8401V35.8697H17.3401ZM17.3401 38.1602V35.8697H14.8401V38.1602H17.3401ZM3.54297 39.4102H16.0901V36.9102H3.54297V39.4102ZM17.0881 51.6871C10.1907 51.0371 4.79297 45.2283 4.79297 38.1602H2.29297C2.29297 46.5303 8.68416 53.4062 16.8535 54.1761L17.0881 51.6871ZM41.4974 60.5435L17.3989 51.7572L16.5426 54.106L40.6411 62.8922L41.4974 60.5435ZM45.9791 45.5835L39.9037 61.2663L42.2348 62.1694L48.3103 46.4866L45.9791 45.5835ZM48.2494 37.9817C48.2494 40.7018 47.4575 43.2322 46.0926 45.3602L48.1969 46.7099C49.8124 44.1912 50.7494 41.1944 50.7494 37.9817H48.2494ZM48.2494 35.0734L48.2494 37.9817L50.7494 37.9817L50.7494 35.0734L48.2494 35.0734ZM48.2494 5V35.0734H50.7494V5H48.2494ZM40.1224 19.495L50.497 5.75317L48.5018 4.24683L38.1271 17.9887L40.1224 19.495Z" fill="white" mask="url(#path-1-outside-1_2057_13357)"/>
</g>
<path d="M41.0693 61.7178L12.0199 51.1266L49.2762 40.533L41.0693 61.7178Z" fill="url(#paint0_linear_2057_13357)"/>
<path fill-rule="evenodd" clip-rule="evenodd" d="M36.6532 18.7418H39.1248L49.4994 5V35.0734L49.4994 37.9817C49.4994 46.2619 42.7639 52.9622 34.4838 52.9186L33.7341 52.9147C33.3709 52.9694 32.999 52.9977 32.6205 52.9977H18.3805C10.1859 52.9977 3.54297 46.3547 3.54297 38.1602H16.0901V35.8697V33.6789C16.0901 27.3921 19.974 22.0124 25.4734 19.8084L36.6532 5V18.7418Z" fill="#FFE353"/>
<path fill-rule="evenodd" clip-rule="evenodd" d="M36.6532 18.7418H39.1248L49.4994 5V35.0734L49.4994 37.9817C49.4994 46.2619 42.7639 52.9622 34.4838 52.9186L33.7341 52.9147C33.3709 52.9694 32.999 52.9977 32.6205 52.9977H18.3805C10.1859 52.9977 3.54297 46.3547 3.54297 38.1602H16.0901V35.8697V33.6789C16.0901 27.3921 19.974 22.0124 25.4734 19.8084L36.6532 5V18.7418Z" fill="url(#paint1_linear_2057_13357)"/>
<path fill-rule="evenodd" clip-rule="evenodd" d="M36.6532 18.7418H39.1248L49.4994 5V35.0734L49.4994 37.9817C49.4994 46.2619 42.7639 52.9622 34.4838 52.9186L33.7341 52.9147C33.3709 52.9694 32.999 52.9977 32.6205 52.9977H18.3805C10.1859 52.9977 3.54297 46.3547 3.54297 38.1602H16.0901V35.8697V33.6789C16.0901 27.3921 19.974 22.0124 25.4734 19.8084L36.6532 5V18.7418Z" fill="url(#paint2_radial_2057_13357)"/>
<path fill-rule="evenodd" clip-rule="evenodd" d="M36.7663 18.7418H39.2376L49.6122 5V35.0734L49.6122 37.9817C49.6122 46.2619 42.8767 52.9622 34.5966 52.9186L33.8469 52.9147C33.4837 52.9694 33.1118 52.9977 32.7333 52.9977H18.4933C10.2987 52.9977 3.65576 46.3547 3.65576 38.1602H16.2029V35.8697V33.6789C16.2029 27.392 20.087 22.0122 25.5865 19.8083L36.7663 5V18.7418Z" fill="url(#paint3_radial_2057_13357)"/>
<path fill-rule="evenodd" clip-rule="evenodd" d="M27.5129 43.0613C27.9878 42.5865 28.6318 42.3197 29.3033 42.3197C29.4857 42.3197 29.6336 42.1718 29.6336 41.9894C29.6336 41.807 29.4857 41.6592 29.3033 41.6592C28.4566 41.6592 27.6446 41.9955 27.0459 42.5942C26.4472 43.193 26.1108 44.005 26.1108 44.8517C26.1108 44.9778 26.1183 45.1032 26.133 45.2272C25.6118 45.4787 24.9672 45.6222 24.29 45.6222C23.4532 45.6222 22.666 45.4031 22.1001 45.0315C21.5341 44.6599 21.267 44.1916 21.267 43.7507C21.267 43.5684 21.1191 43.4205 20.9367 43.4205C20.7543 43.4205 20.6064 43.5684 20.6064 43.7507C20.6064 44.4777 21.0459 45.1295 21.7376 45.5837C22.4295 46.038 23.3482 46.2827 24.29 46.2827C24.9958 46.2827 25.6886 46.1453 26.2827 45.8852C26.439 46.3418 26.6982 46.7615 27.0459 47.1091C27.6446 47.7079 28.4566 48.0442 29.3033 48.0442C29.4857 48.0442 29.6336 47.8964 29.6336 47.714C29.6336 47.5316 29.4857 47.3837 29.3033 47.3837C28.6318 47.3837 27.9878 47.1169 27.5129 46.6421C27.0381 46.1672 26.7713 45.5232 26.7713 44.8517C26.7713 44.1802 27.0381 43.5361 27.5129 43.0613Z" fill="#1A1A1A"/>
<circle cx="33.4426" cy="34.8989" r="3.56001" fill="white"/>
<mask id="mask0_2057_13357" style="mask-type:alpha" maskUnits="userSpaceOnUse" x="29" y="31" width="9" height="8">
<circle cx="33.4426" cy="34.8989" r="3.56001" fill="white"/>
</mask>
<g mask="url(#mask0_2057_13357)">
<circle cx="34.3383" cy="34.8991" r="2.86294" fill="#191919"/>
</g>
<circle cx="24.4299" cy="34.8989" r="3.56001" fill="white"/>
<mask id="mask1_2057_13357" style="mask-type:alpha" maskUnits="userSpaceOnUse" x="20" y="31" width="8" height="8">
<circle cx="24.4299" cy="34.8989" r="3.56001" fill="white"/>
</mask>
<g mask="url(#mask1_2057_13357)">
<circle cx="25.3263" cy="34.8991" r="2.86294" fill="#191919"/>
</g>
<path fill-rule="evenodd" clip-rule="evenodd" d="M13.0533 43.4383C13.0533 43.7408 12.8081 43.986 12.5056 43.986C12.2031 43.986 11.9579 43.7408 11.9579 43.4383C11.9579 43.1358 12.2031 42.8906 12.5056 42.8906C12.8081 42.8906 13.0533 43.1358 13.0533 43.4383ZM10.215 43.4384C10.215 43.7408 9.96981 43.9861 9.66732 43.9861C9.36484 43.9861 9.11963 43.7408 9.11963 43.4384C9.11963 43.1359 9.36484 42.8907 9.66732 42.8907C9.96981 42.8907 10.215 43.1359 10.215 43.4384ZM11.0616 45.9771C11.3641 45.9771 11.6093 45.7319 11.6093 45.4294C11.6093 45.127 11.3641 44.8818 11.0616 44.8818C10.7591 44.8818 10.5139 45.127 10.5139 45.4294C10.5139 45.7319 10.7591 45.9771 11.0616 45.9771Z" fill="#191919"/>
<mask id="path-16-inside-2_2057_13357" fill="white">
<path d="M3.54297 37.6128H6.87509C7.42717 37.6128 7.87473 38.0603 7.87473 38.6124C7.87473 40.4527 6.38288 41.9446 4.54261 41.9446H3.54297V37.6128Z"/>
</mask>
<path d="M3.54297 37.6128H6.87509C7.42717 37.6128 7.87473 38.0603 7.87473 38.6124C7.87473 40.4527 6.38288 41.9446 4.54261 41.9446H3.54297V37.6128Z" fill="#191919"/>
<path d="M3.54297 37.6128H7.87473H3.54297ZM8.20499 38.8547C8.20499 40.7436 6.67376 42.2748 4.78489 42.2748H3.54297V41.6143H4.54261C6.20049 41.6143 7.54447 40.2703 7.54447 38.6124L8.20499 38.8547ZM3.54297 41.9446V37.6128V41.9446ZM6.96307 37.6128C7.64896 37.6128 8.20499 38.1688 8.20499 38.8547C8.20499 40.7436 6.67376 42.2748 4.78489 42.2748L4.54261 41.6143C6.20049 41.6143 7.54447 40.2703 7.54447 38.6124C7.54447 38.0603 7.24478 37.6128 6.87509 37.6128H6.96307Z" fill="white" mask="url(#path-16-inside-2_2057_13357)"/>
<circle cx="0.990782" cy="0.990782" r="0.990782" transform="matrix(0.866025 -0.5 -0.5 -0.866025 33.1565 47.5581)" fill="#FF630D"/>
<circle cx="1.54122" cy="1.54122" r="1.54122" transform="matrix(0.866025 -0.5 -0.5 -0.866025 35.1145 45.3623)" fill="#FF3464"/>
<circle cx="0.660521" cy="0.660521" r="0.660521" transform="matrix(0.866025 -0.5 -0.5 -0.866025 32.2385 43.4634)" fill="#E2FD52"/>
<defs>
<filter id="filter0_d_2057_13357" x="0.292969" y="0.269775" width="52.4565" height="66.0422" filterUnits="userSpaceOnUse" color-interpolation-filters="sRGB">
<feFlood flood-opacity="0" result="BackgroundImageFix"/>
<feColorMatrix in="SourceAlpha" type="matrix" values="0 0 0 0 0 0 0 0 0 0 0 0 0 0 0 0 0 0 127 0" result="hardAlpha"/>
<feOffset dy="1"/>
<feGaussianBlur stdDeviation="1"/>
<feComposite in2="hardAlpha" operator="out"/>
<feColorMatrix type="matrix" values="0 0 0 0 0 0 0 0 0 0 0 0 0 0 0 0 0 0 0.25 0"/>
<feBlend mode="normal" in2="BackgroundImageFix" result="effect1_dropShadow_2057_13357"/>
<feBlend mode="normal" in="SourceGraphic" in2="effect1_dropShadow_2057_13357" result="shape"/>
</filter>
<linearGradient id="paint0_linear_2057_13357" x1="35.9216" y1="63.2741" x2="33.2666" y2="42.3195" gradientUnits="userSpaceOnUse">
<stop offset="0.256575" stop-color="#FF3464"/>
<stop offset="1" stop-color="#774DFF"/>
</linearGradient>
<linearGradient id="paint1_linear_2057_13357" x1="26.5212" y1="5" x2="26.5212" y2="52.9979" gradientUnits="userSpaceOnUse">
<stop offset="0.19272" stop-color="#191919"/>
<stop offset="0.29133" stop-color="#FF3464" stop-opacity="0"/>
</linearGradient>
<radialGradient id="paint2_radial_2057_13357" cx="0" cy="0" r="1" gradientUnits="userSpaceOnUse" gradientTransform="translate(3.54297 38.2462) rotate(-0.274141) scale(46.0168 44.0597)">
<stop offset="0.152306" stop-color="#191919"/>
<stop offset="0.283418" stop-color="#FF3464" stop-opacity="0"/>
</radialGradient>
<radialGradient id="paint3_radial_2057_13357" cx="0" cy="0" r="1" gradientUnits="userSpaceOnUse" gradientTransform="translate(3.65576 9.95391) rotate(43.0885) scale(63.0102 60.3303)">
<stop offset="0.786999" stop-color="white" stop-opacity="0"/>
<stop offset="1" stop-color="white"/>
</radialGradient>
</defs>
</svg>
