<svg width="44" height="55" viewBox="0 0 44 55" fill="none" xmlns="http://www.w3.org/2000/svg">
<g filter="url(#filter0_d_2057_30456)">
<mask id="path-1-outside-1_2057_30456" maskUnits="userSpaceOnUse" x="1.99811" y="1" width="39" height="49" fill="black">
<rect fill="white" x="1.99811" y="1" width="39" height="49"/>
<path fill-rule="evenodd" clip-rule="evenodd" d="M31.0327 14.8272H29.0855V4L20.2769 15.6676C15.944 17.4041 12.8839 21.6427 12.8839 26.596V28.3221V30.1273H2.99819C2.99819 36.2094 7.64286 41.2067 13.5787 41.7657L32.5647 48.6879L37.3517 36.3311C38.5258 34.5006 39.2069 32.3232 39.2069 29.9861L39.2069 27.6946L39.2069 14.8272L39.2069 4L31.0327 14.8272Z"/>
</mask>
<path fill-rule="evenodd" clip-rule="evenodd" d="M31.0327 14.8272H29.0855V4L20.2769 15.6676C15.944 17.4041 12.8839 21.6427 12.8839 26.596V28.3221V30.1273H2.99819C2.99819 36.2094 7.64286 41.2067 13.5787 41.7657L32.5647 48.6879L37.3517 36.3311C38.5258 34.5006 39.2069 32.3232 39.2069 29.9861L39.2069 27.6946L39.2069 14.8272L39.2069 4L31.0327 14.8272Z" fill="#FFE353"/>
<path d="M29.0855 14.8272H28.1006V15.812H29.0855V14.8272ZM31.0327 14.8272V15.812H31.5232L31.8187 15.4206L31.0327 14.8272ZM29.0855 4H30.0704V1.06095L28.2995 3.40659L29.0855 4ZM20.2769 15.6676L20.6433 16.5817L20.8977 16.4797L21.0629 16.261L20.2769 15.6676ZM12.8839 30.1273V31.1122H13.8688V30.1273H12.8839ZM2.99819 30.1273V29.1425H2.01333V30.1273H2.99819ZM13.5787 41.7657L13.9161 40.8404L13.7971 40.797L13.6711 40.7852L13.5787 41.7657ZM32.5647 48.6879L32.2274 49.6132L33.1344 49.9439L33.4831 49.0437L32.5647 48.6879ZM37.3517 36.3311L36.5227 35.7994L36.4692 35.8829L36.4334 35.9754L37.3517 36.3311ZM39.2069 29.9861H40.1917V29.9861L39.2069 29.9861ZM39.2069 27.6946H38.222V27.6946L39.2069 27.6946ZM39.2069 14.8272H40.1917H39.2069ZM39.2069 4L40.1917 4V1.06095L38.4209 3.40659L39.2069 4ZM29.0855 15.812H31.0327V13.8423H29.0855V15.812ZM28.1006 4V14.8272H30.0704V4H28.1006ZM21.0629 16.261L29.8715 4.59341L28.2995 3.40659L19.4909 15.0741L21.0629 16.261ZM13.8688 26.596C13.8688 22.0587 16.6712 18.1736 20.6433 16.5817L19.9105 14.7534C15.2169 16.6345 11.8991 21.2266 11.8991 26.596H13.8688ZM13.8688 28.3221V26.596H11.8991V28.3221H13.8688ZM13.8688 30.1273V28.3221H11.8991V30.1273H13.8688ZM2.99819 31.1122H12.8839V29.1425H2.99819V31.1122ZM13.6711 40.7852C8.23632 40.2734 3.98306 35.6965 3.98306 30.1273H2.01333C2.01333 36.7224 7.04941 42.14 13.4864 42.7462L13.6711 40.7852ZM32.9021 47.7626L13.9161 40.8404L13.2414 42.691L32.2274 49.6132L32.9021 47.7626ZM36.4334 35.9754L31.6464 48.3322L33.4831 49.0437L38.2701 36.6869L36.4334 35.9754ZM38.222 29.9861C38.222 32.1292 37.5981 34.1228 36.5227 35.7994L38.1807 36.8628C39.4535 34.8784 40.1917 32.5173 40.1917 29.9861H38.222ZM38.222 27.6946L38.222 29.9861L40.1917 29.9861L40.1917 27.6946L38.222 27.6946ZM38.222 14.8272L38.222 27.6946H40.1917L40.1917 14.8272H38.222ZM38.222 4L38.222 14.8272H40.1917L40.1917 4L38.222 4ZM31.8187 15.4206L39.9929 4.59341L38.4209 3.40659L30.2467 14.2337L31.8187 15.4206Z" fill="white" mask="url(#path-1-outside-1_2057_30456)"/>
</g>
<path d="M32.5647 48.6878L9.67693 40.343L39.0309 31.9964L32.5647 48.6878Z" fill="url(#paint0_linear_2057_30456)"/>
<path fill-rule="evenodd" clip-rule="evenodd" d="M29.0855 14.8272H31.0327L39.2069 4L39.2069 14.8272L39.2069 27.6946L39.2069 29.9861C39.2069 36.51 33.9 41.7891 27.3762 41.7548L26.7894 41.7517C26.502 41.7952 26.2077 41.8177 25.9082 41.8177H14.6886C8.23215 41.8177 2.99819 36.5837 2.99819 30.1273H12.8839V28.3221V26.596C12.8839 21.6427 15.944 17.4041 20.2769 15.6676L29.0855 4V14.8272Z" fill="#FFE353"/>
<path fill-rule="evenodd" clip-rule="evenodd" d="M29.0856 14.8272H31.0328L39.207 4L39.2069 14.8272L39.207 27.6946L39.2069 29.9861C39.2069 36.51 33.9001 41.7891 27.3763 41.7548L26.7895 41.7517C26.5021 41.7952 26.2078 41.8177 25.9082 41.8177H14.6886C8.23224 41.8177 2.99828 36.5837 2.99828 30.1273H12.884V28.3221V26.596C12.884 21.6427 15.9441 17.4041 20.277 15.6675L29.0856 4V14.8272Z" fill="url(#paint1_linear_2057_30456)"/>
<path fill-rule="evenodd" clip-rule="evenodd" d="M29.0856 14.8272H31.0328L39.207 4L39.2069 14.8272L39.207 27.6946L39.2069 29.9861C39.2069 36.51 33.9001 41.7891 27.3763 41.7548L26.7895 41.7517C26.5021 41.7952 26.2078 41.8177 25.9082 41.8177H14.6886C8.23224 41.8177 2.99828 36.5837 2.99828 30.1273H12.884V28.3221V26.596C12.884 21.6427 15.9441 17.4041 20.277 15.6675L29.0856 4V14.8272Z" fill="url(#paint2_radial_2057_30456)"/>
<path fill-rule="evenodd" clip-rule="evenodd" d="M29.1743 14.8272H31.1213L39.2955 4V14.8272V27.6946V29.9861C39.2955 36.51 33.9886 41.7891 27.4648 41.7548L26.878 41.7517C26.5906 41.7952 26.2963 41.8177 25.9968 41.8177H14.7772C8.32076 41.8177 3.0868 36.5837 3.0868 30.1273H12.9726V28.3221V26.596C12.9726 21.6426 16.0328 17.4039 20.3658 15.6674L29.1743 4V14.8272Z" fill="url(#paint3_radial_2057_30456)"/>
<path fill-rule="evenodd" clip-rule="evenodd" d="M21.884 33.9885C22.2581 33.6144 22.7655 33.4042 23.2946 33.4042C23.4383 33.4042 23.5548 33.2877 23.5548 33.144C23.5548 33.0003 23.4383 32.8838 23.2946 32.8838C22.6275 32.8838 21.9877 33.1488 21.516 33.6205C21.0443 34.0922 20.7792 34.732 20.7792 35.3991C20.7792 35.4987 20.7851 35.5977 20.7968 35.6956C20.3861 35.8938 19.8782 36.0069 19.3447 36.0069C18.6853 36.0069 18.0651 35.8342 17.6193 35.5415C17.1733 35.2486 16.9628 34.8797 16.9628 34.5323C16.9628 34.3886 16.8463 34.2721 16.7026 34.2721C16.5589 34.2721 16.4424 34.3886 16.4424 34.5323C16.4424 35.1051 16.7887 35.6187 17.3336 35.9765C17.8788 36.3344 18.6026 36.5273 19.3447 36.5273C19.9008 36.5273 20.4468 36.4189 20.9149 36.214C21.038 36.5735 21.2422 36.904 21.516 37.1778C21.9877 37.6495 22.6275 37.9145 23.2946 37.9145C23.4383 37.9145 23.5548 37.798 23.5548 37.6543C23.5548 37.5106 23.4383 37.3941 23.2946 37.3941C22.7655 37.3941 22.2581 37.1839 21.884 36.8098C21.5098 36.4357 21.2997 35.9282 21.2997 35.3991C21.2997 34.8701 21.5098 34.3626 21.884 33.9885Z" fill="#1A1A1A"/>
<circle cx="26.5557" cy="27.5578" r="2.8049" fill="white"/>
<mask id="mask0_2057_30456" style="mask-type:alpha" maskUnits="userSpaceOnUse" x="23" y="24" width="7" height="7">
<circle cx="26.5557" cy="27.5578" r="2.8049" fill="white"/>
</mask>
<g mask="url(#mask0_2057_30456)">
<circle cx="27.2614" cy="27.5584" r="2.25569" fill="#191919"/>
</g>
<circle cx="19.4547" cy="27.5578" r="2.8049" fill="white"/>
<mask id="mask1_2057_30456" style="mask-type:alpha" maskUnits="userSpaceOnUse" x="16" y="24" width="7" height="7">
<circle cx="19.4547" cy="27.5578" r="2.8049" fill="white"/>
</mask>
<g mask="url(#mask1_2057_30456)">
<circle cx="20.161" cy="27.5584" r="2.25569" fill="#191919"/>
</g>
<path fill-rule="evenodd" clip-rule="evenodd" d="M8.25497 34.285C8.25497 34.5234 8.06177 34.7166 7.82344 34.7166C7.58512 34.7166 7.39192 34.5234 7.39192 34.285C7.39192 34.0467 7.58512 33.8535 7.82344 33.8535C8.06177 33.8535 8.25497 34.0467 8.25497 34.285ZM10.4912 34.285C10.4912 34.5234 10.298 34.7166 10.0597 34.7166C9.82137 34.7166 9.62817 34.5234 9.62817 34.285C9.62817 34.0467 9.82137 33.8535 10.0597 33.8535C10.298 33.8535 10.4912 34.0467 10.4912 34.285ZM8.92197 36.2855C9.1603 36.2855 9.3535 36.0923 9.3535 35.8539C9.3535 35.6156 9.1603 35.4224 8.92197 35.4224C8.68365 35.4224 8.49045 35.6156 8.49045 35.8539C8.49045 36.0923 8.68365 36.2855 8.92197 36.2855Z" fill="#191919"/>
<mask id="path-16-inside-2_2057_30456" fill="white">
<path d="M2.99818 29.6963H5.62354C6.05852 29.6963 6.41114 30.0489 6.41114 30.4839C6.41114 31.9338 5.23573 33.1092 3.78579 33.1092H2.99818V29.6963Z"/>
</mask>
<path d="M2.99818 29.6963H5.62354C6.05852 29.6963 6.41114 30.0489 6.41114 30.4839C6.41114 31.9338 5.23573 33.1092 3.78579 33.1092H2.99818V29.6963Z" fill="#191919"/>
<path d="M2.99818 29.6963H6.41114H2.99818ZM6.67135 30.6748C6.67135 32.163 5.46491 33.3695 3.97668 33.3695H2.99818V32.849H3.78579C5.09202 32.849 6.15093 31.7901 6.15093 30.4839L6.67135 30.6748ZM2.99818 33.1092V29.6963V33.1092ZM5.69285 29.6963C6.23326 29.6963 6.67135 30.1344 6.67135 30.6748V30.6748C6.67135 32.163 5.46491 33.3695 3.97668 33.3695L3.78579 32.849C5.09202 32.849 6.15093 31.7901 6.15093 30.4839V30.4839C6.15093 30.0489 5.91481 29.6963 5.62354 29.6963H5.69285Z" fill="white" mask="url(#path-16-inside-2_2057_30456)"/>
<circle cx="0.780629" cy="0.780629" r="0.780629" transform="matrix(0.866025 -0.5 -0.5 -0.866025 26.3304 37.5312)" fill="#FF630D"/>
<circle cx="1.21431" cy="1.21431" r="1.21431" transform="matrix(0.866025 -0.5 -0.5 -0.866025 27.873 35.8008)" fill="#FF3464"/>
<circle cx="0.520419" cy="0.520419" r="0.520419" transform="matrix(0.866025 -0.5 -0.5 -0.866025 25.6071 34.3047)" fill="#E2FD52"/>
<defs>
<filter id="filter0_d_2057_30456" x="0.437538" y="0.272655" width="41.33" height="52.0354" filterUnits="userSpaceOnUse" color-interpolation-filters="sRGB">
<feFlood flood-opacity="0" result="BackgroundImageFix"/>
<feColorMatrix in="SourceAlpha" type="matrix" values="0 0 0 0 0 0 0 0 0 0 0 0 0 0 0 0 0 0 127 0" result="hardAlpha"/>
<feOffset dy="0.787892"/>
<feGaussianBlur stdDeviation="0.787892"/>
<feComposite in2="hardAlpha" operator="out"/>
<feColorMatrix type="matrix" values="0 0 0 0 0 0 0 0 0 0 0 0 0 0 0 0 0 0 0.25 0"/>
<feBlend mode="normal" in2="BackgroundImageFix" result="effect1_dropShadow_2057_30456"/>
<feBlend mode="normal" in="SourceGraphic" in2="effect1_dropShadow_2057_30456" result="shape"/>
</filter>
<linearGradient id="paint0_linear_2057_30456" x1="28.5089" y1="49.9139" x2="26.417" y2="33.4039" gradientUnits="userSpaceOnUse">
<stop offset="0.256575" stop-color="#FF3464"/>
<stop offset="1" stop-color="#774DFF"/>
</linearGradient>
<linearGradient id="paint1_linear_2057_30456" x1="21.1025" y1="4" x2="21.1025" y2="41.8177" gradientUnits="userSpaceOnUse">
<stop offset="0.19272" stop-color="#191919"/>
<stop offset="0.29133" stop-color="#FF3464" stop-opacity="0"/>
</linearGradient>
<radialGradient id="paint2_radial_2057_30456" cx="0" cy="0" r="1" gradientUnits="userSpaceOnUse" gradientTransform="translate(2.99821 30.1948) rotate(-0.274146) scale(36.2562 34.7148)">
<stop offset="0.152306" stop-color="#191919"/>
<stop offset="0.283418" stop-color="#FF3464" stop-opacity="0"/>
</radialGradient>
<radialGradient id="paint3_radial_2057_30456" cx="0" cy="0" r="1" gradientUnits="userSpaceOnUse" gradientTransform="translate(3.08688 7.9032) rotate(43.0889) scale(49.6455 47.5341)">
<stop offset="0.786999" stop-color="white" stop-opacity="0"/>
<stop offset="1" stop-color="white"/>
</radialGradient>
</defs>
</svg>
