<svg width="46" height="46" viewBox="0 0 46 46" fill="none" xmlns="http://www.w3.org/2000/svg">
<g filter="url(#filter0_d_2057_30387)">
<mask id="path-1-outside-1_2057_30387" maskUnits="userSpaceOnUse" x="1.69095" y="1.65332" width="41" height="42" fill="black">
<rect fill="white" x="1.69095" y="1.65332" width="41" height="42"/>
<path fill-rule="evenodd" clip-rule="evenodd" d="M28.7786 15.0536C29.0596 15.1455 29.3278 15.2878 29.5689 15.4805H30.7255L38.8996 4.65332L38.8996 15.4805V16.9494C39.5537 17.1053 40.1448 17.5195 40.5076 18.1478C41.2075 19.36 40.7921 20.9102 39.5799 21.61C39.4816 21.6668 39.4479 21.7924 39.5047 21.8907C40.1383 22.9882 39.8579 24.3625 38.8996 25.1323V30.6394C38.8996 37.1634 33.5927 42.4424 27.0689 42.4081L26.4822 42.405C26.1947 42.4485 25.9005 42.471 25.6009 42.471H14.3813C7.92491 42.471 2.69095 37.2371 2.69095 30.7807H12.5767V28.9754V27.2493C12.5767 26.2039 12.713 25.1904 12.9688 24.2255C12.2032 23.4327 12.0198 22.2 12.5983 21.198C12.6551 21.0997 12.6214 20.974 12.5231 20.9173C11.3108 20.2174 10.8955 18.6673 11.5954 17.455C12.0636 16.6441 12.9123 16.1898 13.7858 16.1874C14.2181 16.1861 14.6565 16.2956 15.0578 16.5273C15.0908 16.5464 15.1269 16.5552 15.1624 16.5549C15.2326 16.5541 15.3007 16.5174 15.3383 16.4521C15.8079 15.6388 16.6602 15.1842 17.5364 15.1844C17.9662 15.1845 18.4018 15.2941 18.8008 15.5244C19.1916 15.7501 19.4997 16.0642 19.7142 16.4268C19.799 16.3904 19.8843 16.355 19.9702 16.3206L28.7786 4.65332V15.0536Z"/>
</mask>
<path fill-rule="evenodd" clip-rule="evenodd" d="M28.7786 15.0536C29.0596 15.1455 29.3278 15.2878 29.5689 15.4805H30.7255L38.8996 4.65332L38.8996 15.4805V16.9494C39.5537 17.1053 40.1448 17.5195 40.5076 18.1478C41.2075 19.36 40.7921 20.9102 39.5799 21.61C39.4816 21.6668 39.4479 21.7924 39.5047 21.8907C40.1383 22.9882 39.8579 24.3625 38.8996 25.1323V30.6394C38.8996 37.1634 33.5927 42.4424 27.0689 42.4081L26.4822 42.405C26.1947 42.4485 25.9005 42.471 25.6009 42.471H14.3813C7.92491 42.471 2.69095 37.2371 2.69095 30.7807H12.5767V28.9754V27.2493C12.5767 26.2039 12.713 25.1904 12.9688 24.2255C12.2032 23.4327 12.0198 22.2 12.5983 21.198C12.6551 21.0997 12.6214 20.974 12.5231 20.9173C11.3108 20.2174 10.8955 18.6673 11.5954 17.455C12.0636 16.6441 12.9123 16.1898 13.7858 16.1874C14.2181 16.1861 14.6565 16.2956 15.0578 16.5273C15.0908 16.5464 15.1269 16.5552 15.1624 16.5549C15.2326 16.5541 15.3007 16.5174 15.3383 16.4521C15.8079 15.6388 16.6602 15.1842 17.5364 15.1844C17.9662 15.1845 18.4018 15.2941 18.8008 15.5244C19.1916 15.7501 19.4997 16.0642 19.7142 16.4268C19.799 16.3904 19.8843 16.355 19.9702 16.3206L28.7786 4.65332V15.0536Z" fill="#DFFA51"/>
<path d="M29.5689 15.4805L28.954 16.2498L29.2237 16.4653H29.5689V15.4805ZM28.7786 15.0536H27.7938V15.7677L28.4725 15.9896L28.7786 15.0536ZM30.7255 15.4805V16.4653H31.2159L31.5115 16.0739L30.7255 15.4805ZM38.8996 4.65332L39.8845 4.65332V1.71427L38.1136 4.05991L38.8996 4.65332ZM38.8996 15.4805H39.8845V15.4805L38.8996 15.4805ZM38.8996 16.9494H37.9147V17.7272L38.6713 17.9075L38.8996 16.9494ZM40.5076 18.1478L39.6546 18.6402V18.6402L40.5076 18.1478ZM39.5799 21.61L40.0723 22.463L40.0723 22.463L39.5799 21.61ZM39.5047 21.8907L38.6517 22.3831L38.6517 22.3831L39.5047 21.8907ZM38.8996 25.1323L38.2828 24.3645L37.9147 24.6601V25.1323H38.8996ZM27.0689 42.4081L27.0637 43.393H27.0637L27.0689 42.4081ZM26.4822 42.405L26.4874 41.4202L26.4107 41.4198L26.3349 41.4312L26.4822 42.405ZM2.69095 30.7807V29.7958H1.70608V30.7807H2.69095ZM12.5767 30.7807V31.7655H13.5616V30.7807H12.5767ZM12.9688 24.2255L13.9208 24.4778L14.0631 23.9409L13.6772 23.5413L12.9688 24.2255ZM12.5983 21.198L13.4512 21.6904V21.6904L12.5983 21.198ZM12.5231 20.9173L12.0307 21.7702H12.0307L12.5231 20.9173ZM11.5954 17.455L10.7425 16.9626L11.5954 17.455ZM13.7858 16.1874L13.7885 17.1722H13.7886L13.7858 16.1874ZM15.0578 16.5273L14.5654 17.3802L14.5654 17.3803L15.0578 16.5273ZM15.1624 16.5549L15.172 17.5397L15.173 17.5397L15.1624 16.5549ZM15.3383 16.4521L14.4854 15.9597L14.4854 15.9597L15.3383 16.4521ZM17.5364 15.1844L17.5361 16.1693H17.5362L17.5364 15.1844ZM18.8008 15.5244L18.3083 16.3773L18.3083 16.3773L18.8008 15.5244ZM19.7142 16.4268L18.8665 16.9282L19.3069 17.6728L20.1021 17.332L19.7142 16.4268ZM19.9702 16.3206L20.3365 17.2348L20.591 17.1329L20.7562 16.9141L19.9702 16.3206ZM28.7786 4.65332H29.7635V1.71427L27.9926 4.05991L28.7786 4.65332ZM30.1838 14.7112C29.8488 14.4434 29.4756 14.2453 29.0847 14.1175L28.4725 15.9896C28.6437 16.0456 28.8068 16.1321 28.954 16.2498L30.1838 14.7112ZM29.5689 16.4653H30.7255V14.4956H29.5689V16.4653ZM31.5115 16.0739L39.6856 5.24673L38.1136 4.05991L29.9394 14.8871L31.5115 16.0739ZM37.9147 4.65332L37.9147 15.4805L39.8845 15.4805L39.8845 4.65332L37.9147 4.65332ZM37.9147 15.4805V16.9494H39.8845V15.4805H37.9147ZM41.3605 17.6554C40.8568 16.783 40.0344 16.2074 39.1279 15.9914L38.6713 17.9075C39.0731 18.0032 39.4328 18.256 39.6546 18.6402L41.3605 17.6554ZM40.0723 22.463C41.7556 21.4911 42.3323 19.3387 41.3605 17.6554L39.6546 18.6402C40.0826 19.3814 39.8286 20.3292 39.0874 20.7571L40.0723 22.463ZM40.3576 21.3983C40.5728 21.7711 40.4451 22.2477 40.0723 22.463L39.0874 20.7571C38.5181 21.0858 38.3231 21.8138 38.6517 22.3831L40.3576 21.3983ZM39.5164 25.9001C40.8477 24.8307 41.2378 22.923 40.3576 21.3983L38.6517 22.3831C39.0387 23.0534 38.8681 23.8944 38.2828 24.3645L39.5164 25.9001ZM37.9147 25.1323V30.6394H39.8845V25.1323H37.9147ZM37.9147 30.6394C37.9147 36.6174 33.052 41.4547 27.0741 41.4232L27.0637 43.393C34.1335 43.4301 39.8845 37.7093 39.8845 30.6394H37.9147ZM27.0741 41.4232L26.4874 41.4202L26.477 43.3899L27.0637 43.393L27.0741 41.4232ZM26.3349 41.4312C26.0961 41.4673 25.851 41.4861 25.6009 41.4861V43.4559C25.9499 43.4559 26.2934 43.4296 26.6294 43.3788L26.3349 41.4312ZM25.6009 41.4861H14.3813V43.4559H25.6009V41.4861ZM14.3813 41.4861C8.46883 41.4861 3.67581 36.6931 3.67581 30.7807H1.70608C1.70608 37.781 7.38098 43.4559 14.3813 43.4559V41.4861ZM2.69095 31.7655H12.5767V29.7958H2.69095V31.7655ZM13.5616 30.7807V28.9754H11.5918V30.7807H13.5616ZM13.5616 28.9754V27.2493H11.5918V28.9754H13.5616ZM13.5616 27.2493C13.5616 26.2899 13.6866 25.3611 13.9208 24.4778L12.0168 23.9731C11.7394 25.0196 11.5918 26.118 11.5918 27.2493H13.5616ZM11.7454 20.7056C10.9414 22.0981 11.1977 23.8093 12.2603 24.9096L13.6772 23.5413C13.2087 23.0562 13.0982 22.3018 13.4512 21.6904L11.7454 20.7056ZM12.0307 21.7702C11.6579 21.555 11.5302 21.0783 11.7454 20.7056L13.4512 21.6904C13.7799 21.1211 13.5849 20.3931 13.0155 20.0644L12.0307 21.7702ZM10.7425 16.9626C9.77061 18.6459 10.3474 20.7983 12.0307 21.7702L13.0155 20.0644C12.2743 19.6364 12.0204 18.6887 12.4483 17.9475L10.7425 16.9626ZM13.7831 15.2025C12.5731 15.2058 11.3932 15.8355 10.7425 16.9626L12.4483 17.9475C12.734 17.4527 13.2514 17.1737 13.7885 17.1722L13.7831 15.2025ZM15.5503 15.6744C14.9944 15.3535 14.3844 15.2008 13.783 15.2025L13.7886 17.1722C14.0517 17.1715 14.3186 17.2378 14.5654 17.3802L15.5503 15.6744ZM15.1528 15.5701C15.2886 15.5688 15.4266 15.603 15.5503 15.6744L14.5654 17.3803C14.755 17.4897 14.9652 17.5417 15.172 17.5397L15.1528 15.5701ZM14.4854 15.9597C14.6289 15.7112 14.8884 15.5729 15.1518 15.5701L15.173 17.5397C15.5768 17.5353 15.9724 17.3236 16.1912 16.9446L14.4854 15.9597ZM17.5367 14.1996C16.323 14.1992 15.1381 14.8293 14.4854 15.9597L16.1912 16.9446C16.4777 16.4484 16.9974 16.1692 17.5361 16.1693L17.5367 14.1996ZM19.2932 14.6715C18.7406 14.3525 18.1346 14.1997 17.5366 14.1996L17.5362 16.1693C17.7978 16.1694 18.063 16.2357 18.3083 16.3773L19.2932 14.6715ZM20.5618 15.9254C20.2634 15.4208 19.8345 14.984 19.2932 14.6715L18.3083 16.3773C18.5488 16.5162 18.736 16.7075 18.8665 16.9282L20.5618 15.9254ZM20.1021 17.332C20.1797 17.2987 20.2579 17.2663 20.3365 17.2348L19.6038 15.4065C19.5108 15.4437 19.4182 15.4821 19.3263 15.5215L20.1021 17.332ZM20.7562 16.9141L29.5646 5.24673L27.9926 4.05991L19.1842 15.7272L20.7562 16.9141ZM27.7938 4.65332V15.0536H29.7635V4.65332H27.7938Z" fill="white" mask="url(#path-1-outside-1_2057_30387)"/>
</g>
<path fill-rule="evenodd" clip-rule="evenodd" d="M28.7786 15.4805H30.7255L38.8996 4.65337L38.8996 15.4805V30.6395C38.8996 37.1634 33.5927 42.4424 27.0689 42.4081L26.4822 42.4051C26.1947 42.4485 25.9005 42.4711 25.6009 42.4711H14.3813C7.92491 42.4711 2.69095 37.2371 2.69095 30.7807H12.5767V28.9754V27.2493C12.5767 22.2958 15.6371 18.0571 19.9702 16.3207L28.7786 4.65337V15.4805Z" fill="#DFFA51"/>
<path fill-rule="evenodd" clip-rule="evenodd" d="M28.7787 15.4805H30.7255L38.8997 4.65337L38.8997 15.4805V30.6395C38.8997 37.1634 33.5928 42.4424 27.069 42.4081L26.4823 42.4051C26.1948 42.4485 25.9006 42.4711 25.601 42.4711H14.3814C7.925 42.4711 2.69104 37.2371 2.69104 30.7807H12.5768V28.9754V27.2493C12.5768 22.2958 15.6371 18.0571 19.9703 16.3207L28.7787 4.65337V15.4805Z" fill="url(#paint0_linear_2057_30387)"/>
<path fill-rule="evenodd" clip-rule="evenodd" d="M28.7787 15.4805H30.7255L38.8997 4.65337L38.8997 15.4805V30.6395C38.8997 37.1634 33.5928 42.4424 27.069 42.4081L26.4823 42.4051C26.1948 42.4485 25.9006 42.4711 25.601 42.4711H14.3814C7.925 42.4711 2.69104 37.2371 2.69104 30.7807H12.5768V28.9754V27.2493C12.5768 22.2958 15.6371 18.0571 19.9703 16.3207L28.7787 4.65337V15.4805Z" fill="url(#paint1_radial_2057_30387)"/>
<path fill-rule="evenodd" clip-rule="evenodd" d="M28.5029 4.65337L19.6835 16.5006V16.6116C15.7057 18.4998 12.9553 22.5534 12.9553 27.2493V28.9754V30.7807H2.77937C2.77937 37.2371 8.01331 42.4711 14.4697 42.4711H25.288C25.5934 42.4711 25.8933 42.4476 26.186 42.4025L27.0792 42.4073C33.6034 42.442 38.9108 37.1629 38.9108 30.6386V15.4805H38.4831V4.65337L30.423 15.4805H28.5029V4.65337Z" fill="url(#paint2_radial_2057_30387)"/>
<circle cx="26.2483" cy="28.2092" r="2.8049" fill="white"/>
<mask id="mask0_2057_30387" style="mask-type:alpha" maskUnits="userSpaceOnUse" x="23" y="25" width="7" height="7">
<circle cx="26.2483" cy="28.2092" r="2.8049" fill="white"/>
</mask>
<g mask="url(#mask0_2057_30387)">
<circle cx="26.9547" cy="28.2088" r="2.25569" fill="#191919"/>
</g>
<circle cx="19.1478" cy="28.2092" r="2.8049" fill="white"/>
<mask id="mask1_2057_30387" style="mask-type:alpha" maskUnits="userSpaceOnUse" x="16" y="25" width="6" height="7">
<circle cx="19.1478" cy="28.2092" r="2.8049" fill="white"/>
</mask>
<g mask="url(#mask1_2057_30387)">
<circle cx="19.8537" cy="28.2088" r="2.25569" fill="#191919"/>
</g>
<path fill-rule="evenodd" clip-rule="evenodd" d="M10.1835 34.9403C10.1835 35.1786 9.9903 35.3718 9.75198 35.3718C9.51365 35.3718 9.32045 35.1786 9.32045 34.9403C9.32045 34.702 9.51365 34.5088 9.75198 34.5088C9.9903 34.5088 10.1835 34.702 10.1835 34.9403ZM7.94769 34.9406C7.94769 35.1789 7.75449 35.3721 7.51616 35.3721C7.27784 35.3721 7.08464 35.1789 7.08464 34.9406C7.08464 34.7022 7.27784 34.509 7.51616 34.509C7.75449 34.509 7.94769 34.7022 7.94769 34.9406ZM8.61444 36.9417C8.85276 36.9417 9.04596 36.7485 9.04596 36.5102C9.04596 36.2719 8.85276 36.0787 8.61444 36.0787C8.37611 36.0787 8.18292 36.2719 8.18292 36.5102C8.18292 36.7485 8.37611 36.9417 8.61444 36.9417Z" fill="#191919"/>
<mask id="path-14-inside-2_2057_30387" fill="white">
<path d="M2.69095 30.3486H5.3163C5.75128 30.3486 6.1039 30.7013 6.1039 31.1362C6.1039 32.5862 4.9285 33.7616 3.47855 33.7616H2.69095V30.3486Z"/>
</mask>
<path d="M2.69095 30.3486H5.3163C5.75128 30.3486 6.1039 30.7013 6.1039 31.1362C6.1039 32.5862 4.9285 33.7616 3.47855 33.7616H2.69095V30.3486Z" fill="#191919"/>
<path d="M2.69095 30.3486H6.1039H2.69095ZM6.36411 31.3271C6.36411 32.8154 5.15767 34.0218 3.66945 34.0218H2.69095V33.5014H3.47855C4.78479 33.5014 5.8437 32.4425 5.8437 31.1362L6.36411 31.3271ZM2.69095 33.7616V30.3486V33.7616ZM5.38562 30.3486C5.92603 30.3486 6.36411 30.7867 6.36411 31.3271V31.3271C6.36411 32.8154 5.15767 34.0218 3.66945 34.0218L3.47855 33.5014C4.78479 33.5014 5.8437 32.4425 5.8437 31.1362V31.1362C5.8437 30.7013 5.60757 30.3486 5.3163 30.3486H5.38562Z" fill="white" mask="url(#path-14-inside-2_2057_30387)"/>
<path d="M24.2016 34.8386C24.2016 35.4367 23.964 36.0103 23.5411 36.4332C23.1181 36.8562 22.5445 37.0937 21.9464 37.0937C21.3483 37.0938 20.7747 36.8562 20.3518 36.4332C19.9289 36.0103 19.6913 35.4367 19.6913 34.8386" stroke="#191919" stroke-width="0.520419" stroke-linecap="round"/>
<path d="M33.3024 16.2192C32.0902 16.9191 31.6748 18.4691 32.3747 19.6814C32.4315 19.7797 32.3978 19.9054 32.2995 19.9621C31.0872 20.662 30.6719 22.2121 31.3718 23.4243C32.0717 24.6366 33.6218 25.0519 34.834 24.3521C34.9323 24.2953 35.058 24.329 35.1147 24.4272C35.8146 25.6395 37.3647 26.0549 38.577 25.355C39.7892 24.6551 40.2046 23.105 39.5047 21.8927C39.4479 21.7944 39.4816 21.6688 39.5799 21.612C40.7921 20.9121 41.2075 19.362 40.5076 18.1498C39.8077 16.9375 38.2576 16.5222 37.0453 17.2221C36.9471 17.2788 36.8214 17.2452 36.7646 17.1469C36.0648 15.9346 34.5147 15.5193 33.3024 16.2192Z" fill="white"/>
<path opacity="0.9" d="M33.3024 16.2192C32.0902 16.9191 31.6748 18.4691 32.3747 19.6814C32.4315 19.7797 32.3978 19.9054 32.2995 19.9621C31.0872 20.662 30.6719 22.2121 31.3718 23.4243C32.0717 24.6366 33.6218 25.0519 34.834 24.3521C34.9323 24.2953 35.058 24.329 35.1147 24.4272C35.8146 25.6395 37.3647 26.0549 38.577 25.355C39.7892 24.6551 40.2046 23.105 39.5047 21.8927C39.4479 21.7944 39.4816 21.6688 39.5799 21.612C40.7921 20.9121 41.2075 19.362 40.5076 18.1498C39.8077 16.9375 38.2576 16.5222 37.0453 17.2221C36.9471 17.2788 36.8214 17.2452 36.7646 17.1469C36.0648 15.9346 34.5147 15.5193 33.3024 16.2192Z" fill="url(#paint3_linear_2057_30387)"/>
<ellipse opacity="0.9" cx="35.9641" cy="20.8312" rx="1.83195" ry="1.74868" transform="rotate(15 35.9641 20.8312)" fill="url(#paint4_linear_2057_30387)"/>
<path d="M22.3216 15.6707C21.3318 16.6605 21.3318 18.2653 22.3216 19.2551C22.4019 19.3353 22.4019 19.4655 22.3216 19.5457C21.3318 20.5355 21.3318 22.1403 22.3216 23.1301C23.3114 24.1199 24.9162 24.1199 25.906 23.1301C25.9863 23.0498 26.1164 23.0498 26.1966 23.13C27.1864 24.1198 28.7912 24.1199 29.781 23.1301C30.7708 22.1403 30.7708 20.5355 29.781 19.5457C29.7007 19.4654 29.7007 19.3353 29.781 19.2551C30.7708 18.2653 30.7708 16.6605 29.781 15.6707C28.7912 14.6809 27.1864 14.6809 26.1966 15.6707C26.1164 15.751 25.9863 15.751 25.906 15.6707C24.9162 14.6809 23.3114 14.6809 22.3216 15.6707Z" fill="white"/>
<path opacity="0.9" d="M22.3216 15.6707C21.3318 16.6605 21.3318 18.2653 22.3216 19.2551C22.4019 19.3353 22.4019 19.4655 22.3216 19.5457C21.3318 20.5355 21.3318 22.1403 22.3216 23.1301C23.3114 24.1199 24.9162 24.1199 25.906 23.1301C25.9863 23.0498 26.1164 23.0498 26.1966 23.13C27.1864 24.1198 28.7912 24.1199 29.781 23.1301C30.7708 22.1403 30.7708 20.5355 29.781 19.5457C29.7007 19.4654 29.7007 19.3353 29.781 19.2551C30.7708 18.2653 30.7708 16.6605 29.781 15.6707C28.7912 14.6809 27.1864 14.6809 26.1966 15.6707C26.1164 15.751 25.9863 15.751 25.906 15.6707C24.9162 14.6809 23.3114 14.6809 22.3216 15.6707Z" fill="url(#paint5_linear_2057_30387)"/>
<ellipse opacity="0.9" cx="26.0864" cy="19.4342" rx="1.83195" ry="1.74868" fill="url(#paint6_linear_2057_30387)"/>
<path d="M11.5957 17.4565C10.8958 18.6688 11.3111 20.2189 12.5234 20.9187C12.6217 20.9755 12.6553 21.1012 12.5986 21.1995C11.8987 22.4117 12.314 23.9618 13.5263 24.6617C14.7385 25.3616 16.2886 24.9462 16.9885 23.734C17.0453 23.6357 17.1709 23.602 17.2692 23.6588C18.4815 24.3587 20.0316 23.9433 20.7315 22.7311C21.4313 21.5188 21.016 19.9687 19.8037 19.2688C19.7055 19.2121 19.6718 19.0864 19.7285 18.9881C20.4284 17.7759 20.0131 16.2258 18.8008 15.5259C17.5886 14.826 16.0385 15.2414 15.3386 16.4536C15.2819 16.5519 15.1562 16.5856 15.0579 16.5288C13.8457 15.8289 12.2956 16.2443 11.5957 17.4565Z" fill="white"/>
<path opacity="0.9" d="M11.5955 17.4565C10.8956 18.6688 11.3109 20.2189 12.5232 20.9187C12.6214 20.9755 12.6551 21.1012 12.5984 21.1995C11.8985 22.4117 12.3138 23.9618 13.5261 24.6617C14.7383 25.3616 16.2884 24.9462 16.9883 23.734C17.0451 23.6357 17.1707 23.602 17.269 23.6588C18.4813 24.3587 20.0313 23.9433 20.7312 22.7311C21.4311 21.5188 21.0158 19.9687 19.8035 19.2688C19.7053 19.2121 19.6716 19.0864 19.7283 18.9881C20.4282 17.7759 20.0129 16.2258 18.8006 15.5259C17.5884 14.826 16.0383 15.2414 15.3384 16.4536C15.2816 16.5519 15.156 16.5856 15.0577 16.5288C13.8454 15.8289 12.2953 16.2443 11.5955 17.4565Z" fill="url(#paint7_linear_2057_30387)"/>
<ellipse opacity="0.9" cx="16.2063" cy="20.1192" rx="1.83195" ry="1.74868" transform="rotate(-15 16.2063 20.1192)" fill="url(#paint8_linear_2057_30387)"/>
<defs>
<filter id="filter0_d_2057_30387" x="0.130302" y="0.925976" width="43.2781" height="44.8938" filterUnits="userSpaceOnUse" color-interpolation-filters="sRGB">
<feFlood flood-opacity="0" result="BackgroundImageFix"/>
<feColorMatrix in="SourceAlpha" type="matrix" values="0 0 0 0 0 0 0 0 0 0 0 0 0 0 0 0 0 0 127 0" result="hardAlpha"/>
<feOffset dy="0.787892"/>
<feGaussianBlur stdDeviation="0.787892"/>
<feComposite in2="hardAlpha" operator="out"/>
<feColorMatrix type="matrix" values="0 0 0 0 0 0 0 0 0 0 0 0 0 0 0 0 0 0 0.25 0"/>
<feBlend mode="normal" in2="BackgroundImageFix" result="effect1_dropShadow_2057_30387"/>
<feBlend mode="normal" in="SourceGraphic" in2="effect1_dropShadow_2057_30387" result="shape"/>
</filter>
<linearGradient id="paint0_linear_2057_30387" x1="20.7954" y1="4.65332" x2="20.7954" y2="42.471" gradientUnits="userSpaceOnUse">
<stop offset="0.19272" stop-color="#191919"/>
<stop offset="0.29133" stop-color="#00D8ED" stop-opacity="0"/>
</linearGradient>
<radialGradient id="paint1_radial_2057_30387" cx="0" cy="0" r="1" gradientUnits="userSpaceOnUse" gradientTransform="translate(2.69104 30.8481) rotate(-0.274146) scale(36.2562 34.7148)">
<stop offset="0.152306" stop-color="#191919"/>
<stop offset="0.283418" stop-color="#00D8ED" stop-opacity="0"/>
</radialGradient>
<radialGradient id="paint2_radial_2057_30387" cx="0" cy="0" r="1" gradientUnits="userSpaceOnUse" gradientTransform="translate(2.77937 8.55652) rotate(43.15) scale(49.5891 47.4867)">
<stop offset="0.786999" stop-color="white" stop-opacity="0"/>
<stop offset="1" stop-color="white"/>
</radialGradient>
<linearGradient id="paint3_linear_2057_30387" x1="33.3024" y1="16.2192" x2="38.577" y2="25.355" gradientUnits="userSpaceOnUse">
<stop stop-color="#FF3464"/>
<stop offset="1" stop-color="#774DFF"/>
</linearGradient>
<linearGradient id="paint4_linear_2057_30387" x1="35.9641" y1="19.0825" x2="35.9291" y2="37.6231" gradientUnits="userSpaceOnUse">
<stop offset="0.100372" stop-color="white"/>
<stop offset="0.36659" stop-color="#00D8ED"/>
</linearGradient>
<linearGradient id="paint5_linear_2057_30387" x1="22.3216" y1="15.6707" x2="29.781" y2="23.1301" gradientUnits="userSpaceOnUse">
<stop stop-color="#FF630D"/>
<stop offset="1" stop-color="#FF3464"/>
</linearGradient>
<linearGradient id="paint6_linear_2057_30387" x1="26.0864" y1="17.6855" x2="26.0514" y2="36.2262" gradientUnits="userSpaceOnUse">
<stop offset="0.100372" stop-color="#FFE353"/>
<stop offset="0.36659" stop-color="#FF3464"/>
</linearGradient>
<linearGradient id="paint7_linear_2057_30387" x1="11.5955" y1="17.4565" x2="20.7312" y2="22.7311" gradientUnits="userSpaceOnUse">
<stop stop-color="#FFE353"/>
<stop offset="0.994792" stop-color="#FF630D"/>
</linearGradient>
<linearGradient id="paint8_linear_2057_30387" x1="16.2063" y1="18.3706" x2="16.1713" y2="36.9112" gradientUnits="userSpaceOnUse">
<stop offset="0.100372" stop-color="#FF630D"/>
<stop offset="0.36659" stop-color="#FF3464"/>
</linearGradient>
</defs>
</svg>
